G04 #@! TF.FileFunction,Soldermask,Top*
%FSLAX46Y46*%
G04 Gerber Fmt 4.6, Leading zero omitted, Abs format (unit mm)*
G04 Created by KiCad (PCBNEW (2014-12-04 BZR 5312)-product) date 1/18/2015 1:46:40 PM*
%MOMM*%
G01*
G04 APERTURE LIST*
%ADD10C,0.100000*%
%ADD11R,0.900000X1.400000*%
%ADD12R,0.753200X1.403200*%
%ADD13R,0.903200X1.403200*%
%ADD14R,0.599440X0.398780*%
%ADD15R,0.398780X0.599440*%
%ADD16R,0.600000X0.400000*%
%ADD17R,0.570000X1.020000*%
%ADD18R,0.900800X0.400800*%
%ADD19R,0.400800X0.850800*%
%ADD20O,0.368920X0.920000*%
%ADD21O,0.920000X0.368920*%
%ADD22R,2.453200X2.453200*%
%ADD23C,1.083200*%
%ADD24R,2.032000X2.032000*%
%ADD25O,2.032000X2.032000*%
%ADD26R,2.000000X1.200000*%
%ADD27C,1.117600*%
%ADD28R,0.420000X0.600000*%
%ADD29R,0.702400X1.152400*%
%ADD30C,1.644000*%
%ADD31R,0.400000X0.600000*%
%ADD32C,0.685800*%
G04 APERTURE END LIST*
D10*
D11*
X51511200Y-38676580D03*
D12*
X50561200Y-38676580D03*
D13*
X49611200Y-38666580D03*
D14*
X51876960Y-47312580D03*
X51876960Y-48211740D03*
D15*
X53534500Y-37924880D03*
X52635340Y-37924880D03*
D14*
X52882800Y-47312580D03*
X52882800Y-48211740D03*
X68689580Y-28451400D03*
X68689580Y-29350560D03*
D15*
X69545520Y-55800100D03*
X68646360Y-55800100D03*
X67719260Y-50529600D03*
X68618420Y-50529600D03*
X47425120Y-56354700D03*
X48324280Y-56354700D03*
X47399720Y-50665100D03*
X48298880Y-50665100D03*
D14*
X69677280Y-44808140D03*
X69677280Y-45707300D03*
X70111620Y-42847260D03*
X70111620Y-43746420D03*
D15*
X67378580Y-39944040D03*
X68277740Y-39944040D03*
D14*
X62499240Y-42811700D03*
X62499240Y-41912540D03*
X49884920Y-47375300D03*
X49884920Y-48274460D03*
D16*
X49884920Y-46574880D03*
X49884920Y-45674880D03*
X59349640Y-37583960D03*
X59349640Y-38483960D03*
D17*
X67660840Y-54441200D03*
X68610840Y-54441200D03*
X69560840Y-54441200D03*
X69560840Y-51741200D03*
X67660840Y-51741200D03*
D18*
X64015970Y-42321670D03*
X64015970Y-42821670D03*
X64015970Y-43321670D03*
X64015970Y-43821670D03*
X64015970Y-44321670D03*
X64015970Y-44821670D03*
D19*
X64745970Y-45561670D03*
X65245970Y-45561670D03*
X65745970Y-45561670D03*
X66245970Y-45561670D03*
X66745970Y-45561670D03*
X67245970Y-45561670D03*
D18*
X68045970Y-44821670D03*
D19*
X64745970Y-41561670D03*
X65245970Y-41561670D03*
X65745970Y-41561670D03*
X66245970Y-41561670D03*
X66745970Y-41561670D03*
X67245970Y-41561670D03*
D18*
X68045970Y-44321670D03*
X68045970Y-43821670D03*
X68045970Y-43321670D03*
X68045970Y-42821670D03*
X68045970Y-42321670D03*
D20*
X54067900Y-40823200D03*
X53617900Y-40823200D03*
X53167900Y-40823200D03*
X52717900Y-40823200D03*
X52267900Y-40823200D03*
X51817900Y-40823200D03*
X51367900Y-40823200D03*
D21*
X50717900Y-41473200D03*
X50717900Y-41923200D03*
X50717900Y-42373200D03*
X50717900Y-42823200D03*
X50717900Y-43273200D03*
X50717900Y-43723200D03*
X50717900Y-44173200D03*
D20*
X51367900Y-44823200D03*
X51817900Y-44823200D03*
X52267900Y-44823200D03*
X52717900Y-44823200D03*
X53167900Y-44823200D03*
X53617900Y-44823200D03*
X54067900Y-44823200D03*
D21*
X54717900Y-44173200D03*
X54717900Y-43723200D03*
X54717900Y-43273200D03*
X54717900Y-42823200D03*
X54717900Y-42373200D03*
X54717900Y-41923200D03*
X54717900Y-41473200D03*
D22*
X52717900Y-42823200D03*
D15*
X48991520Y-40827960D03*
X48092360Y-40827960D03*
D16*
X48023780Y-38660920D03*
X48023780Y-39560920D03*
D23*
X47384920Y-45724880D03*
X47384920Y-44624880D03*
X47384920Y-46824880D03*
X70335140Y-30429200D03*
X57184920Y-46124880D03*
X61184920Y-43724880D03*
X47384920Y-43524880D03*
D24*
X52084920Y-55594880D03*
D25*
X52084920Y-53054880D03*
D23*
X67246500Y-48143160D03*
X68668900Y-48112680D03*
X47384920Y-48824880D03*
D26*
X61462920Y-35996880D03*
X61462920Y-32296880D03*
X67662920Y-32296880D03*
X67662920Y-35996880D03*
D27*
X60635240Y-28883200D03*
X61905240Y-28883200D03*
X63175240Y-28883200D03*
X64445240Y-28883200D03*
X65715240Y-28883200D03*
X66985240Y-28883200D03*
D28*
X59207400Y-45648920D03*
X59207400Y-43748920D03*
X59857400Y-45648920D03*
X59857400Y-43748920D03*
X58557400Y-43748920D03*
X58557400Y-45648920D03*
D29*
X47397180Y-54815460D03*
X48347180Y-54815460D03*
X49297180Y-54815460D03*
X49297180Y-52115460D03*
X47397180Y-52115460D03*
D30*
X55984920Y-34424880D03*
X53444920Y-34424880D03*
X50904920Y-34424880D03*
X48364920Y-34424880D03*
X55984920Y-31884880D03*
X53444920Y-31884880D03*
X50904920Y-31884880D03*
X48364920Y-31884880D03*
X55984920Y-29344880D03*
X53444920Y-29344880D03*
X50904920Y-29344880D03*
X48364920Y-29344880D03*
X56784920Y-50524880D03*
X59324920Y-50524880D03*
X61864920Y-50524880D03*
X64404920Y-50524880D03*
X56784920Y-53064880D03*
X59324920Y-53064880D03*
X61864920Y-53064880D03*
X64404920Y-53064880D03*
X56784920Y-55604880D03*
X59324920Y-55604880D03*
X61864920Y-55604880D03*
X64404920Y-55604880D03*
D16*
X57246520Y-37594120D03*
X57246520Y-38494120D03*
D31*
X59219680Y-42636440D03*
X60119680Y-42636440D03*
X59212900Y-46708060D03*
X58312900Y-46708060D03*
D16*
X58298080Y-37589040D03*
X58298080Y-38489040D03*
D32*
X50937160Y-46581060D03*
X53314810Y-39224880D03*
X55135780Y-37581840D03*
X61813440Y-33769300D03*
X65615820Y-32842200D03*
X68940680Y-38701980D03*
X64129920Y-40667940D03*
X64058800Y-46476920D03*
X54175660Y-47990760D03*
X49649380Y-36888420D03*
X53481700Y-42062400D03*
X52717900Y-42823200D03*
X53456300Y-43561000D03*
X51983100Y-43561000D03*
X51983100Y-42087800D03*
X56578500Y-42575480D03*
X58211730Y-41607740D03*
X67520820Y-38948360D03*
X57741820Y-43152010D03*
X60622180Y-45651420D03*
X56525160Y-39657020D03*
X59146440Y-36677600D03*
X55882540Y-38839140D03*
X59723020Y-35859720D03*
X61770260Y-45072300D03*
X54983380Y-40157400D03*
X68353940Y-41305480D03*
X65913000Y-39923720D03*
X58691780Y-40149780D03*
M02*
