G04 #@! TF.FileFunction,Legend,Bot*
%FSLAX46Y46*%
G04 Gerber Fmt 4.6, Leading zero omitted, Abs format (unit mm)*
G04 Created by KiCad (PCBNEW (2014-12-04 BZR 5312)-product) date 1/7/2015 12:55:41 AM*
%MOMM*%
G01*
G04 APERTURE LIST*
%ADD10C,0.100000*%
%ADD11C,0.190500*%
%ADD12C,0.300000*%
G04 APERTURE END LIST*
D10*
D11*
X68426874Y-50580834D02*
X68426874Y-49818834D01*
X68608302Y-49818834D01*
X68717159Y-49855120D01*
X68789731Y-49927691D01*
X68826016Y-50000263D01*
X68862302Y-50145406D01*
X68862302Y-50254263D01*
X68826016Y-50399406D01*
X68789731Y-50471977D01*
X68717159Y-50544549D01*
X68608302Y-50580834D01*
X68426874Y-50580834D01*
X69515445Y-50580834D02*
X69515445Y-50181691D01*
X69479159Y-50109120D01*
X69406588Y-50072834D01*
X69261445Y-50072834D01*
X69188874Y-50109120D01*
X69515445Y-50544549D02*
X69442874Y-50580834D01*
X69261445Y-50580834D01*
X69188874Y-50544549D01*
X69152588Y-50471977D01*
X69152588Y-50399406D01*
X69188874Y-50326834D01*
X69261445Y-50290549D01*
X69442874Y-50290549D01*
X69515445Y-50254263D01*
X69878303Y-50580834D02*
X69878303Y-50072834D01*
X69878303Y-50145406D02*
X69914588Y-50109120D01*
X69987160Y-50072834D01*
X70096017Y-50072834D01*
X70168588Y-50109120D01*
X70204874Y-50181691D01*
X70204874Y-50580834D01*
X70204874Y-50181691D02*
X70241160Y-50109120D01*
X70313731Y-50072834D01*
X70422588Y-50072834D01*
X70495160Y-50109120D01*
X70531445Y-50181691D01*
X70531445Y-50580834D01*
X70894303Y-50580834D02*
X70894303Y-50072834D01*
X70894303Y-49818834D02*
X70858017Y-49855120D01*
X70894303Y-49891406D01*
X70930588Y-49855120D01*
X70894303Y-49818834D01*
X70894303Y-49891406D01*
X71583731Y-50580834D02*
X71583731Y-50181691D01*
X71547445Y-50109120D01*
X71474874Y-50072834D01*
X71329731Y-50072834D01*
X71257160Y-50109120D01*
X71583731Y-50544549D02*
X71511160Y-50580834D01*
X71329731Y-50580834D01*
X71257160Y-50544549D01*
X71220874Y-50471977D01*
X71220874Y-50399406D01*
X71257160Y-50326834D01*
X71329731Y-50290549D01*
X71511160Y-50290549D01*
X71583731Y-50254263D01*
X71946589Y-50072834D02*
X71946589Y-50580834D01*
X71946589Y-50145406D02*
X71982874Y-50109120D01*
X72055446Y-50072834D01*
X72164303Y-50072834D01*
X72236874Y-50109120D01*
X72273160Y-50181691D01*
X72273160Y-50580834D01*
X73615731Y-49855120D02*
X73543160Y-49818834D01*
X73434303Y-49818834D01*
X73325446Y-49855120D01*
X73252874Y-49927691D01*
X73216589Y-50000263D01*
X73180303Y-50145406D01*
X73180303Y-50254263D01*
X73216589Y-50399406D01*
X73252874Y-50471977D01*
X73325446Y-50544549D01*
X73434303Y-50580834D01*
X73506874Y-50580834D01*
X73615731Y-50544549D01*
X73652017Y-50508263D01*
X73652017Y-50254263D01*
X73506874Y-50254263D01*
X74087446Y-50580834D02*
X74014874Y-50544549D01*
X73978589Y-50471977D01*
X73978589Y-49818834D01*
X74377732Y-50580834D02*
X74377732Y-50072834D01*
X74377732Y-49818834D02*
X74341446Y-49855120D01*
X74377732Y-49891406D01*
X74414017Y-49855120D01*
X74377732Y-49818834D01*
X74377732Y-49891406D01*
X74740589Y-50072834D02*
X74740589Y-50580834D01*
X74740589Y-50145406D02*
X74776874Y-50109120D01*
X74849446Y-50072834D01*
X74958303Y-50072834D01*
X75030874Y-50109120D01*
X75067160Y-50181691D01*
X75067160Y-50580834D01*
X75538875Y-50580834D02*
X75466303Y-50544549D01*
X75430018Y-50508263D01*
X75393732Y-50435691D01*
X75393732Y-50217977D01*
X75430018Y-50145406D01*
X75466303Y-50109120D01*
X75538875Y-50072834D01*
X75647732Y-50072834D01*
X75720303Y-50109120D01*
X75756589Y-50145406D01*
X75792875Y-50217977D01*
X75792875Y-50435691D01*
X75756589Y-50508263D01*
X75720303Y-50544549D01*
X75647732Y-50580834D01*
X75538875Y-50580834D01*
X76119447Y-50072834D02*
X76119447Y-50725977D01*
X76083161Y-50798549D01*
X76010589Y-50834834D01*
X75974304Y-50834834D01*
X76119447Y-49818834D02*
X76083161Y-49855120D01*
X76119447Y-49891406D01*
X76155732Y-49855120D01*
X76119447Y-49818834D01*
X76119447Y-49891406D01*
X76772589Y-50544549D02*
X76700018Y-50580834D01*
X76554875Y-50580834D01*
X76482304Y-50544549D01*
X76446018Y-50471977D01*
X76446018Y-50181691D01*
X76482304Y-50109120D01*
X76554875Y-50072834D01*
X76700018Y-50072834D01*
X76772589Y-50109120D01*
X76808875Y-50181691D01*
X76808875Y-50254263D01*
X76446018Y-50326834D01*
X77462018Y-50544549D02*
X77389447Y-50580834D01*
X77244304Y-50580834D01*
X77171732Y-50544549D01*
X77135447Y-50508263D01*
X77099161Y-50435691D01*
X77099161Y-50217977D01*
X77135447Y-50145406D01*
X77171732Y-50109120D01*
X77244304Y-50072834D01*
X77389447Y-50072834D01*
X77462018Y-50109120D01*
X77788590Y-50580834D02*
X77788590Y-49818834D01*
X77861161Y-50290549D02*
X78078875Y-50580834D01*
X78078875Y-50072834D02*
X77788590Y-50363120D01*
X78405447Y-50580834D02*
X78405447Y-50072834D01*
X78405447Y-49818834D02*
X78369161Y-49855120D01*
X78405447Y-49891406D01*
X78441732Y-49855120D01*
X78405447Y-49818834D01*
X78405447Y-49891406D01*
X55350229Y-29072114D02*
X55604229Y-29834114D01*
X55858229Y-29072114D01*
X56112230Y-29761543D02*
X56148515Y-29797829D01*
X56112230Y-29834114D01*
X56075944Y-29797829D01*
X56112230Y-29761543D01*
X56112230Y-29834114D01*
X56620229Y-29072114D02*
X56692801Y-29072114D01*
X56765372Y-29108400D01*
X56801658Y-29144686D01*
X56837944Y-29217257D01*
X56874229Y-29362400D01*
X56874229Y-29543829D01*
X56837944Y-29688971D01*
X56801658Y-29761543D01*
X56765372Y-29797829D01*
X56692801Y-29834114D01*
X56620229Y-29834114D01*
X56547658Y-29797829D01*
X56511372Y-29761543D01*
X56475087Y-29688971D01*
X56438801Y-29543829D01*
X56438801Y-29362400D01*
X56475087Y-29217257D01*
X56511372Y-29144686D01*
X56547658Y-29108400D01*
X56620229Y-29072114D01*
X57200801Y-29761543D02*
X57237086Y-29797829D01*
X57200801Y-29834114D01*
X57164515Y-29797829D01*
X57200801Y-29761543D01*
X57200801Y-29834114D01*
X57962800Y-29834114D02*
X57527372Y-29834114D01*
X57745086Y-29834114D02*
X57745086Y-29072114D01*
X57672515Y-29180971D01*
X57599943Y-29253543D01*
X57527372Y-29289829D01*
D12*
X53546417Y-28629349D02*
X53403560Y-28557920D01*
X53260703Y-28415063D01*
X53046417Y-28200777D01*
X52903560Y-28129349D01*
X52760703Y-28129349D01*
X52832131Y-28486491D02*
X52689274Y-28415063D01*
X52546417Y-28272206D01*
X52474988Y-27986491D01*
X52474988Y-27486491D01*
X52546417Y-27200777D01*
X52689274Y-27057920D01*
X52832131Y-26986491D01*
X53117845Y-26986491D01*
X53260703Y-27057920D01*
X53403560Y-27200777D01*
X53474988Y-27486491D01*
X53474988Y-27986491D01*
X53403560Y-28272206D01*
X53260703Y-28415063D01*
X53117845Y-28486491D01*
X52832131Y-28486491D01*
X54117846Y-28486491D02*
X54117846Y-26986491D01*
X54617846Y-28057920D01*
X55117846Y-26986491D01*
X55117846Y-28486491D01*
X56332132Y-27700777D02*
X56546418Y-27772206D01*
X56617846Y-27843634D01*
X56689275Y-27986491D01*
X56689275Y-28200777D01*
X56617846Y-28343634D01*
X56546418Y-28415063D01*
X56403560Y-28486491D01*
X55832132Y-28486491D01*
X55832132Y-26986491D01*
X56332132Y-26986491D01*
X56474989Y-27057920D01*
X56546418Y-27129349D01*
X56617846Y-27272206D01*
X56617846Y-27415063D01*
X56546418Y-27557920D01*
X56474989Y-27629349D01*
X56332132Y-27700777D01*
X55832132Y-27700777D01*
X57117846Y-26986491D02*
X57974989Y-26986491D01*
X57546418Y-28486491D02*
X57546418Y-26986491D01*
M02*
