G04 #@! TF.FileFunction,Copper,L2,Bot,Signal*
%FSLAX46Y46*%
G04 Gerber Fmt 4.6, Leading zero omitted, Abs format (unit mm)*
G04 Created by KiCad (PCBNEW (2014-12-04 BZR 5312)-product) date 1/7/2015 12:55:41 AM*
%MOMM*%
G01*
G04 APERTURE LIST*
%ADD10C,0.100000*%
%ADD11C,0.400000*%
%ADD12C,0.883200*%
%ADD13C,1.000000*%
%ADD14R,2.032000X2.032000*%
%ADD15O,2.032000X2.032000*%
%ADD16C,0.685800*%
%ADD17C,0.685799*%
%ADD18C,0.863600*%
%ADD19C,0.304800*%
%ADD20C,0.203200*%
%ADD21C,0.609600*%
%ADD22C,0.254000*%
%ADD23C,0.152400*%
G04 APERTURE END LIST*
D10*
D11*
X69657840Y-40212040D03*
X69657840Y-38712040D03*
X70657840Y-40212040D03*
X70657840Y-38712040D03*
X70137840Y-39462040D03*
X64580800Y-31297000D03*
X63080800Y-31297000D03*
X64580800Y-30297000D03*
X63080800Y-30297000D03*
X63830800Y-30817000D03*
X69210800Y-31205200D03*
X69210800Y-29705200D03*
X70210800Y-31205200D03*
X70210800Y-29705200D03*
X69690800Y-30455200D03*
X69210800Y-35650200D03*
X69210800Y-34150200D03*
X70210800Y-35650200D03*
X70210800Y-34150200D03*
X69690800Y-34900200D03*
D12*
X59715400Y-51282600D03*
X58623200Y-50647600D03*
X59740800Y-50063400D03*
X59740800Y-48793400D03*
X52684600Y-48311800D03*
X52684600Y-47161800D03*
X53390800Y-51231800D03*
X63144400Y-43307000D03*
X64744600Y-41376600D03*
X65252600Y-45034200D03*
X65303400Y-48209200D03*
X52684600Y-45961800D03*
D13*
X63673600Y-27228800D03*
X65173600Y-27228800D03*
X75539600Y-38273600D03*
X75539600Y-39773600D03*
X75260200Y-33701600D03*
X75260200Y-35201600D03*
X72411200Y-27518360D03*
X73911200Y-27518360D03*
D14*
X77368400Y-29565600D03*
D15*
X77368400Y-27025600D03*
D12*
X65227200Y-52349400D03*
X63997840Y-52349400D03*
X62760860Y-52354480D03*
D16*
X63628504Y-41911568D03*
X58039000Y-41910000D03*
X61595000Y-43180000D03*
X55321200Y-51892200D03*
D17*
X53238400Y-41732200D03*
D16*
X73533000Y-44043600D03*
X67716400Y-49885600D03*
X73558400Y-46177200D03*
X69773800Y-48514000D03*
X59334400Y-41224200D03*
X53086000Y-30708600D03*
X61976000Y-29108400D03*
X71094600Y-32816800D03*
X70916800Y-28549600D03*
X67691000Y-39217600D03*
X71399400Y-37134800D03*
X59588400Y-31013400D03*
X74803000Y-51562000D03*
X67144910Y-43230800D03*
X63562000Y-38109000D03*
X67123637Y-30217140D03*
X57048400Y-46101000D03*
X56284600Y-46861800D03*
X57023000Y-47599600D03*
X55549800Y-47599600D03*
X55549800Y-46126400D03*
X61391800Y-37744400D03*
X60712000Y-38434000D03*
X61391800Y-39116000D03*
X60020200Y-39116000D03*
X60020200Y-37744400D03*
X55900320Y-35874960D03*
X71361300Y-41191180D03*
X51127660Y-48849280D03*
X50927000Y-39903400D03*
X63246000Y-33477200D03*
X62636400Y-41275000D03*
D18*
X50165000Y-33782000D03*
X62357000Y-25908000D03*
D16*
X62865000Y-47244000D03*
X66929000Y-47752000D03*
X57861200Y-33070800D03*
X56337200Y-33070800D03*
X57404000Y-32181800D03*
X55016400Y-32664400D03*
X62699870Y-40084591D03*
X58712000Y-36459000D03*
X67301290Y-38269090D03*
X67233800Y-36576000D03*
X67132200Y-34518600D03*
X67259200Y-32943800D03*
X62255400Y-33197800D03*
X68300600Y-28346400D03*
X58293000Y-43967400D03*
X61722000Y-47091600D03*
X59918600Y-47294800D03*
X59512200Y-42468800D03*
X61087000Y-41490870D03*
X66598800Y-31775400D03*
X65473580Y-33258760D03*
X64239140Y-33512760D03*
X66001880Y-42341800D03*
X67424320Y-42316400D03*
X66852885Y-39204863D03*
D17*
X66868040Y-40652700D03*
D16*
X73888600Y-39700200D03*
X75387200Y-41198800D03*
X61366400Y-28194000D03*
X64516000Y-28186380D03*
X74117200Y-31800800D03*
X73055480Y-30398720D03*
X74117200Y-36982400D03*
X73152000Y-35572680D03*
X59004200Y-44627800D03*
X71986140Y-47411640D03*
D19*
X62863432Y-41911568D02*
X63143571Y-41911568D01*
X61595000Y-43180000D02*
X62863432Y-41911568D01*
X63143571Y-41911568D02*
X63628504Y-41911568D01*
X61595000Y-43180000D02*
X59264802Y-43180000D01*
X59264802Y-43180000D02*
X58039000Y-41954198D01*
X58039000Y-41954198D02*
X58039000Y-41910000D01*
D20*
X56284600Y-46861800D02*
X57045400Y-46101000D01*
X57045400Y-46101000D02*
X57048400Y-46101000D01*
X56285200Y-46861800D02*
X57023000Y-47599600D01*
X56284600Y-46861800D02*
X56285200Y-46861800D01*
X56284600Y-46864800D02*
X55549800Y-47599600D01*
X56284600Y-46861800D02*
X56284600Y-46864800D01*
X56284600Y-46861200D02*
X55549800Y-46126400D01*
X56284600Y-46861800D02*
X56284600Y-46861200D01*
X60712000Y-38434000D02*
X60708200Y-38430200D01*
X60708200Y-38430200D02*
X60708200Y-38428000D01*
X60708200Y-38428000D02*
X61391800Y-37744400D01*
X60712000Y-38436200D02*
X61391800Y-39116000D01*
X60712000Y-38434000D02*
X60712000Y-38436200D01*
X60702200Y-38434000D02*
X60020200Y-39116000D01*
X60712000Y-38434000D02*
X60702200Y-38434000D01*
X60709800Y-38434000D02*
X60020200Y-37744400D01*
X60712000Y-38434000D02*
X60709800Y-38434000D01*
X64018484Y-41275000D02*
X62636400Y-41275000D01*
X64120084Y-41376600D02*
X64018484Y-41275000D01*
X64744600Y-41376600D02*
X64120084Y-41376600D01*
D21*
X51435000Y-25908000D02*
X50165000Y-27178000D01*
X51435000Y-25908000D02*
X62357000Y-25908000D01*
X50165000Y-33782000D02*
X50165000Y-27178000D01*
D19*
X66929000Y-47752000D02*
X66421000Y-47244000D01*
X66421000Y-47244000D02*
X62865000Y-47244000D01*
D22*
X57861200Y-33070800D02*
X56337200Y-33070800D01*
X57404000Y-32181800D02*
X55499000Y-32181800D01*
X55499000Y-32181800D02*
X55016400Y-32664400D01*
X62699870Y-36664870D02*
X62494000Y-36459000D01*
X62494000Y-36459000D02*
X58712000Y-36459000D01*
X62699870Y-40084591D02*
X62699870Y-36664870D01*
D23*
X67132200Y-34518600D02*
X67132200Y-36474400D01*
X67132200Y-36474400D02*
X67233800Y-36576000D01*
X67259200Y-32458867D02*
X67259200Y-32943800D01*
X67259200Y-31191200D02*
X67259200Y-32458867D01*
X66326479Y-30258479D02*
X67259200Y-31191200D01*
X66326479Y-30193521D02*
X66326479Y-30258479D01*
X66326479Y-30193521D02*
X65989200Y-30530800D01*
X68173600Y-28346400D02*
X66326479Y-30193521D01*
X68300600Y-28346400D02*
X68173600Y-28346400D01*
X65989200Y-30530800D02*
X65989200Y-31937958D01*
X62598299Y-32854901D02*
X62255400Y-33197800D01*
X65989200Y-31937958D02*
X65239899Y-32687259D01*
X65239899Y-32687259D02*
X62765941Y-32687259D01*
X62765941Y-32687259D02*
X62598299Y-32854901D01*
X66945328Y-38269090D02*
X67301290Y-38269090D01*
X62400178Y-40665400D02*
X64549018Y-40665400D01*
X62146209Y-40919369D02*
X62400178Y-40665400D01*
X60812679Y-40919369D02*
X62146209Y-40919369D01*
X64549018Y-40665400D02*
X66945328Y-38269090D01*
X59872848Y-41859200D02*
X60812679Y-40919369D01*
X58826400Y-41859200D02*
X59872848Y-41859200D01*
X58305699Y-41338499D02*
X58826400Y-41859200D01*
X57467499Y-41635679D02*
X57764679Y-41338499D01*
X57467499Y-42656966D02*
X57467499Y-41635679D01*
X57764679Y-41338499D02*
X58305699Y-41338499D01*
X58293000Y-43482467D02*
X57467499Y-42656966D01*
X58293000Y-43967400D02*
X58293000Y-43482467D01*
X59918600Y-47294800D02*
X61518800Y-47294800D01*
X61518800Y-47294800D02*
X61722000Y-47091600D01*
X59512200Y-42468800D02*
X60109070Y-42468800D01*
X60109070Y-42468800D02*
X60744101Y-41833769D01*
X60744101Y-41833769D02*
X61087000Y-41490870D01*
X66598800Y-32133540D02*
X66598800Y-31775400D01*
X65473580Y-33258760D02*
X66598800Y-32133540D01*
X64950340Y-33512760D02*
X65219580Y-33512760D01*
X65219580Y-33512760D02*
X65473580Y-33258760D01*
X64239140Y-33512760D02*
X64950340Y-33512760D01*
X66027280Y-42316400D02*
X66001880Y-42341800D01*
X67424320Y-42316400D02*
X66027280Y-42316400D01*
X67233800Y-42341800D02*
X66001880Y-42341800D01*
X66868040Y-39220018D02*
X66852885Y-39204863D01*
X66868040Y-40652700D02*
X66868040Y-39220018D01*
X75387200Y-41198800D02*
X75044301Y-40855901D01*
X75044301Y-40855901D02*
X73888600Y-39700200D01*
X61366400Y-28194000D02*
X64508380Y-28194000D01*
X64508380Y-28194000D02*
X64516000Y-28186380D01*
X74117200Y-31800800D02*
X73055480Y-30739080D01*
X73055480Y-30739080D02*
X73055480Y-30398720D01*
X73990200Y-36855400D02*
X73990200Y-36410880D01*
X73990200Y-36410880D02*
X73152000Y-35572680D01*
X74117200Y-36982400D02*
X73990200Y-36855400D01*
D20*
X67967860Y-47411640D02*
X71986140Y-47411640D01*
X67050919Y-46494699D02*
X67967860Y-47411640D01*
X60871099Y-46494699D02*
X67050919Y-46494699D01*
X59004200Y-44627800D02*
X60871099Y-46494699D01*
D23*
G36*
X78536085Y-52501800D02*
X77190600Y-52501800D01*
X77190600Y-31019750D01*
X77190600Y-29743400D01*
X75914250Y-29743400D01*
X75768200Y-29889450D01*
X75768200Y-30697805D01*
X75857139Y-30912523D01*
X76021478Y-31076861D01*
X76236196Y-31165800D01*
X76468605Y-31165800D01*
X77044550Y-31165800D01*
X77190600Y-31019750D01*
X77190600Y-52501800D01*
X76369944Y-52501800D01*
X76369944Y-39609187D01*
X76243820Y-39303944D01*
X76010485Y-39070201D01*
X75898358Y-39023641D01*
X76009256Y-38977820D01*
X76242999Y-38744485D01*
X76369656Y-38439462D01*
X76369944Y-38109187D01*
X76243820Y-37803944D01*
X76090544Y-37650399D01*
X76090544Y-35037187D01*
X75964420Y-34731944D01*
X75731085Y-34498201D01*
X75618958Y-34451641D01*
X75729856Y-34405820D01*
X75963599Y-34172485D01*
X76090256Y-33867462D01*
X76090544Y-33537187D01*
X75964420Y-33231944D01*
X75731085Y-32998201D01*
X75426062Y-32871544D01*
X75095787Y-32871256D01*
X74790544Y-32997380D01*
X74790417Y-32997506D01*
X74790417Y-31667499D01*
X74741544Y-31549217D01*
X74741544Y-27353947D01*
X74615420Y-27048704D01*
X74382085Y-26814961D01*
X74077062Y-26688304D01*
X73746787Y-26688016D01*
X73441544Y-26814140D01*
X73207801Y-27047475D01*
X73161241Y-27159601D01*
X73115420Y-27048704D01*
X72882085Y-26814961D01*
X72577062Y-26688304D01*
X72246787Y-26688016D01*
X71941544Y-26814140D01*
X71707801Y-27047475D01*
X71581144Y-27352498D01*
X71580856Y-27682773D01*
X71706980Y-27988016D01*
X71940315Y-28221759D01*
X72245338Y-28348416D01*
X72575613Y-28348704D01*
X72880856Y-28222580D01*
X73114599Y-27989245D01*
X73161158Y-27877118D01*
X73206980Y-27988016D01*
X73440315Y-28221759D01*
X73745338Y-28348416D01*
X74075613Y-28348704D01*
X74380856Y-28222580D01*
X74614599Y-27989245D01*
X74741256Y-27684222D01*
X74741544Y-27353947D01*
X74741544Y-31549217D01*
X74688159Y-31420017D01*
X74498978Y-31230506D01*
X74251675Y-31127817D01*
X74018749Y-31127613D01*
X73639229Y-30748093D01*
X73728463Y-30533195D01*
X73728697Y-30265419D01*
X73626439Y-30017937D01*
X73437258Y-29828426D01*
X73189955Y-29725737D01*
X72922179Y-29725503D01*
X72674697Y-29827761D01*
X72485186Y-30016942D01*
X72382497Y-30264245D01*
X72382263Y-30532021D01*
X72484521Y-30779503D01*
X72673702Y-30969014D01*
X72751252Y-31001215D01*
X72768112Y-31026448D01*
X73444185Y-31702521D01*
X73443983Y-31934101D01*
X73546241Y-32181583D01*
X73735422Y-32371094D01*
X73982725Y-32473783D01*
X74250501Y-32474017D01*
X74497983Y-32371759D01*
X74687494Y-32182578D01*
X74790183Y-31935275D01*
X74790417Y-31667499D01*
X74790417Y-32997506D01*
X74556801Y-33230715D01*
X74430144Y-33535738D01*
X74429856Y-33866013D01*
X74555980Y-34171256D01*
X74789315Y-34404999D01*
X74901441Y-34451558D01*
X74790544Y-34497380D01*
X74556801Y-34730715D01*
X74430144Y-35035738D01*
X74429856Y-35366013D01*
X74555980Y-35671256D01*
X74789315Y-35904999D01*
X75094338Y-36031656D01*
X75424613Y-36031944D01*
X75729856Y-35905820D01*
X75963599Y-35672485D01*
X76090256Y-35367462D01*
X76090544Y-35037187D01*
X76090544Y-37650399D01*
X76010485Y-37570201D01*
X75705462Y-37443544D01*
X75375187Y-37443256D01*
X75069944Y-37569380D01*
X74836201Y-37802715D01*
X74790417Y-37912974D01*
X74790417Y-36849099D01*
X74688159Y-36601617D01*
X74498978Y-36412106D01*
X74387648Y-36365878D01*
X74365665Y-36255358D01*
X74365665Y-36255357D01*
X74277568Y-36123512D01*
X73825014Y-35670958D01*
X73825217Y-35439379D01*
X73722959Y-35191897D01*
X73533778Y-35002386D01*
X73286475Y-34899697D01*
X73018699Y-34899463D01*
X72771217Y-35001721D01*
X72581706Y-35190902D01*
X72479017Y-35438205D01*
X72478783Y-35705981D01*
X72581041Y-35953463D01*
X72770222Y-36142974D01*
X73017525Y-36245663D01*
X73250450Y-36245866D01*
X73576081Y-36571497D01*
X73546906Y-36600622D01*
X73444217Y-36847925D01*
X73443983Y-37115701D01*
X73546241Y-37363183D01*
X73735422Y-37552694D01*
X73982725Y-37655383D01*
X74250501Y-37655617D01*
X74497983Y-37553359D01*
X74687494Y-37364178D01*
X74790183Y-37116875D01*
X74790417Y-36849099D01*
X74790417Y-37912974D01*
X74709544Y-38107738D01*
X74709256Y-38438013D01*
X74835380Y-38743256D01*
X75068715Y-38976999D01*
X75180841Y-39023558D01*
X75069944Y-39069380D01*
X74836201Y-39302715D01*
X74709544Y-39607738D01*
X74709256Y-39938013D01*
X74714964Y-39951828D01*
X74561614Y-39798478D01*
X74561817Y-39566899D01*
X74459559Y-39319417D01*
X74270378Y-39129906D01*
X74023075Y-39027217D01*
X73755299Y-39026983D01*
X73507817Y-39129241D01*
X73318306Y-39318422D01*
X73215617Y-39565725D01*
X73215383Y-39833501D01*
X73317641Y-40080983D01*
X73506822Y-40270494D01*
X73754125Y-40373183D01*
X73987050Y-40373386D01*
X74714185Y-41100521D01*
X74713983Y-41332101D01*
X74816241Y-41579583D01*
X75005422Y-41769094D01*
X75252725Y-41871783D01*
X75520501Y-41872017D01*
X75767983Y-41769759D01*
X75957494Y-41580578D01*
X76060183Y-41333275D01*
X76060417Y-41065499D01*
X75958159Y-40818017D01*
X75768978Y-40628506D01*
X75706926Y-40602740D01*
X76009256Y-40477820D01*
X76242999Y-40244485D01*
X76369656Y-39939462D01*
X76369944Y-39609187D01*
X76369944Y-52501800D01*
X72659357Y-52501800D01*
X72659357Y-47278339D01*
X72557099Y-47030857D01*
X72367918Y-46841346D01*
X72120615Y-46738657D01*
X71852839Y-46738423D01*
X71605357Y-46840681D01*
X71465955Y-46979840D01*
X71452551Y-46979840D01*
X71452551Y-40299992D01*
X71452551Y-38799992D01*
X71425715Y-38489175D01*
X71358400Y-38326660D01*
X71185212Y-38326089D01*
X71043791Y-38467510D01*
X71043791Y-38184668D01*
X71043220Y-38011480D01*
X71005511Y-37999543D01*
X71005511Y-35738152D01*
X71005511Y-34238152D01*
X71005511Y-31293152D01*
X71005511Y-29793152D01*
X70978675Y-29482335D01*
X70911360Y-29319820D01*
X70738172Y-29319249D01*
X70596751Y-29460670D01*
X70596751Y-29177828D01*
X70596180Y-29004640D01*
X70298752Y-28910489D01*
X69987935Y-28937325D01*
X69825420Y-29004640D01*
X69824849Y-29177828D01*
X70210800Y-29563779D01*
X70596751Y-29177828D01*
X70596751Y-29460670D01*
X70352221Y-29705200D01*
X70738172Y-30091151D01*
X70911360Y-30090580D01*
X71005511Y-29793152D01*
X71005511Y-31293152D01*
X70978675Y-30982335D01*
X70911360Y-30819820D01*
X70738172Y-30819249D01*
X70596751Y-30960670D01*
X70596751Y-30677828D01*
X70596180Y-30504640D01*
X70478982Y-30467541D01*
X70477879Y-30454761D01*
X70596180Y-30405760D01*
X70596751Y-30232572D01*
X70210800Y-29846621D01*
X70076751Y-29980670D01*
X70076751Y-29927828D01*
X70076180Y-29754640D01*
X70033461Y-29741117D01*
X70069379Y-29705200D01*
X69991164Y-29626985D01*
X69978675Y-29482335D01*
X69911360Y-29319820D01*
X69738172Y-29319249D01*
X69710800Y-29346621D01*
X69683428Y-29319249D01*
X69596751Y-29319534D01*
X69596751Y-29177828D01*
X69596180Y-29004640D01*
X69298752Y-28910489D01*
X68987935Y-28937325D01*
X68973817Y-28943172D01*
X68973817Y-28213099D01*
X68871559Y-27965617D01*
X68682378Y-27776106D01*
X68435075Y-27673417D01*
X68167299Y-27673183D01*
X67919817Y-27775441D01*
X67730306Y-27964622D01*
X67627617Y-28211925D01*
X67627524Y-28317738D01*
X66039114Y-29906149D01*
X66039111Y-29906152D01*
X66003944Y-29941319D01*
X66003944Y-27064387D01*
X65877820Y-26759144D01*
X65644485Y-26525401D01*
X65339462Y-26398744D01*
X65009187Y-26398456D01*
X64703944Y-26524580D01*
X64470201Y-26757915D01*
X64423641Y-26870041D01*
X64377820Y-26759144D01*
X64144485Y-26525401D01*
X63839462Y-26398744D01*
X63509187Y-26398456D01*
X63203944Y-26524580D01*
X62970201Y-26757915D01*
X62843544Y-27062938D01*
X62843256Y-27393213D01*
X62969380Y-27698456D01*
X63058368Y-27787600D01*
X61911786Y-27787600D01*
X61748178Y-27623706D01*
X61500875Y-27521017D01*
X61233099Y-27520783D01*
X60985617Y-27623041D01*
X60796106Y-27812222D01*
X60693417Y-28059525D01*
X60693183Y-28327301D01*
X60795441Y-28574783D01*
X60984622Y-28764294D01*
X61231925Y-28866983D01*
X61499701Y-28867217D01*
X61747183Y-28764959D01*
X61912029Y-28600400D01*
X63978220Y-28600400D01*
X64134222Y-28756674D01*
X64381525Y-28859363D01*
X64649301Y-28859597D01*
X64896783Y-28757339D01*
X65086294Y-28568158D01*
X65188983Y-28320855D01*
X65189211Y-28059014D01*
X65338013Y-28059144D01*
X65643256Y-27933020D01*
X65876999Y-27699685D01*
X66003656Y-27394662D01*
X66003944Y-27064387D01*
X66003944Y-29941319D01*
X65701832Y-30243432D01*
X65613735Y-30375277D01*
X65582800Y-30530800D01*
X65582800Y-31769622D01*
X65375511Y-31976911D01*
X65375511Y-31384952D01*
X65375511Y-30384952D01*
X65348675Y-30074135D01*
X65281360Y-29911620D01*
X65108172Y-29911049D01*
X64966751Y-30052470D01*
X64966751Y-29769628D01*
X64966180Y-29596440D01*
X64668752Y-29502289D01*
X64357935Y-29529125D01*
X64195420Y-29596440D01*
X64194849Y-29769628D01*
X64580800Y-30155579D01*
X64966751Y-29769628D01*
X64966751Y-30052470D01*
X64722221Y-30297000D01*
X65108172Y-30682951D01*
X65281360Y-30682380D01*
X65375511Y-30384952D01*
X65375511Y-31384952D01*
X65348675Y-31074135D01*
X65281360Y-30911620D01*
X65108172Y-30911049D01*
X64966751Y-31052470D01*
X64966751Y-30824372D01*
X64939379Y-30797000D01*
X64966751Y-30769628D01*
X64966180Y-30596440D01*
X64668752Y-30502289D01*
X64646582Y-30504203D01*
X64580800Y-30438421D01*
X64547832Y-30471388D01*
X64531360Y-30431620D01*
X64439379Y-30431316D01*
X64439379Y-30297000D01*
X64053428Y-29911049D01*
X63880240Y-29911620D01*
X63843141Y-30028817D01*
X63830361Y-30029920D01*
X63781360Y-29911620D01*
X63608172Y-29911049D01*
X63466751Y-30052470D01*
X63466751Y-29769628D01*
X63466180Y-29596440D01*
X63168752Y-29502289D01*
X62857935Y-29529125D01*
X62695420Y-29596440D01*
X62694849Y-29769628D01*
X63080800Y-30155579D01*
X63466751Y-29769628D01*
X63466751Y-30052470D01*
X63222221Y-30297000D01*
X63608172Y-30682951D01*
X63781360Y-30682380D01*
X63794882Y-30639661D01*
X63830800Y-30675579D01*
X63863767Y-30642611D01*
X63880240Y-30682380D01*
X64053428Y-30682951D01*
X64439379Y-30297000D01*
X64439379Y-30431316D01*
X64358172Y-30431049D01*
X63972221Y-30817000D01*
X64358172Y-31202951D01*
X64531360Y-31202380D01*
X64554500Y-31129279D01*
X64580800Y-31155579D01*
X64659014Y-31077364D01*
X64803665Y-31064875D01*
X64966180Y-30997560D01*
X64966751Y-30824372D01*
X64966751Y-31052470D01*
X64722221Y-31297000D01*
X65108172Y-31682951D01*
X65281360Y-31682380D01*
X65375511Y-31384952D01*
X65375511Y-31976911D01*
X65071563Y-32280859D01*
X64966751Y-32280859D01*
X64966751Y-31824372D01*
X64580800Y-31438421D01*
X64439379Y-31579842D01*
X64439379Y-31297000D01*
X64053428Y-30911049D01*
X63880240Y-30911620D01*
X63857099Y-30984720D01*
X63830800Y-30958421D01*
X63809548Y-30979672D01*
X63781360Y-30911620D01*
X63689379Y-30911316D01*
X63689379Y-30817000D01*
X63303428Y-30431049D01*
X63130240Y-30431620D01*
X63116717Y-30474338D01*
X63080800Y-30438421D01*
X63002585Y-30516635D01*
X62939379Y-30522092D01*
X62939379Y-30297000D01*
X62553428Y-29911049D01*
X62380240Y-29911620D01*
X62286089Y-30209048D01*
X62312925Y-30519865D01*
X62380240Y-30682380D01*
X62553428Y-30682951D01*
X62939379Y-30297000D01*
X62939379Y-30522092D01*
X62857935Y-30529125D01*
X62695420Y-30596440D01*
X62694849Y-30769628D01*
X62722221Y-30796999D01*
X62694849Y-30824372D01*
X62695420Y-30997560D01*
X62992848Y-31091711D01*
X63015017Y-31089796D01*
X63080800Y-31155579D01*
X63102051Y-31134327D01*
X63130240Y-31202380D01*
X63303428Y-31202951D01*
X63689379Y-30817000D01*
X63689379Y-30911316D01*
X63608172Y-30911049D01*
X63222221Y-31297000D01*
X63608172Y-31682951D01*
X63781360Y-31682380D01*
X63805441Y-31606306D01*
X63847235Y-31602698D01*
X63880240Y-31682380D01*
X64053428Y-31682951D01*
X64439379Y-31297000D01*
X64439379Y-31579842D01*
X64194849Y-31824372D01*
X64195420Y-31997560D01*
X64492848Y-32091711D01*
X64803665Y-32064875D01*
X64966180Y-31997560D01*
X64966751Y-31824372D01*
X64966751Y-32280859D01*
X63466751Y-32280859D01*
X63466751Y-31824372D01*
X63080800Y-31438421D01*
X62939379Y-31579842D01*
X62939379Y-31297000D01*
X62553428Y-30911049D01*
X62380240Y-30911620D01*
X62286089Y-31209048D01*
X62312925Y-31519865D01*
X62380240Y-31682380D01*
X62553428Y-31682951D01*
X62939379Y-31297000D01*
X62939379Y-31579842D01*
X62694849Y-31824372D01*
X62695420Y-31997560D01*
X62992848Y-32091711D01*
X63303665Y-32064875D01*
X63466180Y-31997560D01*
X63466751Y-31824372D01*
X63466751Y-32280859D01*
X62765941Y-32280859D01*
X62610419Y-32311793D01*
X62478573Y-32399891D01*
X62353678Y-32524785D01*
X62122099Y-32524583D01*
X61874617Y-32626841D01*
X61685106Y-32816022D01*
X61582417Y-33063325D01*
X61582183Y-33331101D01*
X61684441Y-33578583D01*
X61873622Y-33768094D01*
X62120925Y-33870783D01*
X62388701Y-33871017D01*
X62636183Y-33768759D01*
X62825694Y-33579578D01*
X62928383Y-33332275D01*
X62928586Y-33099349D01*
X62934277Y-33093659D01*
X63706234Y-33093659D01*
X63668846Y-33130982D01*
X63566157Y-33378285D01*
X63565923Y-33646061D01*
X63668181Y-33893543D01*
X63857362Y-34083054D01*
X64104665Y-34185743D01*
X64372441Y-34185977D01*
X64619923Y-34083719D01*
X64784769Y-33919160D01*
X64950340Y-33919160D01*
X65219580Y-33919160D01*
X65279904Y-33907160D01*
X65339105Y-33931743D01*
X65606881Y-33931977D01*
X65854363Y-33829719D01*
X66043874Y-33640538D01*
X66146563Y-33393235D01*
X66146766Y-33160309D01*
X66649035Y-32658040D01*
X66586217Y-32809325D01*
X66585983Y-33077101D01*
X66688241Y-33324583D01*
X66877422Y-33514094D01*
X67124725Y-33616783D01*
X67392501Y-33617017D01*
X67639983Y-33514759D01*
X67829494Y-33325578D01*
X67932183Y-33078275D01*
X67932417Y-32810499D01*
X67830159Y-32563017D01*
X67665600Y-32398170D01*
X67665600Y-31191200D01*
X67634665Y-31035678D01*
X67634665Y-31035677D01*
X67546568Y-30903832D01*
X66868736Y-30226000D01*
X68101986Y-28992750D01*
X68166125Y-29019383D01*
X68433901Y-29019617D01*
X68681383Y-28917359D01*
X68870894Y-28728178D01*
X68973583Y-28480875D01*
X68973817Y-28213099D01*
X68973817Y-28943172D01*
X68825420Y-29004640D01*
X68824849Y-29177828D01*
X69210800Y-29563779D01*
X69596751Y-29177828D01*
X69596751Y-29319534D01*
X69510240Y-29319820D01*
X69416089Y-29617248D01*
X69418003Y-29639417D01*
X69352221Y-29705200D01*
X69373472Y-29726451D01*
X69305420Y-29754640D01*
X69304849Y-29927828D01*
X69690800Y-30313779D01*
X70076751Y-29927828D01*
X70076751Y-29980670D01*
X69824849Y-30232572D01*
X69825420Y-30405760D01*
X69868138Y-30419282D01*
X69832221Y-30455200D01*
X69865188Y-30488167D01*
X69825420Y-30504640D01*
X69824849Y-30677828D01*
X70210800Y-31063779D01*
X70596751Y-30677828D01*
X70596751Y-30960670D01*
X70352221Y-31205200D01*
X70738172Y-31591151D01*
X70911360Y-31590580D01*
X71005511Y-31293152D01*
X71005511Y-34238152D01*
X70978675Y-33927335D01*
X70911360Y-33764820D01*
X70738172Y-33764249D01*
X70596751Y-33905670D01*
X70596751Y-33622828D01*
X70596751Y-31732572D01*
X70210800Y-31346621D01*
X70076751Y-31480670D01*
X70076751Y-30982572D01*
X69690800Y-30596621D01*
X69596751Y-30690670D01*
X69596751Y-30677828D01*
X69596180Y-30504640D01*
X69523079Y-30481499D01*
X69549379Y-30455200D01*
X69528127Y-30433948D01*
X69596180Y-30405760D01*
X69596751Y-30232572D01*
X69210800Y-29846621D01*
X69069379Y-29988042D01*
X69069379Y-29705200D01*
X68683428Y-29319249D01*
X68510240Y-29319820D01*
X68416089Y-29617248D01*
X68442925Y-29928065D01*
X68510240Y-30090580D01*
X68683428Y-30091151D01*
X69069379Y-29705200D01*
X69069379Y-29988042D01*
X68824849Y-30232572D01*
X68825420Y-30405760D01*
X68901493Y-30429841D01*
X68905101Y-30471635D01*
X68825420Y-30504640D01*
X68824849Y-30677828D01*
X69210800Y-31063779D01*
X69596751Y-30677828D01*
X69596751Y-30690670D01*
X69304849Y-30982572D01*
X69305420Y-31155760D01*
X69378520Y-31178900D01*
X69352221Y-31205200D01*
X69430435Y-31283414D01*
X69442925Y-31428065D01*
X69510240Y-31590580D01*
X69683428Y-31591151D01*
X69710800Y-31563779D01*
X69738172Y-31591151D01*
X69911360Y-31590580D01*
X70005511Y-31293152D01*
X70003596Y-31270982D01*
X70069379Y-31205200D01*
X70036411Y-31172232D01*
X70076180Y-31155760D01*
X70076751Y-30982572D01*
X70076751Y-31480670D01*
X69824849Y-31732572D01*
X69825420Y-31905760D01*
X70122848Y-31999911D01*
X70433665Y-31973075D01*
X70596180Y-31905760D01*
X70596751Y-31732572D01*
X70596751Y-33622828D01*
X70596180Y-33449640D01*
X70298752Y-33355489D01*
X69987935Y-33382325D01*
X69825420Y-33449640D01*
X69824849Y-33622828D01*
X70210800Y-34008779D01*
X70596751Y-33622828D01*
X70596751Y-33905670D01*
X70352221Y-34150200D01*
X70738172Y-34536151D01*
X70911360Y-34535580D01*
X71005511Y-34238152D01*
X71005511Y-35738152D01*
X70978675Y-35427335D01*
X70911360Y-35264820D01*
X70738172Y-35264249D01*
X70596751Y-35405670D01*
X70596751Y-35122828D01*
X70596180Y-34949640D01*
X70478982Y-34912541D01*
X70477879Y-34899761D01*
X70596180Y-34850760D01*
X70596751Y-34677572D01*
X70210800Y-34291621D01*
X70076751Y-34425670D01*
X70076751Y-34372828D01*
X70076180Y-34199640D01*
X70033461Y-34186117D01*
X70069379Y-34150200D01*
X69991164Y-34071985D01*
X69978675Y-33927335D01*
X69911360Y-33764820D01*
X69738172Y-33764249D01*
X69710800Y-33791621D01*
X69683428Y-33764249D01*
X69596751Y-33764534D01*
X69596751Y-33622828D01*
X69596751Y-31732572D01*
X69210800Y-31346621D01*
X69069379Y-31488042D01*
X69069379Y-31205200D01*
X68683428Y-30819249D01*
X68510240Y-30819820D01*
X68416089Y-31117248D01*
X68442925Y-31428065D01*
X68510240Y-31590580D01*
X68683428Y-31591151D01*
X69069379Y-31205200D01*
X69069379Y-31488042D01*
X68824849Y-31732572D01*
X68825420Y-31905760D01*
X69122848Y-31999911D01*
X69433665Y-31973075D01*
X69596180Y-31905760D01*
X69596751Y-31732572D01*
X69596751Y-33622828D01*
X69596180Y-33449640D01*
X69298752Y-33355489D01*
X68987935Y-33382325D01*
X68825420Y-33449640D01*
X68824849Y-33622828D01*
X69210800Y-34008779D01*
X69596751Y-33622828D01*
X69596751Y-33764534D01*
X69510240Y-33764820D01*
X69416089Y-34062248D01*
X69418003Y-34084417D01*
X69352221Y-34150200D01*
X69373472Y-34171451D01*
X69305420Y-34199640D01*
X69304849Y-34372828D01*
X69690800Y-34758779D01*
X70076751Y-34372828D01*
X70076751Y-34425670D01*
X69824849Y-34677572D01*
X69825420Y-34850760D01*
X69868138Y-34864282D01*
X69832221Y-34900200D01*
X69865188Y-34933167D01*
X69825420Y-34949640D01*
X69824849Y-35122828D01*
X70210800Y-35508779D01*
X70596751Y-35122828D01*
X70596751Y-35405670D01*
X70352221Y-35650200D01*
X70738172Y-36036151D01*
X70911360Y-36035580D01*
X71005511Y-35738152D01*
X71005511Y-37999543D01*
X70745792Y-37917329D01*
X70596751Y-37930197D01*
X70596751Y-36177572D01*
X70210800Y-35791621D01*
X70076751Y-35925670D01*
X70076751Y-35427572D01*
X69690800Y-35041621D01*
X69596751Y-35135670D01*
X69596751Y-35122828D01*
X69596180Y-34949640D01*
X69523079Y-34926499D01*
X69549379Y-34900200D01*
X69528127Y-34878948D01*
X69596180Y-34850760D01*
X69596751Y-34677572D01*
X69210800Y-34291621D01*
X69069379Y-34433042D01*
X69069379Y-34150200D01*
X68683428Y-33764249D01*
X68510240Y-33764820D01*
X68416089Y-34062248D01*
X68442925Y-34373065D01*
X68510240Y-34535580D01*
X68683428Y-34536151D01*
X69069379Y-34150200D01*
X69069379Y-34433042D01*
X68824849Y-34677572D01*
X68825420Y-34850760D01*
X68901493Y-34874841D01*
X68905101Y-34916635D01*
X68825420Y-34949640D01*
X68824849Y-35122828D01*
X69210800Y-35508779D01*
X69596751Y-35122828D01*
X69596751Y-35135670D01*
X69304849Y-35427572D01*
X69305420Y-35600760D01*
X69378520Y-35623900D01*
X69352221Y-35650200D01*
X69430435Y-35728414D01*
X69442925Y-35873065D01*
X69510240Y-36035580D01*
X69683428Y-36036151D01*
X69710800Y-36008779D01*
X69738172Y-36036151D01*
X69911360Y-36035580D01*
X70005511Y-35738152D01*
X70003596Y-35715982D01*
X70069379Y-35650200D01*
X70036411Y-35617232D01*
X70076180Y-35600760D01*
X70076751Y-35427572D01*
X70076751Y-35925670D01*
X69824849Y-36177572D01*
X69825420Y-36350760D01*
X70122848Y-36444911D01*
X70433665Y-36418075D01*
X70596180Y-36350760D01*
X70596751Y-36177572D01*
X70596751Y-37930197D01*
X70434975Y-37944165D01*
X70272460Y-38011480D01*
X70271889Y-38184668D01*
X70657840Y-38570619D01*
X71043791Y-38184668D01*
X71043791Y-38467510D01*
X70799261Y-38712040D01*
X71185212Y-39097991D01*
X71358400Y-39097420D01*
X71452551Y-38799992D01*
X71452551Y-40299992D01*
X71425715Y-39989175D01*
X71358400Y-39826660D01*
X71185212Y-39826089D01*
X71043791Y-39967510D01*
X71043791Y-39684668D01*
X71043220Y-39511480D01*
X70926022Y-39474381D01*
X70924919Y-39461601D01*
X71043220Y-39412600D01*
X71043791Y-39239412D01*
X70657840Y-38853461D01*
X70523791Y-38987510D01*
X70523791Y-38934668D01*
X70523220Y-38761480D01*
X70480501Y-38747957D01*
X70516419Y-38712040D01*
X70438204Y-38633825D01*
X70425715Y-38489175D01*
X70358400Y-38326660D01*
X70185212Y-38326089D01*
X70157840Y-38353461D01*
X70130468Y-38326089D01*
X70043791Y-38326374D01*
X70043791Y-38184668D01*
X70043220Y-38011480D01*
X69745792Y-37917329D01*
X69596751Y-37930197D01*
X69596751Y-36177572D01*
X69210800Y-35791621D01*
X69069379Y-35933042D01*
X69069379Y-35650200D01*
X68683428Y-35264249D01*
X68510240Y-35264820D01*
X68416089Y-35562248D01*
X68442925Y-35873065D01*
X68510240Y-36035580D01*
X68683428Y-36036151D01*
X69069379Y-35650200D01*
X69069379Y-35933042D01*
X68824849Y-36177572D01*
X68825420Y-36350760D01*
X69122848Y-36444911D01*
X69433665Y-36418075D01*
X69596180Y-36350760D01*
X69596751Y-36177572D01*
X69596751Y-37930197D01*
X69434975Y-37944165D01*
X69272460Y-38011480D01*
X69271889Y-38184668D01*
X69657840Y-38570619D01*
X70043791Y-38184668D01*
X70043791Y-38326374D01*
X69957280Y-38326660D01*
X69863129Y-38624088D01*
X69865043Y-38646257D01*
X69799261Y-38712040D01*
X69820512Y-38733291D01*
X69752460Y-38761480D01*
X69751889Y-38934668D01*
X70137840Y-39320619D01*
X70523791Y-38934668D01*
X70523791Y-38987510D01*
X70271889Y-39239412D01*
X70272460Y-39412600D01*
X70315178Y-39426122D01*
X70279261Y-39462040D01*
X70312228Y-39495007D01*
X70272460Y-39511480D01*
X70271889Y-39684668D01*
X70657840Y-40070619D01*
X71043791Y-39684668D01*
X71043791Y-39967510D01*
X70799261Y-40212040D01*
X71185212Y-40597991D01*
X71358400Y-40597420D01*
X71452551Y-40299992D01*
X71452551Y-46979840D01*
X71043791Y-46979840D01*
X71043791Y-40739412D01*
X70657840Y-40353461D01*
X70523791Y-40487510D01*
X70523791Y-39989412D01*
X70137840Y-39603461D01*
X70043791Y-39697510D01*
X70043791Y-39684668D01*
X70043220Y-39511480D01*
X69970119Y-39488339D01*
X69996419Y-39462040D01*
X69975167Y-39440788D01*
X70043220Y-39412600D01*
X70043791Y-39239412D01*
X69657840Y-38853461D01*
X69516419Y-38994882D01*
X69516419Y-38712040D01*
X69130468Y-38326089D01*
X68957280Y-38326660D01*
X68863129Y-38624088D01*
X68889965Y-38934905D01*
X68957280Y-39097420D01*
X69130468Y-39097991D01*
X69516419Y-38712040D01*
X69516419Y-38994882D01*
X69271889Y-39239412D01*
X69272460Y-39412600D01*
X69348533Y-39436681D01*
X69352141Y-39478475D01*
X69272460Y-39511480D01*
X69271889Y-39684668D01*
X69657840Y-40070619D01*
X70043791Y-39684668D01*
X70043791Y-39697510D01*
X69751889Y-39989412D01*
X69752460Y-40162600D01*
X69825560Y-40185740D01*
X69799261Y-40212040D01*
X69877475Y-40290254D01*
X69889965Y-40434905D01*
X69957280Y-40597420D01*
X70130468Y-40597991D01*
X70157840Y-40570619D01*
X70185212Y-40597991D01*
X70358400Y-40597420D01*
X70452551Y-40299992D01*
X70450636Y-40277822D01*
X70516419Y-40212040D01*
X70483451Y-40179072D01*
X70523220Y-40162600D01*
X70523791Y-39989412D01*
X70523791Y-40487510D01*
X70271889Y-40739412D01*
X70272460Y-40912600D01*
X70569888Y-41006751D01*
X70880705Y-40979915D01*
X71043220Y-40912600D01*
X71043791Y-40739412D01*
X71043791Y-46979840D01*
X70043791Y-46979840D01*
X70043791Y-40739412D01*
X69657840Y-40353461D01*
X69516419Y-40494882D01*
X69516419Y-40212040D01*
X69130468Y-39826089D01*
X68957280Y-39826660D01*
X68863129Y-40124088D01*
X68889965Y-40434905D01*
X68957280Y-40597420D01*
X69130468Y-40597991D01*
X69516419Y-40212040D01*
X69516419Y-40494882D01*
X69271889Y-40739412D01*
X69272460Y-40912600D01*
X69569888Y-41006751D01*
X69880705Y-40979915D01*
X70043220Y-40912600D01*
X70043791Y-40739412D01*
X70043791Y-46979840D01*
X68146717Y-46979840D01*
X68097537Y-46930659D01*
X68097537Y-42183099D01*
X67995279Y-41935617D01*
X67806098Y-41746106D01*
X67558795Y-41643417D01*
X67291019Y-41643183D01*
X67043537Y-41745441D01*
X66878690Y-41910000D01*
X66521910Y-41910000D01*
X66383658Y-41771506D01*
X66136355Y-41668817D01*
X65868579Y-41668583D01*
X65621097Y-41770841D01*
X65431586Y-41960022D01*
X65328897Y-42207325D01*
X65328663Y-42475101D01*
X65430921Y-42722583D01*
X65620102Y-42912094D01*
X65867405Y-43014783D01*
X66135181Y-43015017D01*
X66382663Y-42912759D01*
X66547509Y-42748200D01*
X66904289Y-42748200D01*
X67042542Y-42886694D01*
X67289845Y-42989383D01*
X67557621Y-42989617D01*
X67805103Y-42887359D01*
X67994614Y-42698178D01*
X68097303Y-42450875D01*
X68097537Y-42183099D01*
X68097537Y-46930659D01*
X67356248Y-46189370D01*
X67216162Y-46095768D01*
X67050919Y-46062899D01*
X66024533Y-46062899D01*
X66024533Y-44881353D01*
X65907281Y-44597582D01*
X65690360Y-44380282D01*
X65406794Y-44262535D01*
X65099753Y-44262267D01*
X64815982Y-44379519D01*
X64598682Y-44596440D01*
X64480935Y-44880006D01*
X64480667Y-45187047D01*
X64597919Y-45470818D01*
X64814840Y-45688118D01*
X65098406Y-45805865D01*
X65405447Y-45806133D01*
X65689218Y-45688881D01*
X65906518Y-45471960D01*
X66024265Y-45188394D01*
X66024533Y-44881353D01*
X66024533Y-46062899D01*
X61049957Y-46062899D01*
X59677245Y-44690187D01*
X59677417Y-44494499D01*
X59575159Y-44247017D01*
X59385978Y-44057506D01*
X59138675Y-43954817D01*
X58966111Y-43954666D01*
X58966217Y-43834099D01*
X58863959Y-43586617D01*
X58684322Y-43406667D01*
X58668465Y-43326945D01*
X58668465Y-43326944D01*
X58580368Y-43195099D01*
X57968307Y-42583038D01*
X57985355Y-42583053D01*
X58923552Y-43521250D01*
X59080119Y-43625864D01*
X59264802Y-43662601D01*
X59264802Y-43662600D01*
X59264807Y-43662600D01*
X61125680Y-43662600D01*
X61213222Y-43750294D01*
X61460525Y-43852983D01*
X61728301Y-43853217D01*
X61975783Y-43750959D01*
X62165294Y-43561778D01*
X62267983Y-43314475D01*
X62268092Y-43189407D01*
X62421050Y-43036449D01*
X62372735Y-43152806D01*
X62372467Y-43459847D01*
X62489719Y-43743618D01*
X62706640Y-43960918D01*
X62990206Y-44078665D01*
X63297247Y-44078933D01*
X63581018Y-43961681D01*
X63798318Y-43744760D01*
X63916065Y-43461194D01*
X63916333Y-43154153D01*
X63799081Y-42870382D01*
X63582160Y-42653082D01*
X63298594Y-42535335D01*
X62991553Y-42535067D01*
X62873763Y-42583736D01*
X63063332Y-42394168D01*
X63143571Y-42394168D01*
X63159184Y-42394168D01*
X63246726Y-42481862D01*
X63494029Y-42584551D01*
X63761805Y-42584785D01*
X64009287Y-42482527D01*
X64198798Y-42293346D01*
X64301487Y-42046043D01*
X64301505Y-42025173D01*
X64306840Y-42030518D01*
X64590406Y-42148265D01*
X64897447Y-42148533D01*
X65181218Y-42031281D01*
X65398518Y-41814360D01*
X65516265Y-41530794D01*
X65516533Y-41223753D01*
X65399281Y-40939982D01*
X65182360Y-40722682D01*
X65100474Y-40688679D01*
X66258997Y-39530156D01*
X66281926Y-39585646D01*
X66461640Y-39765673D01*
X66461640Y-40107315D01*
X66297747Y-40270922D01*
X66195058Y-40518225D01*
X66194824Y-40786000D01*
X66297082Y-41033482D01*
X66486262Y-41222993D01*
X66733565Y-41325682D01*
X67001340Y-41325916D01*
X67248822Y-41223658D01*
X67438333Y-41034478D01*
X67541022Y-40787175D01*
X67541256Y-40519400D01*
X67438998Y-40271918D01*
X67274440Y-40107072D01*
X67274440Y-39735120D01*
X67423179Y-39586641D01*
X67525868Y-39339338D01*
X67526102Y-39071562D01*
X67467137Y-38928858D01*
X67682073Y-38840049D01*
X67871584Y-38650868D01*
X67974273Y-38403565D01*
X67974507Y-38135789D01*
X67907017Y-37972451D01*
X67907017Y-36442699D01*
X67804759Y-36195217D01*
X67615578Y-36005706D01*
X67538600Y-35973741D01*
X67538600Y-35063986D01*
X67702494Y-34900378D01*
X67805183Y-34653075D01*
X67805417Y-34385299D01*
X67703159Y-34137817D01*
X67513978Y-33948306D01*
X67266675Y-33845617D01*
X66998899Y-33845383D01*
X66751417Y-33947641D01*
X66561906Y-34136822D01*
X66459217Y-34384125D01*
X66458983Y-34651901D01*
X66561241Y-34899383D01*
X66725800Y-35064229D01*
X66725800Y-36132036D01*
X66663506Y-36194222D01*
X66560817Y-36441525D01*
X66560583Y-36709301D01*
X66662841Y-36956783D01*
X66852022Y-37146294D01*
X67099325Y-37248983D01*
X67367101Y-37249217D01*
X67614583Y-37146959D01*
X67804094Y-36957778D01*
X67906783Y-36710475D01*
X67907017Y-36442699D01*
X67907017Y-37972451D01*
X67872249Y-37888307D01*
X67683068Y-37698796D01*
X67435765Y-37596107D01*
X67167989Y-37595873D01*
X66920507Y-37698131D01*
X66730996Y-37887312D01*
X66704785Y-37950433D01*
X66657960Y-37981722D01*
X64380682Y-40259000D01*
X63356270Y-40259000D01*
X63372853Y-40219066D01*
X63373087Y-39951290D01*
X63270829Y-39703808D01*
X63157070Y-39589850D01*
X63157070Y-36664870D01*
X63122268Y-36489907D01*
X63023159Y-36341581D01*
X62817289Y-36135711D01*
X62668963Y-36036602D01*
X62494000Y-36001800D01*
X59206675Y-36001800D01*
X59093778Y-35888706D01*
X58846475Y-35786017D01*
X58578699Y-35785783D01*
X58534417Y-35804080D01*
X58534417Y-32937499D01*
X58432159Y-32690017D01*
X58242978Y-32500506D01*
X58036145Y-32414621D01*
X58076983Y-32316275D01*
X58077217Y-32048499D01*
X57974959Y-31801017D01*
X57785778Y-31611506D01*
X57538475Y-31508817D01*
X57270699Y-31508583D01*
X57023217Y-31610841D01*
X56909259Y-31724600D01*
X55499000Y-31724600D01*
X55324037Y-31759402D01*
X55175710Y-31858511D01*
X55042898Y-31991322D01*
X54883099Y-31991183D01*
X54635617Y-32093441D01*
X54446106Y-32282622D01*
X54343417Y-32529925D01*
X54343183Y-32797701D01*
X54445441Y-33045183D01*
X54634622Y-33234694D01*
X54881925Y-33337383D01*
X55149701Y-33337617D01*
X55397183Y-33235359D01*
X55586694Y-33046178D01*
X55689383Y-32798875D01*
X55689522Y-32639000D01*
X55817015Y-32639000D01*
X55766906Y-32689022D01*
X55664217Y-32936325D01*
X55663983Y-33204101D01*
X55766241Y-33451583D01*
X55955422Y-33641094D01*
X56202725Y-33743783D01*
X56470501Y-33744017D01*
X56717983Y-33641759D01*
X56831940Y-33528000D01*
X57366524Y-33528000D01*
X57479422Y-33641094D01*
X57726725Y-33743783D01*
X57994501Y-33744017D01*
X58241983Y-33641759D01*
X58431494Y-33452578D01*
X58534183Y-33205275D01*
X58534417Y-32937499D01*
X58534417Y-35804080D01*
X58331217Y-35888041D01*
X58141706Y-36077222D01*
X58039017Y-36324525D01*
X58038783Y-36592301D01*
X58141041Y-36839783D01*
X58330222Y-37029294D01*
X58577525Y-37131983D01*
X58845301Y-37132217D01*
X59092783Y-37029959D01*
X59206740Y-36916200D01*
X62242670Y-36916200D01*
X62242670Y-39589915D01*
X62129576Y-39702813D01*
X62026887Y-39950116D01*
X62026653Y-40217892D01*
X62098666Y-40392175D01*
X61977873Y-40512969D01*
X60812679Y-40512969D01*
X60657156Y-40543904D01*
X60525311Y-40632001D01*
X59704512Y-41452800D01*
X58994736Y-41452800D01*
X58593067Y-41051131D01*
X58461222Y-40963034D01*
X58305699Y-40932099D01*
X57764679Y-40932099D01*
X57609156Y-40963034D01*
X57477311Y-41051131D01*
X57180131Y-41348311D01*
X57092034Y-41480156D01*
X57061099Y-41635679D01*
X57061099Y-42656966D01*
X57092034Y-42812489D01*
X57180131Y-42944334D01*
X57772105Y-43536308D01*
X57722706Y-43585622D01*
X57620017Y-43832925D01*
X57619783Y-44100701D01*
X57722041Y-44348183D01*
X57911222Y-44537694D01*
X58158525Y-44640383D01*
X58331088Y-44640533D01*
X58330983Y-44761101D01*
X58433241Y-45008583D01*
X58622422Y-45198094D01*
X58869725Y-45300783D01*
X59066697Y-45300955D01*
X60565770Y-46800028D01*
X60698028Y-46888400D01*
X60463986Y-46888400D01*
X60300378Y-46724506D01*
X60053075Y-46621817D01*
X59785299Y-46621583D01*
X59537817Y-46723841D01*
X59348306Y-46913022D01*
X59245617Y-47160325D01*
X59245383Y-47428101D01*
X59347641Y-47675583D01*
X59536822Y-47865094D01*
X59784125Y-47967783D01*
X60051901Y-47968017D01*
X60299383Y-47865759D01*
X60464229Y-47701200D01*
X61434881Y-47701200D01*
X61587525Y-47764583D01*
X61855301Y-47764817D01*
X62102783Y-47662559D01*
X62249240Y-47516356D01*
X62294041Y-47624783D01*
X62483222Y-47814294D01*
X62730525Y-47916983D01*
X62998301Y-47917217D01*
X63245783Y-47814959D01*
X63334296Y-47726600D01*
X64694400Y-47726600D01*
X64649482Y-47771440D01*
X64531735Y-48055006D01*
X64531467Y-48362047D01*
X64648719Y-48645818D01*
X64865640Y-48863118D01*
X65149206Y-48980865D01*
X65456247Y-48981133D01*
X65740018Y-48863881D01*
X65957318Y-48646960D01*
X66075065Y-48363394D01*
X66075333Y-48056353D01*
X65958081Y-47772582D01*
X65912179Y-47726600D01*
X66221100Y-47726600D01*
X66255891Y-47761390D01*
X66255783Y-47885301D01*
X66358041Y-48132783D01*
X66547222Y-48322294D01*
X66794525Y-48424983D01*
X67062301Y-48425217D01*
X67309783Y-48322959D01*
X67499294Y-48133778D01*
X67601983Y-47886475D01*
X67602183Y-47656620D01*
X67662528Y-47716965D01*
X67662531Y-47716969D01*
X67802617Y-47810571D01*
X67967860Y-47843440D01*
X71466109Y-47843440D01*
X71604362Y-47981934D01*
X71851665Y-48084623D01*
X72119441Y-48084857D01*
X72366923Y-47982599D01*
X72556434Y-47793418D01*
X72659123Y-47546115D01*
X72659357Y-47278339D01*
X72659357Y-52501800D01*
X65998866Y-52501800D01*
X65999133Y-52196553D01*
X65881881Y-51912782D01*
X65664960Y-51695482D01*
X65381394Y-51577735D01*
X65074353Y-51577467D01*
X64790582Y-51694719D01*
X64573282Y-51911640D01*
X64495860Y-52098091D01*
X64495860Y-51599933D01*
X64459811Y-51411059D01*
X64065558Y-51305698D01*
X63660996Y-51359230D01*
X63535869Y-51411059D01*
X63499820Y-51599933D01*
X63997840Y-52097953D01*
X64495860Y-51599933D01*
X64495860Y-52098091D01*
X64492498Y-52106188D01*
X64249287Y-52349400D01*
X64263429Y-52363542D01*
X64125172Y-52501800D01*
X63870508Y-52501800D01*
X63732250Y-52363542D01*
X63746393Y-52349400D01*
X63486437Y-52089444D01*
X63415541Y-51917862D01*
X63198620Y-51700562D01*
X62915054Y-51582815D01*
X62608013Y-51582547D01*
X62324242Y-51699799D01*
X62106942Y-51916720D01*
X61989195Y-52200286D01*
X61988931Y-52501800D01*
X60512733Y-52501800D01*
X60512733Y-49910553D01*
X60395481Y-49626782D01*
X60197289Y-49428244D01*
X60394718Y-49231160D01*
X60512465Y-48947594D01*
X60512733Y-48640553D01*
X60395481Y-48356782D01*
X60178560Y-48139482D01*
X59894994Y-48021735D01*
X59587953Y-48021467D01*
X59304182Y-48138719D01*
X59086882Y-48355640D01*
X58969135Y-48639206D01*
X58968867Y-48946247D01*
X59086119Y-49230018D01*
X59284310Y-49428555D01*
X59086882Y-49625640D01*
X58969135Y-49909206D01*
X58969094Y-49955536D01*
X58777394Y-49875935D01*
X58470353Y-49875667D01*
X58186582Y-49992919D01*
X57969282Y-50209840D01*
X57851535Y-50493406D01*
X57851267Y-50800447D01*
X57968519Y-51084218D01*
X58185440Y-51301518D01*
X58469006Y-51419265D01*
X58776047Y-51419533D01*
X58943541Y-51350325D01*
X58943467Y-51435447D01*
X59060719Y-51719218D01*
X59277640Y-51936518D01*
X59561206Y-52054265D01*
X59868247Y-52054533D01*
X60152018Y-51937281D01*
X60369318Y-51720360D01*
X60487065Y-51436794D01*
X60487333Y-51129753D01*
X60370081Y-50845982D01*
X60209967Y-50685588D01*
X60394718Y-50501160D01*
X60512465Y-50217594D01*
X60512733Y-49910553D01*
X60512733Y-52501800D01*
X54162733Y-52501800D01*
X54162733Y-51078953D01*
X54045481Y-50795182D01*
X53828560Y-50577882D01*
X53544994Y-50460135D01*
X53456533Y-50460057D01*
X53456533Y-48158953D01*
X53339281Y-47875182D01*
X53201089Y-47736748D01*
X53338518Y-47599560D01*
X53456265Y-47315994D01*
X53456533Y-47008953D01*
X53339281Y-46725182D01*
X53176089Y-46561705D01*
X53338518Y-46399560D01*
X53456265Y-46115994D01*
X53456533Y-45808953D01*
X53339281Y-45525182D01*
X53122360Y-45307882D01*
X52838794Y-45190135D01*
X52531753Y-45189867D01*
X52247982Y-45307119D01*
X52030682Y-45524040D01*
X51912935Y-45807606D01*
X51912667Y-46114647D01*
X52029919Y-46398418D01*
X52193110Y-46561894D01*
X52030682Y-46724040D01*
X51912935Y-47007606D01*
X51912667Y-47314647D01*
X52029919Y-47598418D01*
X52168110Y-47736851D01*
X52030682Y-47874040D01*
X51912935Y-48157606D01*
X51912667Y-48464647D01*
X52029919Y-48748418D01*
X52246840Y-48965718D01*
X52530406Y-49083465D01*
X52837447Y-49083733D01*
X53121218Y-48966481D01*
X53338518Y-48749560D01*
X53456265Y-48465994D01*
X53456533Y-48158953D01*
X53456533Y-50460057D01*
X53237953Y-50459867D01*
X52954182Y-50577119D01*
X52736882Y-50794040D01*
X52619135Y-51077606D01*
X52618867Y-51384647D01*
X52736119Y-51668418D01*
X52953040Y-51885718D01*
X53236606Y-52003465D01*
X53543647Y-52003733D01*
X53827418Y-51886481D01*
X54044718Y-51669560D01*
X54162465Y-51385994D01*
X54162733Y-51078953D01*
X54162733Y-52501800D01*
X49733200Y-52501800D01*
X49733200Y-34427781D01*
X50012764Y-34543867D01*
X50315906Y-34544132D01*
X50596074Y-34428368D01*
X50810615Y-34214202D01*
X50926867Y-33934236D01*
X50927132Y-33631094D01*
X50811368Y-33350926D01*
X50800000Y-33339538D01*
X50800000Y-27441026D01*
X51698026Y-26543000D01*
X61914201Y-26543000D01*
X61924798Y-26553615D01*
X62204764Y-26669867D01*
X62507906Y-26670132D01*
X62788074Y-26554368D01*
X63002615Y-26340202D01*
X63118867Y-26060236D01*
X63119132Y-25757094D01*
X63003368Y-25476926D01*
X63002643Y-25476200D01*
X78283509Y-25476200D01*
X78288648Y-26026165D01*
X77883568Y-25755499D01*
X77368400Y-25653026D01*
X76853232Y-25755499D01*
X76416493Y-26047319D01*
X76124673Y-26484058D01*
X76022200Y-26999226D01*
X76022200Y-27051974D01*
X76124673Y-27567142D01*
X76390780Y-27965400D01*
X76236196Y-27965400D01*
X76021478Y-28054339D01*
X75857139Y-28218677D01*
X75768200Y-28433395D01*
X75768200Y-29241750D01*
X75914250Y-29387800D01*
X77190600Y-29387800D01*
X77190600Y-29367800D01*
X77546200Y-29367800D01*
X77546200Y-29387800D01*
X77566200Y-29387800D01*
X77566200Y-29743400D01*
X77546200Y-29743400D01*
X77546200Y-31019750D01*
X77692250Y-31165800D01*
X78268195Y-31165800D01*
X78336682Y-31165800D01*
X78536085Y-52501800D01*
X78536085Y-52501800D01*
G37*
X78536085Y-52501800D02*
X77190600Y-52501800D01*
X77190600Y-31019750D01*
X77190600Y-29743400D01*
X75914250Y-29743400D01*
X75768200Y-29889450D01*
X75768200Y-30697805D01*
X75857139Y-30912523D01*
X76021478Y-31076861D01*
X76236196Y-31165800D01*
X76468605Y-31165800D01*
X77044550Y-31165800D01*
X77190600Y-31019750D01*
X77190600Y-52501800D01*
X76369944Y-52501800D01*
X76369944Y-39609187D01*
X76243820Y-39303944D01*
X76010485Y-39070201D01*
X75898358Y-39023641D01*
X76009256Y-38977820D01*
X76242999Y-38744485D01*
X76369656Y-38439462D01*
X76369944Y-38109187D01*
X76243820Y-37803944D01*
X76090544Y-37650399D01*
X76090544Y-35037187D01*
X75964420Y-34731944D01*
X75731085Y-34498201D01*
X75618958Y-34451641D01*
X75729856Y-34405820D01*
X75963599Y-34172485D01*
X76090256Y-33867462D01*
X76090544Y-33537187D01*
X75964420Y-33231944D01*
X75731085Y-32998201D01*
X75426062Y-32871544D01*
X75095787Y-32871256D01*
X74790544Y-32997380D01*
X74790417Y-32997506D01*
X74790417Y-31667499D01*
X74741544Y-31549217D01*
X74741544Y-27353947D01*
X74615420Y-27048704D01*
X74382085Y-26814961D01*
X74077062Y-26688304D01*
X73746787Y-26688016D01*
X73441544Y-26814140D01*
X73207801Y-27047475D01*
X73161241Y-27159601D01*
X73115420Y-27048704D01*
X72882085Y-26814961D01*
X72577062Y-26688304D01*
X72246787Y-26688016D01*
X71941544Y-26814140D01*
X71707801Y-27047475D01*
X71581144Y-27352498D01*
X71580856Y-27682773D01*
X71706980Y-27988016D01*
X71940315Y-28221759D01*
X72245338Y-28348416D01*
X72575613Y-28348704D01*
X72880856Y-28222580D01*
X73114599Y-27989245D01*
X73161158Y-27877118D01*
X73206980Y-27988016D01*
X73440315Y-28221759D01*
X73745338Y-28348416D01*
X74075613Y-28348704D01*
X74380856Y-28222580D01*
X74614599Y-27989245D01*
X74741256Y-27684222D01*
X74741544Y-27353947D01*
X74741544Y-31549217D01*
X74688159Y-31420017D01*
X74498978Y-31230506D01*
X74251675Y-31127817D01*
X74018749Y-31127613D01*
X73639229Y-30748093D01*
X73728463Y-30533195D01*
X73728697Y-30265419D01*
X73626439Y-30017937D01*
X73437258Y-29828426D01*
X73189955Y-29725737D01*
X72922179Y-29725503D01*
X72674697Y-29827761D01*
X72485186Y-30016942D01*
X72382497Y-30264245D01*
X72382263Y-30532021D01*
X72484521Y-30779503D01*
X72673702Y-30969014D01*
X72751252Y-31001215D01*
X72768112Y-31026448D01*
X73444185Y-31702521D01*
X73443983Y-31934101D01*
X73546241Y-32181583D01*
X73735422Y-32371094D01*
X73982725Y-32473783D01*
X74250501Y-32474017D01*
X74497983Y-32371759D01*
X74687494Y-32182578D01*
X74790183Y-31935275D01*
X74790417Y-31667499D01*
X74790417Y-32997506D01*
X74556801Y-33230715D01*
X74430144Y-33535738D01*
X74429856Y-33866013D01*
X74555980Y-34171256D01*
X74789315Y-34404999D01*
X74901441Y-34451558D01*
X74790544Y-34497380D01*
X74556801Y-34730715D01*
X74430144Y-35035738D01*
X74429856Y-35366013D01*
X74555980Y-35671256D01*
X74789315Y-35904999D01*
X75094338Y-36031656D01*
X75424613Y-36031944D01*
X75729856Y-35905820D01*
X75963599Y-35672485D01*
X76090256Y-35367462D01*
X76090544Y-35037187D01*
X76090544Y-37650399D01*
X76010485Y-37570201D01*
X75705462Y-37443544D01*
X75375187Y-37443256D01*
X75069944Y-37569380D01*
X74836201Y-37802715D01*
X74790417Y-37912974D01*
X74790417Y-36849099D01*
X74688159Y-36601617D01*
X74498978Y-36412106D01*
X74387648Y-36365878D01*
X74365665Y-36255358D01*
X74365665Y-36255357D01*
X74277568Y-36123512D01*
X73825014Y-35670958D01*
X73825217Y-35439379D01*
X73722959Y-35191897D01*
X73533778Y-35002386D01*
X73286475Y-34899697D01*
X73018699Y-34899463D01*
X72771217Y-35001721D01*
X72581706Y-35190902D01*
X72479017Y-35438205D01*
X72478783Y-35705981D01*
X72581041Y-35953463D01*
X72770222Y-36142974D01*
X73017525Y-36245663D01*
X73250450Y-36245866D01*
X73576081Y-36571497D01*
X73546906Y-36600622D01*
X73444217Y-36847925D01*
X73443983Y-37115701D01*
X73546241Y-37363183D01*
X73735422Y-37552694D01*
X73982725Y-37655383D01*
X74250501Y-37655617D01*
X74497983Y-37553359D01*
X74687494Y-37364178D01*
X74790183Y-37116875D01*
X74790417Y-36849099D01*
X74790417Y-37912974D01*
X74709544Y-38107738D01*
X74709256Y-38438013D01*
X74835380Y-38743256D01*
X75068715Y-38976999D01*
X75180841Y-39023558D01*
X75069944Y-39069380D01*
X74836201Y-39302715D01*
X74709544Y-39607738D01*
X74709256Y-39938013D01*
X74714964Y-39951828D01*
X74561614Y-39798478D01*
X74561817Y-39566899D01*
X74459559Y-39319417D01*
X74270378Y-39129906D01*
X74023075Y-39027217D01*
X73755299Y-39026983D01*
X73507817Y-39129241D01*
X73318306Y-39318422D01*
X73215617Y-39565725D01*
X73215383Y-39833501D01*
X73317641Y-40080983D01*
X73506822Y-40270494D01*
X73754125Y-40373183D01*
X73987050Y-40373386D01*
X74714185Y-41100521D01*
X74713983Y-41332101D01*
X74816241Y-41579583D01*
X75005422Y-41769094D01*
X75252725Y-41871783D01*
X75520501Y-41872017D01*
X75767983Y-41769759D01*
X75957494Y-41580578D01*
X76060183Y-41333275D01*
X76060417Y-41065499D01*
X75958159Y-40818017D01*
X75768978Y-40628506D01*
X75706926Y-40602740D01*
X76009256Y-40477820D01*
X76242999Y-40244485D01*
X76369656Y-39939462D01*
X76369944Y-39609187D01*
X76369944Y-52501800D01*
X72659357Y-52501800D01*
X72659357Y-47278339D01*
X72557099Y-47030857D01*
X72367918Y-46841346D01*
X72120615Y-46738657D01*
X71852839Y-46738423D01*
X71605357Y-46840681D01*
X71465955Y-46979840D01*
X71452551Y-46979840D01*
X71452551Y-40299992D01*
X71452551Y-38799992D01*
X71425715Y-38489175D01*
X71358400Y-38326660D01*
X71185212Y-38326089D01*
X71043791Y-38467510D01*
X71043791Y-38184668D01*
X71043220Y-38011480D01*
X71005511Y-37999543D01*
X71005511Y-35738152D01*
X71005511Y-34238152D01*
X71005511Y-31293152D01*
X71005511Y-29793152D01*
X70978675Y-29482335D01*
X70911360Y-29319820D01*
X70738172Y-29319249D01*
X70596751Y-29460670D01*
X70596751Y-29177828D01*
X70596180Y-29004640D01*
X70298752Y-28910489D01*
X69987935Y-28937325D01*
X69825420Y-29004640D01*
X69824849Y-29177828D01*
X70210800Y-29563779D01*
X70596751Y-29177828D01*
X70596751Y-29460670D01*
X70352221Y-29705200D01*
X70738172Y-30091151D01*
X70911360Y-30090580D01*
X71005511Y-29793152D01*
X71005511Y-31293152D01*
X70978675Y-30982335D01*
X70911360Y-30819820D01*
X70738172Y-30819249D01*
X70596751Y-30960670D01*
X70596751Y-30677828D01*
X70596180Y-30504640D01*
X70478982Y-30467541D01*
X70477879Y-30454761D01*
X70596180Y-30405760D01*
X70596751Y-30232572D01*
X70210800Y-29846621D01*
X70076751Y-29980670D01*
X70076751Y-29927828D01*
X70076180Y-29754640D01*
X70033461Y-29741117D01*
X70069379Y-29705200D01*
X69991164Y-29626985D01*
X69978675Y-29482335D01*
X69911360Y-29319820D01*
X69738172Y-29319249D01*
X69710800Y-29346621D01*
X69683428Y-29319249D01*
X69596751Y-29319534D01*
X69596751Y-29177828D01*
X69596180Y-29004640D01*
X69298752Y-28910489D01*
X68987935Y-28937325D01*
X68973817Y-28943172D01*
X68973817Y-28213099D01*
X68871559Y-27965617D01*
X68682378Y-27776106D01*
X68435075Y-27673417D01*
X68167299Y-27673183D01*
X67919817Y-27775441D01*
X67730306Y-27964622D01*
X67627617Y-28211925D01*
X67627524Y-28317738D01*
X66039114Y-29906149D01*
X66039111Y-29906152D01*
X66003944Y-29941319D01*
X66003944Y-27064387D01*
X65877820Y-26759144D01*
X65644485Y-26525401D01*
X65339462Y-26398744D01*
X65009187Y-26398456D01*
X64703944Y-26524580D01*
X64470201Y-26757915D01*
X64423641Y-26870041D01*
X64377820Y-26759144D01*
X64144485Y-26525401D01*
X63839462Y-26398744D01*
X63509187Y-26398456D01*
X63203944Y-26524580D01*
X62970201Y-26757915D01*
X62843544Y-27062938D01*
X62843256Y-27393213D01*
X62969380Y-27698456D01*
X63058368Y-27787600D01*
X61911786Y-27787600D01*
X61748178Y-27623706D01*
X61500875Y-27521017D01*
X61233099Y-27520783D01*
X60985617Y-27623041D01*
X60796106Y-27812222D01*
X60693417Y-28059525D01*
X60693183Y-28327301D01*
X60795441Y-28574783D01*
X60984622Y-28764294D01*
X61231925Y-28866983D01*
X61499701Y-28867217D01*
X61747183Y-28764959D01*
X61912029Y-28600400D01*
X63978220Y-28600400D01*
X64134222Y-28756674D01*
X64381525Y-28859363D01*
X64649301Y-28859597D01*
X64896783Y-28757339D01*
X65086294Y-28568158D01*
X65188983Y-28320855D01*
X65189211Y-28059014D01*
X65338013Y-28059144D01*
X65643256Y-27933020D01*
X65876999Y-27699685D01*
X66003656Y-27394662D01*
X66003944Y-27064387D01*
X66003944Y-29941319D01*
X65701832Y-30243432D01*
X65613735Y-30375277D01*
X65582800Y-30530800D01*
X65582800Y-31769622D01*
X65375511Y-31976911D01*
X65375511Y-31384952D01*
X65375511Y-30384952D01*
X65348675Y-30074135D01*
X65281360Y-29911620D01*
X65108172Y-29911049D01*
X64966751Y-30052470D01*
X64966751Y-29769628D01*
X64966180Y-29596440D01*
X64668752Y-29502289D01*
X64357935Y-29529125D01*
X64195420Y-29596440D01*
X64194849Y-29769628D01*
X64580800Y-30155579D01*
X64966751Y-29769628D01*
X64966751Y-30052470D01*
X64722221Y-30297000D01*
X65108172Y-30682951D01*
X65281360Y-30682380D01*
X65375511Y-30384952D01*
X65375511Y-31384952D01*
X65348675Y-31074135D01*
X65281360Y-30911620D01*
X65108172Y-30911049D01*
X64966751Y-31052470D01*
X64966751Y-30824372D01*
X64939379Y-30797000D01*
X64966751Y-30769628D01*
X64966180Y-30596440D01*
X64668752Y-30502289D01*
X64646582Y-30504203D01*
X64580800Y-30438421D01*
X64547832Y-30471388D01*
X64531360Y-30431620D01*
X64439379Y-30431316D01*
X64439379Y-30297000D01*
X64053428Y-29911049D01*
X63880240Y-29911620D01*
X63843141Y-30028817D01*
X63830361Y-30029920D01*
X63781360Y-29911620D01*
X63608172Y-29911049D01*
X63466751Y-30052470D01*
X63466751Y-29769628D01*
X63466180Y-29596440D01*
X63168752Y-29502289D01*
X62857935Y-29529125D01*
X62695420Y-29596440D01*
X62694849Y-29769628D01*
X63080800Y-30155579D01*
X63466751Y-29769628D01*
X63466751Y-30052470D01*
X63222221Y-30297000D01*
X63608172Y-30682951D01*
X63781360Y-30682380D01*
X63794882Y-30639661D01*
X63830800Y-30675579D01*
X63863767Y-30642611D01*
X63880240Y-30682380D01*
X64053428Y-30682951D01*
X64439379Y-30297000D01*
X64439379Y-30431316D01*
X64358172Y-30431049D01*
X63972221Y-30817000D01*
X64358172Y-31202951D01*
X64531360Y-31202380D01*
X64554500Y-31129279D01*
X64580800Y-31155579D01*
X64659014Y-31077364D01*
X64803665Y-31064875D01*
X64966180Y-30997560D01*
X64966751Y-30824372D01*
X64966751Y-31052470D01*
X64722221Y-31297000D01*
X65108172Y-31682951D01*
X65281360Y-31682380D01*
X65375511Y-31384952D01*
X65375511Y-31976911D01*
X65071563Y-32280859D01*
X64966751Y-32280859D01*
X64966751Y-31824372D01*
X64580800Y-31438421D01*
X64439379Y-31579842D01*
X64439379Y-31297000D01*
X64053428Y-30911049D01*
X63880240Y-30911620D01*
X63857099Y-30984720D01*
X63830800Y-30958421D01*
X63809548Y-30979672D01*
X63781360Y-30911620D01*
X63689379Y-30911316D01*
X63689379Y-30817000D01*
X63303428Y-30431049D01*
X63130240Y-30431620D01*
X63116717Y-30474338D01*
X63080800Y-30438421D01*
X63002585Y-30516635D01*
X62939379Y-30522092D01*
X62939379Y-30297000D01*
X62553428Y-29911049D01*
X62380240Y-29911620D01*
X62286089Y-30209048D01*
X62312925Y-30519865D01*
X62380240Y-30682380D01*
X62553428Y-30682951D01*
X62939379Y-30297000D01*
X62939379Y-30522092D01*
X62857935Y-30529125D01*
X62695420Y-30596440D01*
X62694849Y-30769628D01*
X62722221Y-30796999D01*
X62694849Y-30824372D01*
X62695420Y-30997560D01*
X62992848Y-31091711D01*
X63015017Y-31089796D01*
X63080800Y-31155579D01*
X63102051Y-31134327D01*
X63130240Y-31202380D01*
X63303428Y-31202951D01*
X63689379Y-30817000D01*
X63689379Y-30911316D01*
X63608172Y-30911049D01*
X63222221Y-31297000D01*
X63608172Y-31682951D01*
X63781360Y-31682380D01*
X63805441Y-31606306D01*
X63847235Y-31602698D01*
X63880240Y-31682380D01*
X64053428Y-31682951D01*
X64439379Y-31297000D01*
X64439379Y-31579842D01*
X64194849Y-31824372D01*
X64195420Y-31997560D01*
X64492848Y-32091711D01*
X64803665Y-32064875D01*
X64966180Y-31997560D01*
X64966751Y-31824372D01*
X64966751Y-32280859D01*
X63466751Y-32280859D01*
X63466751Y-31824372D01*
X63080800Y-31438421D01*
X62939379Y-31579842D01*
X62939379Y-31297000D01*
X62553428Y-30911049D01*
X62380240Y-30911620D01*
X62286089Y-31209048D01*
X62312925Y-31519865D01*
X62380240Y-31682380D01*
X62553428Y-31682951D01*
X62939379Y-31297000D01*
X62939379Y-31579842D01*
X62694849Y-31824372D01*
X62695420Y-31997560D01*
X62992848Y-32091711D01*
X63303665Y-32064875D01*
X63466180Y-31997560D01*
X63466751Y-31824372D01*
X63466751Y-32280859D01*
X62765941Y-32280859D01*
X62610419Y-32311793D01*
X62478573Y-32399891D01*
X62353678Y-32524785D01*
X62122099Y-32524583D01*
X61874617Y-32626841D01*
X61685106Y-32816022D01*
X61582417Y-33063325D01*
X61582183Y-33331101D01*
X61684441Y-33578583D01*
X61873622Y-33768094D01*
X62120925Y-33870783D01*
X62388701Y-33871017D01*
X62636183Y-33768759D01*
X62825694Y-33579578D01*
X62928383Y-33332275D01*
X62928586Y-33099349D01*
X62934277Y-33093659D01*
X63706234Y-33093659D01*
X63668846Y-33130982D01*
X63566157Y-33378285D01*
X63565923Y-33646061D01*
X63668181Y-33893543D01*
X63857362Y-34083054D01*
X64104665Y-34185743D01*
X64372441Y-34185977D01*
X64619923Y-34083719D01*
X64784769Y-33919160D01*
X64950340Y-33919160D01*
X65219580Y-33919160D01*
X65279904Y-33907160D01*
X65339105Y-33931743D01*
X65606881Y-33931977D01*
X65854363Y-33829719D01*
X66043874Y-33640538D01*
X66146563Y-33393235D01*
X66146766Y-33160309D01*
X66649035Y-32658040D01*
X66586217Y-32809325D01*
X66585983Y-33077101D01*
X66688241Y-33324583D01*
X66877422Y-33514094D01*
X67124725Y-33616783D01*
X67392501Y-33617017D01*
X67639983Y-33514759D01*
X67829494Y-33325578D01*
X67932183Y-33078275D01*
X67932417Y-32810499D01*
X67830159Y-32563017D01*
X67665600Y-32398170D01*
X67665600Y-31191200D01*
X67634665Y-31035678D01*
X67634665Y-31035677D01*
X67546568Y-30903832D01*
X66868736Y-30226000D01*
X68101986Y-28992750D01*
X68166125Y-29019383D01*
X68433901Y-29019617D01*
X68681383Y-28917359D01*
X68870894Y-28728178D01*
X68973583Y-28480875D01*
X68973817Y-28213099D01*
X68973817Y-28943172D01*
X68825420Y-29004640D01*
X68824849Y-29177828D01*
X69210800Y-29563779D01*
X69596751Y-29177828D01*
X69596751Y-29319534D01*
X69510240Y-29319820D01*
X69416089Y-29617248D01*
X69418003Y-29639417D01*
X69352221Y-29705200D01*
X69373472Y-29726451D01*
X69305420Y-29754640D01*
X69304849Y-29927828D01*
X69690800Y-30313779D01*
X70076751Y-29927828D01*
X70076751Y-29980670D01*
X69824849Y-30232572D01*
X69825420Y-30405760D01*
X69868138Y-30419282D01*
X69832221Y-30455200D01*
X69865188Y-30488167D01*
X69825420Y-30504640D01*
X69824849Y-30677828D01*
X70210800Y-31063779D01*
X70596751Y-30677828D01*
X70596751Y-30960670D01*
X70352221Y-31205200D01*
X70738172Y-31591151D01*
X70911360Y-31590580D01*
X71005511Y-31293152D01*
X71005511Y-34238152D01*
X70978675Y-33927335D01*
X70911360Y-33764820D01*
X70738172Y-33764249D01*
X70596751Y-33905670D01*
X70596751Y-33622828D01*
X70596751Y-31732572D01*
X70210800Y-31346621D01*
X70076751Y-31480670D01*
X70076751Y-30982572D01*
X69690800Y-30596621D01*
X69596751Y-30690670D01*
X69596751Y-30677828D01*
X69596180Y-30504640D01*
X69523079Y-30481499D01*
X69549379Y-30455200D01*
X69528127Y-30433948D01*
X69596180Y-30405760D01*
X69596751Y-30232572D01*
X69210800Y-29846621D01*
X69069379Y-29988042D01*
X69069379Y-29705200D01*
X68683428Y-29319249D01*
X68510240Y-29319820D01*
X68416089Y-29617248D01*
X68442925Y-29928065D01*
X68510240Y-30090580D01*
X68683428Y-30091151D01*
X69069379Y-29705200D01*
X69069379Y-29988042D01*
X68824849Y-30232572D01*
X68825420Y-30405760D01*
X68901493Y-30429841D01*
X68905101Y-30471635D01*
X68825420Y-30504640D01*
X68824849Y-30677828D01*
X69210800Y-31063779D01*
X69596751Y-30677828D01*
X69596751Y-30690670D01*
X69304849Y-30982572D01*
X69305420Y-31155760D01*
X69378520Y-31178900D01*
X69352221Y-31205200D01*
X69430435Y-31283414D01*
X69442925Y-31428065D01*
X69510240Y-31590580D01*
X69683428Y-31591151D01*
X69710800Y-31563779D01*
X69738172Y-31591151D01*
X69911360Y-31590580D01*
X70005511Y-31293152D01*
X70003596Y-31270982D01*
X70069379Y-31205200D01*
X70036411Y-31172232D01*
X70076180Y-31155760D01*
X70076751Y-30982572D01*
X70076751Y-31480670D01*
X69824849Y-31732572D01*
X69825420Y-31905760D01*
X70122848Y-31999911D01*
X70433665Y-31973075D01*
X70596180Y-31905760D01*
X70596751Y-31732572D01*
X70596751Y-33622828D01*
X70596180Y-33449640D01*
X70298752Y-33355489D01*
X69987935Y-33382325D01*
X69825420Y-33449640D01*
X69824849Y-33622828D01*
X70210800Y-34008779D01*
X70596751Y-33622828D01*
X70596751Y-33905670D01*
X70352221Y-34150200D01*
X70738172Y-34536151D01*
X70911360Y-34535580D01*
X71005511Y-34238152D01*
X71005511Y-35738152D01*
X70978675Y-35427335D01*
X70911360Y-35264820D01*
X70738172Y-35264249D01*
X70596751Y-35405670D01*
X70596751Y-35122828D01*
X70596180Y-34949640D01*
X70478982Y-34912541D01*
X70477879Y-34899761D01*
X70596180Y-34850760D01*
X70596751Y-34677572D01*
X70210800Y-34291621D01*
X70076751Y-34425670D01*
X70076751Y-34372828D01*
X70076180Y-34199640D01*
X70033461Y-34186117D01*
X70069379Y-34150200D01*
X69991164Y-34071985D01*
X69978675Y-33927335D01*
X69911360Y-33764820D01*
X69738172Y-33764249D01*
X69710800Y-33791621D01*
X69683428Y-33764249D01*
X69596751Y-33764534D01*
X69596751Y-33622828D01*
X69596751Y-31732572D01*
X69210800Y-31346621D01*
X69069379Y-31488042D01*
X69069379Y-31205200D01*
X68683428Y-30819249D01*
X68510240Y-30819820D01*
X68416089Y-31117248D01*
X68442925Y-31428065D01*
X68510240Y-31590580D01*
X68683428Y-31591151D01*
X69069379Y-31205200D01*
X69069379Y-31488042D01*
X68824849Y-31732572D01*
X68825420Y-31905760D01*
X69122848Y-31999911D01*
X69433665Y-31973075D01*
X69596180Y-31905760D01*
X69596751Y-31732572D01*
X69596751Y-33622828D01*
X69596180Y-33449640D01*
X69298752Y-33355489D01*
X68987935Y-33382325D01*
X68825420Y-33449640D01*
X68824849Y-33622828D01*
X69210800Y-34008779D01*
X69596751Y-33622828D01*
X69596751Y-33764534D01*
X69510240Y-33764820D01*
X69416089Y-34062248D01*
X69418003Y-34084417D01*
X69352221Y-34150200D01*
X69373472Y-34171451D01*
X69305420Y-34199640D01*
X69304849Y-34372828D01*
X69690800Y-34758779D01*
X70076751Y-34372828D01*
X70076751Y-34425670D01*
X69824849Y-34677572D01*
X69825420Y-34850760D01*
X69868138Y-34864282D01*
X69832221Y-34900200D01*
X69865188Y-34933167D01*
X69825420Y-34949640D01*
X69824849Y-35122828D01*
X70210800Y-35508779D01*
X70596751Y-35122828D01*
X70596751Y-35405670D01*
X70352221Y-35650200D01*
X70738172Y-36036151D01*
X70911360Y-36035580D01*
X71005511Y-35738152D01*
X71005511Y-37999543D01*
X70745792Y-37917329D01*
X70596751Y-37930197D01*
X70596751Y-36177572D01*
X70210800Y-35791621D01*
X70076751Y-35925670D01*
X70076751Y-35427572D01*
X69690800Y-35041621D01*
X69596751Y-35135670D01*
X69596751Y-35122828D01*
X69596180Y-34949640D01*
X69523079Y-34926499D01*
X69549379Y-34900200D01*
X69528127Y-34878948D01*
X69596180Y-34850760D01*
X69596751Y-34677572D01*
X69210800Y-34291621D01*
X69069379Y-34433042D01*
X69069379Y-34150200D01*
X68683428Y-33764249D01*
X68510240Y-33764820D01*
X68416089Y-34062248D01*
X68442925Y-34373065D01*
X68510240Y-34535580D01*
X68683428Y-34536151D01*
X69069379Y-34150200D01*
X69069379Y-34433042D01*
X68824849Y-34677572D01*
X68825420Y-34850760D01*
X68901493Y-34874841D01*
X68905101Y-34916635D01*
X68825420Y-34949640D01*
X68824849Y-35122828D01*
X69210800Y-35508779D01*
X69596751Y-35122828D01*
X69596751Y-35135670D01*
X69304849Y-35427572D01*
X69305420Y-35600760D01*
X69378520Y-35623900D01*
X69352221Y-35650200D01*
X69430435Y-35728414D01*
X69442925Y-35873065D01*
X69510240Y-36035580D01*
X69683428Y-36036151D01*
X69710800Y-36008779D01*
X69738172Y-36036151D01*
X69911360Y-36035580D01*
X70005511Y-35738152D01*
X70003596Y-35715982D01*
X70069379Y-35650200D01*
X70036411Y-35617232D01*
X70076180Y-35600760D01*
X70076751Y-35427572D01*
X70076751Y-35925670D01*
X69824849Y-36177572D01*
X69825420Y-36350760D01*
X70122848Y-36444911D01*
X70433665Y-36418075D01*
X70596180Y-36350760D01*
X70596751Y-36177572D01*
X70596751Y-37930197D01*
X70434975Y-37944165D01*
X70272460Y-38011480D01*
X70271889Y-38184668D01*
X70657840Y-38570619D01*
X71043791Y-38184668D01*
X71043791Y-38467510D01*
X70799261Y-38712040D01*
X71185212Y-39097991D01*
X71358400Y-39097420D01*
X71452551Y-38799992D01*
X71452551Y-40299992D01*
X71425715Y-39989175D01*
X71358400Y-39826660D01*
X71185212Y-39826089D01*
X71043791Y-39967510D01*
X71043791Y-39684668D01*
X71043220Y-39511480D01*
X70926022Y-39474381D01*
X70924919Y-39461601D01*
X71043220Y-39412600D01*
X71043791Y-39239412D01*
X70657840Y-38853461D01*
X70523791Y-38987510D01*
X70523791Y-38934668D01*
X70523220Y-38761480D01*
X70480501Y-38747957D01*
X70516419Y-38712040D01*
X70438204Y-38633825D01*
X70425715Y-38489175D01*
X70358400Y-38326660D01*
X70185212Y-38326089D01*
X70157840Y-38353461D01*
X70130468Y-38326089D01*
X70043791Y-38326374D01*
X70043791Y-38184668D01*
X70043220Y-38011480D01*
X69745792Y-37917329D01*
X69596751Y-37930197D01*
X69596751Y-36177572D01*
X69210800Y-35791621D01*
X69069379Y-35933042D01*
X69069379Y-35650200D01*
X68683428Y-35264249D01*
X68510240Y-35264820D01*
X68416089Y-35562248D01*
X68442925Y-35873065D01*
X68510240Y-36035580D01*
X68683428Y-36036151D01*
X69069379Y-35650200D01*
X69069379Y-35933042D01*
X68824849Y-36177572D01*
X68825420Y-36350760D01*
X69122848Y-36444911D01*
X69433665Y-36418075D01*
X69596180Y-36350760D01*
X69596751Y-36177572D01*
X69596751Y-37930197D01*
X69434975Y-37944165D01*
X69272460Y-38011480D01*
X69271889Y-38184668D01*
X69657840Y-38570619D01*
X70043791Y-38184668D01*
X70043791Y-38326374D01*
X69957280Y-38326660D01*
X69863129Y-38624088D01*
X69865043Y-38646257D01*
X69799261Y-38712040D01*
X69820512Y-38733291D01*
X69752460Y-38761480D01*
X69751889Y-38934668D01*
X70137840Y-39320619D01*
X70523791Y-38934668D01*
X70523791Y-38987510D01*
X70271889Y-39239412D01*
X70272460Y-39412600D01*
X70315178Y-39426122D01*
X70279261Y-39462040D01*
X70312228Y-39495007D01*
X70272460Y-39511480D01*
X70271889Y-39684668D01*
X70657840Y-40070619D01*
X71043791Y-39684668D01*
X71043791Y-39967510D01*
X70799261Y-40212040D01*
X71185212Y-40597991D01*
X71358400Y-40597420D01*
X71452551Y-40299992D01*
X71452551Y-46979840D01*
X71043791Y-46979840D01*
X71043791Y-40739412D01*
X70657840Y-40353461D01*
X70523791Y-40487510D01*
X70523791Y-39989412D01*
X70137840Y-39603461D01*
X70043791Y-39697510D01*
X70043791Y-39684668D01*
X70043220Y-39511480D01*
X69970119Y-39488339D01*
X69996419Y-39462040D01*
X69975167Y-39440788D01*
X70043220Y-39412600D01*
X70043791Y-39239412D01*
X69657840Y-38853461D01*
X69516419Y-38994882D01*
X69516419Y-38712040D01*
X69130468Y-38326089D01*
X68957280Y-38326660D01*
X68863129Y-38624088D01*
X68889965Y-38934905D01*
X68957280Y-39097420D01*
X69130468Y-39097991D01*
X69516419Y-38712040D01*
X69516419Y-38994882D01*
X69271889Y-39239412D01*
X69272460Y-39412600D01*
X69348533Y-39436681D01*
X69352141Y-39478475D01*
X69272460Y-39511480D01*
X69271889Y-39684668D01*
X69657840Y-40070619D01*
X70043791Y-39684668D01*
X70043791Y-39697510D01*
X69751889Y-39989412D01*
X69752460Y-40162600D01*
X69825560Y-40185740D01*
X69799261Y-40212040D01*
X69877475Y-40290254D01*
X69889965Y-40434905D01*
X69957280Y-40597420D01*
X70130468Y-40597991D01*
X70157840Y-40570619D01*
X70185212Y-40597991D01*
X70358400Y-40597420D01*
X70452551Y-40299992D01*
X70450636Y-40277822D01*
X70516419Y-40212040D01*
X70483451Y-40179072D01*
X70523220Y-40162600D01*
X70523791Y-39989412D01*
X70523791Y-40487510D01*
X70271889Y-40739412D01*
X70272460Y-40912600D01*
X70569888Y-41006751D01*
X70880705Y-40979915D01*
X71043220Y-40912600D01*
X71043791Y-40739412D01*
X71043791Y-46979840D01*
X70043791Y-46979840D01*
X70043791Y-40739412D01*
X69657840Y-40353461D01*
X69516419Y-40494882D01*
X69516419Y-40212040D01*
X69130468Y-39826089D01*
X68957280Y-39826660D01*
X68863129Y-40124088D01*
X68889965Y-40434905D01*
X68957280Y-40597420D01*
X69130468Y-40597991D01*
X69516419Y-40212040D01*
X69516419Y-40494882D01*
X69271889Y-40739412D01*
X69272460Y-40912600D01*
X69569888Y-41006751D01*
X69880705Y-40979915D01*
X70043220Y-40912600D01*
X70043791Y-40739412D01*
X70043791Y-46979840D01*
X68146717Y-46979840D01*
X68097537Y-46930659D01*
X68097537Y-42183099D01*
X67995279Y-41935617D01*
X67806098Y-41746106D01*
X67558795Y-41643417D01*
X67291019Y-41643183D01*
X67043537Y-41745441D01*
X66878690Y-41910000D01*
X66521910Y-41910000D01*
X66383658Y-41771506D01*
X66136355Y-41668817D01*
X65868579Y-41668583D01*
X65621097Y-41770841D01*
X65431586Y-41960022D01*
X65328897Y-42207325D01*
X65328663Y-42475101D01*
X65430921Y-42722583D01*
X65620102Y-42912094D01*
X65867405Y-43014783D01*
X66135181Y-43015017D01*
X66382663Y-42912759D01*
X66547509Y-42748200D01*
X66904289Y-42748200D01*
X67042542Y-42886694D01*
X67289845Y-42989383D01*
X67557621Y-42989617D01*
X67805103Y-42887359D01*
X67994614Y-42698178D01*
X68097303Y-42450875D01*
X68097537Y-42183099D01*
X68097537Y-46930659D01*
X67356248Y-46189370D01*
X67216162Y-46095768D01*
X67050919Y-46062899D01*
X66024533Y-46062899D01*
X66024533Y-44881353D01*
X65907281Y-44597582D01*
X65690360Y-44380282D01*
X65406794Y-44262535D01*
X65099753Y-44262267D01*
X64815982Y-44379519D01*
X64598682Y-44596440D01*
X64480935Y-44880006D01*
X64480667Y-45187047D01*
X64597919Y-45470818D01*
X64814840Y-45688118D01*
X65098406Y-45805865D01*
X65405447Y-45806133D01*
X65689218Y-45688881D01*
X65906518Y-45471960D01*
X66024265Y-45188394D01*
X66024533Y-44881353D01*
X66024533Y-46062899D01*
X61049957Y-46062899D01*
X59677245Y-44690187D01*
X59677417Y-44494499D01*
X59575159Y-44247017D01*
X59385978Y-44057506D01*
X59138675Y-43954817D01*
X58966111Y-43954666D01*
X58966217Y-43834099D01*
X58863959Y-43586617D01*
X58684322Y-43406667D01*
X58668465Y-43326945D01*
X58668465Y-43326944D01*
X58580368Y-43195099D01*
X57968307Y-42583038D01*
X57985355Y-42583053D01*
X58923552Y-43521250D01*
X59080119Y-43625864D01*
X59264802Y-43662601D01*
X59264802Y-43662600D01*
X59264807Y-43662600D01*
X61125680Y-43662600D01*
X61213222Y-43750294D01*
X61460525Y-43852983D01*
X61728301Y-43853217D01*
X61975783Y-43750959D01*
X62165294Y-43561778D01*
X62267983Y-43314475D01*
X62268092Y-43189407D01*
X62421050Y-43036449D01*
X62372735Y-43152806D01*
X62372467Y-43459847D01*
X62489719Y-43743618D01*
X62706640Y-43960918D01*
X62990206Y-44078665D01*
X63297247Y-44078933D01*
X63581018Y-43961681D01*
X63798318Y-43744760D01*
X63916065Y-43461194D01*
X63916333Y-43154153D01*
X63799081Y-42870382D01*
X63582160Y-42653082D01*
X63298594Y-42535335D01*
X62991553Y-42535067D01*
X62873763Y-42583736D01*
X63063332Y-42394168D01*
X63143571Y-42394168D01*
X63159184Y-42394168D01*
X63246726Y-42481862D01*
X63494029Y-42584551D01*
X63761805Y-42584785D01*
X64009287Y-42482527D01*
X64198798Y-42293346D01*
X64301487Y-42046043D01*
X64301505Y-42025173D01*
X64306840Y-42030518D01*
X64590406Y-42148265D01*
X64897447Y-42148533D01*
X65181218Y-42031281D01*
X65398518Y-41814360D01*
X65516265Y-41530794D01*
X65516533Y-41223753D01*
X65399281Y-40939982D01*
X65182360Y-40722682D01*
X65100474Y-40688679D01*
X66258997Y-39530156D01*
X66281926Y-39585646D01*
X66461640Y-39765673D01*
X66461640Y-40107315D01*
X66297747Y-40270922D01*
X66195058Y-40518225D01*
X66194824Y-40786000D01*
X66297082Y-41033482D01*
X66486262Y-41222993D01*
X66733565Y-41325682D01*
X67001340Y-41325916D01*
X67248822Y-41223658D01*
X67438333Y-41034478D01*
X67541022Y-40787175D01*
X67541256Y-40519400D01*
X67438998Y-40271918D01*
X67274440Y-40107072D01*
X67274440Y-39735120D01*
X67423179Y-39586641D01*
X67525868Y-39339338D01*
X67526102Y-39071562D01*
X67467137Y-38928858D01*
X67682073Y-38840049D01*
X67871584Y-38650868D01*
X67974273Y-38403565D01*
X67974507Y-38135789D01*
X67907017Y-37972451D01*
X67907017Y-36442699D01*
X67804759Y-36195217D01*
X67615578Y-36005706D01*
X67538600Y-35973741D01*
X67538600Y-35063986D01*
X67702494Y-34900378D01*
X67805183Y-34653075D01*
X67805417Y-34385299D01*
X67703159Y-34137817D01*
X67513978Y-33948306D01*
X67266675Y-33845617D01*
X66998899Y-33845383D01*
X66751417Y-33947641D01*
X66561906Y-34136822D01*
X66459217Y-34384125D01*
X66458983Y-34651901D01*
X66561241Y-34899383D01*
X66725800Y-35064229D01*
X66725800Y-36132036D01*
X66663506Y-36194222D01*
X66560817Y-36441525D01*
X66560583Y-36709301D01*
X66662841Y-36956783D01*
X66852022Y-37146294D01*
X67099325Y-37248983D01*
X67367101Y-37249217D01*
X67614583Y-37146959D01*
X67804094Y-36957778D01*
X67906783Y-36710475D01*
X67907017Y-36442699D01*
X67907017Y-37972451D01*
X67872249Y-37888307D01*
X67683068Y-37698796D01*
X67435765Y-37596107D01*
X67167989Y-37595873D01*
X66920507Y-37698131D01*
X66730996Y-37887312D01*
X66704785Y-37950433D01*
X66657960Y-37981722D01*
X64380682Y-40259000D01*
X63356270Y-40259000D01*
X63372853Y-40219066D01*
X63373087Y-39951290D01*
X63270829Y-39703808D01*
X63157070Y-39589850D01*
X63157070Y-36664870D01*
X63122268Y-36489907D01*
X63023159Y-36341581D01*
X62817289Y-36135711D01*
X62668963Y-36036602D01*
X62494000Y-36001800D01*
X59206675Y-36001800D01*
X59093778Y-35888706D01*
X58846475Y-35786017D01*
X58578699Y-35785783D01*
X58534417Y-35804080D01*
X58534417Y-32937499D01*
X58432159Y-32690017D01*
X58242978Y-32500506D01*
X58036145Y-32414621D01*
X58076983Y-32316275D01*
X58077217Y-32048499D01*
X57974959Y-31801017D01*
X57785778Y-31611506D01*
X57538475Y-31508817D01*
X57270699Y-31508583D01*
X57023217Y-31610841D01*
X56909259Y-31724600D01*
X55499000Y-31724600D01*
X55324037Y-31759402D01*
X55175710Y-31858511D01*
X55042898Y-31991322D01*
X54883099Y-31991183D01*
X54635617Y-32093441D01*
X54446106Y-32282622D01*
X54343417Y-32529925D01*
X54343183Y-32797701D01*
X54445441Y-33045183D01*
X54634622Y-33234694D01*
X54881925Y-33337383D01*
X55149701Y-33337617D01*
X55397183Y-33235359D01*
X55586694Y-33046178D01*
X55689383Y-32798875D01*
X55689522Y-32639000D01*
X55817015Y-32639000D01*
X55766906Y-32689022D01*
X55664217Y-32936325D01*
X55663983Y-33204101D01*
X55766241Y-33451583D01*
X55955422Y-33641094D01*
X56202725Y-33743783D01*
X56470501Y-33744017D01*
X56717983Y-33641759D01*
X56831940Y-33528000D01*
X57366524Y-33528000D01*
X57479422Y-33641094D01*
X57726725Y-33743783D01*
X57994501Y-33744017D01*
X58241983Y-33641759D01*
X58431494Y-33452578D01*
X58534183Y-33205275D01*
X58534417Y-32937499D01*
X58534417Y-35804080D01*
X58331217Y-35888041D01*
X58141706Y-36077222D01*
X58039017Y-36324525D01*
X58038783Y-36592301D01*
X58141041Y-36839783D01*
X58330222Y-37029294D01*
X58577525Y-37131983D01*
X58845301Y-37132217D01*
X59092783Y-37029959D01*
X59206740Y-36916200D01*
X62242670Y-36916200D01*
X62242670Y-39589915D01*
X62129576Y-39702813D01*
X62026887Y-39950116D01*
X62026653Y-40217892D01*
X62098666Y-40392175D01*
X61977873Y-40512969D01*
X60812679Y-40512969D01*
X60657156Y-40543904D01*
X60525311Y-40632001D01*
X59704512Y-41452800D01*
X58994736Y-41452800D01*
X58593067Y-41051131D01*
X58461222Y-40963034D01*
X58305699Y-40932099D01*
X57764679Y-40932099D01*
X57609156Y-40963034D01*
X57477311Y-41051131D01*
X57180131Y-41348311D01*
X57092034Y-41480156D01*
X57061099Y-41635679D01*
X57061099Y-42656966D01*
X57092034Y-42812489D01*
X57180131Y-42944334D01*
X57772105Y-43536308D01*
X57722706Y-43585622D01*
X57620017Y-43832925D01*
X57619783Y-44100701D01*
X57722041Y-44348183D01*
X57911222Y-44537694D01*
X58158525Y-44640383D01*
X58331088Y-44640533D01*
X58330983Y-44761101D01*
X58433241Y-45008583D01*
X58622422Y-45198094D01*
X58869725Y-45300783D01*
X59066697Y-45300955D01*
X60565770Y-46800028D01*
X60698028Y-46888400D01*
X60463986Y-46888400D01*
X60300378Y-46724506D01*
X60053075Y-46621817D01*
X59785299Y-46621583D01*
X59537817Y-46723841D01*
X59348306Y-46913022D01*
X59245617Y-47160325D01*
X59245383Y-47428101D01*
X59347641Y-47675583D01*
X59536822Y-47865094D01*
X59784125Y-47967783D01*
X60051901Y-47968017D01*
X60299383Y-47865759D01*
X60464229Y-47701200D01*
X61434881Y-47701200D01*
X61587525Y-47764583D01*
X61855301Y-47764817D01*
X62102783Y-47662559D01*
X62249240Y-47516356D01*
X62294041Y-47624783D01*
X62483222Y-47814294D01*
X62730525Y-47916983D01*
X62998301Y-47917217D01*
X63245783Y-47814959D01*
X63334296Y-47726600D01*
X64694400Y-47726600D01*
X64649482Y-47771440D01*
X64531735Y-48055006D01*
X64531467Y-48362047D01*
X64648719Y-48645818D01*
X64865640Y-48863118D01*
X65149206Y-48980865D01*
X65456247Y-48981133D01*
X65740018Y-48863881D01*
X65957318Y-48646960D01*
X66075065Y-48363394D01*
X66075333Y-48056353D01*
X65958081Y-47772582D01*
X65912179Y-47726600D01*
X66221100Y-47726600D01*
X66255891Y-47761390D01*
X66255783Y-47885301D01*
X66358041Y-48132783D01*
X66547222Y-48322294D01*
X66794525Y-48424983D01*
X67062301Y-48425217D01*
X67309783Y-48322959D01*
X67499294Y-48133778D01*
X67601983Y-47886475D01*
X67602183Y-47656620D01*
X67662528Y-47716965D01*
X67662531Y-47716969D01*
X67802617Y-47810571D01*
X67967860Y-47843440D01*
X71466109Y-47843440D01*
X71604362Y-47981934D01*
X71851665Y-48084623D01*
X72119441Y-48084857D01*
X72366923Y-47982599D01*
X72556434Y-47793418D01*
X72659123Y-47546115D01*
X72659357Y-47278339D01*
X72659357Y-52501800D01*
X65998866Y-52501800D01*
X65999133Y-52196553D01*
X65881881Y-51912782D01*
X65664960Y-51695482D01*
X65381394Y-51577735D01*
X65074353Y-51577467D01*
X64790582Y-51694719D01*
X64573282Y-51911640D01*
X64495860Y-52098091D01*
X64495860Y-51599933D01*
X64459811Y-51411059D01*
X64065558Y-51305698D01*
X63660996Y-51359230D01*
X63535869Y-51411059D01*
X63499820Y-51599933D01*
X63997840Y-52097953D01*
X64495860Y-51599933D01*
X64495860Y-52098091D01*
X64492498Y-52106188D01*
X64249287Y-52349400D01*
X64263429Y-52363542D01*
X64125172Y-52501800D01*
X63870508Y-52501800D01*
X63732250Y-52363542D01*
X63746393Y-52349400D01*
X63486437Y-52089444D01*
X63415541Y-51917862D01*
X63198620Y-51700562D01*
X62915054Y-51582815D01*
X62608013Y-51582547D01*
X62324242Y-51699799D01*
X62106942Y-51916720D01*
X61989195Y-52200286D01*
X61988931Y-52501800D01*
X60512733Y-52501800D01*
X60512733Y-49910553D01*
X60395481Y-49626782D01*
X60197289Y-49428244D01*
X60394718Y-49231160D01*
X60512465Y-48947594D01*
X60512733Y-48640553D01*
X60395481Y-48356782D01*
X60178560Y-48139482D01*
X59894994Y-48021735D01*
X59587953Y-48021467D01*
X59304182Y-48138719D01*
X59086882Y-48355640D01*
X58969135Y-48639206D01*
X58968867Y-48946247D01*
X59086119Y-49230018D01*
X59284310Y-49428555D01*
X59086882Y-49625640D01*
X58969135Y-49909206D01*
X58969094Y-49955536D01*
X58777394Y-49875935D01*
X58470353Y-49875667D01*
X58186582Y-49992919D01*
X57969282Y-50209840D01*
X57851535Y-50493406D01*
X57851267Y-50800447D01*
X57968519Y-51084218D01*
X58185440Y-51301518D01*
X58469006Y-51419265D01*
X58776047Y-51419533D01*
X58943541Y-51350325D01*
X58943467Y-51435447D01*
X59060719Y-51719218D01*
X59277640Y-51936518D01*
X59561206Y-52054265D01*
X59868247Y-52054533D01*
X60152018Y-51937281D01*
X60369318Y-51720360D01*
X60487065Y-51436794D01*
X60487333Y-51129753D01*
X60370081Y-50845982D01*
X60209967Y-50685588D01*
X60394718Y-50501160D01*
X60512465Y-50217594D01*
X60512733Y-49910553D01*
X60512733Y-52501800D01*
X54162733Y-52501800D01*
X54162733Y-51078953D01*
X54045481Y-50795182D01*
X53828560Y-50577882D01*
X53544994Y-50460135D01*
X53456533Y-50460057D01*
X53456533Y-48158953D01*
X53339281Y-47875182D01*
X53201089Y-47736748D01*
X53338518Y-47599560D01*
X53456265Y-47315994D01*
X53456533Y-47008953D01*
X53339281Y-46725182D01*
X53176089Y-46561705D01*
X53338518Y-46399560D01*
X53456265Y-46115994D01*
X53456533Y-45808953D01*
X53339281Y-45525182D01*
X53122360Y-45307882D01*
X52838794Y-45190135D01*
X52531753Y-45189867D01*
X52247982Y-45307119D01*
X52030682Y-45524040D01*
X51912935Y-45807606D01*
X51912667Y-46114647D01*
X52029919Y-46398418D01*
X52193110Y-46561894D01*
X52030682Y-46724040D01*
X51912935Y-47007606D01*
X51912667Y-47314647D01*
X52029919Y-47598418D01*
X52168110Y-47736851D01*
X52030682Y-47874040D01*
X51912935Y-48157606D01*
X51912667Y-48464647D01*
X52029919Y-48748418D01*
X52246840Y-48965718D01*
X52530406Y-49083465D01*
X52837447Y-49083733D01*
X53121218Y-48966481D01*
X53338518Y-48749560D01*
X53456265Y-48465994D01*
X53456533Y-48158953D01*
X53456533Y-50460057D01*
X53237953Y-50459867D01*
X52954182Y-50577119D01*
X52736882Y-50794040D01*
X52619135Y-51077606D01*
X52618867Y-51384647D01*
X52736119Y-51668418D01*
X52953040Y-51885718D01*
X53236606Y-52003465D01*
X53543647Y-52003733D01*
X53827418Y-51886481D01*
X54044718Y-51669560D01*
X54162465Y-51385994D01*
X54162733Y-51078953D01*
X54162733Y-52501800D01*
X49733200Y-52501800D01*
X49733200Y-34427781D01*
X50012764Y-34543867D01*
X50315906Y-34544132D01*
X50596074Y-34428368D01*
X50810615Y-34214202D01*
X50926867Y-33934236D01*
X50927132Y-33631094D01*
X50811368Y-33350926D01*
X50800000Y-33339538D01*
X50800000Y-27441026D01*
X51698026Y-26543000D01*
X61914201Y-26543000D01*
X61924798Y-26553615D01*
X62204764Y-26669867D01*
X62507906Y-26670132D01*
X62788074Y-26554368D01*
X63002615Y-26340202D01*
X63118867Y-26060236D01*
X63119132Y-25757094D01*
X63003368Y-25476926D01*
X63002643Y-25476200D01*
X78283509Y-25476200D01*
X78288648Y-26026165D01*
X77883568Y-25755499D01*
X77368400Y-25653026D01*
X76853232Y-25755499D01*
X76416493Y-26047319D01*
X76124673Y-26484058D01*
X76022200Y-26999226D01*
X76022200Y-27051974D01*
X76124673Y-27567142D01*
X76390780Y-27965400D01*
X76236196Y-27965400D01*
X76021478Y-28054339D01*
X75857139Y-28218677D01*
X75768200Y-28433395D01*
X75768200Y-29241750D01*
X75914250Y-29387800D01*
X77190600Y-29387800D01*
X77190600Y-29367800D01*
X77546200Y-29367800D01*
X77546200Y-29387800D01*
X77566200Y-29387800D01*
X77566200Y-29743400D01*
X77546200Y-29743400D01*
X77546200Y-31019750D01*
X77692250Y-31165800D01*
X78268195Y-31165800D01*
X78336682Y-31165800D01*
X78536085Y-52501800D01*
M02*
