M48
;DRILL file {kicad (2014-12-04 BZR 5312)-product} date 1/18/2015 1:46:42 PM
;FORMAT={-:-/ absolute / inch / decimal}
FMAT,2
INCH,TZ
T1C0.013
T2C0.018
T3C0.028
T4C0.030
T5C0.040
%
G90
G05
M72
T1
X1.9547Y-1.4523
X2.0054Y-1.8339
X2.0466Y-1.657
X2.0466Y-1.715
X2.0755Y-1.686
X2.099Y-1.5443
X2.1046Y-1.715
X2.1056Y-1.656
X2.1329Y-1.8894
X2.1647Y-1.581
X2.1707Y-1.4796
X2.2001Y-1.5291
X2.2254Y-1.5613
X2.2275Y-1.6762
X2.2733Y-1.6989
X2.2918Y-1.6381
X2.3107Y-1.5807
X2.3286Y-1.444
X2.3513Y-1.4118
X2.3867Y-1.7973
X2.4319Y-1.7745
X2.4336Y-1.3295
X2.522Y-1.8298
X2.5248Y-1.6011
X2.5833Y-1.293
X2.595Y-1.5718
X2.6583Y-1.5334
X2.6911Y-1.6262
X2.7142Y-1.5237
T2
X1.8655Y-1.7136
X1.8655Y-1.7569
X1.8655Y-1.8002
X1.8655Y-1.8435
X1.8655Y-1.9222
X2.2514Y-1.8159
X2.4089Y-1.7215
X2.6475Y-1.8954
X2.7035Y-1.8942
X2.7691Y-1.198
T3
X2.3872Y-1.1371
X2.4372Y-1.1371
X2.4872Y-1.1371
X2.5372Y-1.1371
X2.5872Y-1.1371
X2.6372Y-1.1371
T4
X1.9041Y-1.1553
X1.9041Y-1.2553
X1.9041Y-1.3553
X2.0041Y-1.1553
X2.0041Y-1.2553
X2.0041Y-1.3553
X2.1041Y-1.1553
X2.1041Y-1.2553
X2.1041Y-1.3553
X2.2041Y-1.1553
X2.2041Y-1.2553
X2.2041Y-1.3553
X2.2356Y-1.9892
X2.2356Y-2.0892
X2.2356Y-2.1892
X2.3356Y-1.9892
X2.3356Y-2.0892
X2.3356Y-2.1892
X2.4356Y-1.9892
X2.4356Y-2.0892
X2.4356Y-2.1892
X2.5356Y-1.9892
X2.5356Y-2.0892
X2.5356Y-2.1892
T5
X2.0506Y-2.0888
X2.0506Y-2.1888
T0
M30
