G04 #@! TF.FileFunction,Copper,L1,Top,Signal*
%FSLAX46Y46*%
G04 Gerber Fmt 4.6, Leading zero omitted, Abs format (unit mm)*
G04 Created by KiCad (PCBNEW (2014-12-04 BZR 5312)-product) date 1/18/2015 1:46:40 PM*
%MOMM*%
G01*
G04 APERTURE LIST*
%ADD10C,0.100000*%
%ADD11R,0.700000X1.200000*%
%ADD12R,0.550000X1.200000*%
%ADD13R,0.599440X0.398780*%
%ADD14R,0.398780X0.599440*%
%ADD15R,0.600000X0.400000*%
%ADD16R,0.550000X1.000000*%
%ADD17R,0.850000X0.350000*%
%ADD18R,0.350000X0.800000*%
%ADD19O,0.248920X0.800000*%
%ADD20O,0.800000X0.248920*%
%ADD21R,2.250000X2.250000*%
%ADD22C,0.883200*%
%ADD23R,2.032000X2.032000*%
%ADD24O,2.032000X2.032000*%
%ADD25R,1.800000X1.000000*%
%ADD26C,1.117600*%
%ADD27R,0.420000X0.600000*%
%ADD28C,1.524000*%
%ADD29R,0.400000X0.600000*%
%ADD30C,0.685800*%
%ADD31C,0.609600*%
%ADD32C,0.304800*%
%ADD33C,0.406400*%
%ADD34C,0.203200*%
%ADD35C,0.508000*%
%ADD36C,0.254000*%
%ADD37C,0.152400*%
G04 APERTURE END LIST*
D10*
D11*
X51511200Y-38676580D03*
D12*
X50561200Y-38676580D03*
D11*
X49611200Y-38666580D03*
D13*
X51876960Y-47312580D03*
X51876960Y-48211740D03*
D14*
X53534500Y-37924880D03*
X52635340Y-37924880D03*
D13*
X52882800Y-47312580D03*
X52882800Y-48211740D03*
X68689580Y-28451400D03*
X68689580Y-29350560D03*
D14*
X69545520Y-55800100D03*
X68646360Y-55800100D03*
X67719260Y-50529600D03*
X68618420Y-50529600D03*
X47425120Y-56354700D03*
X48324280Y-56354700D03*
X47399720Y-50665100D03*
X48298880Y-50665100D03*
D13*
X69677280Y-44808140D03*
X69677280Y-45707300D03*
X70111620Y-42847260D03*
X70111620Y-43746420D03*
D14*
X67378580Y-39944040D03*
X68277740Y-39944040D03*
D13*
X62499240Y-42811700D03*
X62499240Y-41912540D03*
X49884920Y-47375300D03*
X49884920Y-48274460D03*
D15*
X49884920Y-46574880D03*
X49884920Y-45674880D03*
X59349640Y-37583960D03*
X59349640Y-38483960D03*
D16*
X67660840Y-54441200D03*
X68610840Y-54441200D03*
X69560840Y-54441200D03*
X69560840Y-51741200D03*
X67660840Y-51741200D03*
D17*
X64015970Y-42321670D03*
X64015970Y-42821670D03*
X64015970Y-43321670D03*
X64015970Y-43821670D03*
X64015970Y-44321670D03*
X64015970Y-44821670D03*
D18*
X64745970Y-45561670D03*
X65245970Y-45561670D03*
X65745970Y-45561670D03*
X66245970Y-45561670D03*
X66745970Y-45561670D03*
X67245970Y-45561670D03*
D17*
X68045970Y-44821670D03*
D18*
X64745970Y-41561670D03*
X65245970Y-41561670D03*
X65745970Y-41561670D03*
X66245970Y-41561670D03*
X66745970Y-41561670D03*
X67245970Y-41561670D03*
D17*
X68045970Y-44321670D03*
X68045970Y-43821670D03*
X68045970Y-43321670D03*
X68045970Y-42821670D03*
X68045970Y-42321670D03*
D19*
X54067900Y-40823200D03*
X53617900Y-40823200D03*
X53167900Y-40823200D03*
X52717900Y-40823200D03*
X52267900Y-40823200D03*
X51817900Y-40823200D03*
X51367900Y-40823200D03*
D20*
X50717900Y-41473200D03*
X50717900Y-41923200D03*
X50717900Y-42373200D03*
X50717900Y-42823200D03*
X50717900Y-43273200D03*
X50717900Y-43723200D03*
X50717900Y-44173200D03*
D19*
X51367900Y-44823200D03*
X51817900Y-44823200D03*
X52267900Y-44823200D03*
X52717900Y-44823200D03*
X53167900Y-44823200D03*
X53617900Y-44823200D03*
X54067900Y-44823200D03*
D20*
X54717900Y-44173200D03*
X54717900Y-43723200D03*
X54717900Y-43273200D03*
X54717900Y-42823200D03*
X54717900Y-42373200D03*
X54717900Y-41923200D03*
X54717900Y-41473200D03*
D21*
X52717900Y-42823200D03*
D14*
X48991520Y-40827960D03*
X48092360Y-40827960D03*
D15*
X48023780Y-38660920D03*
X48023780Y-39560920D03*
D22*
X47384920Y-45724880D03*
X47384920Y-44624880D03*
X47384920Y-46824880D03*
X70335140Y-30429200D03*
X57184920Y-46124880D03*
X61184920Y-43724880D03*
X47384920Y-43524880D03*
D23*
X52084920Y-55594880D03*
D24*
X52084920Y-53054880D03*
D22*
X67246500Y-48143160D03*
X68668900Y-48112680D03*
X47384920Y-48824880D03*
D25*
X61462920Y-35996880D03*
X61462920Y-32296880D03*
X67662920Y-32296880D03*
X67662920Y-35996880D03*
D26*
X60635240Y-28883200D03*
X61905240Y-28883200D03*
X63175240Y-28883200D03*
X64445240Y-28883200D03*
X65715240Y-28883200D03*
X66985240Y-28883200D03*
D27*
X59207400Y-45648920D03*
X59207400Y-43748920D03*
X59857400Y-45648920D03*
X59857400Y-43748920D03*
X58557400Y-43748920D03*
X58557400Y-45648920D03*
D16*
X47397180Y-54815460D03*
X48347180Y-54815460D03*
X49297180Y-54815460D03*
X49297180Y-52115460D03*
X47397180Y-52115460D03*
D28*
X55984920Y-34424880D03*
X53444920Y-34424880D03*
X50904920Y-34424880D03*
X48364920Y-34424880D03*
X55984920Y-31884880D03*
X53444920Y-31884880D03*
X50904920Y-31884880D03*
X48364920Y-31884880D03*
X55984920Y-29344880D03*
X53444920Y-29344880D03*
X50904920Y-29344880D03*
X48364920Y-29344880D03*
X56784920Y-50524880D03*
X59324920Y-50524880D03*
X61864920Y-50524880D03*
X64404920Y-50524880D03*
X56784920Y-53064880D03*
X59324920Y-53064880D03*
X61864920Y-53064880D03*
X64404920Y-53064880D03*
X56784920Y-55604880D03*
X59324920Y-55604880D03*
X61864920Y-55604880D03*
X64404920Y-55604880D03*
D15*
X57246520Y-37594120D03*
X57246520Y-38494120D03*
D29*
X59219680Y-42636440D03*
X60119680Y-42636440D03*
X59212900Y-46708060D03*
X58312900Y-46708060D03*
D15*
X58298080Y-37589040D03*
X58298080Y-38489040D03*
D30*
X50937160Y-46581060D03*
X53314810Y-39224880D03*
X55135780Y-37581840D03*
X61813440Y-33769300D03*
X65615820Y-32842200D03*
X68940680Y-38701980D03*
X64129920Y-40667940D03*
X64058800Y-46476920D03*
X54175660Y-47990760D03*
X49649380Y-36888420D03*
X53481700Y-42062400D03*
X52717900Y-42823200D03*
X53456300Y-43561000D03*
X51983100Y-43561000D03*
X51983100Y-42087800D03*
X56578500Y-42575480D03*
X58211730Y-41607740D03*
X67520820Y-38948360D03*
X57741820Y-43152010D03*
X60622180Y-45651420D03*
X56525160Y-39657020D03*
X59146440Y-36677600D03*
X55882540Y-38839140D03*
X59723020Y-35859720D03*
X61770260Y-45072300D03*
X54983380Y-40157400D03*
X68353940Y-41305480D03*
X65913000Y-39923720D03*
X58691780Y-40149780D03*
D31*
X53444920Y-31884880D02*
X55984920Y-31884880D01*
X50904920Y-31884880D02*
X53444920Y-31884880D01*
X48364920Y-31884880D02*
X50904920Y-31884880D01*
D32*
X51817900Y-44823200D02*
X51817900Y-46580158D01*
X51817900Y-46580158D02*
X51817900Y-47253520D01*
X50937160Y-46581060D02*
X51422093Y-46581060D01*
X51422093Y-46581060D02*
X51422995Y-46580158D01*
X51422995Y-46580158D02*
X51817900Y-46580158D01*
D33*
X47384920Y-48824880D02*
X47384920Y-50650300D01*
X47384920Y-50650300D02*
X47399720Y-50665100D01*
X47397180Y-52115460D02*
X47397180Y-50667640D01*
X47397180Y-50667640D02*
X47399720Y-50665100D01*
D32*
X51817900Y-47253520D02*
X51876960Y-47312580D01*
D34*
X53167900Y-39371790D02*
X53314810Y-39224880D01*
X53167900Y-40823200D02*
X53167900Y-39371790D01*
X53534500Y-39005190D02*
X53314810Y-39224880D01*
X53534500Y-37924880D02*
X53534500Y-39005190D01*
D33*
X57234240Y-37581840D02*
X57246520Y-37594120D01*
X55135780Y-37581840D02*
X57234240Y-37581840D01*
X57251600Y-37589040D02*
X57246520Y-37594120D01*
X58298080Y-37589040D02*
X57251600Y-37589040D01*
X58303160Y-37583960D02*
X58298080Y-37589040D01*
X59349640Y-37583960D02*
X58303160Y-37583960D01*
X57399020Y-35666580D02*
X56840120Y-36225480D01*
X56840120Y-36225480D02*
X55933340Y-36225480D01*
X55933340Y-36225480D02*
X55135780Y-37023040D01*
X55135780Y-37023040D02*
X55135780Y-37581840D01*
X57399020Y-31940500D02*
X57399020Y-35666580D01*
X63175240Y-29673462D02*
X62640482Y-30208220D01*
X62640482Y-30208220D02*
X58046620Y-30208220D01*
X58046620Y-30208220D02*
X57399020Y-30855820D01*
X57399020Y-30855820D02*
X57399020Y-31940500D01*
X63175240Y-28883200D02*
X63175240Y-29673462D01*
X57319920Y-31884880D02*
X57375540Y-31940500D01*
X57375540Y-31940500D02*
X57399020Y-31940500D01*
X55984920Y-31884880D02*
X57319920Y-31884880D01*
D31*
X56784920Y-55604880D02*
X52094920Y-55604880D01*
X52094920Y-55604880D02*
X52084920Y-55594880D01*
X55984920Y-29344880D02*
X53444920Y-29344880D01*
X53444920Y-29344880D02*
X50904920Y-29344880D01*
X48364920Y-29344880D02*
X50904920Y-29344880D01*
X59324920Y-55604880D02*
X64404920Y-55604880D01*
X59324920Y-55604880D02*
X61864920Y-55604880D01*
X56784920Y-55604880D02*
X59324920Y-55604880D01*
D35*
X64404920Y-55604880D02*
X64601300Y-55801260D01*
X68645200Y-55801260D02*
X68646360Y-55800100D01*
X64601300Y-55801260D02*
X68645200Y-55801260D01*
D33*
X68610840Y-55764580D02*
X68646360Y-55800100D01*
D35*
X68610840Y-54441200D02*
X68610840Y-55764580D01*
D34*
X52717900Y-38007440D02*
X52635340Y-37924880D01*
X52717900Y-40823200D02*
X52717900Y-38007440D01*
D31*
X51352760Y-56327040D02*
X52084920Y-55594880D01*
X48351940Y-56327040D02*
X51352760Y-56327040D01*
X48347180Y-56331800D02*
X48351940Y-56327040D01*
X48347180Y-54815460D02*
X48347180Y-56331800D01*
D32*
X70036370Y-43821670D02*
X70111620Y-43746420D01*
X68045970Y-43821670D02*
X70036370Y-43821670D01*
X70370700Y-45707300D02*
X69677280Y-45707300D01*
X70538340Y-45539660D02*
X70370700Y-45707300D01*
X70538340Y-44013120D02*
X70538340Y-45539660D01*
X70271640Y-43746420D02*
X70538340Y-44013120D01*
X70111620Y-43746420D02*
X70271640Y-43746420D01*
X69453760Y-48112680D02*
X68668900Y-48112680D01*
X69677280Y-47889160D02*
X69453760Y-48112680D01*
X69677280Y-45707300D02*
X69677280Y-47889160D01*
X68618420Y-48163160D02*
X68668900Y-48112680D01*
X68618420Y-50529600D02*
X68618420Y-48163160D01*
X61462920Y-33418780D02*
X61813440Y-33769300D01*
X61462920Y-32296880D02*
X61462920Y-33418780D01*
D34*
X66161140Y-32296880D02*
X65615820Y-32842200D01*
X67662920Y-32296880D02*
X66161140Y-32296880D01*
D32*
X68277740Y-39364920D02*
X68940680Y-38701980D01*
X68277740Y-39944040D02*
X68277740Y-39364920D01*
X64745970Y-41283990D02*
X64129920Y-40667940D01*
D34*
X64745970Y-41561670D02*
X64745970Y-41283990D01*
X64745970Y-45789750D02*
X64058800Y-46476920D01*
X64745970Y-45561670D02*
X64745970Y-45789750D01*
D32*
X48298880Y-50665100D02*
X48298880Y-48955180D01*
X48979600Y-48274460D02*
X49884920Y-48274460D01*
X48298880Y-48955180D02*
X48979600Y-48274460D01*
D34*
X62898020Y-40667940D02*
X64129920Y-40667940D01*
X62499240Y-41066720D02*
X62898020Y-40667940D01*
X62499240Y-41912540D02*
X62499240Y-41066720D01*
D32*
X51814240Y-48274460D02*
X51876960Y-48211740D01*
X49884920Y-48274460D02*
X51814240Y-48274460D01*
X52882800Y-48211740D02*
X51876960Y-48211740D01*
X53954680Y-48211740D02*
X54175660Y-47990760D01*
X52882800Y-48211740D02*
X53954680Y-48211740D01*
D36*
X54175660Y-47459900D02*
X54175660Y-47990760D01*
X52715160Y-45999400D02*
X54175660Y-47459900D01*
D34*
X52717900Y-45996660D02*
X52715160Y-45999400D01*
D36*
X52717900Y-44823200D02*
X52717900Y-45996660D01*
D32*
X48023780Y-38660920D02*
X48023780Y-37470080D01*
X48605440Y-36888420D02*
X49649380Y-36888420D01*
X48023780Y-37470080D02*
X48605440Y-36888420D01*
X50134313Y-36888420D02*
X49649380Y-36888420D01*
X52635340Y-37314060D02*
X52209700Y-36888420D01*
X52635340Y-37924880D02*
X52635340Y-37314060D01*
X50563107Y-37769873D02*
X50563107Y-36888420D01*
X50561200Y-37771780D02*
X50563107Y-37769873D01*
X50561200Y-38676580D02*
X50561200Y-37771780D01*
X50563107Y-36888420D02*
X50134313Y-36888420D01*
X52209700Y-36888420D02*
X50563107Y-36888420D01*
D34*
X53481700Y-42062400D02*
X52720900Y-42823200D01*
X52720900Y-42823200D02*
X52717900Y-42823200D01*
X53456300Y-43561000D02*
X52718500Y-42823200D01*
X51983100Y-43561000D02*
X52717900Y-42826200D01*
X51983100Y-42087800D02*
X52717900Y-42822600D01*
X52882800Y-46909990D02*
X52882800Y-47312580D01*
X52267900Y-46295090D02*
X52882800Y-46909990D01*
X52267900Y-44823200D02*
X52267900Y-46295090D01*
D37*
X66985240Y-28883200D02*
X67282420Y-28883200D01*
D34*
X67417040Y-28451400D02*
X68689580Y-28451400D01*
X66985240Y-28883200D02*
X67417040Y-28451400D01*
X69256500Y-29350560D02*
X70335140Y-30429200D01*
X68689580Y-29350560D02*
X69256500Y-29350560D01*
X56330780Y-42823200D02*
X56578500Y-42575480D01*
X54717900Y-42823200D02*
X56330780Y-42823200D01*
X59189620Y-38968680D02*
X59349640Y-38808660D01*
X59349640Y-38808660D02*
X59349640Y-38483960D01*
X58689240Y-38968680D02*
X59189620Y-38968680D01*
X58049160Y-39608760D02*
X58689240Y-38968680D01*
X58049160Y-40960237D02*
X58049160Y-39608760D01*
X58211730Y-41122807D02*
X58049160Y-40960237D01*
X58211730Y-41607740D02*
X58211730Y-41122807D01*
X61062920Y-35996880D02*
X61462920Y-35996880D01*
X60121800Y-36938000D02*
X61062920Y-35996880D01*
X60121800Y-38215000D02*
X60121800Y-36938000D01*
X59852840Y-38483960D02*
X60121800Y-38215000D01*
X59349640Y-38483960D02*
X59852840Y-38483960D01*
X61462920Y-35996880D02*
X61462920Y-35953700D01*
X61462920Y-35996880D02*
X67662920Y-35996880D01*
X67975480Y-29918660D02*
X68543580Y-29350560D01*
X67076320Y-29918660D02*
X67975480Y-29918660D01*
X65430400Y-31564580D02*
X67076320Y-29918660D01*
X63629540Y-31564580D02*
X65430400Y-31564580D01*
X63042800Y-32151320D02*
X63629540Y-31564580D01*
X63042800Y-33713800D02*
X63042800Y-32151320D01*
X61462920Y-35293680D02*
X63042800Y-33713800D01*
X68543580Y-29350560D02*
X68689580Y-29350560D01*
X61462920Y-35996880D02*
X61462920Y-35293680D01*
D31*
X47425120Y-56354700D02*
X47425120Y-54843400D01*
X47425120Y-54843400D02*
X47397180Y-54815460D01*
X49297180Y-54815460D02*
X49260760Y-54779040D01*
X49260760Y-54779040D02*
X49260760Y-53952140D01*
X49260760Y-53952140D02*
X48897540Y-53588920D01*
X48897540Y-53588920D02*
X47718980Y-53588920D01*
X47718980Y-53588920D02*
X47388780Y-53919120D01*
X47388780Y-53919120D02*
X47388780Y-54807060D01*
X47388780Y-54807060D02*
X47397180Y-54815460D01*
X52084920Y-53054880D02*
X51057760Y-53054880D01*
X51057760Y-53054880D02*
X49297180Y-54815460D01*
X52084920Y-53054880D02*
X56774920Y-53054880D01*
X56774920Y-53054880D02*
X56784920Y-53064880D01*
X61864920Y-53064880D02*
X64404920Y-53064880D01*
X59324920Y-53064880D02*
X61864920Y-53064880D01*
X56784920Y-53064880D02*
X59324920Y-53064880D01*
D35*
X67660840Y-54441200D02*
X67665600Y-54436440D01*
X69565520Y-54436520D02*
X69560840Y-54441200D01*
X67665600Y-54436440D02*
X67665600Y-53505100D01*
X67665600Y-53505100D02*
X67939920Y-53230780D01*
X67939920Y-53230780D02*
X69194680Y-53230780D01*
X69565520Y-53601620D02*
X69565520Y-54436520D01*
X69194680Y-53230780D02*
X69565520Y-53601620D01*
X65707260Y-54114700D02*
X66033760Y-54441200D01*
X66033760Y-54441200D02*
X67660840Y-54441200D01*
X65707260Y-53289590D02*
X65707260Y-54114700D01*
X64404920Y-53064880D02*
X65482550Y-53064880D01*
X65482550Y-53064880D02*
X65707260Y-53289590D01*
X69560840Y-54441200D02*
X69560840Y-55784780D01*
X69560840Y-55784780D02*
X69545520Y-55800100D01*
D32*
X67698940Y-50509280D02*
X67719260Y-50529600D01*
X67660840Y-50588020D02*
X67719260Y-50529600D01*
X67660840Y-51741200D02*
X67660840Y-50588020D01*
D36*
X59219680Y-43736640D02*
X59207400Y-43748920D01*
X59219680Y-42636440D02*
X59219680Y-43736640D01*
X59207400Y-45648920D02*
X59207400Y-43748920D01*
X59207400Y-46702560D02*
X59212900Y-46708060D01*
X59207400Y-45648920D02*
X59207400Y-46702560D01*
D32*
X67245970Y-40345890D02*
X67245970Y-41561670D01*
X67378580Y-40213280D02*
X67245970Y-40345890D01*
X67378580Y-39944040D02*
X67378580Y-40213280D01*
X67719260Y-48615920D02*
X67246500Y-48143160D01*
X67719260Y-50529600D02*
X67719260Y-48615920D01*
X69072760Y-44808140D02*
X68940680Y-44940220D01*
X69677280Y-44808140D02*
X69072760Y-44808140D01*
X68940680Y-44940220D02*
X68940680Y-46281340D01*
X68940680Y-46281340D02*
X68292980Y-46929040D01*
X68292980Y-46929040D02*
X67637660Y-46929040D01*
X67246500Y-47320200D02*
X67246500Y-48143160D01*
X67637660Y-46929040D02*
X67246500Y-47320200D01*
X67378580Y-39090600D02*
X67520820Y-38948360D01*
X67378580Y-39944040D02*
X67378580Y-39090600D01*
X67127120Y-48262540D02*
X67246500Y-48143160D01*
X59641740Y-48262540D02*
X67127120Y-48262540D01*
X59212900Y-47833700D02*
X59641740Y-48262540D01*
X59212900Y-46708060D02*
X59212900Y-47833700D01*
X69677280Y-44465240D02*
X69677280Y-44808140D01*
X69533710Y-44321670D02*
X69677280Y-44465240D01*
X68045970Y-44321670D02*
X69533710Y-44321670D01*
X69469000Y-42847260D02*
X68994590Y-43321670D01*
X68994590Y-43321670D02*
X68045970Y-43321670D01*
X70111620Y-42847260D02*
X69469000Y-42847260D01*
D34*
X62509210Y-42821670D02*
X62499240Y-42811700D01*
X64015970Y-42821670D02*
X62509210Y-42821670D01*
X49884920Y-47375300D02*
X49884920Y-46574880D01*
D37*
X54067900Y-40823200D02*
X54067900Y-40587200D01*
X54067900Y-40823200D02*
X54067900Y-40798560D01*
D34*
X55484920Y-34924880D02*
X55984920Y-34424880D01*
X54067900Y-40823200D02*
X54067900Y-39858112D01*
X54067900Y-39858112D02*
X54440530Y-39485482D01*
X54440530Y-35969270D02*
X55984920Y-34424880D01*
X54440530Y-39485482D02*
X54440530Y-35969270D01*
X53617900Y-39805204D02*
X54084920Y-39338184D01*
X53617900Y-40823200D02*
X53617900Y-39805204D01*
X53444920Y-35502510D02*
X53444920Y-34424880D01*
X54084920Y-36142510D02*
X53444920Y-35502510D01*
X54084920Y-39338184D02*
X54084920Y-36142510D01*
X51511200Y-38676580D02*
X51511200Y-38926580D01*
X51511200Y-39410392D02*
X52270660Y-40169852D01*
X51511200Y-38676580D02*
X51511200Y-39410392D01*
X52267900Y-40172612D02*
X52267900Y-40823200D01*
X52270660Y-40169852D02*
X52267900Y-40172612D01*
X49611200Y-39469780D02*
X50075300Y-39933880D01*
X49611200Y-38666580D02*
X49611200Y-39469780D01*
X51817900Y-40220000D02*
X51817900Y-40823200D01*
X51531780Y-39933880D02*
X51817900Y-40220000D01*
X50075300Y-39933880D02*
X51531780Y-39933880D01*
X48996280Y-40823200D02*
X48991520Y-40827960D01*
X51367900Y-40823200D02*
X48996280Y-40823200D01*
X50114700Y-41473200D02*
X50717900Y-41473200D01*
X47781288Y-41473200D02*
X50114700Y-41473200D01*
X47469779Y-41161691D02*
X47781288Y-41473200D01*
X47469779Y-35840021D02*
X47469779Y-41161691D01*
X47684920Y-35624880D02*
X47469779Y-35840021D01*
X48784920Y-35624880D02*
X47684920Y-35624880D01*
X49984920Y-34424880D02*
X48784920Y-35624880D01*
X50904920Y-34424880D02*
X49984920Y-34424880D01*
X50114700Y-41923200D02*
X50717900Y-41923200D01*
X47728380Y-41923200D02*
X50114700Y-41923200D01*
X47114170Y-41308990D02*
X47728380Y-41923200D01*
X47114169Y-35675631D02*
X47114170Y-41308990D01*
X48364920Y-34424880D02*
X47114169Y-35675631D01*
X47384920Y-43524880D02*
X48009436Y-43524880D01*
X48009436Y-43524880D02*
X48261116Y-43273200D01*
X48261116Y-43273200D02*
X50114700Y-43273200D01*
X50114700Y-43273200D02*
X50717900Y-43273200D01*
X48054279Y-44183281D02*
X48514360Y-43723200D01*
X48514360Y-43723200D02*
X50717900Y-43723200D01*
X47384920Y-44624880D02*
X47826519Y-44183281D01*
X47826519Y-44183281D02*
X48054279Y-44183281D01*
X48564800Y-44391580D02*
X48783180Y-44173200D01*
X48783180Y-44173200D02*
X50717900Y-44173200D01*
X48564800Y-44545000D02*
X48564800Y-44391580D01*
X47384920Y-45724880D02*
X48564800Y-44545000D01*
X49884920Y-45674880D02*
X48534920Y-45674880D01*
X48534920Y-45674880D02*
X47384920Y-46824880D01*
X49884920Y-45674880D02*
X49884920Y-45271680D01*
X49884920Y-45271680D02*
X50333400Y-44823200D01*
X50333400Y-44823200D02*
X51040240Y-44823200D01*
X51040240Y-44823200D02*
X51367900Y-44823200D01*
X53167900Y-45426400D02*
X53167900Y-44823200D01*
X53167900Y-45830230D02*
X53167900Y-45426400D01*
X56784920Y-49447250D02*
X53167900Y-45830230D01*
X56784920Y-50524880D02*
X56784920Y-49447250D01*
X53617900Y-45777322D02*
X53617900Y-44823200D01*
X57603459Y-49762881D02*
X53617900Y-45777322D01*
X58562921Y-49762881D02*
X57603459Y-49762881D01*
X59324920Y-50524880D02*
X58562921Y-49762881D01*
D37*
X54067900Y-44823200D02*
X54067900Y-45098740D01*
D34*
X61864920Y-50524880D02*
X60564920Y-49224880D01*
X60564920Y-49224880D02*
X57568366Y-49224880D01*
X54067900Y-45724414D02*
X54067900Y-44823200D01*
X57568366Y-49224880D02*
X54067900Y-45724414D01*
X54717900Y-44173200D02*
X54728900Y-44173200D01*
D37*
X54717900Y-44173200D02*
X54993440Y-44173200D01*
D34*
X54717900Y-45871506D02*
X54717900Y-44173200D01*
X57715664Y-48869270D02*
X54717900Y-45871506D01*
X62749310Y-48869270D02*
X57715664Y-48869270D01*
X64404920Y-50524880D02*
X62749310Y-48869270D01*
X54743620Y-43748920D02*
X54717900Y-43723200D01*
X58557400Y-43748920D02*
X54743620Y-43748920D01*
X57614820Y-39425880D02*
X58298080Y-38742620D01*
X58298080Y-38742620D02*
X58298080Y-38489040D01*
X57614820Y-42151300D02*
X57614820Y-39425880D01*
X58557400Y-43093880D02*
X57614820Y-42151300D01*
X58557400Y-43748920D02*
X58557400Y-43093880D01*
X57620630Y-43273200D02*
X57741820Y-43152010D01*
X54717900Y-43273200D02*
X57620630Y-43273200D01*
X59859900Y-45651420D02*
X59857400Y-45648920D01*
X60622180Y-45651420D02*
X59859900Y-45651420D01*
X57741820Y-43152010D02*
X57246520Y-42656710D01*
X57246520Y-42656710D02*
X57246520Y-38897320D01*
X57246520Y-38897320D02*
X57246520Y-38494120D01*
X55897366Y-42373200D02*
X56530240Y-41740326D01*
X54717900Y-42373200D02*
X55897366Y-42373200D01*
X56525160Y-41735246D02*
X56525160Y-39657020D01*
X56530240Y-41740326D02*
X56525160Y-41735246D01*
X64445240Y-30347560D02*
X64445240Y-28883200D01*
X63990230Y-30802570D02*
X64445240Y-30347560D01*
X60292002Y-30802570D02*
X63990230Y-30802570D01*
X59563000Y-31531572D02*
X60292002Y-30802570D01*
X59563000Y-34848800D02*
X59563000Y-31531572D01*
X58803541Y-35608259D02*
X59563000Y-34848800D01*
X58803541Y-36334701D02*
X58803541Y-35608259D01*
X59146440Y-36677600D02*
X58803541Y-36334701D01*
X54717900Y-41923200D02*
X55587400Y-41923200D01*
X55882540Y-41628060D02*
X55882540Y-38839140D01*
X55587400Y-41923200D02*
X55882540Y-41628060D01*
X65715240Y-30687920D02*
X65715240Y-28883200D01*
X65244980Y-31158180D02*
X65715240Y-30687920D01*
X60439300Y-31158180D02*
X65244980Y-31158180D01*
X60065919Y-35516821D02*
X60065919Y-31531561D01*
X60065919Y-31531561D02*
X60439300Y-31158180D01*
X59723020Y-35859720D02*
X60065919Y-35516821D01*
X58557400Y-45648920D02*
X58557400Y-45844220D01*
X58312900Y-46088720D02*
X58312900Y-46708060D01*
X58557400Y-45844220D02*
X58312900Y-46088720D01*
X58315860Y-45890460D02*
X58557400Y-45648920D01*
X58315860Y-46126400D02*
X58315860Y-45890460D01*
X57186440Y-46126400D02*
X58315860Y-46126400D01*
X57184920Y-46124880D02*
X57186440Y-46126400D01*
X61770260Y-45072300D02*
X61970920Y-45072300D01*
X62221550Y-44821670D02*
X64015970Y-44821670D01*
X61970920Y-45072300D02*
X62221550Y-44821670D01*
X59881440Y-43724880D02*
X59857400Y-43748920D01*
X61184920Y-43724880D02*
X59881440Y-43724880D01*
X60134500Y-42651260D02*
X60119680Y-42636440D01*
X60134500Y-43695620D02*
X60134500Y-42651260D01*
X59910700Y-43695620D02*
X60134500Y-43695620D01*
X59857400Y-43748920D02*
X59910700Y-43695620D01*
X61781710Y-44321670D02*
X61184920Y-43724880D01*
X64015970Y-44321670D02*
X61781710Y-44321670D01*
X48092360Y-39629500D02*
X48023780Y-39560920D01*
X48092360Y-40827960D02*
X48092360Y-39629500D01*
D37*
X68045970Y-42321670D02*
X68278070Y-42321670D01*
D34*
X54717900Y-40422880D02*
X54983380Y-40157400D01*
X54717900Y-41473200D02*
X54717900Y-40422880D01*
X68045970Y-41613450D02*
X68353940Y-41305480D01*
X68045970Y-42321670D02*
X68045970Y-41613450D01*
X58917840Y-39923720D02*
X58691780Y-40149780D01*
X65913000Y-39923720D02*
X58917840Y-39923720D01*
D37*
G36*
X60771229Y-29026942D02*
X60649382Y-29148789D01*
X60635240Y-29134647D01*
X60621097Y-29148789D01*
X60383793Y-28911485D01*
X60369650Y-28897342D01*
X60383793Y-28883200D01*
X59799781Y-28299188D01*
X59598947Y-28350061D01*
X59473807Y-28787217D01*
X59525485Y-29238984D01*
X59598947Y-29416339D01*
X59799778Y-29467211D01*
X59686513Y-29580477D01*
X59780856Y-29674820D01*
X58046625Y-29674820D01*
X58046620Y-29674819D01*
X57842497Y-29715423D01*
X57669449Y-29831049D01*
X57349831Y-30150667D01*
X57349831Y-29489714D01*
X57301359Y-28956360D01*
X57190508Y-28688742D01*
X56968766Y-28612481D01*
X56236367Y-29344880D01*
X56968766Y-30077279D01*
X57190508Y-30001018D01*
X57349831Y-29489714D01*
X57349831Y-30150667D01*
X57021849Y-30478649D01*
X56906223Y-30651697D01*
X56865620Y-30855820D01*
X56865620Y-31221165D01*
X56717319Y-31072605D01*
X56717319Y-30328726D01*
X55984920Y-29596327D01*
X55733473Y-29847774D01*
X55733473Y-29344880D01*
X55001074Y-28612481D01*
X54779332Y-28688742D01*
X54724026Y-28866230D01*
X54650508Y-28688742D01*
X54428766Y-28612481D01*
X53696367Y-29344880D01*
X54428766Y-30077279D01*
X54650508Y-30001018D01*
X54705813Y-29823529D01*
X54779332Y-30001018D01*
X55001074Y-30077279D01*
X55733473Y-29344880D01*
X55733473Y-29847774D01*
X55252521Y-30328726D01*
X55328782Y-30550468D01*
X55840086Y-30709791D01*
X56373440Y-30661319D01*
X56641058Y-30550468D01*
X56717319Y-30328726D01*
X56717319Y-31072605D01*
X56604409Y-30959498D01*
X56203125Y-30792870D01*
X55768621Y-30792491D01*
X55367047Y-30958418D01*
X55075076Y-31249880D01*
X54354284Y-31249880D01*
X54177319Y-31072605D01*
X54177319Y-30328726D01*
X53444920Y-29596327D01*
X53193473Y-29847774D01*
X53193473Y-29344880D01*
X52461074Y-28612481D01*
X52239332Y-28688742D01*
X52184026Y-28866230D01*
X52110508Y-28688742D01*
X51888766Y-28612481D01*
X51156367Y-29344880D01*
X51888766Y-30077279D01*
X52110508Y-30001018D01*
X52165813Y-29823529D01*
X52239332Y-30001018D01*
X52461074Y-30077279D01*
X53193473Y-29344880D01*
X53193473Y-29847774D01*
X52712521Y-30328726D01*
X52788782Y-30550468D01*
X53300086Y-30709791D01*
X53833440Y-30661319D01*
X54101058Y-30550468D01*
X54177319Y-30328726D01*
X54177319Y-31072605D01*
X54064409Y-30959498D01*
X53663125Y-30792870D01*
X53228621Y-30792491D01*
X52827047Y-30958418D01*
X52535076Y-31249880D01*
X51814284Y-31249880D01*
X51637319Y-31072605D01*
X51637319Y-30328726D01*
X50904920Y-29596327D01*
X50653473Y-29847774D01*
X50653473Y-29344880D01*
X49921074Y-28612481D01*
X49699332Y-28688742D01*
X49644026Y-28866230D01*
X49570508Y-28688742D01*
X49348766Y-28612481D01*
X48616367Y-29344880D01*
X49348766Y-30077279D01*
X49570508Y-30001018D01*
X49625813Y-29823529D01*
X49699332Y-30001018D01*
X49921074Y-30077279D01*
X50653473Y-29344880D01*
X50653473Y-29847774D01*
X50172521Y-30328726D01*
X50248782Y-30550468D01*
X50760086Y-30709791D01*
X51293440Y-30661319D01*
X51561058Y-30550468D01*
X51637319Y-30328726D01*
X51637319Y-31072605D01*
X51524409Y-30959498D01*
X51123125Y-30792870D01*
X50688621Y-30792491D01*
X50287047Y-30958418D01*
X49995076Y-31249880D01*
X49274284Y-31249880D01*
X49097319Y-31072605D01*
X49097319Y-30328726D01*
X48364920Y-29596327D01*
X47632521Y-30328726D01*
X47708782Y-30550468D01*
X48220086Y-30709791D01*
X48753440Y-30661319D01*
X49021058Y-30550468D01*
X49097319Y-30328726D01*
X49097319Y-31072605D01*
X48984409Y-30959498D01*
X48583125Y-30792870D01*
X48148621Y-30792491D01*
X47747047Y-30958418D01*
X47439538Y-31265391D01*
X47272910Y-31666675D01*
X47272531Y-32101179D01*
X47438458Y-32502753D01*
X47745431Y-32810262D01*
X48146715Y-32976890D01*
X48581219Y-32977269D01*
X48982793Y-32811342D01*
X49274763Y-32519880D01*
X49995555Y-32519880D01*
X50285431Y-32810262D01*
X50686715Y-32976890D01*
X51121219Y-32977269D01*
X51522793Y-32811342D01*
X51814763Y-32519880D01*
X52535555Y-32519880D01*
X52825431Y-32810262D01*
X53226715Y-32976890D01*
X53661219Y-32977269D01*
X54062793Y-32811342D01*
X54354763Y-32519880D01*
X55075555Y-32519880D01*
X55365431Y-32810262D01*
X55766715Y-32976890D01*
X56201219Y-32977269D01*
X56602793Y-32811342D01*
X56865620Y-32548973D01*
X56865620Y-33761165D01*
X56604409Y-33499498D01*
X56203125Y-33332870D01*
X55768621Y-33332491D01*
X55367047Y-33498418D01*
X55059538Y-33805391D01*
X54892910Y-34206675D01*
X54892531Y-34641179D01*
X54970138Y-34829003D01*
X54176104Y-35623037D01*
X53950718Y-35397650D01*
X54062793Y-35351342D01*
X54370302Y-35044369D01*
X54536930Y-34643085D01*
X54537309Y-34208581D01*
X54371382Y-33807007D01*
X54064409Y-33499498D01*
X53663125Y-33332870D01*
X53228621Y-33332491D01*
X52827047Y-33498418D01*
X52519538Y-33805391D01*
X52352910Y-34206675D01*
X52352531Y-34641179D01*
X52518458Y-35042753D01*
X52825431Y-35350262D01*
X53013120Y-35428197D01*
X53013120Y-35502510D01*
X53045989Y-35667753D01*
X53139591Y-35807839D01*
X53653120Y-36321367D01*
X53653120Y-37288491D01*
X53335110Y-37288491D01*
X53326009Y-37290256D01*
X53165653Y-37129899D01*
X52950935Y-37040960D01*
X52881085Y-37040960D01*
X52735035Y-37187010D01*
X52735035Y-37775020D01*
X52833140Y-37775020D01*
X52833140Y-38074740D01*
X52735035Y-38074740D01*
X52735035Y-38662750D01*
X52830025Y-38757740D01*
X52744516Y-38843102D01*
X52641827Y-39090405D01*
X52641593Y-39358181D01*
X52736100Y-39586904D01*
X52736100Y-40418430D01*
X52717900Y-40509927D01*
X52699700Y-40418430D01*
X52699700Y-40183732D01*
X52699700Y-40183727D01*
X52702460Y-40169852D01*
X52702461Y-40169852D01*
X52669592Y-40004610D01*
X52613480Y-39920634D01*
X52575989Y-39864524D01*
X52575989Y-39864523D01*
X52575985Y-39864520D01*
X52150083Y-39438618D01*
X52171836Y-39406393D01*
X52197869Y-39276580D01*
X52197869Y-38758317D01*
X52319745Y-38808800D01*
X52389595Y-38808800D01*
X52535645Y-38662750D01*
X52535645Y-38074740D01*
X52437540Y-38074740D01*
X52437540Y-37775020D01*
X52535645Y-37775020D01*
X52535645Y-37187010D01*
X52389595Y-37040960D01*
X52319745Y-37040960D01*
X52105027Y-37129899D01*
X51940689Y-37294238D01*
X51851750Y-37508956D01*
X51851750Y-37628970D01*
X51969858Y-37747078D01*
X51896939Y-37747078D01*
X51861200Y-37739911D01*
X51851750Y-37739911D01*
X51325714Y-37739911D01*
X51167123Y-37581319D01*
X50952405Y-37492380D01*
X50844750Y-37492380D01*
X50698700Y-37638430D01*
X50698700Y-38498780D01*
X50759000Y-38498780D01*
X50759000Y-38854380D01*
X50698700Y-38854380D01*
X50698700Y-38874380D01*
X50423700Y-38874380D01*
X50423700Y-38854380D01*
X50363400Y-38854380D01*
X50363400Y-38498780D01*
X50423700Y-38498780D01*
X50423700Y-37638430D01*
X50277650Y-37492380D01*
X50169995Y-37492380D01*
X49955277Y-37581319D01*
X49806685Y-37729911D01*
X49261200Y-37729911D01*
X49135296Y-37754339D01*
X49024638Y-37827030D01*
X48950564Y-37936767D01*
X48924531Y-38066580D01*
X48924531Y-39266580D01*
X48948959Y-39392484D01*
X49021650Y-39503142D01*
X49131387Y-39577216D01*
X49203653Y-39591708D01*
X49212269Y-39635023D01*
X49305871Y-39775109D01*
X49769968Y-40239205D01*
X49769971Y-40239209D01*
X49769972Y-40239209D01*
X49863574Y-40301752D01*
X49910057Y-40332811D01*
X49910058Y-40332812D01*
X50075300Y-40365681D01*
X50075300Y-40365680D01*
X50075305Y-40365680D01*
X50946592Y-40365680D01*
X50941476Y-40391400D01*
X49495967Y-40391400D01*
X49430460Y-40291678D01*
X49320723Y-40217604D01*
X49190910Y-40191571D01*
X48792130Y-40191571D01*
X48666226Y-40215999D01*
X48555568Y-40288690D01*
X48542274Y-40308384D01*
X48531300Y-40291678D01*
X48524160Y-40286858D01*
X48524160Y-40024237D01*
X48560342Y-40000470D01*
X48634416Y-39890733D01*
X48660449Y-39760920D01*
X48660449Y-39360920D01*
X48658745Y-39352137D01*
X48819041Y-39191843D01*
X48907980Y-38977125D01*
X48907980Y-38906970D01*
X48907980Y-38414870D01*
X48907980Y-38344715D01*
X48819041Y-38129997D01*
X48654702Y-37965659D01*
X48439984Y-37876720D01*
X48319830Y-37876720D01*
X48173780Y-38022770D01*
X48173780Y-38560920D01*
X48761930Y-38560920D01*
X48907980Y-38414870D01*
X48907980Y-38906970D01*
X48761930Y-38760920D01*
X48173780Y-38760920D01*
X48173780Y-38858720D01*
X47901579Y-38858720D01*
X47901579Y-36056680D01*
X48784920Y-36056680D01*
X48950162Y-36023811D01*
X48950163Y-36023811D01*
X49090249Y-35930209D01*
X49978237Y-35042220D01*
X49978458Y-35042753D01*
X50285431Y-35350262D01*
X50686715Y-35516890D01*
X51121219Y-35517269D01*
X51522793Y-35351342D01*
X51830302Y-35044369D01*
X51996930Y-34643085D01*
X51997309Y-34208581D01*
X51831382Y-33807007D01*
X51524409Y-33499498D01*
X51123125Y-33332870D01*
X50688621Y-33332491D01*
X50287047Y-33498418D01*
X49979538Y-33805391D01*
X49894101Y-34011145D01*
X49819677Y-34025949D01*
X49679591Y-34119551D01*
X49457192Y-34341949D01*
X49457309Y-34208581D01*
X49291382Y-33807007D01*
X48984409Y-33499498D01*
X48583125Y-33332870D01*
X48148621Y-33332491D01*
X47747047Y-33498418D01*
X47439538Y-33805391D01*
X47272910Y-34206675D01*
X47272531Y-34641179D01*
X47350138Y-34829003D01*
X47111120Y-35068022D01*
X47111120Y-29884623D01*
X47159332Y-30001018D01*
X47381074Y-30077279D01*
X48113473Y-29344880D01*
X47381074Y-28612481D01*
X47159332Y-28688742D01*
X47111120Y-28843465D01*
X47111120Y-27995080D01*
X48343482Y-27995080D01*
X47976400Y-28028441D01*
X47708782Y-28139292D01*
X47632521Y-28361034D01*
X48364920Y-29093433D01*
X49097319Y-28361034D01*
X49021058Y-28139292D01*
X48558248Y-27995080D01*
X50883482Y-27995080D01*
X50516400Y-28028441D01*
X50248782Y-28139292D01*
X50172521Y-28361034D01*
X50904920Y-29093433D01*
X51637319Y-28361034D01*
X51561058Y-28139292D01*
X51098248Y-27995080D01*
X53423482Y-27995080D01*
X53056400Y-28028441D01*
X52788782Y-28139292D01*
X52712521Y-28361034D01*
X53444920Y-29093433D01*
X54177319Y-28361034D01*
X54101058Y-28139292D01*
X53638248Y-27995080D01*
X55963482Y-27995080D01*
X55596400Y-28028441D01*
X55328782Y-28139292D01*
X55252521Y-28361034D01*
X55984920Y-29093433D01*
X56717319Y-28361034D01*
X56641058Y-28139292D01*
X56178248Y-27995080D01*
X60064567Y-27995080D01*
X60051228Y-28047741D01*
X60635240Y-28631753D01*
X60649382Y-28617610D01*
X60760538Y-28728766D01*
X60743807Y-28787217D01*
X60771229Y-29026942D01*
X60771229Y-29026942D01*
G37*
X60771229Y-29026942D02*
X60649382Y-29148789D01*
X60635240Y-29134647D01*
X60621097Y-29148789D01*
X60383793Y-28911485D01*
X60369650Y-28897342D01*
X60383793Y-28883200D01*
X59799781Y-28299188D01*
X59598947Y-28350061D01*
X59473807Y-28787217D01*
X59525485Y-29238984D01*
X59598947Y-29416339D01*
X59799778Y-29467211D01*
X59686513Y-29580477D01*
X59780856Y-29674820D01*
X58046625Y-29674820D01*
X58046620Y-29674819D01*
X57842497Y-29715423D01*
X57669449Y-29831049D01*
X57349831Y-30150667D01*
X57349831Y-29489714D01*
X57301359Y-28956360D01*
X57190508Y-28688742D01*
X56968766Y-28612481D01*
X56236367Y-29344880D01*
X56968766Y-30077279D01*
X57190508Y-30001018D01*
X57349831Y-29489714D01*
X57349831Y-30150667D01*
X57021849Y-30478649D01*
X56906223Y-30651697D01*
X56865620Y-30855820D01*
X56865620Y-31221165D01*
X56717319Y-31072605D01*
X56717319Y-30328726D01*
X55984920Y-29596327D01*
X55733473Y-29847774D01*
X55733473Y-29344880D01*
X55001074Y-28612481D01*
X54779332Y-28688742D01*
X54724026Y-28866230D01*
X54650508Y-28688742D01*
X54428766Y-28612481D01*
X53696367Y-29344880D01*
X54428766Y-30077279D01*
X54650508Y-30001018D01*
X54705813Y-29823529D01*
X54779332Y-30001018D01*
X55001074Y-30077279D01*
X55733473Y-29344880D01*
X55733473Y-29847774D01*
X55252521Y-30328726D01*
X55328782Y-30550468D01*
X55840086Y-30709791D01*
X56373440Y-30661319D01*
X56641058Y-30550468D01*
X56717319Y-30328726D01*
X56717319Y-31072605D01*
X56604409Y-30959498D01*
X56203125Y-30792870D01*
X55768621Y-30792491D01*
X55367047Y-30958418D01*
X55075076Y-31249880D01*
X54354284Y-31249880D01*
X54177319Y-31072605D01*
X54177319Y-30328726D01*
X53444920Y-29596327D01*
X53193473Y-29847774D01*
X53193473Y-29344880D01*
X52461074Y-28612481D01*
X52239332Y-28688742D01*
X52184026Y-28866230D01*
X52110508Y-28688742D01*
X51888766Y-28612481D01*
X51156367Y-29344880D01*
X51888766Y-30077279D01*
X52110508Y-30001018D01*
X52165813Y-29823529D01*
X52239332Y-30001018D01*
X52461074Y-30077279D01*
X53193473Y-29344880D01*
X53193473Y-29847774D01*
X52712521Y-30328726D01*
X52788782Y-30550468D01*
X53300086Y-30709791D01*
X53833440Y-30661319D01*
X54101058Y-30550468D01*
X54177319Y-30328726D01*
X54177319Y-31072605D01*
X54064409Y-30959498D01*
X53663125Y-30792870D01*
X53228621Y-30792491D01*
X52827047Y-30958418D01*
X52535076Y-31249880D01*
X51814284Y-31249880D01*
X51637319Y-31072605D01*
X51637319Y-30328726D01*
X50904920Y-29596327D01*
X50653473Y-29847774D01*
X50653473Y-29344880D01*
X49921074Y-28612481D01*
X49699332Y-28688742D01*
X49644026Y-28866230D01*
X49570508Y-28688742D01*
X49348766Y-28612481D01*
X48616367Y-29344880D01*
X49348766Y-30077279D01*
X49570508Y-30001018D01*
X49625813Y-29823529D01*
X49699332Y-30001018D01*
X49921074Y-30077279D01*
X50653473Y-29344880D01*
X50653473Y-29847774D01*
X50172521Y-30328726D01*
X50248782Y-30550468D01*
X50760086Y-30709791D01*
X51293440Y-30661319D01*
X51561058Y-30550468D01*
X51637319Y-30328726D01*
X51637319Y-31072605D01*
X51524409Y-30959498D01*
X51123125Y-30792870D01*
X50688621Y-30792491D01*
X50287047Y-30958418D01*
X49995076Y-31249880D01*
X49274284Y-31249880D01*
X49097319Y-31072605D01*
X49097319Y-30328726D01*
X48364920Y-29596327D01*
X47632521Y-30328726D01*
X47708782Y-30550468D01*
X48220086Y-30709791D01*
X48753440Y-30661319D01*
X49021058Y-30550468D01*
X49097319Y-30328726D01*
X49097319Y-31072605D01*
X48984409Y-30959498D01*
X48583125Y-30792870D01*
X48148621Y-30792491D01*
X47747047Y-30958418D01*
X47439538Y-31265391D01*
X47272910Y-31666675D01*
X47272531Y-32101179D01*
X47438458Y-32502753D01*
X47745431Y-32810262D01*
X48146715Y-32976890D01*
X48581219Y-32977269D01*
X48982793Y-32811342D01*
X49274763Y-32519880D01*
X49995555Y-32519880D01*
X50285431Y-32810262D01*
X50686715Y-32976890D01*
X51121219Y-32977269D01*
X51522793Y-32811342D01*
X51814763Y-32519880D01*
X52535555Y-32519880D01*
X52825431Y-32810262D01*
X53226715Y-32976890D01*
X53661219Y-32977269D01*
X54062793Y-32811342D01*
X54354763Y-32519880D01*
X55075555Y-32519880D01*
X55365431Y-32810262D01*
X55766715Y-32976890D01*
X56201219Y-32977269D01*
X56602793Y-32811342D01*
X56865620Y-32548973D01*
X56865620Y-33761165D01*
X56604409Y-33499498D01*
X56203125Y-33332870D01*
X55768621Y-33332491D01*
X55367047Y-33498418D01*
X55059538Y-33805391D01*
X54892910Y-34206675D01*
X54892531Y-34641179D01*
X54970138Y-34829003D01*
X54176104Y-35623037D01*
X53950718Y-35397650D01*
X54062793Y-35351342D01*
X54370302Y-35044369D01*
X54536930Y-34643085D01*
X54537309Y-34208581D01*
X54371382Y-33807007D01*
X54064409Y-33499498D01*
X53663125Y-33332870D01*
X53228621Y-33332491D01*
X52827047Y-33498418D01*
X52519538Y-33805391D01*
X52352910Y-34206675D01*
X52352531Y-34641179D01*
X52518458Y-35042753D01*
X52825431Y-35350262D01*
X53013120Y-35428197D01*
X53013120Y-35502510D01*
X53045989Y-35667753D01*
X53139591Y-35807839D01*
X53653120Y-36321367D01*
X53653120Y-37288491D01*
X53335110Y-37288491D01*
X53326009Y-37290256D01*
X53165653Y-37129899D01*
X52950935Y-37040960D01*
X52881085Y-37040960D01*
X52735035Y-37187010D01*
X52735035Y-37775020D01*
X52833140Y-37775020D01*
X52833140Y-38074740D01*
X52735035Y-38074740D01*
X52735035Y-38662750D01*
X52830025Y-38757740D01*
X52744516Y-38843102D01*
X52641827Y-39090405D01*
X52641593Y-39358181D01*
X52736100Y-39586904D01*
X52736100Y-40418430D01*
X52717900Y-40509927D01*
X52699700Y-40418430D01*
X52699700Y-40183732D01*
X52699700Y-40183727D01*
X52702460Y-40169852D01*
X52702461Y-40169852D01*
X52669592Y-40004610D01*
X52613480Y-39920634D01*
X52575989Y-39864524D01*
X52575989Y-39864523D01*
X52575985Y-39864520D01*
X52150083Y-39438618D01*
X52171836Y-39406393D01*
X52197869Y-39276580D01*
X52197869Y-38758317D01*
X52319745Y-38808800D01*
X52389595Y-38808800D01*
X52535645Y-38662750D01*
X52535645Y-38074740D01*
X52437540Y-38074740D01*
X52437540Y-37775020D01*
X52535645Y-37775020D01*
X52535645Y-37187010D01*
X52389595Y-37040960D01*
X52319745Y-37040960D01*
X52105027Y-37129899D01*
X51940689Y-37294238D01*
X51851750Y-37508956D01*
X51851750Y-37628970D01*
X51969858Y-37747078D01*
X51896939Y-37747078D01*
X51861200Y-37739911D01*
X51851750Y-37739911D01*
X51325714Y-37739911D01*
X51167123Y-37581319D01*
X50952405Y-37492380D01*
X50844750Y-37492380D01*
X50698700Y-37638430D01*
X50698700Y-38498780D01*
X50759000Y-38498780D01*
X50759000Y-38854380D01*
X50698700Y-38854380D01*
X50698700Y-38874380D01*
X50423700Y-38874380D01*
X50423700Y-38854380D01*
X50363400Y-38854380D01*
X50363400Y-38498780D01*
X50423700Y-38498780D01*
X50423700Y-37638430D01*
X50277650Y-37492380D01*
X50169995Y-37492380D01*
X49955277Y-37581319D01*
X49806685Y-37729911D01*
X49261200Y-37729911D01*
X49135296Y-37754339D01*
X49024638Y-37827030D01*
X48950564Y-37936767D01*
X48924531Y-38066580D01*
X48924531Y-39266580D01*
X48948959Y-39392484D01*
X49021650Y-39503142D01*
X49131387Y-39577216D01*
X49203653Y-39591708D01*
X49212269Y-39635023D01*
X49305871Y-39775109D01*
X49769968Y-40239205D01*
X49769971Y-40239209D01*
X49769972Y-40239209D01*
X49863574Y-40301752D01*
X49910057Y-40332811D01*
X49910058Y-40332812D01*
X50075300Y-40365681D01*
X50075300Y-40365680D01*
X50075305Y-40365680D01*
X50946592Y-40365680D01*
X50941476Y-40391400D01*
X49495967Y-40391400D01*
X49430460Y-40291678D01*
X49320723Y-40217604D01*
X49190910Y-40191571D01*
X48792130Y-40191571D01*
X48666226Y-40215999D01*
X48555568Y-40288690D01*
X48542274Y-40308384D01*
X48531300Y-40291678D01*
X48524160Y-40286858D01*
X48524160Y-40024237D01*
X48560342Y-40000470D01*
X48634416Y-39890733D01*
X48660449Y-39760920D01*
X48660449Y-39360920D01*
X48658745Y-39352137D01*
X48819041Y-39191843D01*
X48907980Y-38977125D01*
X48907980Y-38906970D01*
X48907980Y-38414870D01*
X48907980Y-38344715D01*
X48819041Y-38129997D01*
X48654702Y-37965659D01*
X48439984Y-37876720D01*
X48319830Y-37876720D01*
X48173780Y-38022770D01*
X48173780Y-38560920D01*
X48761930Y-38560920D01*
X48907980Y-38414870D01*
X48907980Y-38906970D01*
X48761930Y-38760920D01*
X48173780Y-38760920D01*
X48173780Y-38858720D01*
X47901579Y-38858720D01*
X47901579Y-36056680D01*
X48784920Y-36056680D01*
X48950162Y-36023811D01*
X48950163Y-36023811D01*
X49090249Y-35930209D01*
X49978237Y-35042220D01*
X49978458Y-35042753D01*
X50285431Y-35350262D01*
X50686715Y-35516890D01*
X51121219Y-35517269D01*
X51522793Y-35351342D01*
X51830302Y-35044369D01*
X51996930Y-34643085D01*
X51997309Y-34208581D01*
X51831382Y-33807007D01*
X51524409Y-33499498D01*
X51123125Y-33332870D01*
X50688621Y-33332491D01*
X50287047Y-33498418D01*
X49979538Y-33805391D01*
X49894101Y-34011145D01*
X49819677Y-34025949D01*
X49679591Y-34119551D01*
X49457192Y-34341949D01*
X49457309Y-34208581D01*
X49291382Y-33807007D01*
X48984409Y-33499498D01*
X48583125Y-33332870D01*
X48148621Y-33332491D01*
X47747047Y-33498418D01*
X47439538Y-33805391D01*
X47272910Y-34206675D01*
X47272531Y-34641179D01*
X47350138Y-34829003D01*
X47111120Y-35068022D01*
X47111120Y-29884623D01*
X47159332Y-30001018D01*
X47381074Y-30077279D01*
X48113473Y-29344880D01*
X47381074Y-28612481D01*
X47159332Y-28688742D01*
X47111120Y-28843465D01*
X47111120Y-27995080D01*
X48343482Y-27995080D01*
X47976400Y-28028441D01*
X47708782Y-28139292D01*
X47632521Y-28361034D01*
X48364920Y-29093433D01*
X49097319Y-28361034D01*
X49021058Y-28139292D01*
X48558248Y-27995080D01*
X50883482Y-27995080D01*
X50516400Y-28028441D01*
X50248782Y-28139292D01*
X50172521Y-28361034D01*
X50904920Y-29093433D01*
X51637319Y-28361034D01*
X51561058Y-28139292D01*
X51098248Y-27995080D01*
X53423482Y-27995080D01*
X53056400Y-28028441D01*
X52788782Y-28139292D01*
X52712521Y-28361034D01*
X53444920Y-29093433D01*
X54177319Y-28361034D01*
X54101058Y-28139292D01*
X53638248Y-27995080D01*
X55963482Y-27995080D01*
X55596400Y-28028441D01*
X55328782Y-28139292D01*
X55252521Y-28361034D01*
X55984920Y-29093433D01*
X56717319Y-28361034D01*
X56641058Y-28139292D01*
X56178248Y-27995080D01*
X60064567Y-27995080D01*
X60051228Y-28047741D01*
X60635240Y-28631753D01*
X60649382Y-28617610D01*
X60760538Y-28728766D01*
X60743807Y-28787217D01*
X60771229Y-29026942D01*
G36*
X62611000Y-33534942D02*
X61157591Y-34988351D01*
X61063989Y-35128437D01*
X61057668Y-35160211D01*
X60562920Y-35160211D01*
X60497719Y-35172861D01*
X60497719Y-33381080D01*
X61139070Y-33381080D01*
X61285120Y-33235030D01*
X61285120Y-32474680D01*
X61265120Y-32474680D01*
X61265120Y-32119080D01*
X61285120Y-32119080D01*
X61285120Y-32099080D01*
X61640720Y-32099080D01*
X61640720Y-32119080D01*
X61660720Y-32119080D01*
X61660720Y-32474680D01*
X61640720Y-32474680D01*
X61640720Y-33235030D01*
X61786770Y-33381080D01*
X62479125Y-33381080D01*
X62611000Y-33326455D01*
X62611000Y-33534942D01*
X62611000Y-33534942D01*
G37*
X62611000Y-33534942D02*
X61157591Y-34988351D01*
X61063989Y-35128437D01*
X61057668Y-35160211D01*
X60562920Y-35160211D01*
X60497719Y-35172861D01*
X60497719Y-33381080D01*
X61139070Y-33381080D01*
X61285120Y-33235030D01*
X61285120Y-32474680D01*
X61265120Y-32474680D01*
X61265120Y-32119080D01*
X61285120Y-32119080D01*
X61285120Y-32099080D01*
X61640720Y-32099080D01*
X61640720Y-32119080D01*
X61660720Y-32119080D01*
X61660720Y-32474680D01*
X61640720Y-32474680D01*
X61640720Y-33235030D01*
X61786770Y-33381080D01*
X62479125Y-33381080D01*
X62611000Y-33326455D01*
X62611000Y-33534942D01*
G36*
X62996680Y-27995080D02*
X62672320Y-28129103D01*
X62422022Y-28378964D01*
X62286394Y-28705591D01*
X62286352Y-28753534D01*
X62156687Y-28883200D01*
X62170829Y-28897342D01*
X61919382Y-29148789D01*
X61905240Y-29134647D01*
X61891097Y-29148789D01*
X61779941Y-29037633D01*
X61796673Y-28979183D01*
X61769250Y-28739457D01*
X61891097Y-28617610D01*
X61905240Y-28631753D01*
X62489252Y-28047741D01*
X62475912Y-27995080D01*
X62996680Y-27995080D01*
X62996680Y-27995080D01*
G37*
X62996680Y-27995080D02*
X62672320Y-28129103D01*
X62422022Y-28378964D01*
X62286394Y-28705591D01*
X62286352Y-28753534D01*
X62156687Y-28883200D01*
X62170829Y-28897342D01*
X61919382Y-29148789D01*
X61905240Y-29134647D01*
X61891097Y-29148789D01*
X61779941Y-29037633D01*
X61796673Y-28979183D01*
X61769250Y-28739457D01*
X61891097Y-28617610D01*
X61905240Y-28631753D01*
X62489252Y-28047741D01*
X62475912Y-27995080D01*
X62996680Y-27995080D01*
G36*
X68458080Y-46081440D02*
X68093080Y-46446440D01*
X67637665Y-46446440D01*
X67637660Y-46446439D01*
X67452977Y-46483176D01*
X67296410Y-46587790D01*
X66905250Y-46978950D01*
X66800636Y-47135517D01*
X66763900Y-47320200D01*
X66763900Y-47534380D01*
X66592582Y-47705400D01*
X66561630Y-47779940D01*
X64658470Y-47779940D01*
X64658470Y-46399820D01*
X64658470Y-45739470D01*
X64132820Y-45739470D01*
X63986770Y-45885520D01*
X63986770Y-46077875D01*
X64075709Y-46292593D01*
X64240048Y-46456931D01*
X64454766Y-46545870D01*
X64512420Y-46545870D01*
X64658470Y-46399820D01*
X64658470Y-47779940D01*
X59841639Y-47779940D01*
X59695500Y-47633800D01*
X59695500Y-47179406D01*
X59723536Y-47137873D01*
X59749569Y-47008060D01*
X59749569Y-46408060D01*
X59725807Y-46285589D01*
X60067400Y-46285589D01*
X60193304Y-46261161D01*
X60248337Y-46225009D01*
X60487705Y-46324403D01*
X60755481Y-46324637D01*
X61002963Y-46222379D01*
X61192474Y-46033198D01*
X61295163Y-45785895D01*
X61295369Y-45549319D01*
X61388482Y-45642594D01*
X61635785Y-45745283D01*
X61903561Y-45745517D01*
X62151043Y-45643259D01*
X62340554Y-45454078D01*
X62423853Y-45253470D01*
X63381401Y-45253470D01*
X63461157Y-45307306D01*
X63590970Y-45333339D01*
X64082289Y-45333339D01*
X64132820Y-45383870D01*
X64658470Y-45383870D01*
X64658470Y-45363870D01*
X64734301Y-45363870D01*
X64734301Y-45961670D01*
X64758729Y-46087574D01*
X64831420Y-46198232D01*
X64833470Y-46199615D01*
X64833470Y-46399820D01*
X64979520Y-46545870D01*
X65037174Y-46545870D01*
X65251892Y-46456931D01*
X65410484Y-46298339D01*
X65420970Y-46298339D01*
X65497209Y-46283546D01*
X65570970Y-46298339D01*
X65920970Y-46298339D01*
X65997209Y-46283546D01*
X66070970Y-46298339D01*
X66420970Y-46298339D01*
X66497209Y-46283546D01*
X66570970Y-46298339D01*
X66920970Y-46298339D01*
X66997209Y-46283546D01*
X67070970Y-46298339D01*
X67420970Y-46298339D01*
X67546874Y-46273911D01*
X67657532Y-46201220D01*
X67731606Y-46091483D01*
X67757639Y-45961670D01*
X67757639Y-45333339D01*
X68458080Y-45333339D01*
X68458080Y-46081440D01*
X68458080Y-46081440D01*
G37*
X68458080Y-46081440D02*
X68093080Y-46446440D01*
X67637665Y-46446440D01*
X67637660Y-46446439D01*
X67452977Y-46483176D01*
X67296410Y-46587790D01*
X66905250Y-46978950D01*
X66800636Y-47135517D01*
X66763900Y-47320200D01*
X66763900Y-47534380D01*
X66592582Y-47705400D01*
X66561630Y-47779940D01*
X64658470Y-47779940D01*
X64658470Y-46399820D01*
X64658470Y-45739470D01*
X64132820Y-45739470D01*
X63986770Y-45885520D01*
X63986770Y-46077875D01*
X64075709Y-46292593D01*
X64240048Y-46456931D01*
X64454766Y-46545870D01*
X64512420Y-46545870D01*
X64658470Y-46399820D01*
X64658470Y-47779940D01*
X59841639Y-47779940D01*
X59695500Y-47633800D01*
X59695500Y-47179406D01*
X59723536Y-47137873D01*
X59749569Y-47008060D01*
X59749569Y-46408060D01*
X59725807Y-46285589D01*
X60067400Y-46285589D01*
X60193304Y-46261161D01*
X60248337Y-46225009D01*
X60487705Y-46324403D01*
X60755481Y-46324637D01*
X61002963Y-46222379D01*
X61192474Y-46033198D01*
X61295163Y-45785895D01*
X61295369Y-45549319D01*
X61388482Y-45642594D01*
X61635785Y-45745283D01*
X61903561Y-45745517D01*
X62151043Y-45643259D01*
X62340554Y-45454078D01*
X62423853Y-45253470D01*
X63381401Y-45253470D01*
X63461157Y-45307306D01*
X63590970Y-45333339D01*
X64082289Y-45333339D01*
X64132820Y-45383870D01*
X64658470Y-45383870D01*
X64658470Y-45363870D01*
X64734301Y-45363870D01*
X64734301Y-45961670D01*
X64758729Y-46087574D01*
X64831420Y-46198232D01*
X64833470Y-46199615D01*
X64833470Y-46399820D01*
X64979520Y-46545870D01*
X65037174Y-46545870D01*
X65251892Y-46456931D01*
X65410484Y-46298339D01*
X65420970Y-46298339D01*
X65497209Y-46283546D01*
X65570970Y-46298339D01*
X65920970Y-46298339D01*
X65997209Y-46283546D01*
X66070970Y-46298339D01*
X66420970Y-46298339D01*
X66497209Y-46283546D01*
X66570970Y-46298339D01*
X66920970Y-46298339D01*
X66997209Y-46283546D01*
X67070970Y-46298339D01*
X67420970Y-46298339D01*
X67546874Y-46273911D01*
X67657532Y-46201220D01*
X67731606Y-46091483D01*
X67757639Y-45961670D01*
X67757639Y-45333339D01*
X68458080Y-45333339D01*
X68458080Y-46081440D01*
G36*
X71242720Y-56952680D02*
X70995540Y-56952680D01*
X70561200Y-56952680D01*
X70561200Y-46022895D01*
X70561200Y-45953045D01*
X70415150Y-45806995D01*
X69827140Y-45806995D01*
X69827140Y-46344840D01*
X69973190Y-46490890D01*
X70093204Y-46490890D01*
X70307922Y-46401951D01*
X70472261Y-46237613D01*
X70561200Y-46022895D01*
X70561200Y-56952680D01*
X68546665Y-56952680D01*
X68546665Y-56537970D01*
X68546665Y-55949960D01*
X68008820Y-55949960D01*
X67862770Y-56096010D01*
X67862770Y-56216024D01*
X67951709Y-56430742D01*
X68116047Y-56595081D01*
X68330765Y-56684020D01*
X68400615Y-56684020D01*
X68546665Y-56537970D01*
X68546665Y-56952680D01*
X65769831Y-56952680D01*
X65769831Y-55749714D01*
X65721359Y-55216360D01*
X65610508Y-54948742D01*
X65388766Y-54872481D01*
X65137319Y-55123928D01*
X65137319Y-54621034D01*
X65061058Y-54399292D01*
X64549754Y-54239969D01*
X64016400Y-54288441D01*
X63748782Y-54399292D01*
X63672521Y-54621034D01*
X64404920Y-55353433D01*
X65137319Y-54621034D01*
X65137319Y-55123928D01*
X64656367Y-55604880D01*
X65388766Y-56337279D01*
X65610508Y-56261018D01*
X65769831Y-55749714D01*
X65769831Y-56952680D01*
X64448364Y-56952680D01*
X64793440Y-56921319D01*
X65061058Y-56810468D01*
X65137319Y-56588726D01*
X64404920Y-55856327D01*
X64153473Y-56107774D01*
X64153473Y-55604880D01*
X63421074Y-54872481D01*
X63199332Y-54948742D01*
X63144026Y-55126230D01*
X63070508Y-54948742D01*
X62848766Y-54872481D01*
X62597319Y-55123928D01*
X62597319Y-54621034D01*
X62521058Y-54399292D01*
X62009754Y-54239969D01*
X61476400Y-54288441D01*
X61208782Y-54399292D01*
X61132521Y-54621034D01*
X61864920Y-55353433D01*
X62597319Y-54621034D01*
X62597319Y-55123928D01*
X62116367Y-55604880D01*
X62848766Y-56337279D01*
X63070508Y-56261018D01*
X63125813Y-56083529D01*
X63199332Y-56261018D01*
X63421074Y-56337279D01*
X64153473Y-55604880D01*
X64153473Y-56107774D01*
X63672521Y-56588726D01*
X63748782Y-56810468D01*
X64205172Y-56952680D01*
X61908364Y-56952680D01*
X62253440Y-56921319D01*
X62521058Y-56810468D01*
X62597319Y-56588726D01*
X61864920Y-55856327D01*
X61613473Y-56107774D01*
X61613473Y-55604880D01*
X60881074Y-54872481D01*
X60659332Y-54948742D01*
X60604026Y-55126230D01*
X60530508Y-54948742D01*
X60308766Y-54872481D01*
X60057319Y-55123928D01*
X60057319Y-54621034D01*
X59981058Y-54399292D01*
X59469754Y-54239969D01*
X58936400Y-54288441D01*
X58668782Y-54399292D01*
X58592521Y-54621034D01*
X59324920Y-55353433D01*
X60057319Y-54621034D01*
X60057319Y-55123928D01*
X59576367Y-55604880D01*
X60308766Y-56337279D01*
X60530508Y-56261018D01*
X60585813Y-56083529D01*
X60659332Y-56261018D01*
X60881074Y-56337279D01*
X61613473Y-55604880D01*
X61613473Y-56107774D01*
X61132521Y-56588726D01*
X61208782Y-56810468D01*
X61665172Y-56952680D01*
X59368364Y-56952680D01*
X59713440Y-56921319D01*
X59981058Y-56810468D01*
X60057319Y-56588726D01*
X59324920Y-55856327D01*
X59073473Y-56107774D01*
X59073473Y-55604880D01*
X58341074Y-54872481D01*
X58119332Y-54948742D01*
X58064026Y-55126230D01*
X57990508Y-54948742D01*
X57768766Y-54872481D01*
X57517319Y-55123928D01*
X57517319Y-54621034D01*
X57441058Y-54399292D01*
X56929754Y-54239969D01*
X56396400Y-54288441D01*
X56128782Y-54399292D01*
X56052521Y-54621034D01*
X56784920Y-55353433D01*
X57517319Y-54621034D01*
X57517319Y-55123928D01*
X57036367Y-55604880D01*
X57768766Y-56337279D01*
X57990508Y-56261018D01*
X58045813Y-56083529D01*
X58119332Y-56261018D01*
X58341074Y-56337279D01*
X59073473Y-55604880D01*
X59073473Y-56107774D01*
X58592521Y-56588726D01*
X58668782Y-56810468D01*
X59125172Y-56952680D01*
X56828364Y-56952680D01*
X57173440Y-56921319D01*
X57441058Y-56810468D01*
X57517319Y-56588726D01*
X56784920Y-55856327D01*
X56533473Y-56107774D01*
X56533473Y-55604880D01*
X55801074Y-54872481D01*
X55579332Y-54948742D01*
X55420009Y-55460046D01*
X55468481Y-55993400D01*
X55579332Y-56261018D01*
X55801074Y-56337279D01*
X56533473Y-55604880D01*
X56533473Y-56107774D01*
X56052521Y-56588726D01*
X56128782Y-56810468D01*
X56585172Y-56952680D01*
X53585303Y-56952680D01*
X53596181Y-56941803D01*
X53685120Y-56727085D01*
X53685120Y-55918730D01*
X53539070Y-55772680D01*
X52262720Y-55772680D01*
X52262720Y-55792680D01*
X51907120Y-55792680D01*
X51907120Y-55772680D01*
X50630770Y-55772680D01*
X50484720Y-55918730D01*
X50484720Y-56727085D01*
X50573659Y-56941803D01*
X50584536Y-56952680D01*
X49032460Y-56952680D01*
X49107870Y-56770624D01*
X49107870Y-56650610D01*
X48961820Y-56504560D01*
X48423975Y-56504560D01*
X48423975Y-56552500D01*
X48224585Y-56552500D01*
X48224585Y-56504560D01*
X48126480Y-56504560D01*
X48126480Y-56204840D01*
X48224585Y-56204840D01*
X48224585Y-55616830D01*
X48209680Y-55601925D01*
X48209680Y-54993260D01*
X48149380Y-54993260D01*
X48149380Y-54637660D01*
X48209680Y-54637660D01*
X48209680Y-54617660D01*
X48484680Y-54617660D01*
X48484680Y-54637660D01*
X48544980Y-54637660D01*
X48544980Y-54993260D01*
X48484680Y-54993260D01*
X48484680Y-55556125D01*
X48423975Y-55616830D01*
X48423975Y-56204840D01*
X48961820Y-56204840D01*
X49107870Y-56058790D01*
X49107870Y-55938776D01*
X49025033Y-55738790D01*
X49111694Y-55652129D01*
X49572180Y-55652129D01*
X49698084Y-55627701D01*
X49808742Y-55555010D01*
X49882816Y-55445273D01*
X49908849Y-55315460D01*
X49908849Y-55101817D01*
X50484720Y-54525946D01*
X50484720Y-55271030D01*
X50630770Y-55417080D01*
X51907120Y-55417080D01*
X51907120Y-55397080D01*
X52262720Y-55397080D01*
X52262720Y-55417080D01*
X53539070Y-55417080D01*
X53685120Y-55271030D01*
X53685120Y-54462675D01*
X53596181Y-54247957D01*
X53431842Y-54083619D01*
X53217124Y-53994680D01*
X53062539Y-53994680D01*
X53266200Y-53689880D01*
X55865572Y-53689880D01*
X56165431Y-53990262D01*
X56566715Y-54156890D01*
X57001219Y-54157269D01*
X57402793Y-53991342D01*
X57694763Y-53699880D01*
X58415555Y-53699880D01*
X58705431Y-53990262D01*
X59106715Y-54156890D01*
X59541219Y-54157269D01*
X59942793Y-53991342D01*
X60234763Y-53699880D01*
X60955555Y-53699880D01*
X61245431Y-53990262D01*
X61646715Y-54156890D01*
X62081219Y-54157269D01*
X62482793Y-53991342D01*
X62774763Y-53699880D01*
X63495555Y-53699880D01*
X63785431Y-53990262D01*
X64186715Y-54156890D01*
X64621219Y-54157269D01*
X65022793Y-53991342D01*
X65123060Y-53891249D01*
X65123060Y-54114700D01*
X65167530Y-54338264D01*
X65294168Y-54527792D01*
X65620668Y-54854292D01*
X65810196Y-54980930D01*
X65810197Y-54980931D01*
X66033760Y-55025401D01*
X66033760Y-55025400D01*
X66033765Y-55025400D01*
X67065507Y-55025400D01*
X67073599Y-55067104D01*
X67146290Y-55177762D01*
X67256027Y-55251836D01*
X67385840Y-55277869D01*
X67846325Y-55277869D01*
X67889090Y-55320633D01*
X67862770Y-55384176D01*
X67862770Y-55504190D01*
X68008820Y-55650240D01*
X68546665Y-55650240D01*
X68546665Y-55062230D01*
X68473340Y-54988905D01*
X68473340Y-54619000D01*
X68413040Y-54619000D01*
X68413040Y-54263400D01*
X68473340Y-54263400D01*
X68473340Y-54243400D01*
X68748340Y-54243400D01*
X68748340Y-54263400D01*
X68808640Y-54263400D01*
X68808640Y-54619000D01*
X68748340Y-54619000D01*
X68748340Y-55059945D01*
X68746055Y-55062230D01*
X68746055Y-55650240D01*
X68844160Y-55650240D01*
X68844160Y-55949960D01*
X68746055Y-55949960D01*
X68746055Y-56537970D01*
X68892105Y-56684020D01*
X68961955Y-56684020D01*
X69176673Y-56595081D01*
X69337079Y-56434673D01*
X69346130Y-56436489D01*
X69744910Y-56436489D01*
X69870814Y-56412061D01*
X69981472Y-56339370D01*
X70055546Y-56229633D01*
X70081579Y-56099820D01*
X70081579Y-56036766D01*
X70100570Y-56008344D01*
X70100571Y-56008343D01*
X70145040Y-55784780D01*
X70145040Y-55073140D01*
X70146476Y-55071013D01*
X70172509Y-54941200D01*
X70172509Y-53941200D01*
X70172509Y-52241200D01*
X70172509Y-51241200D01*
X70148081Y-51115296D01*
X70075390Y-51004638D01*
X69965653Y-50930564D01*
X69835840Y-50904531D01*
X69712602Y-50904531D01*
X69712602Y-48180398D01*
X69659070Y-47775836D01*
X69607241Y-47650709D01*
X69418367Y-47614660D01*
X68920347Y-48112680D01*
X69418367Y-48610700D01*
X69607241Y-48574651D01*
X69712602Y-48180398D01*
X69712602Y-50904531D01*
X69402010Y-50904531D01*
X69402010Y-50825510D01*
X69402010Y-50233690D01*
X69402010Y-50113676D01*
X69313071Y-49898958D01*
X69148733Y-49734619D01*
X68934015Y-49645680D01*
X68864165Y-49645680D01*
X68718115Y-49791730D01*
X68718115Y-50379740D01*
X69255960Y-50379740D01*
X69402010Y-50233690D01*
X69402010Y-50825510D01*
X69255960Y-50679460D01*
X68718115Y-50679460D01*
X68718115Y-51267470D01*
X68864165Y-51413520D01*
X68934015Y-51413520D01*
X68949171Y-51407242D01*
X68949171Y-52241200D01*
X68973599Y-52367104D01*
X69046290Y-52477762D01*
X69156027Y-52551836D01*
X69285840Y-52577869D01*
X69835840Y-52577869D01*
X69961744Y-52553441D01*
X70072402Y-52480750D01*
X70146476Y-52371013D01*
X70172509Y-52241200D01*
X70172509Y-53941200D01*
X70149720Y-53823743D01*
X70149720Y-53601620D01*
X70105250Y-53378057D01*
X70105250Y-53378056D01*
X69978612Y-53188528D01*
X69607772Y-52817688D01*
X69418244Y-52691050D01*
X69194680Y-52646580D01*
X67939920Y-52646580D01*
X67716356Y-52691050D01*
X67526828Y-52817688D01*
X67252508Y-53092008D01*
X67125870Y-53281536D01*
X67081400Y-53505100D01*
X67081400Y-53802207D01*
X67075204Y-53811387D01*
X67066056Y-53857000D01*
X66291460Y-53857000D01*
X66291460Y-53289590D01*
X66246990Y-53066027D01*
X66246990Y-53066026D01*
X66120352Y-52876498D01*
X65895642Y-52651788D01*
X65706114Y-52525150D01*
X65482550Y-52480680D01*
X65345295Y-52480680D01*
X65331382Y-52447007D01*
X65024409Y-52139498D01*
X64623125Y-51972870D01*
X64188621Y-51972491D01*
X63787047Y-52138418D01*
X63495076Y-52429880D01*
X62774284Y-52429880D01*
X62484409Y-52139498D01*
X62083125Y-51972870D01*
X61648621Y-51972491D01*
X61247047Y-52138418D01*
X60955076Y-52429880D01*
X60234284Y-52429880D01*
X59944409Y-52139498D01*
X59543125Y-51972870D01*
X59108621Y-51972491D01*
X58707047Y-52138418D01*
X58415076Y-52429880D01*
X57694284Y-52429880D01*
X57404409Y-52139498D01*
X57003125Y-51972870D01*
X56568621Y-51972491D01*
X56167047Y-52138418D01*
X55885093Y-52419880D01*
X53766720Y-52419880D01*
X53766720Y-48527335D01*
X53766720Y-48457485D01*
X53620670Y-48311435D01*
X53032660Y-48311435D01*
X53032660Y-48849280D01*
X53178710Y-48995330D01*
X53298724Y-48995330D01*
X53513442Y-48906391D01*
X53677781Y-48742053D01*
X53766720Y-48527335D01*
X53766720Y-52419880D01*
X53266200Y-52419880D01*
X53036827Y-52076599D01*
X52760880Y-51892216D01*
X52760880Y-48527335D01*
X52760880Y-48457485D01*
X52732940Y-48429545D01*
X52732940Y-48311435D01*
X52614830Y-48311435D01*
X52144930Y-48311435D01*
X52026820Y-48311435D01*
X52026820Y-48429545D01*
X51998880Y-48457485D01*
X51998880Y-48527335D01*
X52026820Y-48594788D01*
X52026820Y-48849280D01*
X52172870Y-48995330D01*
X52292884Y-48995330D01*
X52379880Y-48959295D01*
X52466876Y-48995330D01*
X52586890Y-48995330D01*
X52732940Y-48849280D01*
X52732940Y-48594788D01*
X52760880Y-48527335D01*
X52760880Y-51892216D01*
X52600088Y-51784779D01*
X52084920Y-51682306D01*
X51727100Y-51753480D01*
X51727100Y-48849280D01*
X51727100Y-48311435D01*
X51139090Y-48311435D01*
X50993040Y-48457485D01*
X50993040Y-48527335D01*
X51081979Y-48742053D01*
X51246318Y-48906391D01*
X51461036Y-48995330D01*
X51581050Y-48995330D01*
X51727100Y-48849280D01*
X51727100Y-51753480D01*
X51569752Y-51784779D01*
X51133013Y-52076599D01*
X50880016Y-52455235D01*
X50814756Y-52468216D01*
X50768840Y-52498896D01*
X50768840Y-48590055D01*
X50768840Y-48520205D01*
X50622790Y-48374155D01*
X50034780Y-48374155D01*
X50034780Y-48912000D01*
X50180830Y-49058050D01*
X50300844Y-49058050D01*
X50515562Y-48969111D01*
X50679901Y-48804773D01*
X50768840Y-48590055D01*
X50768840Y-52498896D01*
X50608747Y-52605867D01*
X49908849Y-53305764D01*
X49908849Y-52615460D01*
X49908849Y-51615460D01*
X49884421Y-51489556D01*
X49811730Y-51378898D01*
X49735060Y-51327144D01*
X49735060Y-48912000D01*
X49735060Y-48374155D01*
X49147050Y-48374155D01*
X49001000Y-48520205D01*
X49001000Y-48590055D01*
X49089939Y-48804773D01*
X49254278Y-48969111D01*
X49468996Y-49058050D01*
X49589010Y-49058050D01*
X49735060Y-48912000D01*
X49735060Y-51327144D01*
X49701993Y-51304824D01*
X49572180Y-51278791D01*
X49022180Y-51278791D01*
X48998662Y-51283353D01*
X49082470Y-51081024D01*
X49082470Y-50961010D01*
X49082470Y-50369190D01*
X49082470Y-50249176D01*
X48993531Y-50034458D01*
X48829193Y-49870119D01*
X48614475Y-49781180D01*
X48544625Y-49781180D01*
X48398575Y-49927230D01*
X48398575Y-50515240D01*
X48936420Y-50515240D01*
X49082470Y-50369190D01*
X49082470Y-50961010D01*
X48936420Y-50814960D01*
X48398575Y-50814960D01*
X48398575Y-51402970D01*
X48544625Y-51549020D01*
X48614475Y-51549020D01*
X48706477Y-51510911D01*
X48685511Y-51615460D01*
X48685511Y-52615460D01*
X48709939Y-52741364D01*
X48782630Y-52852022D01*
X48892367Y-52926096D01*
X49022180Y-52952129D01*
X49572180Y-52952129D01*
X49698084Y-52927701D01*
X49808742Y-52855010D01*
X49882816Y-52745273D01*
X49908849Y-52615460D01*
X49908849Y-53305764D01*
X49710459Y-53504154D01*
X49709773Y-53503127D01*
X49346553Y-53139907D01*
X49140544Y-53002256D01*
X48897540Y-52953920D01*
X47718980Y-52953920D01*
X47475975Y-53002256D01*
X47269967Y-53139907D01*
X47111120Y-53298754D01*
X47111120Y-52949911D01*
X47122180Y-52952129D01*
X47672180Y-52952129D01*
X47798084Y-52927701D01*
X47908742Y-52855010D01*
X47982816Y-52745273D01*
X48008849Y-52615460D01*
X48008849Y-51615460D01*
X47995958Y-51549020D01*
X48053135Y-51549020D01*
X48199185Y-51402970D01*
X48199185Y-50814960D01*
X48101080Y-50814960D01*
X48101080Y-50515240D01*
X48199185Y-50515240D01*
X48199185Y-49927230D01*
X48053135Y-49781180D01*
X47983285Y-49781180D01*
X47918320Y-49808089D01*
X47918320Y-49382947D01*
X48038838Y-49262640D01*
X48156585Y-48979074D01*
X48156853Y-48672033D01*
X48039601Y-48388262D01*
X47822680Y-48170962D01*
X47539114Y-48053215D01*
X47232073Y-48052947D01*
X47111120Y-48102923D01*
X47111120Y-47546880D01*
X47230726Y-47596545D01*
X47537767Y-47596813D01*
X47821538Y-47479561D01*
X48038838Y-47262640D01*
X48156585Y-46979074D01*
X48156853Y-46672033D01*
X48154388Y-46666068D01*
X48713777Y-46106680D01*
X49342241Y-46106680D01*
X49345370Y-46111442D01*
X49364778Y-46124543D01*
X49348358Y-46135330D01*
X49274284Y-46245067D01*
X49248251Y-46374880D01*
X49248251Y-46774880D01*
X49272679Y-46900784D01*
X49321985Y-46975844D01*
X49274564Y-47046097D01*
X49248531Y-47175910D01*
X49248531Y-47574690D01*
X49250296Y-47583790D01*
X49089939Y-47744147D01*
X49001000Y-47958865D01*
X49001000Y-48028715D01*
X49147050Y-48174765D01*
X49735060Y-48174765D01*
X49735060Y-48076660D01*
X50034780Y-48076660D01*
X50034780Y-48174765D01*
X50622790Y-48174765D01*
X50768840Y-48028715D01*
X50768840Y-47958865D01*
X50679901Y-47744147D01*
X50519493Y-47583740D01*
X50521309Y-47574690D01*
X50521309Y-47175910D01*
X50507175Y-47103063D01*
X50555382Y-47151354D01*
X50802685Y-47254043D01*
X51070461Y-47254277D01*
X51240571Y-47183988D01*
X51240571Y-47511970D01*
X51242336Y-47521070D01*
X51081979Y-47681427D01*
X50993040Y-47896145D01*
X50993040Y-47965995D01*
X51139090Y-48112045D01*
X51727100Y-48112045D01*
X51727100Y-48013940D01*
X52026820Y-48013940D01*
X52026820Y-48112045D01*
X52144930Y-48112045D01*
X52614830Y-48112045D01*
X52732940Y-48112045D01*
X52732940Y-48013940D01*
X53032660Y-48013940D01*
X53032660Y-48112045D01*
X53620670Y-48112045D01*
X53766720Y-47965995D01*
X53766720Y-47896145D01*
X53677781Y-47681427D01*
X53517373Y-47521020D01*
X53519189Y-47511970D01*
X53519189Y-47113190D01*
X53494761Y-46987286D01*
X53422070Y-46876628D01*
X53312333Y-46802554D01*
X53292435Y-46798563D01*
X53281731Y-46744748D01*
X53281731Y-46744747D01*
X53188129Y-46604661D01*
X52699700Y-46116232D01*
X52699700Y-45227969D01*
X52717900Y-45136472D01*
X52736100Y-45227969D01*
X52736100Y-45426400D01*
X52736100Y-45830230D01*
X52768969Y-45995473D01*
X52862571Y-46135559D01*
X56279121Y-49552109D01*
X56167047Y-49598418D01*
X55859538Y-49905391D01*
X55692910Y-50306675D01*
X55692531Y-50741179D01*
X55858458Y-51142753D01*
X56165431Y-51450262D01*
X56566715Y-51616890D01*
X57001219Y-51617269D01*
X57402793Y-51451342D01*
X57710302Y-51144369D01*
X57876930Y-50743085D01*
X57877309Y-50308581D01*
X57830246Y-50194681D01*
X58279414Y-50194681D01*
X58232910Y-50306675D01*
X58232531Y-50741179D01*
X58398458Y-51142753D01*
X58705431Y-51450262D01*
X59106715Y-51616890D01*
X59541219Y-51617269D01*
X59942793Y-51451342D01*
X60250302Y-51144369D01*
X60416930Y-50743085D01*
X60417309Y-50308581D01*
X60251382Y-49907007D01*
X60001491Y-49656680D01*
X60386062Y-49656680D01*
X60850118Y-50120736D01*
X60772910Y-50306675D01*
X60772531Y-50741179D01*
X60938458Y-51142753D01*
X61245431Y-51450262D01*
X61646715Y-51616890D01*
X62081219Y-51617269D01*
X62482793Y-51451342D01*
X62790302Y-51144369D01*
X62956930Y-50743085D01*
X62957309Y-50308581D01*
X62791382Y-49907007D01*
X62484409Y-49599498D01*
X62083125Y-49432870D01*
X61648621Y-49432491D01*
X61460796Y-49510098D01*
X61251767Y-49301070D01*
X62570451Y-49301070D01*
X63390118Y-50120736D01*
X63312910Y-50306675D01*
X63312531Y-50741179D01*
X63478458Y-51142753D01*
X63785431Y-51450262D01*
X64186715Y-51616890D01*
X64621219Y-51617269D01*
X65022793Y-51451342D01*
X65330302Y-51144369D01*
X65496930Y-50743085D01*
X65497309Y-50308581D01*
X65331382Y-49907007D01*
X65024409Y-49599498D01*
X64623125Y-49432870D01*
X64188621Y-49432491D01*
X64000796Y-49510098D01*
X63235837Y-48745140D01*
X66756892Y-48745140D01*
X66808740Y-48797078D01*
X67092306Y-48914825D01*
X67236660Y-48914950D01*
X67236660Y-50059436D01*
X67209234Y-50100067D01*
X67183201Y-50229880D01*
X67183201Y-50563079D01*
X67178240Y-50588020D01*
X67178240Y-50982624D01*
X67149278Y-51001650D01*
X67075204Y-51111387D01*
X67049171Y-51241200D01*
X67049171Y-52241200D01*
X67073599Y-52367104D01*
X67146290Y-52477762D01*
X67256027Y-52551836D01*
X67385840Y-52577869D01*
X67935840Y-52577869D01*
X68061744Y-52553441D01*
X68172402Y-52480750D01*
X68246476Y-52371013D01*
X68272509Y-52241200D01*
X68272509Y-51400962D01*
X68302825Y-51413520D01*
X68372675Y-51413520D01*
X68518725Y-51267470D01*
X68518725Y-50679460D01*
X68420620Y-50679460D01*
X68420620Y-50379740D01*
X68518725Y-50379740D01*
X68518725Y-49791730D01*
X68372675Y-49645680D01*
X68302825Y-49645680D01*
X68201860Y-49687501D01*
X68201860Y-49024462D01*
X68206929Y-49051021D01*
X68601182Y-49156382D01*
X69005744Y-49102850D01*
X69130871Y-49051021D01*
X69166920Y-48862147D01*
X68668900Y-48364127D01*
X68654757Y-48378269D01*
X68403310Y-48126822D01*
X68417453Y-48112680D01*
X68403310Y-48098537D01*
X68654757Y-47847090D01*
X68668900Y-47861233D01*
X69166920Y-47363213D01*
X69130871Y-47174339D01*
X68814680Y-47089839D01*
X69281930Y-46622590D01*
X69369928Y-46490890D01*
X69381370Y-46490890D01*
X69527420Y-46344840D01*
X69527420Y-45806995D01*
X69479480Y-45806995D01*
X69479480Y-45607605D01*
X69527420Y-45607605D01*
X69527420Y-45509500D01*
X69827140Y-45509500D01*
X69827140Y-45607605D01*
X70415150Y-45607605D01*
X70561200Y-45461555D01*
X70561200Y-45391705D01*
X70472261Y-45176987D01*
X70311853Y-45016580D01*
X70313669Y-45007530D01*
X70313669Y-44608750D01*
X70298391Y-44530010D01*
X70289422Y-44483778D01*
X70289422Y-44411902D01*
X70407530Y-44530010D01*
X70527544Y-44530010D01*
X70742262Y-44441071D01*
X70906601Y-44276733D01*
X70995540Y-44062015D01*
X70995540Y-43992165D01*
X70849490Y-43846115D01*
X70261480Y-43846115D01*
X70261480Y-43944220D01*
X69961760Y-43944220D01*
X69961760Y-43846115D01*
X69569127Y-43846115D01*
X69533710Y-43839070D01*
X68605280Y-43839070D01*
X68600783Y-43836034D01*
X68530118Y-43821862D01*
X68596874Y-43808911D01*
X68603939Y-43804270D01*
X68994590Y-43804270D01*
X69179273Y-43767534D01*
X69335840Y-43662920D01*
X69362892Y-43635867D01*
X69373750Y-43646725D01*
X69961760Y-43646725D01*
X69961760Y-43548620D01*
X70261480Y-43548620D01*
X70261480Y-43646725D01*
X70849490Y-43646725D01*
X70995540Y-43500675D01*
X70995540Y-43430825D01*
X70906601Y-43216107D01*
X70746193Y-43055700D01*
X70748009Y-43046650D01*
X70748009Y-42647870D01*
X70723581Y-42521966D01*
X70650890Y-42411308D01*
X70541153Y-42337234D01*
X70411340Y-42311201D01*
X69811900Y-42311201D01*
X69685996Y-42335629D01*
X69641801Y-42364660D01*
X69469000Y-42364660D01*
X69284317Y-42401396D01*
X69147120Y-42493067D01*
X69147120Y-32913084D01*
X69147120Y-32680675D01*
X69147120Y-32620730D01*
X69147120Y-31973030D01*
X69147120Y-31913085D01*
X69147120Y-31680676D01*
X69058181Y-31465958D01*
X68893843Y-31301619D01*
X68679125Y-31212680D01*
X67986770Y-31212680D01*
X67840720Y-31358730D01*
X67840720Y-32119080D01*
X69001070Y-32119080D01*
X69147120Y-31973030D01*
X69147120Y-32620730D01*
X69001070Y-32474680D01*
X67840720Y-32474680D01*
X67840720Y-33235030D01*
X67986770Y-33381080D01*
X68679125Y-33381080D01*
X68893843Y-33292141D01*
X69058181Y-33127802D01*
X69147120Y-32913084D01*
X69147120Y-42493067D01*
X69127750Y-42506010D01*
X68807639Y-42826121D01*
X68807639Y-42646670D01*
X68792846Y-42570430D01*
X68807639Y-42496670D01*
X68807639Y-42146670D01*
X68783211Y-42020766D01*
X68710520Y-41910108D01*
X68688770Y-41895426D01*
X68734723Y-41876439D01*
X68924234Y-41687258D01*
X69026923Y-41439955D01*
X69027157Y-41172179D01*
X68924899Y-40924697D01*
X68759586Y-40759096D01*
X68808053Y-40739021D01*
X68972391Y-40574682D01*
X69061330Y-40359964D01*
X69061330Y-40239950D01*
X69061330Y-39648130D01*
X69061330Y-39528116D01*
X68972391Y-39313398D01*
X68808053Y-39149059D01*
X68593335Y-39060120D01*
X68523485Y-39060120D01*
X68377435Y-39206170D01*
X68377435Y-39794180D01*
X68915280Y-39794180D01*
X69061330Y-39648130D01*
X69061330Y-40239950D01*
X68915280Y-40093900D01*
X68377435Y-40093900D01*
X68377435Y-40141840D01*
X68178045Y-40141840D01*
X68178045Y-40093900D01*
X68079940Y-40093900D01*
X68079940Y-39794180D01*
X68178045Y-39794180D01*
X68178045Y-39206170D01*
X68152992Y-39181117D01*
X68193803Y-39082835D01*
X68194037Y-38815059D01*
X68091779Y-38567577D01*
X67902598Y-38378066D01*
X67655295Y-38275377D01*
X67387519Y-38275143D01*
X67140037Y-38377401D01*
X66950526Y-38566582D01*
X66847837Y-38813885D01*
X66847603Y-39081661D01*
X66895980Y-39198741D01*
X66895980Y-39473876D01*
X66868554Y-39514507D01*
X66842521Y-39644320D01*
X66842521Y-40097728D01*
X66800106Y-40161207D01*
X66763370Y-40345890D01*
X66763370Y-40825001D01*
X66570970Y-40825001D01*
X66494730Y-40839793D01*
X66420970Y-40825001D01*
X66070970Y-40825001D01*
X65994730Y-40839793D01*
X65920970Y-40825001D01*
X65570970Y-40825001D01*
X65494730Y-40839793D01*
X65420970Y-40825001D01*
X65410484Y-40825001D01*
X65251892Y-40666409D01*
X65037174Y-40577470D01*
X64979520Y-40577470D01*
X64833470Y-40723520D01*
X64833470Y-40923509D01*
X64760334Y-41031857D01*
X64734301Y-41161670D01*
X64734301Y-41759470D01*
X64658470Y-41759470D01*
X64658470Y-41739470D01*
X64658470Y-41383870D01*
X64658470Y-40723520D01*
X64512420Y-40577470D01*
X64454766Y-40577470D01*
X64240048Y-40666409D01*
X64075709Y-40830747D01*
X63986770Y-41045465D01*
X63986770Y-41237820D01*
X64132820Y-41383870D01*
X64658470Y-41383870D01*
X64658470Y-41739470D01*
X64132820Y-41739470D01*
X64062289Y-41810001D01*
X63590970Y-41810001D01*
X63465066Y-41834429D01*
X63383160Y-41888232D01*
X63383160Y-41734738D01*
X63315217Y-41734738D01*
X63383160Y-41666795D01*
X63383160Y-41596945D01*
X63294221Y-41382227D01*
X63129882Y-41217889D01*
X62915164Y-41128950D01*
X62795150Y-41128950D01*
X62649100Y-41275000D01*
X62649100Y-41812845D01*
X62697040Y-41812845D01*
X62697040Y-42012235D01*
X62649100Y-42012235D01*
X62649100Y-42110340D01*
X62349380Y-42110340D01*
X62349380Y-42012235D01*
X62349380Y-41812845D01*
X62349380Y-41275000D01*
X62203330Y-41128950D01*
X62083316Y-41128950D01*
X61868598Y-41217889D01*
X61704259Y-41382227D01*
X61615320Y-41596945D01*
X61615320Y-41666795D01*
X61761370Y-41812845D01*
X62349380Y-41812845D01*
X62349380Y-42012235D01*
X61761370Y-42012235D01*
X61615320Y-42158285D01*
X61615320Y-42228135D01*
X61704259Y-42442853D01*
X61864666Y-42603259D01*
X61862851Y-42612310D01*
X61862851Y-43011090D01*
X61887279Y-43136994D01*
X61959970Y-43247652D01*
X62069707Y-43321726D01*
X62199520Y-43347759D01*
X62798960Y-43347759D01*
X62924864Y-43323331D01*
X63031213Y-43253470D01*
X63254301Y-43253470D01*
X63254301Y-43496670D01*
X63269093Y-43572909D01*
X63254301Y-43646670D01*
X63254301Y-43889870D01*
X61960567Y-43889870D01*
X61954585Y-43883888D01*
X61956585Y-43879074D01*
X61956853Y-43572033D01*
X61839601Y-43288262D01*
X61622680Y-43070962D01*
X61339114Y-42953215D01*
X61032073Y-42952947D01*
X60748302Y-43070199D01*
X60566300Y-43251883D01*
X60566300Y-43161089D01*
X60630316Y-43066253D01*
X60656349Y-42936440D01*
X60656349Y-42336440D01*
X60631921Y-42210536D01*
X60559230Y-42099878D01*
X60449493Y-42025804D01*
X60319680Y-41999771D01*
X59919680Y-41999771D01*
X59793776Y-42024199D01*
X59683118Y-42096890D01*
X59670016Y-42116298D01*
X59659230Y-42099878D01*
X59549493Y-42025804D01*
X59419680Y-41999771D01*
X59019680Y-41999771D01*
X58893776Y-42024199D01*
X58783118Y-42096890D01*
X58709044Y-42206627D01*
X58683011Y-42336440D01*
X58683011Y-42608833D01*
X58352180Y-42278002D01*
X58592513Y-42178699D01*
X58782024Y-41989518D01*
X58884713Y-41742215D01*
X58884947Y-41474439D01*
X58782689Y-41226957D01*
X58634773Y-41078783D01*
X58616114Y-40984980D01*
X58610661Y-40957565D01*
X58610661Y-40957564D01*
X58517059Y-40817479D01*
X58517059Y-40817478D01*
X58517055Y-40817475D01*
X58497517Y-40797936D01*
X58557305Y-40822763D01*
X58825081Y-40822997D01*
X59072563Y-40720739D01*
X59262074Y-40531558D01*
X59335171Y-40355520D01*
X65392969Y-40355520D01*
X65531222Y-40494014D01*
X65778525Y-40596703D01*
X66046301Y-40596937D01*
X66293783Y-40494679D01*
X66483294Y-40305498D01*
X66585983Y-40058195D01*
X66586217Y-39790419D01*
X66483959Y-39542937D01*
X66294778Y-39353426D01*
X66047475Y-39250737D01*
X65779699Y-39250503D01*
X65532217Y-39352761D01*
X65392815Y-39491920D01*
X58917840Y-39491920D01*
X58880542Y-39499339D01*
X58826255Y-39476797D01*
X58791811Y-39476766D01*
X58868098Y-39400480D01*
X59189620Y-39400480D01*
X59354862Y-39367611D01*
X59354863Y-39367611D01*
X59494949Y-39274009D01*
X59654965Y-39113991D01*
X59654968Y-39113989D01*
X59654969Y-39113989D01*
X59727434Y-39005535D01*
X59727435Y-39005535D01*
X59775544Y-38996201D01*
X59886202Y-38923510D01*
X59897418Y-38906892D01*
X60018082Y-38882891D01*
X60018083Y-38882891D01*
X60158169Y-38789289D01*
X60427129Y-38520329D01*
X60520731Y-38380243D01*
X60520731Y-38380242D01*
X60553600Y-38215000D01*
X60553600Y-37116857D01*
X60836908Y-36833549D01*
X62362920Y-36833549D01*
X62488824Y-36809121D01*
X62599482Y-36736430D01*
X62673556Y-36626693D01*
X62699589Y-36496880D01*
X62699589Y-36428680D01*
X66426251Y-36428680D01*
X66426251Y-36496880D01*
X66450679Y-36622784D01*
X66523370Y-36733442D01*
X66633107Y-36807516D01*
X66762920Y-36833549D01*
X68562920Y-36833549D01*
X68688824Y-36809121D01*
X68799482Y-36736430D01*
X68873556Y-36626693D01*
X68899589Y-36496880D01*
X68899589Y-35496880D01*
X68875161Y-35370976D01*
X68802470Y-35260318D01*
X68692733Y-35186244D01*
X68562920Y-35160211D01*
X67485120Y-35160211D01*
X67485120Y-33235030D01*
X67485120Y-32474680D01*
X67485120Y-32119080D01*
X67485120Y-31358730D01*
X67339070Y-31212680D01*
X66646715Y-31212680D01*
X66431997Y-31301619D01*
X66267659Y-31465958D01*
X66178720Y-31680676D01*
X66178720Y-31913085D01*
X66178720Y-31973030D01*
X66324770Y-32119080D01*
X67485120Y-32119080D01*
X67485120Y-32474680D01*
X66324770Y-32474680D01*
X66178720Y-32620730D01*
X66178720Y-32680675D01*
X66178720Y-32913084D01*
X66267659Y-33127802D01*
X66431997Y-33292141D01*
X66646715Y-33381080D01*
X67339070Y-33381080D01*
X67485120Y-33235030D01*
X67485120Y-35160211D01*
X66762920Y-35160211D01*
X66637016Y-35184639D01*
X66526358Y-35257330D01*
X66452284Y-35367067D01*
X66426251Y-35496880D01*
X66426251Y-35565080D01*
X62699589Y-35565080D01*
X62699589Y-35496880D01*
X62675161Y-35370976D01*
X62602470Y-35260318D01*
X62492733Y-35186244D01*
X62362920Y-35160211D01*
X62207047Y-35160211D01*
X63348129Y-34019129D01*
X63441731Y-33879043D01*
X63441731Y-33879042D01*
X63447184Y-33851626D01*
X63474600Y-33713800D01*
X63474601Y-33713800D01*
X63474600Y-33713794D01*
X63474600Y-32330177D01*
X63808397Y-31996380D01*
X65430400Y-31996380D01*
X65595642Y-31963511D01*
X65595643Y-31963511D01*
X65735729Y-31869909D01*
X67255177Y-30350460D01*
X67975480Y-30350460D01*
X68140722Y-30317591D01*
X68140723Y-30317591D01*
X68280809Y-30223989D01*
X68618179Y-29886619D01*
X68989300Y-29886619D01*
X69115204Y-29862191D01*
X69140715Y-29845432D01*
X69565474Y-30270191D01*
X69563475Y-30275006D01*
X69563207Y-30582047D01*
X69680459Y-30865818D01*
X69897380Y-31083118D01*
X70180946Y-31200865D01*
X70487987Y-31201133D01*
X70771758Y-31083881D01*
X70989058Y-30866960D01*
X71106805Y-30583394D01*
X71107073Y-30276353D01*
X70989821Y-29992582D01*
X70772900Y-29775282D01*
X70489334Y-29657535D01*
X70182293Y-29657267D01*
X70176328Y-29659731D01*
X69561829Y-29045231D01*
X69421743Y-28951629D01*
X69256500Y-28918760D01*
X69231577Y-28918760D01*
X69228850Y-28914608D01*
X69209155Y-28901314D01*
X69225862Y-28890340D01*
X69299936Y-28780603D01*
X69325969Y-28650790D01*
X69325969Y-28252010D01*
X69301541Y-28126106D01*
X69228850Y-28015448D01*
X69198675Y-27995080D01*
X71242720Y-27995080D01*
X71242720Y-56952680D01*
X71242720Y-56952680D01*
G37*
X71242720Y-56952680D02*
X70995540Y-56952680D01*
X70561200Y-56952680D01*
X70561200Y-46022895D01*
X70561200Y-45953045D01*
X70415150Y-45806995D01*
X69827140Y-45806995D01*
X69827140Y-46344840D01*
X69973190Y-46490890D01*
X70093204Y-46490890D01*
X70307922Y-46401951D01*
X70472261Y-46237613D01*
X70561200Y-46022895D01*
X70561200Y-56952680D01*
X68546665Y-56952680D01*
X68546665Y-56537970D01*
X68546665Y-55949960D01*
X68008820Y-55949960D01*
X67862770Y-56096010D01*
X67862770Y-56216024D01*
X67951709Y-56430742D01*
X68116047Y-56595081D01*
X68330765Y-56684020D01*
X68400615Y-56684020D01*
X68546665Y-56537970D01*
X68546665Y-56952680D01*
X65769831Y-56952680D01*
X65769831Y-55749714D01*
X65721359Y-55216360D01*
X65610508Y-54948742D01*
X65388766Y-54872481D01*
X65137319Y-55123928D01*
X65137319Y-54621034D01*
X65061058Y-54399292D01*
X64549754Y-54239969D01*
X64016400Y-54288441D01*
X63748782Y-54399292D01*
X63672521Y-54621034D01*
X64404920Y-55353433D01*
X65137319Y-54621034D01*
X65137319Y-55123928D01*
X64656367Y-55604880D01*
X65388766Y-56337279D01*
X65610508Y-56261018D01*
X65769831Y-55749714D01*
X65769831Y-56952680D01*
X64448364Y-56952680D01*
X64793440Y-56921319D01*
X65061058Y-56810468D01*
X65137319Y-56588726D01*
X64404920Y-55856327D01*
X64153473Y-56107774D01*
X64153473Y-55604880D01*
X63421074Y-54872481D01*
X63199332Y-54948742D01*
X63144026Y-55126230D01*
X63070508Y-54948742D01*
X62848766Y-54872481D01*
X62597319Y-55123928D01*
X62597319Y-54621034D01*
X62521058Y-54399292D01*
X62009754Y-54239969D01*
X61476400Y-54288441D01*
X61208782Y-54399292D01*
X61132521Y-54621034D01*
X61864920Y-55353433D01*
X62597319Y-54621034D01*
X62597319Y-55123928D01*
X62116367Y-55604880D01*
X62848766Y-56337279D01*
X63070508Y-56261018D01*
X63125813Y-56083529D01*
X63199332Y-56261018D01*
X63421074Y-56337279D01*
X64153473Y-55604880D01*
X64153473Y-56107774D01*
X63672521Y-56588726D01*
X63748782Y-56810468D01*
X64205172Y-56952680D01*
X61908364Y-56952680D01*
X62253440Y-56921319D01*
X62521058Y-56810468D01*
X62597319Y-56588726D01*
X61864920Y-55856327D01*
X61613473Y-56107774D01*
X61613473Y-55604880D01*
X60881074Y-54872481D01*
X60659332Y-54948742D01*
X60604026Y-55126230D01*
X60530508Y-54948742D01*
X60308766Y-54872481D01*
X60057319Y-55123928D01*
X60057319Y-54621034D01*
X59981058Y-54399292D01*
X59469754Y-54239969D01*
X58936400Y-54288441D01*
X58668782Y-54399292D01*
X58592521Y-54621034D01*
X59324920Y-55353433D01*
X60057319Y-54621034D01*
X60057319Y-55123928D01*
X59576367Y-55604880D01*
X60308766Y-56337279D01*
X60530508Y-56261018D01*
X60585813Y-56083529D01*
X60659332Y-56261018D01*
X60881074Y-56337279D01*
X61613473Y-55604880D01*
X61613473Y-56107774D01*
X61132521Y-56588726D01*
X61208782Y-56810468D01*
X61665172Y-56952680D01*
X59368364Y-56952680D01*
X59713440Y-56921319D01*
X59981058Y-56810468D01*
X60057319Y-56588726D01*
X59324920Y-55856327D01*
X59073473Y-56107774D01*
X59073473Y-55604880D01*
X58341074Y-54872481D01*
X58119332Y-54948742D01*
X58064026Y-55126230D01*
X57990508Y-54948742D01*
X57768766Y-54872481D01*
X57517319Y-55123928D01*
X57517319Y-54621034D01*
X57441058Y-54399292D01*
X56929754Y-54239969D01*
X56396400Y-54288441D01*
X56128782Y-54399292D01*
X56052521Y-54621034D01*
X56784920Y-55353433D01*
X57517319Y-54621034D01*
X57517319Y-55123928D01*
X57036367Y-55604880D01*
X57768766Y-56337279D01*
X57990508Y-56261018D01*
X58045813Y-56083529D01*
X58119332Y-56261018D01*
X58341074Y-56337279D01*
X59073473Y-55604880D01*
X59073473Y-56107774D01*
X58592521Y-56588726D01*
X58668782Y-56810468D01*
X59125172Y-56952680D01*
X56828364Y-56952680D01*
X57173440Y-56921319D01*
X57441058Y-56810468D01*
X57517319Y-56588726D01*
X56784920Y-55856327D01*
X56533473Y-56107774D01*
X56533473Y-55604880D01*
X55801074Y-54872481D01*
X55579332Y-54948742D01*
X55420009Y-55460046D01*
X55468481Y-55993400D01*
X55579332Y-56261018D01*
X55801074Y-56337279D01*
X56533473Y-55604880D01*
X56533473Y-56107774D01*
X56052521Y-56588726D01*
X56128782Y-56810468D01*
X56585172Y-56952680D01*
X53585303Y-56952680D01*
X53596181Y-56941803D01*
X53685120Y-56727085D01*
X53685120Y-55918730D01*
X53539070Y-55772680D01*
X52262720Y-55772680D01*
X52262720Y-55792680D01*
X51907120Y-55792680D01*
X51907120Y-55772680D01*
X50630770Y-55772680D01*
X50484720Y-55918730D01*
X50484720Y-56727085D01*
X50573659Y-56941803D01*
X50584536Y-56952680D01*
X49032460Y-56952680D01*
X49107870Y-56770624D01*
X49107870Y-56650610D01*
X48961820Y-56504560D01*
X48423975Y-56504560D01*
X48423975Y-56552500D01*
X48224585Y-56552500D01*
X48224585Y-56504560D01*
X48126480Y-56504560D01*
X48126480Y-56204840D01*
X48224585Y-56204840D01*
X48224585Y-55616830D01*
X48209680Y-55601925D01*
X48209680Y-54993260D01*
X48149380Y-54993260D01*
X48149380Y-54637660D01*
X48209680Y-54637660D01*
X48209680Y-54617660D01*
X48484680Y-54617660D01*
X48484680Y-54637660D01*
X48544980Y-54637660D01*
X48544980Y-54993260D01*
X48484680Y-54993260D01*
X48484680Y-55556125D01*
X48423975Y-55616830D01*
X48423975Y-56204840D01*
X48961820Y-56204840D01*
X49107870Y-56058790D01*
X49107870Y-55938776D01*
X49025033Y-55738790D01*
X49111694Y-55652129D01*
X49572180Y-55652129D01*
X49698084Y-55627701D01*
X49808742Y-55555010D01*
X49882816Y-55445273D01*
X49908849Y-55315460D01*
X49908849Y-55101817D01*
X50484720Y-54525946D01*
X50484720Y-55271030D01*
X50630770Y-55417080D01*
X51907120Y-55417080D01*
X51907120Y-55397080D01*
X52262720Y-55397080D01*
X52262720Y-55417080D01*
X53539070Y-55417080D01*
X53685120Y-55271030D01*
X53685120Y-54462675D01*
X53596181Y-54247957D01*
X53431842Y-54083619D01*
X53217124Y-53994680D01*
X53062539Y-53994680D01*
X53266200Y-53689880D01*
X55865572Y-53689880D01*
X56165431Y-53990262D01*
X56566715Y-54156890D01*
X57001219Y-54157269D01*
X57402793Y-53991342D01*
X57694763Y-53699880D01*
X58415555Y-53699880D01*
X58705431Y-53990262D01*
X59106715Y-54156890D01*
X59541219Y-54157269D01*
X59942793Y-53991342D01*
X60234763Y-53699880D01*
X60955555Y-53699880D01*
X61245431Y-53990262D01*
X61646715Y-54156890D01*
X62081219Y-54157269D01*
X62482793Y-53991342D01*
X62774763Y-53699880D01*
X63495555Y-53699880D01*
X63785431Y-53990262D01*
X64186715Y-54156890D01*
X64621219Y-54157269D01*
X65022793Y-53991342D01*
X65123060Y-53891249D01*
X65123060Y-54114700D01*
X65167530Y-54338264D01*
X65294168Y-54527792D01*
X65620668Y-54854292D01*
X65810196Y-54980930D01*
X65810197Y-54980931D01*
X66033760Y-55025401D01*
X66033760Y-55025400D01*
X66033765Y-55025400D01*
X67065507Y-55025400D01*
X67073599Y-55067104D01*
X67146290Y-55177762D01*
X67256027Y-55251836D01*
X67385840Y-55277869D01*
X67846325Y-55277869D01*
X67889090Y-55320633D01*
X67862770Y-55384176D01*
X67862770Y-55504190D01*
X68008820Y-55650240D01*
X68546665Y-55650240D01*
X68546665Y-55062230D01*
X68473340Y-54988905D01*
X68473340Y-54619000D01*
X68413040Y-54619000D01*
X68413040Y-54263400D01*
X68473340Y-54263400D01*
X68473340Y-54243400D01*
X68748340Y-54243400D01*
X68748340Y-54263400D01*
X68808640Y-54263400D01*
X68808640Y-54619000D01*
X68748340Y-54619000D01*
X68748340Y-55059945D01*
X68746055Y-55062230D01*
X68746055Y-55650240D01*
X68844160Y-55650240D01*
X68844160Y-55949960D01*
X68746055Y-55949960D01*
X68746055Y-56537970D01*
X68892105Y-56684020D01*
X68961955Y-56684020D01*
X69176673Y-56595081D01*
X69337079Y-56434673D01*
X69346130Y-56436489D01*
X69744910Y-56436489D01*
X69870814Y-56412061D01*
X69981472Y-56339370D01*
X70055546Y-56229633D01*
X70081579Y-56099820D01*
X70081579Y-56036766D01*
X70100570Y-56008344D01*
X70100571Y-56008343D01*
X70145040Y-55784780D01*
X70145040Y-55073140D01*
X70146476Y-55071013D01*
X70172509Y-54941200D01*
X70172509Y-53941200D01*
X70172509Y-52241200D01*
X70172509Y-51241200D01*
X70148081Y-51115296D01*
X70075390Y-51004638D01*
X69965653Y-50930564D01*
X69835840Y-50904531D01*
X69712602Y-50904531D01*
X69712602Y-48180398D01*
X69659070Y-47775836D01*
X69607241Y-47650709D01*
X69418367Y-47614660D01*
X68920347Y-48112680D01*
X69418367Y-48610700D01*
X69607241Y-48574651D01*
X69712602Y-48180398D01*
X69712602Y-50904531D01*
X69402010Y-50904531D01*
X69402010Y-50825510D01*
X69402010Y-50233690D01*
X69402010Y-50113676D01*
X69313071Y-49898958D01*
X69148733Y-49734619D01*
X68934015Y-49645680D01*
X68864165Y-49645680D01*
X68718115Y-49791730D01*
X68718115Y-50379740D01*
X69255960Y-50379740D01*
X69402010Y-50233690D01*
X69402010Y-50825510D01*
X69255960Y-50679460D01*
X68718115Y-50679460D01*
X68718115Y-51267470D01*
X68864165Y-51413520D01*
X68934015Y-51413520D01*
X68949171Y-51407242D01*
X68949171Y-52241200D01*
X68973599Y-52367104D01*
X69046290Y-52477762D01*
X69156027Y-52551836D01*
X69285840Y-52577869D01*
X69835840Y-52577869D01*
X69961744Y-52553441D01*
X70072402Y-52480750D01*
X70146476Y-52371013D01*
X70172509Y-52241200D01*
X70172509Y-53941200D01*
X70149720Y-53823743D01*
X70149720Y-53601620D01*
X70105250Y-53378057D01*
X70105250Y-53378056D01*
X69978612Y-53188528D01*
X69607772Y-52817688D01*
X69418244Y-52691050D01*
X69194680Y-52646580D01*
X67939920Y-52646580D01*
X67716356Y-52691050D01*
X67526828Y-52817688D01*
X67252508Y-53092008D01*
X67125870Y-53281536D01*
X67081400Y-53505100D01*
X67081400Y-53802207D01*
X67075204Y-53811387D01*
X67066056Y-53857000D01*
X66291460Y-53857000D01*
X66291460Y-53289590D01*
X66246990Y-53066027D01*
X66246990Y-53066026D01*
X66120352Y-52876498D01*
X65895642Y-52651788D01*
X65706114Y-52525150D01*
X65482550Y-52480680D01*
X65345295Y-52480680D01*
X65331382Y-52447007D01*
X65024409Y-52139498D01*
X64623125Y-51972870D01*
X64188621Y-51972491D01*
X63787047Y-52138418D01*
X63495076Y-52429880D01*
X62774284Y-52429880D01*
X62484409Y-52139498D01*
X62083125Y-51972870D01*
X61648621Y-51972491D01*
X61247047Y-52138418D01*
X60955076Y-52429880D01*
X60234284Y-52429880D01*
X59944409Y-52139498D01*
X59543125Y-51972870D01*
X59108621Y-51972491D01*
X58707047Y-52138418D01*
X58415076Y-52429880D01*
X57694284Y-52429880D01*
X57404409Y-52139498D01*
X57003125Y-51972870D01*
X56568621Y-51972491D01*
X56167047Y-52138418D01*
X55885093Y-52419880D01*
X53766720Y-52419880D01*
X53766720Y-48527335D01*
X53766720Y-48457485D01*
X53620670Y-48311435D01*
X53032660Y-48311435D01*
X53032660Y-48849280D01*
X53178710Y-48995330D01*
X53298724Y-48995330D01*
X53513442Y-48906391D01*
X53677781Y-48742053D01*
X53766720Y-48527335D01*
X53766720Y-52419880D01*
X53266200Y-52419880D01*
X53036827Y-52076599D01*
X52760880Y-51892216D01*
X52760880Y-48527335D01*
X52760880Y-48457485D01*
X52732940Y-48429545D01*
X52732940Y-48311435D01*
X52614830Y-48311435D01*
X52144930Y-48311435D01*
X52026820Y-48311435D01*
X52026820Y-48429545D01*
X51998880Y-48457485D01*
X51998880Y-48527335D01*
X52026820Y-48594788D01*
X52026820Y-48849280D01*
X52172870Y-48995330D01*
X52292884Y-48995330D01*
X52379880Y-48959295D01*
X52466876Y-48995330D01*
X52586890Y-48995330D01*
X52732940Y-48849280D01*
X52732940Y-48594788D01*
X52760880Y-48527335D01*
X52760880Y-51892216D01*
X52600088Y-51784779D01*
X52084920Y-51682306D01*
X51727100Y-51753480D01*
X51727100Y-48849280D01*
X51727100Y-48311435D01*
X51139090Y-48311435D01*
X50993040Y-48457485D01*
X50993040Y-48527335D01*
X51081979Y-48742053D01*
X51246318Y-48906391D01*
X51461036Y-48995330D01*
X51581050Y-48995330D01*
X51727100Y-48849280D01*
X51727100Y-51753480D01*
X51569752Y-51784779D01*
X51133013Y-52076599D01*
X50880016Y-52455235D01*
X50814756Y-52468216D01*
X50768840Y-52498896D01*
X50768840Y-48590055D01*
X50768840Y-48520205D01*
X50622790Y-48374155D01*
X50034780Y-48374155D01*
X50034780Y-48912000D01*
X50180830Y-49058050D01*
X50300844Y-49058050D01*
X50515562Y-48969111D01*
X50679901Y-48804773D01*
X50768840Y-48590055D01*
X50768840Y-52498896D01*
X50608747Y-52605867D01*
X49908849Y-53305764D01*
X49908849Y-52615460D01*
X49908849Y-51615460D01*
X49884421Y-51489556D01*
X49811730Y-51378898D01*
X49735060Y-51327144D01*
X49735060Y-48912000D01*
X49735060Y-48374155D01*
X49147050Y-48374155D01*
X49001000Y-48520205D01*
X49001000Y-48590055D01*
X49089939Y-48804773D01*
X49254278Y-48969111D01*
X49468996Y-49058050D01*
X49589010Y-49058050D01*
X49735060Y-48912000D01*
X49735060Y-51327144D01*
X49701993Y-51304824D01*
X49572180Y-51278791D01*
X49022180Y-51278791D01*
X48998662Y-51283353D01*
X49082470Y-51081024D01*
X49082470Y-50961010D01*
X49082470Y-50369190D01*
X49082470Y-50249176D01*
X48993531Y-50034458D01*
X48829193Y-49870119D01*
X48614475Y-49781180D01*
X48544625Y-49781180D01*
X48398575Y-49927230D01*
X48398575Y-50515240D01*
X48936420Y-50515240D01*
X49082470Y-50369190D01*
X49082470Y-50961010D01*
X48936420Y-50814960D01*
X48398575Y-50814960D01*
X48398575Y-51402970D01*
X48544625Y-51549020D01*
X48614475Y-51549020D01*
X48706477Y-51510911D01*
X48685511Y-51615460D01*
X48685511Y-52615460D01*
X48709939Y-52741364D01*
X48782630Y-52852022D01*
X48892367Y-52926096D01*
X49022180Y-52952129D01*
X49572180Y-52952129D01*
X49698084Y-52927701D01*
X49808742Y-52855010D01*
X49882816Y-52745273D01*
X49908849Y-52615460D01*
X49908849Y-53305764D01*
X49710459Y-53504154D01*
X49709773Y-53503127D01*
X49346553Y-53139907D01*
X49140544Y-53002256D01*
X48897540Y-52953920D01*
X47718980Y-52953920D01*
X47475975Y-53002256D01*
X47269967Y-53139907D01*
X47111120Y-53298754D01*
X47111120Y-52949911D01*
X47122180Y-52952129D01*
X47672180Y-52952129D01*
X47798084Y-52927701D01*
X47908742Y-52855010D01*
X47982816Y-52745273D01*
X48008849Y-52615460D01*
X48008849Y-51615460D01*
X47995958Y-51549020D01*
X48053135Y-51549020D01*
X48199185Y-51402970D01*
X48199185Y-50814960D01*
X48101080Y-50814960D01*
X48101080Y-50515240D01*
X48199185Y-50515240D01*
X48199185Y-49927230D01*
X48053135Y-49781180D01*
X47983285Y-49781180D01*
X47918320Y-49808089D01*
X47918320Y-49382947D01*
X48038838Y-49262640D01*
X48156585Y-48979074D01*
X48156853Y-48672033D01*
X48039601Y-48388262D01*
X47822680Y-48170962D01*
X47539114Y-48053215D01*
X47232073Y-48052947D01*
X47111120Y-48102923D01*
X47111120Y-47546880D01*
X47230726Y-47596545D01*
X47537767Y-47596813D01*
X47821538Y-47479561D01*
X48038838Y-47262640D01*
X48156585Y-46979074D01*
X48156853Y-46672033D01*
X48154388Y-46666068D01*
X48713777Y-46106680D01*
X49342241Y-46106680D01*
X49345370Y-46111442D01*
X49364778Y-46124543D01*
X49348358Y-46135330D01*
X49274284Y-46245067D01*
X49248251Y-46374880D01*
X49248251Y-46774880D01*
X49272679Y-46900784D01*
X49321985Y-46975844D01*
X49274564Y-47046097D01*
X49248531Y-47175910D01*
X49248531Y-47574690D01*
X49250296Y-47583790D01*
X49089939Y-47744147D01*
X49001000Y-47958865D01*
X49001000Y-48028715D01*
X49147050Y-48174765D01*
X49735060Y-48174765D01*
X49735060Y-48076660D01*
X50034780Y-48076660D01*
X50034780Y-48174765D01*
X50622790Y-48174765D01*
X50768840Y-48028715D01*
X50768840Y-47958865D01*
X50679901Y-47744147D01*
X50519493Y-47583740D01*
X50521309Y-47574690D01*
X50521309Y-47175910D01*
X50507175Y-47103063D01*
X50555382Y-47151354D01*
X50802685Y-47254043D01*
X51070461Y-47254277D01*
X51240571Y-47183988D01*
X51240571Y-47511970D01*
X51242336Y-47521070D01*
X51081979Y-47681427D01*
X50993040Y-47896145D01*
X50993040Y-47965995D01*
X51139090Y-48112045D01*
X51727100Y-48112045D01*
X51727100Y-48013940D01*
X52026820Y-48013940D01*
X52026820Y-48112045D01*
X52144930Y-48112045D01*
X52614830Y-48112045D01*
X52732940Y-48112045D01*
X52732940Y-48013940D01*
X53032660Y-48013940D01*
X53032660Y-48112045D01*
X53620670Y-48112045D01*
X53766720Y-47965995D01*
X53766720Y-47896145D01*
X53677781Y-47681427D01*
X53517373Y-47521020D01*
X53519189Y-47511970D01*
X53519189Y-47113190D01*
X53494761Y-46987286D01*
X53422070Y-46876628D01*
X53312333Y-46802554D01*
X53292435Y-46798563D01*
X53281731Y-46744748D01*
X53281731Y-46744747D01*
X53188129Y-46604661D01*
X52699700Y-46116232D01*
X52699700Y-45227969D01*
X52717900Y-45136472D01*
X52736100Y-45227969D01*
X52736100Y-45426400D01*
X52736100Y-45830230D01*
X52768969Y-45995473D01*
X52862571Y-46135559D01*
X56279121Y-49552109D01*
X56167047Y-49598418D01*
X55859538Y-49905391D01*
X55692910Y-50306675D01*
X55692531Y-50741179D01*
X55858458Y-51142753D01*
X56165431Y-51450262D01*
X56566715Y-51616890D01*
X57001219Y-51617269D01*
X57402793Y-51451342D01*
X57710302Y-51144369D01*
X57876930Y-50743085D01*
X57877309Y-50308581D01*
X57830246Y-50194681D01*
X58279414Y-50194681D01*
X58232910Y-50306675D01*
X58232531Y-50741179D01*
X58398458Y-51142753D01*
X58705431Y-51450262D01*
X59106715Y-51616890D01*
X59541219Y-51617269D01*
X59942793Y-51451342D01*
X60250302Y-51144369D01*
X60416930Y-50743085D01*
X60417309Y-50308581D01*
X60251382Y-49907007D01*
X60001491Y-49656680D01*
X60386062Y-49656680D01*
X60850118Y-50120736D01*
X60772910Y-50306675D01*
X60772531Y-50741179D01*
X60938458Y-51142753D01*
X61245431Y-51450262D01*
X61646715Y-51616890D01*
X62081219Y-51617269D01*
X62482793Y-51451342D01*
X62790302Y-51144369D01*
X62956930Y-50743085D01*
X62957309Y-50308581D01*
X62791382Y-49907007D01*
X62484409Y-49599498D01*
X62083125Y-49432870D01*
X61648621Y-49432491D01*
X61460796Y-49510098D01*
X61251767Y-49301070D01*
X62570451Y-49301070D01*
X63390118Y-50120736D01*
X63312910Y-50306675D01*
X63312531Y-50741179D01*
X63478458Y-51142753D01*
X63785431Y-51450262D01*
X64186715Y-51616890D01*
X64621219Y-51617269D01*
X65022793Y-51451342D01*
X65330302Y-51144369D01*
X65496930Y-50743085D01*
X65497309Y-50308581D01*
X65331382Y-49907007D01*
X65024409Y-49599498D01*
X64623125Y-49432870D01*
X64188621Y-49432491D01*
X64000796Y-49510098D01*
X63235837Y-48745140D01*
X66756892Y-48745140D01*
X66808740Y-48797078D01*
X67092306Y-48914825D01*
X67236660Y-48914950D01*
X67236660Y-50059436D01*
X67209234Y-50100067D01*
X67183201Y-50229880D01*
X67183201Y-50563079D01*
X67178240Y-50588020D01*
X67178240Y-50982624D01*
X67149278Y-51001650D01*
X67075204Y-51111387D01*
X67049171Y-51241200D01*
X67049171Y-52241200D01*
X67073599Y-52367104D01*
X67146290Y-52477762D01*
X67256027Y-52551836D01*
X67385840Y-52577869D01*
X67935840Y-52577869D01*
X68061744Y-52553441D01*
X68172402Y-52480750D01*
X68246476Y-52371013D01*
X68272509Y-52241200D01*
X68272509Y-51400962D01*
X68302825Y-51413520D01*
X68372675Y-51413520D01*
X68518725Y-51267470D01*
X68518725Y-50679460D01*
X68420620Y-50679460D01*
X68420620Y-50379740D01*
X68518725Y-50379740D01*
X68518725Y-49791730D01*
X68372675Y-49645680D01*
X68302825Y-49645680D01*
X68201860Y-49687501D01*
X68201860Y-49024462D01*
X68206929Y-49051021D01*
X68601182Y-49156382D01*
X69005744Y-49102850D01*
X69130871Y-49051021D01*
X69166920Y-48862147D01*
X68668900Y-48364127D01*
X68654757Y-48378269D01*
X68403310Y-48126822D01*
X68417453Y-48112680D01*
X68403310Y-48098537D01*
X68654757Y-47847090D01*
X68668900Y-47861233D01*
X69166920Y-47363213D01*
X69130871Y-47174339D01*
X68814680Y-47089839D01*
X69281930Y-46622590D01*
X69369928Y-46490890D01*
X69381370Y-46490890D01*
X69527420Y-46344840D01*
X69527420Y-45806995D01*
X69479480Y-45806995D01*
X69479480Y-45607605D01*
X69527420Y-45607605D01*
X69527420Y-45509500D01*
X69827140Y-45509500D01*
X69827140Y-45607605D01*
X70415150Y-45607605D01*
X70561200Y-45461555D01*
X70561200Y-45391705D01*
X70472261Y-45176987D01*
X70311853Y-45016580D01*
X70313669Y-45007530D01*
X70313669Y-44608750D01*
X70298391Y-44530010D01*
X70289422Y-44483778D01*
X70289422Y-44411902D01*
X70407530Y-44530010D01*
X70527544Y-44530010D01*
X70742262Y-44441071D01*
X70906601Y-44276733D01*
X70995540Y-44062015D01*
X70995540Y-43992165D01*
X70849490Y-43846115D01*
X70261480Y-43846115D01*
X70261480Y-43944220D01*
X69961760Y-43944220D01*
X69961760Y-43846115D01*
X69569127Y-43846115D01*
X69533710Y-43839070D01*
X68605280Y-43839070D01*
X68600783Y-43836034D01*
X68530118Y-43821862D01*
X68596874Y-43808911D01*
X68603939Y-43804270D01*
X68994590Y-43804270D01*
X69179273Y-43767534D01*
X69335840Y-43662920D01*
X69362892Y-43635867D01*
X69373750Y-43646725D01*
X69961760Y-43646725D01*
X69961760Y-43548620D01*
X70261480Y-43548620D01*
X70261480Y-43646725D01*
X70849490Y-43646725D01*
X70995540Y-43500675D01*
X70995540Y-43430825D01*
X70906601Y-43216107D01*
X70746193Y-43055700D01*
X70748009Y-43046650D01*
X70748009Y-42647870D01*
X70723581Y-42521966D01*
X70650890Y-42411308D01*
X70541153Y-42337234D01*
X70411340Y-42311201D01*
X69811900Y-42311201D01*
X69685996Y-42335629D01*
X69641801Y-42364660D01*
X69469000Y-42364660D01*
X69284317Y-42401396D01*
X69147120Y-42493067D01*
X69147120Y-32913084D01*
X69147120Y-32680675D01*
X69147120Y-32620730D01*
X69147120Y-31973030D01*
X69147120Y-31913085D01*
X69147120Y-31680676D01*
X69058181Y-31465958D01*
X68893843Y-31301619D01*
X68679125Y-31212680D01*
X67986770Y-31212680D01*
X67840720Y-31358730D01*
X67840720Y-32119080D01*
X69001070Y-32119080D01*
X69147120Y-31973030D01*
X69147120Y-32620730D01*
X69001070Y-32474680D01*
X67840720Y-32474680D01*
X67840720Y-33235030D01*
X67986770Y-33381080D01*
X68679125Y-33381080D01*
X68893843Y-33292141D01*
X69058181Y-33127802D01*
X69147120Y-32913084D01*
X69147120Y-42493067D01*
X69127750Y-42506010D01*
X68807639Y-42826121D01*
X68807639Y-42646670D01*
X68792846Y-42570430D01*
X68807639Y-42496670D01*
X68807639Y-42146670D01*
X68783211Y-42020766D01*
X68710520Y-41910108D01*
X68688770Y-41895426D01*
X68734723Y-41876439D01*
X68924234Y-41687258D01*
X69026923Y-41439955D01*
X69027157Y-41172179D01*
X68924899Y-40924697D01*
X68759586Y-40759096D01*
X68808053Y-40739021D01*
X68972391Y-40574682D01*
X69061330Y-40359964D01*
X69061330Y-40239950D01*
X69061330Y-39648130D01*
X69061330Y-39528116D01*
X68972391Y-39313398D01*
X68808053Y-39149059D01*
X68593335Y-39060120D01*
X68523485Y-39060120D01*
X68377435Y-39206170D01*
X68377435Y-39794180D01*
X68915280Y-39794180D01*
X69061330Y-39648130D01*
X69061330Y-40239950D01*
X68915280Y-40093900D01*
X68377435Y-40093900D01*
X68377435Y-40141840D01*
X68178045Y-40141840D01*
X68178045Y-40093900D01*
X68079940Y-40093900D01*
X68079940Y-39794180D01*
X68178045Y-39794180D01*
X68178045Y-39206170D01*
X68152992Y-39181117D01*
X68193803Y-39082835D01*
X68194037Y-38815059D01*
X68091779Y-38567577D01*
X67902598Y-38378066D01*
X67655295Y-38275377D01*
X67387519Y-38275143D01*
X67140037Y-38377401D01*
X66950526Y-38566582D01*
X66847837Y-38813885D01*
X66847603Y-39081661D01*
X66895980Y-39198741D01*
X66895980Y-39473876D01*
X66868554Y-39514507D01*
X66842521Y-39644320D01*
X66842521Y-40097728D01*
X66800106Y-40161207D01*
X66763370Y-40345890D01*
X66763370Y-40825001D01*
X66570970Y-40825001D01*
X66494730Y-40839793D01*
X66420970Y-40825001D01*
X66070970Y-40825001D01*
X65994730Y-40839793D01*
X65920970Y-40825001D01*
X65570970Y-40825001D01*
X65494730Y-40839793D01*
X65420970Y-40825001D01*
X65410484Y-40825001D01*
X65251892Y-40666409D01*
X65037174Y-40577470D01*
X64979520Y-40577470D01*
X64833470Y-40723520D01*
X64833470Y-40923509D01*
X64760334Y-41031857D01*
X64734301Y-41161670D01*
X64734301Y-41759470D01*
X64658470Y-41759470D01*
X64658470Y-41739470D01*
X64658470Y-41383870D01*
X64658470Y-40723520D01*
X64512420Y-40577470D01*
X64454766Y-40577470D01*
X64240048Y-40666409D01*
X64075709Y-40830747D01*
X63986770Y-41045465D01*
X63986770Y-41237820D01*
X64132820Y-41383870D01*
X64658470Y-41383870D01*
X64658470Y-41739470D01*
X64132820Y-41739470D01*
X64062289Y-41810001D01*
X63590970Y-41810001D01*
X63465066Y-41834429D01*
X63383160Y-41888232D01*
X63383160Y-41734738D01*
X63315217Y-41734738D01*
X63383160Y-41666795D01*
X63383160Y-41596945D01*
X63294221Y-41382227D01*
X63129882Y-41217889D01*
X62915164Y-41128950D01*
X62795150Y-41128950D01*
X62649100Y-41275000D01*
X62649100Y-41812845D01*
X62697040Y-41812845D01*
X62697040Y-42012235D01*
X62649100Y-42012235D01*
X62649100Y-42110340D01*
X62349380Y-42110340D01*
X62349380Y-42012235D01*
X62349380Y-41812845D01*
X62349380Y-41275000D01*
X62203330Y-41128950D01*
X62083316Y-41128950D01*
X61868598Y-41217889D01*
X61704259Y-41382227D01*
X61615320Y-41596945D01*
X61615320Y-41666795D01*
X61761370Y-41812845D01*
X62349380Y-41812845D01*
X62349380Y-42012235D01*
X61761370Y-42012235D01*
X61615320Y-42158285D01*
X61615320Y-42228135D01*
X61704259Y-42442853D01*
X61864666Y-42603259D01*
X61862851Y-42612310D01*
X61862851Y-43011090D01*
X61887279Y-43136994D01*
X61959970Y-43247652D01*
X62069707Y-43321726D01*
X62199520Y-43347759D01*
X62798960Y-43347759D01*
X62924864Y-43323331D01*
X63031213Y-43253470D01*
X63254301Y-43253470D01*
X63254301Y-43496670D01*
X63269093Y-43572909D01*
X63254301Y-43646670D01*
X63254301Y-43889870D01*
X61960567Y-43889870D01*
X61954585Y-43883888D01*
X61956585Y-43879074D01*
X61956853Y-43572033D01*
X61839601Y-43288262D01*
X61622680Y-43070962D01*
X61339114Y-42953215D01*
X61032073Y-42952947D01*
X60748302Y-43070199D01*
X60566300Y-43251883D01*
X60566300Y-43161089D01*
X60630316Y-43066253D01*
X60656349Y-42936440D01*
X60656349Y-42336440D01*
X60631921Y-42210536D01*
X60559230Y-42099878D01*
X60449493Y-42025804D01*
X60319680Y-41999771D01*
X59919680Y-41999771D01*
X59793776Y-42024199D01*
X59683118Y-42096890D01*
X59670016Y-42116298D01*
X59659230Y-42099878D01*
X59549493Y-42025804D01*
X59419680Y-41999771D01*
X59019680Y-41999771D01*
X58893776Y-42024199D01*
X58783118Y-42096890D01*
X58709044Y-42206627D01*
X58683011Y-42336440D01*
X58683011Y-42608833D01*
X58352180Y-42278002D01*
X58592513Y-42178699D01*
X58782024Y-41989518D01*
X58884713Y-41742215D01*
X58884947Y-41474439D01*
X58782689Y-41226957D01*
X58634773Y-41078783D01*
X58616114Y-40984980D01*
X58610661Y-40957565D01*
X58610661Y-40957564D01*
X58517059Y-40817479D01*
X58517059Y-40817478D01*
X58517055Y-40817475D01*
X58497517Y-40797936D01*
X58557305Y-40822763D01*
X58825081Y-40822997D01*
X59072563Y-40720739D01*
X59262074Y-40531558D01*
X59335171Y-40355520D01*
X65392969Y-40355520D01*
X65531222Y-40494014D01*
X65778525Y-40596703D01*
X66046301Y-40596937D01*
X66293783Y-40494679D01*
X66483294Y-40305498D01*
X66585983Y-40058195D01*
X66586217Y-39790419D01*
X66483959Y-39542937D01*
X66294778Y-39353426D01*
X66047475Y-39250737D01*
X65779699Y-39250503D01*
X65532217Y-39352761D01*
X65392815Y-39491920D01*
X58917840Y-39491920D01*
X58880542Y-39499339D01*
X58826255Y-39476797D01*
X58791811Y-39476766D01*
X58868098Y-39400480D01*
X59189620Y-39400480D01*
X59354862Y-39367611D01*
X59354863Y-39367611D01*
X59494949Y-39274009D01*
X59654965Y-39113991D01*
X59654968Y-39113989D01*
X59654969Y-39113989D01*
X59727434Y-39005535D01*
X59727435Y-39005535D01*
X59775544Y-38996201D01*
X59886202Y-38923510D01*
X59897418Y-38906892D01*
X60018082Y-38882891D01*
X60018083Y-38882891D01*
X60158169Y-38789289D01*
X60427129Y-38520329D01*
X60520731Y-38380243D01*
X60520731Y-38380242D01*
X60553600Y-38215000D01*
X60553600Y-37116857D01*
X60836908Y-36833549D01*
X62362920Y-36833549D01*
X62488824Y-36809121D01*
X62599482Y-36736430D01*
X62673556Y-36626693D01*
X62699589Y-36496880D01*
X62699589Y-36428680D01*
X66426251Y-36428680D01*
X66426251Y-36496880D01*
X66450679Y-36622784D01*
X66523370Y-36733442D01*
X66633107Y-36807516D01*
X66762920Y-36833549D01*
X68562920Y-36833549D01*
X68688824Y-36809121D01*
X68799482Y-36736430D01*
X68873556Y-36626693D01*
X68899589Y-36496880D01*
X68899589Y-35496880D01*
X68875161Y-35370976D01*
X68802470Y-35260318D01*
X68692733Y-35186244D01*
X68562920Y-35160211D01*
X67485120Y-35160211D01*
X67485120Y-33235030D01*
X67485120Y-32474680D01*
X67485120Y-32119080D01*
X67485120Y-31358730D01*
X67339070Y-31212680D01*
X66646715Y-31212680D01*
X66431997Y-31301619D01*
X66267659Y-31465958D01*
X66178720Y-31680676D01*
X66178720Y-31913085D01*
X66178720Y-31973030D01*
X66324770Y-32119080D01*
X67485120Y-32119080D01*
X67485120Y-32474680D01*
X66324770Y-32474680D01*
X66178720Y-32620730D01*
X66178720Y-32680675D01*
X66178720Y-32913084D01*
X66267659Y-33127802D01*
X66431997Y-33292141D01*
X66646715Y-33381080D01*
X67339070Y-33381080D01*
X67485120Y-33235030D01*
X67485120Y-35160211D01*
X66762920Y-35160211D01*
X66637016Y-35184639D01*
X66526358Y-35257330D01*
X66452284Y-35367067D01*
X66426251Y-35496880D01*
X66426251Y-35565080D01*
X62699589Y-35565080D01*
X62699589Y-35496880D01*
X62675161Y-35370976D01*
X62602470Y-35260318D01*
X62492733Y-35186244D01*
X62362920Y-35160211D01*
X62207047Y-35160211D01*
X63348129Y-34019129D01*
X63441731Y-33879043D01*
X63441731Y-33879042D01*
X63447184Y-33851626D01*
X63474600Y-33713800D01*
X63474601Y-33713800D01*
X63474600Y-33713794D01*
X63474600Y-32330177D01*
X63808397Y-31996380D01*
X65430400Y-31996380D01*
X65595642Y-31963511D01*
X65595643Y-31963511D01*
X65735729Y-31869909D01*
X67255177Y-30350460D01*
X67975480Y-30350460D01*
X68140722Y-30317591D01*
X68140723Y-30317591D01*
X68280809Y-30223989D01*
X68618179Y-29886619D01*
X68989300Y-29886619D01*
X69115204Y-29862191D01*
X69140715Y-29845432D01*
X69565474Y-30270191D01*
X69563475Y-30275006D01*
X69563207Y-30582047D01*
X69680459Y-30865818D01*
X69897380Y-31083118D01*
X70180946Y-31200865D01*
X70487987Y-31201133D01*
X70771758Y-31083881D01*
X70989058Y-30866960D01*
X71106805Y-30583394D01*
X71107073Y-30276353D01*
X70989821Y-29992582D01*
X70772900Y-29775282D01*
X70489334Y-29657535D01*
X70182293Y-29657267D01*
X70176328Y-29659731D01*
X69561829Y-29045231D01*
X69421743Y-28951629D01*
X69256500Y-28918760D01*
X69231577Y-28918760D01*
X69228850Y-28914608D01*
X69209155Y-28901314D01*
X69225862Y-28890340D01*
X69299936Y-28780603D01*
X69325969Y-28650790D01*
X69325969Y-28252010D01*
X69301541Y-28126106D01*
X69228850Y-28015448D01*
X69198675Y-27995080D01*
X71242720Y-27995080D01*
X71242720Y-56952680D01*
M02*
