G04 #@! TF.FileFunction,Soldermask,Bot*
%FSLAX46Y46*%
G04 Gerber Fmt 4.6, Leading zero omitted, Abs format (unit mm)*
G04 Created by KiCad (PCBNEW (2014-12-04 BZR 5312)-product) date 1/7/2015 12:55:41 AM*
%MOMM*%
G01*
G04 APERTURE LIST*
%ADD10C,0.100000*%
%ADD11C,0.520000*%
%ADD12C,1.083200*%
%ADD13C,1.100000*%
%ADD14R,2.032000X2.032000*%
%ADD15O,2.032000X2.032000*%
%ADD16C,0.685800*%
%ADD17C,0.685799*%
%ADD18C,0.863600*%
G04 APERTURE END LIST*
D10*
D11*
X69657840Y-40212040D03*
X69657840Y-38712040D03*
X70657840Y-40212040D03*
X70657840Y-38712040D03*
X70137840Y-39462040D03*
X64580800Y-31297000D03*
X63080800Y-31297000D03*
X64580800Y-30297000D03*
X63080800Y-30297000D03*
X63830800Y-30817000D03*
X69210800Y-31205200D03*
X69210800Y-29705200D03*
X70210800Y-31205200D03*
X70210800Y-29705200D03*
X69690800Y-30455200D03*
X69210800Y-35650200D03*
X69210800Y-34150200D03*
X70210800Y-35650200D03*
X70210800Y-34150200D03*
X69690800Y-34900200D03*
D12*
X59715400Y-51282600D03*
X58623200Y-50647600D03*
X59740800Y-50063400D03*
X59740800Y-48793400D03*
X52684600Y-48311800D03*
X52684600Y-47161800D03*
X53390800Y-51231800D03*
X63144400Y-43307000D03*
X64744600Y-41376600D03*
X65252600Y-45034200D03*
X65303400Y-48209200D03*
X52684600Y-45961800D03*
D13*
X63673600Y-27228800D03*
X65173600Y-27228800D03*
X75539600Y-38273600D03*
X75539600Y-39773600D03*
X75260200Y-33701600D03*
X75260200Y-35201600D03*
X72411200Y-27518360D03*
X73911200Y-27518360D03*
D14*
X77368400Y-29565600D03*
D15*
X77368400Y-27025600D03*
D12*
X65227200Y-52349400D03*
X63997840Y-52349400D03*
X62760860Y-52354480D03*
D16*
X63628504Y-41911568D03*
X58039000Y-41910000D03*
X61595000Y-43180000D03*
X55321200Y-51892200D03*
D17*
X53238400Y-41732200D03*
D16*
X73533000Y-44043600D03*
X67716400Y-49885600D03*
X73558400Y-46177200D03*
X69773800Y-48514000D03*
X59334400Y-41224200D03*
X53086000Y-30708600D03*
X61976000Y-29108400D03*
X71094600Y-32816800D03*
X70916800Y-28549600D03*
X67691000Y-39217600D03*
X71399400Y-37134800D03*
X59588400Y-31013400D03*
X74803000Y-51562000D03*
X67144910Y-43230800D03*
X63562000Y-38109000D03*
X67123637Y-30217140D03*
X57048400Y-46101000D03*
X56284600Y-46861800D03*
X57023000Y-47599600D03*
X55549800Y-47599600D03*
X55549800Y-46126400D03*
X61391800Y-37744400D03*
X60712000Y-38434000D03*
X61391800Y-39116000D03*
X60020200Y-39116000D03*
X60020200Y-37744400D03*
X55900320Y-35874960D03*
X71361300Y-41191180D03*
X51127660Y-48849280D03*
X50927000Y-39903400D03*
X63246000Y-33477200D03*
X62636400Y-41275000D03*
D18*
X50165000Y-33782000D03*
X62357000Y-25908000D03*
D16*
X62865000Y-47244000D03*
X66929000Y-47752000D03*
X57861200Y-33070800D03*
X56337200Y-33070800D03*
X57404000Y-32181800D03*
X55016400Y-32664400D03*
X62699870Y-40084591D03*
X58712000Y-36459000D03*
X67301290Y-38269090D03*
X67233800Y-36576000D03*
X67132200Y-34518600D03*
X67259200Y-32943800D03*
X62255400Y-33197800D03*
X68300600Y-28346400D03*
X58293000Y-43967400D03*
X61722000Y-47091600D03*
X59918600Y-47294800D03*
X59512200Y-42468800D03*
X61087000Y-41490870D03*
X66598800Y-31775400D03*
X65473580Y-33258760D03*
X64239140Y-33512760D03*
X66001880Y-42341800D03*
X67424320Y-42316400D03*
X66852885Y-39204863D03*
D17*
X66868040Y-40652700D03*
D16*
X73888600Y-39700200D03*
X75387200Y-41198800D03*
X61366400Y-28194000D03*
X64516000Y-28186380D03*
X74117200Y-31800800D03*
X73055480Y-30398720D03*
X74117200Y-36982400D03*
X73152000Y-35572680D03*
X59004200Y-44627800D03*
X71986140Y-47411640D03*
M02*
