G04 #@! TF.FileFunction,Copper,L1,Top,Signal*
%FSLAX46Y46*%
G04 Gerber Fmt 4.6, Leading zero omitted, Abs format (unit mm)*
G04 Created by KiCad (PCBNEW (2014-12-04 BZR 5312)-product) date 1/7/2015 12:55:41 AM*
%MOMM*%
G01*
G04 APERTURE LIST*
%ADD10C,0.100000*%
%ADD11R,0.700000X1.200000*%
%ADD12R,0.550000X1.200000*%
%ADD13R,0.398780X0.599440*%
%ADD14R,0.599440X0.398780*%
%ADD15R,1.000760X0.800100*%
%ADD16R,0.400000X0.600000*%
%ADD17R,0.600000X0.400000*%
%ADD18R,1.000000X0.550000*%
%ADD19R,0.350000X0.500000*%
%ADD20R,1.450000X0.800000*%
%ADD21R,0.350000X0.850000*%
%ADD22R,0.800000X0.350000*%
%ADD23R,0.280000X0.800000*%
%ADD24R,0.850000X0.280000*%
%ADD25R,1.650000X2.400000*%
%ADD26C,0.400000*%
%ADD27R,0.800000X0.280000*%
%ADD28R,0.280000X0.850000*%
%ADD29R,2.400000X1.650000*%
%ADD30R,0.350000X0.600000*%
%ADD31R,0.600000X0.350000*%
%ADD32R,2.100000X2.100000*%
%ADD33O,0.248920X0.800000*%
%ADD34O,0.800000X0.248920*%
%ADD35R,2.250000X2.250000*%
%ADD36R,0.500000X0.900000*%
%ADD37R,1.900000X1.900000*%
%ADD38R,2.100000X1.600000*%
%ADD39R,0.400000X1.350000*%
%ADD40C,0.883200*%
%ADD41C,1.000000*%
%ADD42R,2.032000X2.032000*%
%ADD43O,2.032000X2.032000*%
%ADD44C,0.685800*%
%ADD45C,0.685799*%
%ADD46C,0.863600*%
%ADD47C,0.254000*%
%ADD48C,0.406400*%
%ADD49C,0.304800*%
%ADD50C,0.152400*%
%ADD51C,0.203200*%
%ADD52C,0.508000*%
%ADD53C,0.609600*%
G04 APERTURE END LIST*
D10*
D11*
X55092600Y-43103800D03*
D12*
X54142600Y-43103800D03*
D11*
X53192600Y-43093800D03*
D13*
X54414420Y-50342800D03*
X55313580Y-50342800D03*
X57484180Y-43211800D03*
X56585020Y-43211800D03*
X56192420Y-51155600D03*
X57091580Y-51155600D03*
X64752220Y-40030400D03*
X65651380Y-40030400D03*
D14*
X73025000Y-50528220D03*
X73025000Y-51427380D03*
X67754500Y-52354480D03*
X67754500Y-51455320D03*
D13*
X52773580Y-40106600D03*
X51874420Y-40106600D03*
D14*
X50927000Y-37371020D03*
X50927000Y-38270180D03*
X68275200Y-47962820D03*
X68275200Y-48861980D03*
X70764400Y-47912020D03*
X70764400Y-48811180D03*
D13*
X72829420Y-47244000D03*
X73728580Y-47244000D03*
D14*
X73482200Y-42273220D03*
X73482200Y-43172380D03*
D13*
X57929780Y-34874200D03*
X57030620Y-34874200D03*
X62694820Y-34848800D03*
X63593980Y-34848800D03*
D14*
X55092600Y-37990780D03*
X55092600Y-37091620D03*
D13*
X57929780Y-36042600D03*
X57030620Y-36042600D03*
D14*
X57226200Y-37990780D03*
X57226200Y-37091620D03*
X56159400Y-37990780D03*
X56159400Y-37091620D03*
D13*
X52316380Y-50952400D03*
X51417220Y-50952400D03*
X57015380Y-40690800D03*
X56116220Y-40690800D03*
D14*
X65704800Y-36935580D03*
X65704800Y-36036420D03*
D15*
X61758780Y-46031400D03*
X63958420Y-45078900D03*
X63958420Y-46983900D03*
X61758780Y-49431400D03*
X63958420Y-48478900D03*
X63958420Y-50383900D03*
D16*
X52305800Y-49834800D03*
X53205800Y-49834800D03*
D17*
X65679800Y-37936000D03*
X65679800Y-38836000D03*
D16*
X59733600Y-34874200D03*
X58833600Y-34874200D03*
X60840200Y-34874200D03*
X61740200Y-34874200D03*
X56112000Y-39584000D03*
X57012000Y-39584000D03*
D17*
X64354800Y-36011000D03*
X64354800Y-36911000D03*
D16*
X73489400Y-41249600D03*
X74389400Y-41249600D03*
D17*
X60960000Y-31031600D03*
X60960000Y-30131600D03*
D16*
X72270200Y-32664400D03*
X73170200Y-32664400D03*
X72397200Y-37109400D03*
X73297200Y-37109400D03*
D17*
X66878200Y-28216440D03*
X66878200Y-29116440D03*
X65252600Y-46932000D03*
X65252600Y-46032000D03*
X65252600Y-50310200D03*
X65252600Y-49410200D03*
X61595000Y-44000000D03*
X61595000Y-44900000D03*
X61341000Y-51656400D03*
X61341000Y-50756400D03*
D18*
X71666100Y-52412900D03*
X71666100Y-51462900D03*
X71666100Y-50512900D03*
X68966100Y-50512900D03*
X68966100Y-52412900D03*
D19*
X52120800Y-39166800D03*
X52770800Y-39166800D03*
X53420800Y-39166800D03*
X53420800Y-37366800D03*
X52770800Y-37366800D03*
X52120800Y-37366800D03*
D20*
X52770800Y-38266800D03*
D21*
X71337400Y-42500800D03*
X70837400Y-42500800D03*
X70337400Y-42500800D03*
X69837400Y-42500800D03*
X69337400Y-42500800D03*
X68837400Y-42500800D03*
D22*
X68097400Y-43230800D03*
X68097400Y-43730800D03*
X68097400Y-44230800D03*
X68097400Y-44730800D03*
X68097400Y-45230800D03*
X68097400Y-45730800D03*
D21*
X68837400Y-46530800D03*
D22*
X72097400Y-43230800D03*
X72097400Y-43730800D03*
X72097400Y-44230800D03*
X72097400Y-44730800D03*
X72097400Y-45230800D03*
X72097400Y-45730800D03*
D21*
X69337400Y-46530800D03*
X69837400Y-46530800D03*
X70337400Y-46530800D03*
X70837400Y-46530800D03*
X71337400Y-46530800D03*
D23*
X70387840Y-41032040D03*
X69887840Y-41032040D03*
D24*
X71617840Y-40452040D03*
X71617840Y-39952040D03*
X71617840Y-39452040D03*
X71617840Y-38952040D03*
X71617840Y-38452040D03*
X68667840Y-38452040D03*
X68667840Y-38952040D03*
X68667840Y-39452040D03*
X68667840Y-39952040D03*
X68667840Y-40452040D03*
D25*
X70137840Y-39462040D03*
D23*
X69887840Y-37902040D03*
X70387840Y-37902040D03*
D26*
X69657840Y-40212040D03*
X69657840Y-38712040D03*
X70657840Y-40212040D03*
X70657840Y-38712040D03*
X70137840Y-39462040D03*
D27*
X65400800Y-30567000D03*
X65400800Y-31067000D03*
D28*
X64820800Y-29337000D03*
X64320800Y-29337000D03*
X63820800Y-29337000D03*
X63320800Y-29337000D03*
X62820800Y-29337000D03*
X62820800Y-32287000D03*
X63320800Y-32287000D03*
X63820800Y-32287000D03*
X64320800Y-32287000D03*
X64820800Y-32287000D03*
D29*
X63830800Y-30817000D03*
D27*
X62270800Y-31067000D03*
X62270800Y-30567000D03*
D26*
X64580800Y-31297000D03*
X63080800Y-31297000D03*
X64580800Y-30297000D03*
X63080800Y-30297000D03*
X63830800Y-30817000D03*
D23*
X69940800Y-32025200D03*
X69440800Y-32025200D03*
D24*
X71170800Y-31445200D03*
X71170800Y-30945200D03*
X71170800Y-30445200D03*
X71170800Y-29945200D03*
X71170800Y-29445200D03*
X68220800Y-29445200D03*
X68220800Y-29945200D03*
X68220800Y-30445200D03*
X68220800Y-30945200D03*
X68220800Y-31445200D03*
D25*
X69690800Y-30455200D03*
D23*
X69440800Y-28895200D03*
X69940800Y-28895200D03*
D26*
X69210800Y-31205200D03*
X69210800Y-29705200D03*
X70210800Y-31205200D03*
X70210800Y-29705200D03*
X69690800Y-30455200D03*
D23*
X69940800Y-36470200D03*
X69440800Y-36470200D03*
D24*
X71170800Y-35890200D03*
X71170800Y-35390200D03*
X71170800Y-34890200D03*
X71170800Y-34390200D03*
X71170800Y-33890200D03*
X68220800Y-33890200D03*
X68220800Y-34390200D03*
X68220800Y-34890200D03*
X68220800Y-35390200D03*
X68220800Y-35890200D03*
D25*
X69690800Y-34900200D03*
D23*
X69440800Y-33340200D03*
X69940800Y-33340200D03*
D26*
X69210800Y-35650200D03*
X69210800Y-34150200D03*
X70210800Y-35650200D03*
X70210800Y-34150200D03*
X69690800Y-34900200D03*
D30*
X59737000Y-36434000D03*
X61687000Y-36434000D03*
X61037000Y-36434000D03*
X60387000Y-36434000D03*
X60387000Y-40434000D03*
X61037000Y-40434000D03*
X61687000Y-40434000D03*
X59737000Y-40434000D03*
D31*
X58712000Y-37459000D03*
X58712000Y-39409000D03*
X58712000Y-38759000D03*
X58712000Y-38109000D03*
D32*
X60712000Y-38434000D03*
D31*
X62712000Y-38109000D03*
X62712000Y-38759000D03*
X62712000Y-39409000D03*
X62712000Y-37459000D03*
D33*
X57634600Y-44861800D03*
X57184600Y-44861800D03*
X56734600Y-44861800D03*
X56284600Y-44861800D03*
X55834600Y-44861800D03*
X55384600Y-44861800D03*
X54934600Y-44861800D03*
D34*
X54284600Y-45511800D03*
X54284600Y-45961800D03*
X54284600Y-46411800D03*
X54284600Y-46861800D03*
X54284600Y-47311800D03*
X54284600Y-47761800D03*
X54284600Y-48211800D03*
D33*
X54934600Y-48861800D03*
X55384600Y-48861800D03*
X55834600Y-48861800D03*
X56284600Y-48861800D03*
X56734600Y-48861800D03*
X57184600Y-48861800D03*
X57634600Y-48861800D03*
D34*
X58284600Y-48211800D03*
X58284600Y-47761800D03*
X58284600Y-47311800D03*
X58284600Y-46861800D03*
X58284600Y-46411800D03*
X58284600Y-45961800D03*
X58284600Y-45511800D03*
D35*
X56284600Y-46861800D03*
D36*
X52693000Y-35814000D03*
X51193000Y-35814000D03*
D13*
X52722780Y-44704000D03*
X51823620Y-44704000D03*
D17*
X51816000Y-42679200D03*
X51816000Y-43579200D03*
D37*
X53537000Y-26670000D03*
X55937000Y-26670000D03*
X50887000Y-26670000D03*
X58587000Y-26670000D03*
D38*
X57837000Y-29220000D03*
X51637000Y-29220000D03*
D39*
X54737000Y-29345000D03*
X54087000Y-29345000D03*
X53437000Y-29345000D03*
X55387000Y-29345000D03*
X56037000Y-29345000D03*
D40*
X59715400Y-51282600D03*
X58623200Y-50647600D03*
X59740800Y-50063400D03*
X59740800Y-48793400D03*
X52684600Y-48311800D03*
X52684600Y-47161800D03*
X53390800Y-51231800D03*
X63144400Y-43307000D03*
X64744600Y-41376600D03*
X65252600Y-45034200D03*
X65303400Y-48209200D03*
X52684600Y-45961800D03*
D41*
X63673600Y-27228800D03*
X65173600Y-27228800D03*
X75539600Y-38273600D03*
X75539600Y-39773600D03*
X75260200Y-33701600D03*
X75260200Y-35201600D03*
X72411200Y-27518360D03*
X73911200Y-27518360D03*
D42*
X77368400Y-29565600D03*
D43*
X77368400Y-27025600D03*
D40*
X65227200Y-52349400D03*
X63997840Y-52349400D03*
X62760860Y-52354480D03*
D44*
X63628504Y-41911568D03*
X58039000Y-41910000D03*
X61595000Y-43180000D03*
X55321200Y-51892200D03*
D45*
X53238400Y-41732200D03*
D44*
X73533000Y-44043600D03*
X67716400Y-49885600D03*
X73558400Y-46177200D03*
X69773800Y-48514000D03*
X59334400Y-41224200D03*
X53086000Y-30708600D03*
X61976000Y-29108400D03*
X71094600Y-32816800D03*
X70916800Y-28549600D03*
X67691000Y-39217600D03*
X71399400Y-37134800D03*
X59588400Y-31013400D03*
X74803000Y-51562000D03*
X67144910Y-43230800D03*
X63562000Y-38109000D03*
X67123637Y-30217140D03*
X57048400Y-46101000D03*
X56284600Y-46861800D03*
X57023000Y-47599600D03*
X55549800Y-47599600D03*
X55549800Y-46126400D03*
X61391800Y-37744400D03*
X60712000Y-38434000D03*
X61391800Y-39116000D03*
X60020200Y-39116000D03*
X60020200Y-37744400D03*
X55900320Y-35874960D03*
X71361300Y-41191180D03*
X51127660Y-48849280D03*
X50927000Y-39903400D03*
X63246000Y-33477200D03*
X62636400Y-41275000D03*
D46*
X50165000Y-33782000D03*
X62357000Y-25908000D03*
D44*
X62865000Y-47244000D03*
X66929000Y-47752000D03*
X57861200Y-33070800D03*
X56337200Y-33070800D03*
X57404000Y-32181800D03*
X55016400Y-32664400D03*
X62699870Y-40084591D03*
X58712000Y-36459000D03*
X67301290Y-38269090D03*
X67233800Y-36576000D03*
X67132200Y-34518600D03*
X67259200Y-32943800D03*
X62255400Y-33197800D03*
X68300600Y-28346400D03*
X58293000Y-43967400D03*
X61722000Y-47091600D03*
X59918600Y-47294800D03*
X59512200Y-42468800D03*
X61087000Y-41490870D03*
X66598800Y-31775400D03*
X65473580Y-33258760D03*
X64239140Y-33512760D03*
X66001880Y-42341800D03*
X67424320Y-42316400D03*
X66852885Y-39204863D03*
D45*
X66868040Y-40652700D03*
D44*
X73888600Y-39700200D03*
X75387200Y-41198800D03*
X61366400Y-28194000D03*
X64516000Y-28186380D03*
X74117200Y-31800800D03*
X73055480Y-30398720D03*
X74117200Y-36982400D03*
X73152000Y-35572680D03*
X59004200Y-44627800D03*
X71986140Y-47411640D03*
D47*
X65679800Y-37936000D02*
X65111800Y-37936000D01*
X65111800Y-37936000D02*
X63628504Y-39419296D01*
X63628504Y-39419296D02*
X63628504Y-41426635D01*
X63628504Y-41426635D02*
X63628504Y-41911568D01*
X61341000Y-51656400D02*
X61341000Y-52095400D01*
X61341000Y-52095400D02*
X60883800Y-52552600D01*
X60883800Y-52552600D02*
X55006240Y-52552600D01*
X55006240Y-52552600D02*
X54414420Y-51960780D01*
X54992270Y-37990780D02*
X55092600Y-37990780D01*
X54424580Y-37423090D02*
X54992270Y-37990780D01*
X54424580Y-35904426D02*
X54424580Y-37423090D01*
X56959501Y-33369505D02*
X54424580Y-35904426D01*
X56037000Y-31798794D02*
X56959501Y-32721295D01*
X56959501Y-32721295D02*
X56959501Y-33369505D01*
X56037000Y-29345000D02*
X56037000Y-31798794D01*
D48*
X49911000Y-52044600D02*
X49911000Y-52197000D01*
D49*
X52773580Y-40711120D02*
X52438300Y-41046400D01*
X52773580Y-40106600D02*
X52773580Y-40711120D01*
X52438300Y-41046400D02*
X50393600Y-41046400D01*
D48*
X50393600Y-41046400D02*
X49911000Y-41249600D01*
X49911000Y-41249600D02*
X49911000Y-52044600D01*
X54414420Y-51960780D02*
X54414420Y-50342800D01*
X53898800Y-52476400D02*
X54414420Y-51960780D01*
X50190400Y-52476400D02*
X53898800Y-52476400D01*
X49911000Y-52197000D02*
X50190400Y-52476400D01*
D50*
X54584600Y-49657000D02*
X54414420Y-49827180D01*
X55384600Y-48861800D02*
X55384600Y-49492000D01*
X55384600Y-49492000D02*
X55219600Y-49657000D01*
X55219600Y-49657000D02*
X54584600Y-49657000D01*
X54414420Y-49827180D02*
X54414420Y-50342800D01*
D49*
X57484180Y-43211800D02*
X57484180Y-41956820D01*
X57484180Y-41956820D02*
X57531000Y-41910000D01*
X57531000Y-41910000D02*
X57144329Y-41910000D01*
X57015380Y-41781051D02*
X57015380Y-41295320D01*
X58039000Y-41910000D02*
X57144329Y-41910000D01*
X57144329Y-41910000D02*
X57015380Y-41781051D01*
X61595000Y-44000000D02*
X61595000Y-43180000D01*
X52773580Y-40106600D02*
X53631770Y-40102400D01*
X53631770Y-40102400D02*
X54824695Y-41295325D01*
X54824695Y-41295325D02*
X57015380Y-41295320D01*
X57015380Y-41295320D02*
X57015380Y-40690800D01*
X53420800Y-39166800D02*
X54522800Y-39152400D01*
X55092600Y-38582600D02*
X55092600Y-37990780D01*
X54522800Y-39152400D02*
X55092600Y-38582600D01*
X53420800Y-39166800D02*
X52770800Y-39166800D01*
X52770800Y-39166800D02*
X52770380Y-39167220D01*
X52770380Y-39167220D02*
X52773580Y-40106600D01*
D47*
X56734600Y-44861800D02*
X56734600Y-44211800D01*
X57484180Y-43812220D02*
X57484180Y-43211800D01*
X57334600Y-43961800D02*
X57484180Y-43812220D01*
X56984600Y-43961800D02*
X57334600Y-43961800D01*
X56734600Y-44211800D02*
X56984600Y-43961800D01*
D49*
X57351620Y-38116200D02*
X57226200Y-37990780D01*
X58712000Y-38109000D02*
X57351620Y-38116200D01*
X57226200Y-37990780D02*
X56159400Y-37990780D01*
X55092600Y-37990780D02*
X56159400Y-37990780D01*
X65679800Y-36960580D02*
X65704800Y-36935580D01*
X65679800Y-37936000D02*
X65679800Y-36960580D01*
D47*
X69837400Y-46530800D02*
X69837400Y-48450400D01*
X69837400Y-48450400D02*
X69773800Y-48514000D01*
X55313580Y-50342800D02*
X55313580Y-51884580D01*
X55313580Y-51884580D02*
X55321200Y-51892200D01*
X57091580Y-51155600D02*
X57091580Y-51620420D01*
X57091580Y-51620420D02*
X56819800Y-51892200D01*
X56819800Y-51892200D02*
X55321200Y-51892200D01*
X54142600Y-43103800D02*
X54142600Y-42249800D01*
X54142600Y-42249800D02*
X54152800Y-42239600D01*
X54152800Y-42239600D02*
X54152800Y-42011600D01*
X54107961Y-41992161D02*
X53848000Y-41732200D01*
X53848000Y-41732200D02*
X53238400Y-41732200D01*
X55919101Y-41992161D02*
X54107961Y-41992161D01*
X51916000Y-42679200D02*
X52863000Y-41732200D01*
X52863000Y-41732200D02*
X53238400Y-41732200D01*
X51816000Y-42679200D02*
X51916000Y-42679200D01*
X56585020Y-43211800D02*
X56585020Y-42658080D01*
X56585020Y-42658080D02*
X55919101Y-41992161D01*
X73482200Y-43172380D02*
X73482200Y-43992800D01*
X73482200Y-43992800D02*
X73533000Y-44043600D01*
X67754500Y-51455320D02*
X67754500Y-49923700D01*
X67754500Y-49923700D02*
X67716400Y-49885600D01*
X68275200Y-48861980D02*
X68275200Y-49326800D01*
X68275200Y-49326800D02*
X67716400Y-49885600D01*
X73728580Y-47244000D02*
X73728580Y-46347380D01*
X73728580Y-46347380D02*
X73558400Y-46177200D01*
X70764400Y-48811180D02*
X70070980Y-48811180D01*
X70070980Y-48811180D02*
X69773800Y-48514000D01*
D49*
X59737000Y-40434000D02*
X59737000Y-40821600D01*
X59737000Y-40821600D02*
X59334400Y-41224200D01*
X51874420Y-40106600D02*
X51874420Y-39413180D01*
X51874420Y-39413180D02*
X52120800Y-39166800D01*
X52120800Y-39166800D02*
X52120800Y-38201600D01*
D48*
X52120800Y-38201600D02*
X50995580Y-38201600D01*
D49*
X50995580Y-38201600D02*
X50927000Y-38270180D01*
X52120800Y-39166800D02*
X52120800Y-38916800D01*
X52120800Y-38916800D02*
X52770800Y-38266800D01*
X53437000Y-29345000D02*
X53437000Y-30357600D01*
X53437000Y-30357600D02*
X53086000Y-30708600D01*
X62820800Y-29337000D02*
X62204600Y-29337000D01*
X62204600Y-29337000D02*
X61976000Y-29108400D01*
X72270200Y-32664400D02*
X71247000Y-32664400D01*
X71247000Y-32664400D02*
X71094600Y-32816800D01*
X71170800Y-33890200D02*
X71170800Y-32893000D01*
X71170800Y-32893000D02*
X71094600Y-32816800D01*
X71170800Y-29445200D02*
X71170800Y-28803600D01*
X71170800Y-28803600D02*
X70916800Y-28549600D01*
X68667840Y-39452040D02*
X67925440Y-39452040D01*
X67925440Y-39452040D02*
X67691000Y-39217600D01*
X68667840Y-38952040D02*
X67956560Y-38952040D01*
X67956560Y-38952040D02*
X67691000Y-39217600D01*
X71617840Y-38452040D02*
X71617840Y-37353240D01*
D51*
X71424800Y-37109400D02*
X71399400Y-37134800D01*
X71424800Y-37109400D02*
X72397200Y-37109400D01*
D49*
X71617840Y-37353240D02*
X71399400Y-37134800D01*
D50*
X60960000Y-31031600D02*
X59606600Y-31031600D01*
X59606600Y-31031600D02*
X59588400Y-31013400D01*
X56284600Y-48861800D02*
X56284600Y-49414200D01*
X56284600Y-49414200D02*
X57091580Y-50221180D01*
X57091580Y-50221180D02*
X57091580Y-51155600D01*
D52*
X73025000Y-51427380D02*
X74668380Y-51427380D01*
D49*
X74668380Y-51427380D02*
X74803000Y-51562000D01*
D50*
X68097400Y-43230800D02*
X67144910Y-43230800D01*
D47*
X56284600Y-44861800D02*
X56284600Y-43512220D01*
X56284600Y-43512220D02*
X56585020Y-43211800D01*
D51*
X62712000Y-38109000D02*
X63562000Y-38109000D01*
D50*
X67351697Y-30445200D02*
X67123637Y-30217140D01*
D49*
X68220800Y-30445200D02*
X67351697Y-30445200D01*
D48*
X72989480Y-51462900D02*
X73025000Y-51427380D01*
D52*
X71666100Y-51462900D02*
X72989480Y-51462900D01*
D51*
X57048400Y-46101000D02*
X56287600Y-46861800D01*
X56287600Y-46861800D02*
X56284600Y-46861800D01*
X57023000Y-47599600D02*
X56285200Y-46861800D01*
X55549800Y-47599600D02*
X56284600Y-46864800D01*
X55549800Y-46126400D02*
X56284600Y-46861200D01*
X61391800Y-37744400D02*
X60712000Y-38424200D01*
X60712000Y-38424200D02*
X60712000Y-38434000D01*
X61391800Y-39116000D02*
X60712000Y-38436200D01*
X60020200Y-39116000D02*
X60702200Y-38434000D01*
X60020200Y-37744400D02*
X60709800Y-38434000D01*
X56159400Y-36134040D02*
X55900320Y-35874960D01*
X56159400Y-37091620D02*
X56159400Y-36134040D01*
X71419720Y-41249600D02*
X71361300Y-41191180D01*
X73489400Y-41249600D02*
X71419720Y-41249600D01*
X51417220Y-49138840D02*
X51127660Y-48849280D01*
X51417220Y-50952400D02*
X51417220Y-49138840D01*
D49*
X51130200Y-40106600D02*
X50927000Y-39903400D01*
X51130200Y-40106600D02*
X51874420Y-40106600D01*
D48*
X57226200Y-36819840D02*
X57226200Y-37091620D01*
X57017920Y-36611560D02*
X57226200Y-36819840D01*
X57017920Y-36055300D02*
X57017920Y-36611560D01*
X57030620Y-36042600D02*
X57017920Y-36055300D01*
X57030620Y-34874200D02*
X57030620Y-36042600D01*
X57226200Y-37091620D02*
X56159400Y-37091620D01*
X55092600Y-37091620D02*
X56159400Y-37091620D01*
X63593980Y-34348420D02*
X63246000Y-34000440D01*
X63246000Y-34000440D02*
X63246000Y-33477200D01*
D49*
X63320800Y-33402400D02*
X63246000Y-33477200D01*
X63320800Y-33402400D02*
X63320800Y-32287000D01*
D48*
X63593980Y-34848800D02*
X63593980Y-34348420D01*
D50*
X56192420Y-51155600D02*
X56192420Y-50703480D01*
X56192420Y-50703480D02*
X55834600Y-50345660D01*
X55834600Y-50345660D02*
X55834600Y-49414200D01*
X55834600Y-49414200D02*
X55834600Y-48861800D01*
D51*
X61687000Y-40434000D02*
X61687000Y-40559000D01*
X62403000Y-41275000D02*
X62636400Y-41275000D01*
X61687000Y-40559000D02*
X62403000Y-41275000D01*
X64752220Y-40030400D02*
X64752220Y-41368980D01*
X64752220Y-41368980D02*
X64744600Y-41376600D01*
D50*
X65651380Y-40030400D02*
X65651380Y-41461718D01*
X64630029Y-42483069D02*
X63311069Y-42483069D01*
X63311069Y-42483069D02*
X63195200Y-42367200D01*
X65651380Y-41461718D02*
X64630029Y-42483069D01*
X63195200Y-42367200D02*
X63195200Y-43256200D01*
X63195200Y-43256200D02*
X63144400Y-43307000D01*
X63195200Y-42367200D02*
X60604400Y-42367200D01*
X60604400Y-42367200D02*
X60198000Y-42773600D01*
X60198000Y-42773600D02*
X60198000Y-45500800D01*
X60198000Y-45500800D02*
X58837000Y-46861800D01*
X58837000Y-46861800D02*
X58284600Y-46861800D01*
D51*
X65651380Y-40030400D02*
X65651380Y-38864420D01*
X65651380Y-38864420D02*
X65679800Y-38836000D01*
D49*
X72263000Y-28702000D02*
X71501922Y-27940922D01*
X72263000Y-29466642D02*
X72263000Y-28702000D01*
X71501922Y-27940922D02*
X71501922Y-25908000D01*
X71784442Y-29945200D02*
X72263000Y-29466642D01*
X71170800Y-29945200D02*
X71784442Y-29945200D01*
D53*
X77343000Y-32258000D02*
X77343000Y-36545520D01*
X77343000Y-36545520D02*
X77343000Y-40123782D01*
D49*
X72971080Y-38328600D02*
X74143126Y-38328600D01*
X74143126Y-38328600D02*
X75926206Y-36545520D01*
X75926206Y-36545520D02*
X77343000Y-36545520D01*
X71617840Y-38952040D02*
X72347640Y-38952040D01*
X72347640Y-38952040D02*
X72971080Y-38328600D01*
X75565000Y-31419796D02*
X75653898Y-31330898D01*
X75565000Y-31585426D02*
X75565000Y-31419796D01*
X74620499Y-32529927D02*
X75565000Y-31585426D01*
X74620499Y-32948501D02*
X74620499Y-32529927D01*
X73178800Y-34390200D02*
X74620499Y-32948501D01*
X71170800Y-34390200D02*
X73178800Y-34390200D01*
X72470900Y-52412900D02*
X71666100Y-52412900D01*
X75061066Y-52412900D02*
X72470900Y-52412900D01*
X75552301Y-51921665D02*
X75061066Y-52412900D01*
X75552301Y-50948335D02*
X75552301Y-51921665D01*
X75132186Y-50528220D02*
X75552301Y-50948335D01*
X73832720Y-50528220D02*
X75132186Y-50528220D01*
D52*
X74041000Y-50292000D02*
X74041000Y-50319940D01*
X74041000Y-50319940D02*
X73832720Y-50528220D01*
X73832720Y-50528220D02*
X73025000Y-50528220D01*
X75057000Y-49276000D02*
X74041000Y-50292000D01*
X71666100Y-50512900D02*
X73009680Y-50512900D01*
X73009680Y-50512900D02*
X73025000Y-50528220D01*
D53*
X77343000Y-40123782D02*
X77343000Y-46990000D01*
X75311000Y-30988000D02*
X75653898Y-31330898D01*
X75653898Y-31330898D02*
X76073000Y-31750000D01*
X77343000Y-46990000D02*
X75057000Y-49276000D01*
X76835000Y-31750000D02*
X77343000Y-32258000D01*
X76073000Y-31750000D02*
X76835000Y-31750000D01*
X75311000Y-27646160D02*
X75311000Y-30988000D01*
X77368400Y-27025600D02*
X75931560Y-27025600D01*
X75931560Y-27025600D02*
X75311000Y-27646160D01*
X75311000Y-25908000D02*
X71501922Y-25908000D01*
X71501922Y-25908000D02*
X66929000Y-25908000D01*
D49*
X62357000Y-27643400D02*
X62357000Y-26518657D01*
X63320800Y-28607200D02*
X62357000Y-27643400D01*
X63320800Y-29337000D02*
X63320800Y-28607200D01*
X62357000Y-26518657D02*
X62357000Y-25908000D01*
D51*
X66878200Y-28216440D02*
X66878200Y-25908000D01*
X66929000Y-26162000D02*
X66929000Y-25908000D01*
X66929000Y-25958800D02*
X66929000Y-26162000D01*
X66878200Y-25908000D02*
X66929000Y-25958800D01*
D53*
X75311000Y-25908000D02*
X76428600Y-27025600D01*
X66929000Y-25908000D02*
X62357000Y-25908000D01*
X77368400Y-27025600D02*
X76428600Y-27025600D01*
D48*
X51193000Y-37105020D02*
X50927000Y-37371020D01*
X51193000Y-35814000D02*
X51193000Y-37105020D01*
X50931220Y-37366800D02*
X50927000Y-37371020D01*
X52120800Y-37366800D02*
X50931220Y-37366800D01*
X51193700Y-35813300D02*
X51193000Y-35814000D01*
D49*
X53420800Y-36812000D02*
X53517800Y-36715000D01*
X53420800Y-36812000D02*
X53420800Y-37366800D01*
X53517800Y-36715000D02*
X53517800Y-34975800D01*
X53517800Y-34975800D02*
X53378100Y-34645600D01*
X53378100Y-34645600D02*
X51193700Y-34645600D01*
D48*
X51193700Y-35813300D02*
X51193700Y-34645600D01*
X51193700Y-34589720D02*
X50385980Y-33782000D01*
X50385980Y-33782000D02*
X50165000Y-33782000D01*
X51193700Y-34645600D02*
X51193700Y-34589720D01*
D47*
X69337400Y-46530800D02*
X69337400Y-47209800D01*
X69337400Y-47209800D02*
X69125400Y-47421800D01*
X69125400Y-47421800D02*
X68478400Y-47421800D01*
X68478400Y-47421800D02*
X68275200Y-47625000D01*
X68275200Y-47625000D02*
X68275200Y-47962820D01*
X69011800Y-49555400D02*
X69240400Y-49784000D01*
X69240400Y-49784000D02*
X69977000Y-49784000D01*
X69011800Y-48145700D02*
X69011800Y-49555400D01*
X68275200Y-47962820D02*
X68828920Y-47962820D01*
X68828920Y-47962820D02*
X69011800Y-48145700D01*
D49*
X65227200Y-52349400D02*
X65227200Y-50335600D01*
X65227200Y-50335600D02*
X65252600Y-50310200D01*
X65252600Y-52374800D02*
X67734180Y-52374800D01*
X67734180Y-52374800D02*
X67754500Y-52354480D01*
X62865000Y-47244000D02*
X63698320Y-47244000D01*
X63698320Y-47244000D02*
X63958420Y-46983900D01*
X66929000Y-49784000D02*
X66929000Y-47752000D01*
X66402800Y-50310200D02*
X66929000Y-49784000D01*
X65252600Y-50310200D02*
X66402800Y-50310200D01*
X72263000Y-49784000D02*
X72829420Y-49217580D01*
X72829420Y-49217580D02*
X72829420Y-47244000D01*
X69977000Y-49784000D02*
X72263000Y-49784000D01*
X72097400Y-45730800D02*
X72097400Y-46511980D01*
X72097400Y-46511980D02*
X72829420Y-47244000D01*
X68966100Y-52412900D02*
X69770900Y-52412900D01*
X69770900Y-52412900D02*
X69977000Y-52206800D01*
X69977000Y-52206800D02*
X69977000Y-49784000D01*
D50*
X63958420Y-46983900D02*
X65200700Y-46983900D01*
X65200700Y-46983900D02*
X65252600Y-46932000D01*
X63958420Y-50383900D02*
X65178900Y-50383900D01*
X65178900Y-50383900D02*
X65252600Y-50310200D01*
D49*
X67812920Y-52412900D02*
X67754500Y-52354480D01*
X68966100Y-52412900D02*
X67812920Y-52412900D01*
D50*
X70764400Y-47912020D02*
X70764400Y-47726600D01*
D47*
X70764400Y-47625000D02*
X70337400Y-47198000D01*
X70337400Y-47198000D02*
X70337400Y-46530800D01*
X70764400Y-47912020D02*
X70764400Y-47625000D01*
D50*
X73030080Y-42273220D02*
X73482200Y-42273220D01*
X70837400Y-41923400D02*
X70952400Y-41808400D01*
X70837400Y-42500800D02*
X70837400Y-41923400D01*
X72565260Y-41808400D02*
X73030080Y-42273220D01*
X70952400Y-41808400D02*
X72565260Y-41808400D01*
D47*
X57929780Y-34874200D02*
X57929780Y-33139380D01*
X57929780Y-33139380D02*
X57861200Y-33070800D01*
X55387000Y-29345000D02*
X55387000Y-32120600D01*
X55387000Y-32120600D02*
X56337200Y-33070800D01*
X58833600Y-34874200D02*
X57929780Y-34874200D01*
X58597800Y-32613600D02*
X58166000Y-32181800D01*
X58166000Y-32181800D02*
X57404000Y-32181800D01*
X58597800Y-33350200D02*
X58597800Y-32613600D01*
X59182000Y-33934400D02*
X58597800Y-33350200D01*
X60900400Y-33934400D02*
X59182000Y-33934400D01*
X61740200Y-34874200D02*
X61740200Y-34774200D01*
X61740200Y-34774200D02*
X60900400Y-33934400D01*
X54737000Y-29345000D02*
X54737000Y-32385000D01*
X54737000Y-32385000D02*
X55016400Y-32664400D01*
X61740200Y-34874200D02*
X62669420Y-34874200D01*
X62669420Y-34874200D02*
X62694820Y-34848800D01*
D51*
X62712000Y-39409000D02*
X62712000Y-40072461D01*
X62712000Y-40072461D02*
X62699870Y-40084591D01*
X58712000Y-37459000D02*
X58712000Y-36459000D01*
X58737000Y-36434000D02*
X58712000Y-36459000D01*
X59737000Y-36434000D02*
X58737000Y-36434000D01*
X58295600Y-36042600D02*
X58712000Y-36459000D01*
X57929780Y-36042600D02*
X58295600Y-36042600D01*
D48*
X52305800Y-49834800D02*
X52305800Y-50941820D01*
X52305800Y-50941820D02*
X52316380Y-50952400D01*
D51*
X56116220Y-40690800D02*
X56112000Y-39584000D01*
X65679380Y-36011000D02*
X65704800Y-36036420D01*
X64354800Y-36011000D02*
X65679380Y-36011000D01*
D50*
X67233800Y-38201600D02*
X67301290Y-38269090D01*
X67301290Y-38269090D02*
X67484240Y-38452040D01*
X67484240Y-38452040D02*
X68667840Y-38452040D01*
X67233800Y-36576000D02*
X67233800Y-38201600D01*
X67259200Y-32943800D02*
X67259200Y-34391600D01*
X67259200Y-34391600D02*
X67132200Y-34518600D01*
X67935800Y-33890200D02*
X67259200Y-33213600D01*
X67259200Y-33213600D02*
X67259200Y-32943800D01*
X68220800Y-33890200D02*
X67935800Y-33890200D01*
D51*
X62255400Y-33197800D02*
X62255400Y-33096200D01*
X62255400Y-33096200D02*
X62820800Y-32530800D01*
X62820800Y-32530800D02*
X62820800Y-32287000D01*
D50*
X68220800Y-29445200D02*
X68220800Y-28426200D01*
X68220800Y-28426200D02*
X68300600Y-28346400D01*
D47*
X68220800Y-29445200D02*
X67206960Y-29445200D01*
X67206960Y-29445200D02*
X66878200Y-29116440D01*
D50*
X57634600Y-44861800D02*
X57634600Y-44625800D01*
X57634600Y-44625800D02*
X58293000Y-43967400D01*
X55834600Y-44861800D02*
X55834600Y-43343400D01*
X55834600Y-43343400D02*
X55595000Y-43103800D01*
X55595000Y-43103800D02*
X55092600Y-43103800D01*
X55384600Y-44309400D02*
X55058401Y-43983201D01*
X55058401Y-43983201D02*
X53329601Y-43983201D01*
X53329601Y-43983201D02*
X53192600Y-43846200D01*
X53192600Y-43846200D02*
X53192600Y-43093800D01*
X55384600Y-44861800D02*
X55384600Y-44309400D01*
X54934600Y-44861800D02*
X52601180Y-44861800D01*
X52601180Y-44861800D02*
X52722780Y-44704000D01*
X54284600Y-47311800D02*
X53534600Y-47311800D01*
X53184600Y-45961800D02*
X52684600Y-45961800D01*
X53384600Y-46161800D02*
X53184600Y-45961800D01*
X53384600Y-47161800D02*
X53384600Y-46161800D01*
X53534600Y-47311800D02*
X53384600Y-47161800D01*
X54284600Y-47761800D02*
X53284600Y-47761800D01*
X53284600Y-47761800D02*
X52684600Y-47161800D01*
X54284600Y-48211800D02*
X52784600Y-48211800D01*
X52784600Y-48211800D02*
X52684600Y-48311800D01*
D47*
X53390800Y-51231800D02*
X53390800Y-50019800D01*
X53390800Y-50019800D02*
X53205800Y-49834800D01*
D51*
X53205800Y-49834800D02*
X53205800Y-49734800D01*
X53205800Y-49734800D02*
X54078800Y-48861800D01*
X54078800Y-48861800D02*
X54606940Y-48861800D01*
X54606940Y-48861800D02*
X54934600Y-48861800D01*
D50*
X56734600Y-48861800D02*
X56734600Y-49414200D01*
X56734600Y-49414200D02*
X57952999Y-50632599D01*
X57952999Y-50632599D02*
X57952999Y-50969297D01*
X58944897Y-51317801D02*
X58954698Y-51308000D01*
X57952999Y-50969297D02*
X58301503Y-51317801D01*
X58301503Y-51317801D02*
X58944897Y-51317801D01*
X58954698Y-51308000D02*
X59639200Y-51308000D01*
X57184600Y-48861800D02*
X57184600Y-49414200D01*
X57184600Y-49414200D02*
X58418000Y-50647600D01*
X58418000Y-50647600D02*
X58623200Y-50647600D01*
X57634600Y-48861800D02*
X58539200Y-48861800D01*
X58539200Y-48861800D02*
X59740800Y-50063400D01*
D51*
X57634600Y-48861800D02*
X57634600Y-49137340D01*
D50*
X58284600Y-48211800D02*
X59159200Y-48211800D01*
X59159200Y-48211800D02*
X59740800Y-48793400D01*
D51*
X58284600Y-48211800D02*
X58295600Y-48211800D01*
D50*
X58284600Y-48211800D02*
X58560140Y-48211800D01*
X61758780Y-46031400D02*
X61758780Y-45114580D01*
X61758780Y-45114580D02*
X61768000Y-45105360D01*
X61768000Y-45105360D02*
X61768000Y-45023800D01*
X61768000Y-45023800D02*
X61695000Y-44900000D01*
X61695000Y-44900000D02*
X61595000Y-44900000D01*
X61722000Y-47091600D02*
X61722000Y-46068180D01*
X61722000Y-46068180D02*
X61758780Y-46031400D01*
X58284600Y-47761800D02*
X59451600Y-47761800D01*
X59451600Y-47761800D02*
X59918600Y-47294800D01*
X61758780Y-49431400D02*
X61758780Y-49983850D01*
X61758780Y-49983850D02*
X61341000Y-50401630D01*
X61341000Y-50401630D02*
X61341000Y-50756400D01*
X58837000Y-47311800D02*
X58284600Y-47311800D01*
X59425501Y-46723299D02*
X58837000Y-47311800D01*
X60192921Y-46723299D02*
X59425501Y-46723299D01*
X61758780Y-48289158D02*
X60192921Y-46723299D01*
X61758780Y-49431400D02*
X61758780Y-48289158D01*
X58284600Y-46411800D02*
X58284600Y-46314870D01*
X59855099Y-42811699D02*
X59512200Y-42468800D01*
X58284600Y-46411800D02*
X58837000Y-46411800D01*
X58837000Y-46411800D02*
X59880511Y-45368289D01*
X59880511Y-45368289D02*
X59880511Y-42837111D01*
X59880511Y-42837111D02*
X59855099Y-42811699D01*
X61037000Y-40434000D02*
X61037000Y-41440870D01*
X61037000Y-41440870D02*
X61087000Y-41490870D01*
X63164400Y-38759000D02*
X63271390Y-38865990D01*
X59575701Y-45223099D02*
X58837000Y-45961800D01*
X59237879Y-41897299D02*
X58877200Y-42257978D01*
X62669432Y-42062390D02*
X60749168Y-42062390D01*
X63271390Y-41460432D02*
X62669432Y-42062390D01*
X60749168Y-42062390D02*
X60584077Y-41897299D01*
X59575701Y-43345101D02*
X59575701Y-45223099D01*
X60584077Y-41897299D02*
X59237879Y-41897299D01*
X58837000Y-45961800D02*
X58284600Y-45961800D01*
X58877200Y-42646600D02*
X59575701Y-43345101D01*
X58877200Y-42257978D02*
X58877200Y-42646600D01*
X62712000Y-38759000D02*
X63164400Y-38759000D01*
X63271390Y-38865990D02*
X63271390Y-41460432D01*
X67429000Y-30945200D02*
X66941699Y-31432501D01*
X68220800Y-30945200D02*
X67429000Y-30945200D01*
X66941699Y-31432501D02*
X66598800Y-31775400D01*
X66921380Y-35326320D02*
X66985260Y-35390200D01*
X66985260Y-35390200D02*
X68220800Y-35390200D01*
X66921380Y-35199320D02*
X66921380Y-35326320D01*
X65473580Y-33258760D02*
X65473580Y-33751520D01*
X65473580Y-33751520D02*
X66921380Y-35199320D01*
X64285240Y-33512760D02*
X64239140Y-33512760D01*
X64320800Y-33548320D02*
X64285240Y-33512760D01*
X66255890Y-35483410D02*
X64320800Y-33548320D01*
X66255890Y-38551583D02*
X66255890Y-35483410D01*
X66259201Y-38554894D02*
X66255890Y-38551583D01*
X66259201Y-39168200D02*
X66259201Y-38554894D01*
X66258440Y-42487966D02*
X66258440Y-40014299D01*
X66258440Y-40014299D02*
X66258440Y-39168961D01*
X68667840Y-39952040D02*
X66320699Y-39952040D01*
X66320699Y-39952040D02*
X66258440Y-40014299D01*
X66259201Y-42488727D02*
X66258440Y-42487966D01*
X66258440Y-39168961D02*
X66259201Y-39168200D01*
X64320800Y-33548320D02*
X64320800Y-32287000D01*
X66112274Y-42341800D02*
X66001880Y-42341800D01*
X66259201Y-42488727D02*
X66112274Y-42341800D01*
X67608720Y-42500800D02*
X67424320Y-42316400D01*
X68837400Y-42500800D02*
X67608720Y-42500800D01*
X66259201Y-39168200D02*
X66265801Y-39174800D01*
X65252600Y-46032000D02*
X65252600Y-45034200D01*
X63958420Y-45078900D02*
X65207900Y-45078900D01*
X65207900Y-45078900D02*
X65252600Y-45034200D01*
X65252600Y-45034200D02*
X66259201Y-44027599D01*
X66259201Y-44027599D02*
X66259201Y-42488727D01*
X69337400Y-41651400D02*
X68667840Y-40981840D01*
X68667840Y-40981840D02*
X68667840Y-40452040D01*
X69337400Y-42500800D02*
X69337400Y-41651400D01*
X66852885Y-38717512D02*
X66852885Y-38719930D01*
X66560700Y-38425327D02*
X66852885Y-38717512D01*
X66560700Y-35889027D02*
X66560700Y-38425327D01*
X66852885Y-38719930D02*
X66852885Y-39204863D01*
X67935800Y-31445200D02*
X68220800Y-31445200D01*
X66957899Y-32423101D02*
X67935800Y-31445200D01*
X65249301Y-32423101D02*
X66957899Y-32423101D01*
X65113200Y-32287000D02*
X65249301Y-32423101D01*
X64820800Y-32287000D02*
X65113200Y-32287000D01*
X64820800Y-32287000D02*
X64830960Y-32297160D01*
X64830960Y-32297160D02*
X64830960Y-33619440D01*
X64830960Y-33619440D02*
X66560700Y-35349180D01*
X66560700Y-35349180D02*
X66560700Y-35889027D01*
X67643400Y-35890200D02*
X67642227Y-35889027D01*
X68220800Y-35890200D02*
X67643400Y-35890200D01*
X67642227Y-35889027D02*
X66560700Y-35889027D01*
X66868040Y-40652700D02*
X67352972Y-40652700D01*
X67352972Y-40652700D02*
X67553632Y-40452040D01*
X67553632Y-40452040D02*
X68667840Y-40452040D01*
X66573400Y-41432272D02*
X66868040Y-41137632D01*
X66573400Y-46939200D02*
X66573400Y-41432272D01*
X65303400Y-48209200D02*
X66573400Y-46939200D01*
X66868040Y-41137632D02*
X66868040Y-40652700D01*
X65252600Y-49410200D02*
X65252600Y-48260000D01*
X65252600Y-48260000D02*
X65303400Y-48209200D01*
X63958420Y-48478900D02*
X65033700Y-48478900D01*
X65033700Y-48478900D02*
X65303400Y-48209200D01*
D47*
X59842400Y-35458400D02*
X59763800Y-35458400D01*
X59763800Y-35458400D02*
X59733600Y-35428200D01*
X59733600Y-35428200D02*
X59733600Y-34874200D01*
X60387000Y-36003000D02*
X59842400Y-35458400D01*
X60387000Y-36434000D02*
X60387000Y-36003000D01*
X60495600Y-36325400D02*
X60387000Y-36434000D01*
X60840200Y-35668800D02*
X61037000Y-35865600D01*
X61037000Y-35865600D02*
X61037000Y-36434000D01*
X60840200Y-34874200D02*
X60840200Y-35668800D01*
D51*
X58240200Y-38759000D02*
X58712000Y-38759000D01*
X57415200Y-39584000D02*
X58240200Y-38759000D01*
X57012000Y-39584000D02*
X57415200Y-39584000D01*
X63494640Y-36911000D02*
X63017640Y-36434000D01*
X63017640Y-36434000D02*
X61687000Y-36434000D01*
X64354800Y-36911000D02*
X63494640Y-36911000D01*
D50*
X71617840Y-39952040D02*
X73636760Y-39952040D01*
X73636760Y-39952040D02*
X73888600Y-39700200D01*
X74389400Y-41249600D02*
X75336400Y-41249600D01*
X75336400Y-41249600D02*
X75387200Y-41198800D01*
X60960000Y-30131600D02*
X60960000Y-28600400D01*
X60960000Y-28600400D02*
X61366400Y-28194000D01*
X64320800Y-28381580D02*
X64516000Y-28186380D01*
X64320800Y-29337000D02*
X64320800Y-28381580D01*
X73170200Y-32664400D02*
X73253600Y-32664400D01*
X73253600Y-32664400D02*
X74117200Y-31800800D01*
X72509000Y-30945200D02*
X73055480Y-30398720D01*
X71170800Y-30945200D02*
X72509000Y-30945200D01*
X73297200Y-37109400D02*
X73990200Y-37109400D01*
X73990200Y-37109400D02*
X74117200Y-36982400D01*
X71170800Y-35390200D02*
X72969520Y-35390200D01*
X72969520Y-35390200D02*
X73152000Y-35572680D01*
D49*
X52770800Y-37366800D02*
X52770800Y-35891800D01*
X52770800Y-35891800D02*
X52693000Y-35814000D01*
X63673600Y-27935906D02*
X63673600Y-27228800D01*
X63820800Y-28083106D02*
X63673600Y-27935906D01*
X63820800Y-29337000D02*
X63820800Y-28083106D01*
X65201800Y-27257000D02*
X65173600Y-27228800D01*
X65201800Y-28671000D02*
X65201800Y-27257000D01*
X64820800Y-29052000D02*
X65201800Y-28671000D01*
X64820800Y-29337000D02*
X64820800Y-29052000D01*
X73355200Y-38938200D02*
X74875000Y-38938200D01*
X74875000Y-38938200D02*
X75539600Y-38273600D01*
X72841360Y-39452040D02*
X73355200Y-38938200D01*
X71617840Y-39452040D02*
X72841360Y-39452040D01*
X71617840Y-40452040D02*
X74861160Y-40452040D01*
X74861160Y-40452040D02*
X75539600Y-39773600D01*
X74074901Y-34886899D02*
X74760201Y-34201599D01*
X71900600Y-34890200D02*
X71903901Y-34886899D01*
X71903901Y-34886899D02*
X74074901Y-34886899D01*
X71170800Y-34890200D02*
X71900600Y-34890200D01*
X74760201Y-34201599D02*
X75260200Y-33701600D01*
X71170800Y-35890200D02*
X71900600Y-35890200D01*
X71900600Y-35890200D02*
X72230800Y-36220400D01*
X72230800Y-36220400D02*
X74241400Y-36220400D01*
X74241400Y-36220400D02*
X74760201Y-35701599D01*
X74760201Y-35701599D02*
X75260200Y-35201600D01*
X72911199Y-28018359D02*
X72411200Y-27518360D01*
X71931034Y-30445200D02*
X72911199Y-29465035D01*
X71170800Y-30445200D02*
X71931034Y-30445200D01*
X72911199Y-29465035D02*
X72911199Y-28018359D01*
X73839699Y-28097099D02*
X73911200Y-27518360D01*
X71170800Y-31445200D02*
X73117966Y-31445200D01*
X73117966Y-31445200D02*
X73839699Y-30723467D01*
X73839699Y-30723467D02*
X73839699Y-28097099D01*
D50*
X51823620Y-44704000D02*
X51823200Y-43586400D01*
X51823200Y-43586400D02*
X51816000Y-43579200D01*
X58284600Y-45511800D02*
X58284600Y-45347400D01*
X58284600Y-45347400D02*
X59004200Y-44627800D01*
X71337400Y-46762900D02*
X71986140Y-47411640D01*
X71337400Y-46530800D02*
X71337400Y-46762900D01*
G36*
X54560875Y-38431824D02*
X54320295Y-38672404D01*
X54080000Y-38675544D01*
X54080000Y-38590650D01*
X53933950Y-38444600D01*
X52948600Y-38444600D01*
X52948600Y-38464600D01*
X52669783Y-38464600D01*
X52626723Y-38421539D01*
X52412005Y-38332600D01*
X52354350Y-38332600D01*
X52242350Y-38444600D01*
X51999250Y-38444600D01*
X51887250Y-38332600D01*
X51829595Y-38332600D01*
X51686759Y-38391764D01*
X51664870Y-38369875D01*
X51076860Y-38369875D01*
X51076860Y-38907720D01*
X51222910Y-39053770D01*
X51342924Y-39053770D01*
X51467866Y-39002016D01*
X51507650Y-39041800D01*
X51594616Y-39041800D01*
X51714877Y-39162061D01*
X51861224Y-39222680D01*
X51696618Y-39222680D01*
X51696618Y-39290623D01*
X51628675Y-39222680D01*
X51558825Y-39222680D01*
X51361600Y-39304373D01*
X51344107Y-39311619D01*
X51179769Y-39475958D01*
X51090830Y-39690676D01*
X51090830Y-39810690D01*
X51236880Y-39956740D01*
X51722741Y-39956740D01*
X51829595Y-40001000D01*
X51887250Y-40001000D01*
X51974115Y-39914135D01*
X51974115Y-39956740D01*
X52072220Y-39956740D01*
X52072220Y-40256460D01*
X51974115Y-40256460D01*
X51974115Y-40304400D01*
X51774725Y-40304400D01*
X51774725Y-40256460D01*
X51236880Y-40256460D01*
X51090830Y-40402510D01*
X51090830Y-40522524D01*
X51107927Y-40563800D01*
X50777140Y-40563800D01*
X50777140Y-38907720D01*
X50777140Y-38369875D01*
X50189130Y-38369875D01*
X50043080Y-38515925D01*
X50043080Y-38585775D01*
X50132019Y-38800493D01*
X50296358Y-38964831D01*
X50511076Y-39053770D01*
X50631090Y-39053770D01*
X50777140Y-38907720D01*
X50777140Y-40563800D01*
X50612094Y-40563800D01*
X50594850Y-40552422D01*
X50390493Y-40513010D01*
X50186610Y-40554800D01*
X49733200Y-40745709D01*
X49733200Y-34427781D01*
X50012764Y-34543867D01*
X50315906Y-34544132D01*
X50371004Y-34521365D01*
X50660300Y-34810661D01*
X50660300Y-35192801D01*
X50632364Y-35234187D01*
X50606331Y-35364000D01*
X50606331Y-36264000D01*
X50630759Y-36389904D01*
X50659600Y-36433808D01*
X50659600Y-36834961D01*
X50627280Y-36834961D01*
X50501376Y-36859389D01*
X50390718Y-36932080D01*
X50316644Y-37041817D01*
X50290611Y-37171630D01*
X50290611Y-37570410D01*
X50292376Y-37579510D01*
X50132019Y-37739867D01*
X50043080Y-37954585D01*
X50043080Y-38024435D01*
X50189130Y-38170485D01*
X50777140Y-38170485D01*
X50777140Y-38072380D01*
X51076860Y-38072380D01*
X51076860Y-38170485D01*
X51664870Y-38170485D01*
X51746355Y-38089000D01*
X52593000Y-38089000D01*
X52593000Y-38069000D01*
X52948600Y-38069000D01*
X52948600Y-38089000D01*
X53933950Y-38089000D01*
X54080000Y-37942950D01*
X54080000Y-37750596D01*
X54040679Y-37655668D01*
X54101291Y-37746379D01*
X54456211Y-38101299D01*
X54456211Y-38190170D01*
X54480639Y-38316074D01*
X54553330Y-38426732D01*
X54560875Y-38431824D01*
X54560875Y-38431824D01*
G37*
X54560875Y-38431824D02*
X54320295Y-38672404D01*
X54080000Y-38675544D01*
X54080000Y-38590650D01*
X53933950Y-38444600D01*
X52948600Y-38444600D01*
X52948600Y-38464600D01*
X52669783Y-38464600D01*
X52626723Y-38421539D01*
X52412005Y-38332600D01*
X52354350Y-38332600D01*
X52242350Y-38444600D01*
X51999250Y-38444600D01*
X51887250Y-38332600D01*
X51829595Y-38332600D01*
X51686759Y-38391764D01*
X51664870Y-38369875D01*
X51076860Y-38369875D01*
X51076860Y-38907720D01*
X51222910Y-39053770D01*
X51342924Y-39053770D01*
X51467866Y-39002016D01*
X51507650Y-39041800D01*
X51594616Y-39041800D01*
X51714877Y-39162061D01*
X51861224Y-39222680D01*
X51696618Y-39222680D01*
X51696618Y-39290623D01*
X51628675Y-39222680D01*
X51558825Y-39222680D01*
X51361600Y-39304373D01*
X51344107Y-39311619D01*
X51179769Y-39475958D01*
X51090830Y-39690676D01*
X51090830Y-39810690D01*
X51236880Y-39956740D01*
X51722741Y-39956740D01*
X51829595Y-40001000D01*
X51887250Y-40001000D01*
X51974115Y-39914135D01*
X51974115Y-39956740D01*
X52072220Y-39956740D01*
X52072220Y-40256460D01*
X51974115Y-40256460D01*
X51974115Y-40304400D01*
X51774725Y-40304400D01*
X51774725Y-40256460D01*
X51236880Y-40256460D01*
X51090830Y-40402510D01*
X51090830Y-40522524D01*
X51107927Y-40563800D01*
X50777140Y-40563800D01*
X50777140Y-38907720D01*
X50777140Y-38369875D01*
X50189130Y-38369875D01*
X50043080Y-38515925D01*
X50043080Y-38585775D01*
X50132019Y-38800493D01*
X50296358Y-38964831D01*
X50511076Y-39053770D01*
X50631090Y-39053770D01*
X50777140Y-38907720D01*
X50777140Y-40563800D01*
X50612094Y-40563800D01*
X50594850Y-40552422D01*
X50390493Y-40513010D01*
X50186610Y-40554800D01*
X49733200Y-40745709D01*
X49733200Y-34427781D01*
X50012764Y-34543867D01*
X50315906Y-34544132D01*
X50371004Y-34521365D01*
X50660300Y-34810661D01*
X50660300Y-35192801D01*
X50632364Y-35234187D01*
X50606331Y-35364000D01*
X50606331Y-36264000D01*
X50630759Y-36389904D01*
X50659600Y-36433808D01*
X50659600Y-36834961D01*
X50627280Y-36834961D01*
X50501376Y-36859389D01*
X50390718Y-36932080D01*
X50316644Y-37041817D01*
X50290611Y-37171630D01*
X50290611Y-37570410D01*
X50292376Y-37579510D01*
X50132019Y-37739867D01*
X50043080Y-37954585D01*
X50043080Y-38024435D01*
X50189130Y-38170485D01*
X50777140Y-38170485D01*
X50777140Y-38072380D01*
X51076860Y-38072380D01*
X51076860Y-38170485D01*
X51664870Y-38170485D01*
X51746355Y-38089000D01*
X52593000Y-38089000D01*
X52593000Y-38069000D01*
X52948600Y-38069000D01*
X52948600Y-38089000D01*
X53933950Y-38089000D01*
X54080000Y-37942950D01*
X54080000Y-37750596D01*
X54040679Y-37655668D01*
X54101291Y-37746379D01*
X54456211Y-38101299D01*
X54456211Y-38190170D01*
X54480639Y-38316074D01*
X54553330Y-38426732D01*
X54560875Y-38431824D01*
G36*
X56482400Y-47039600D02*
X56462400Y-47039600D01*
X56462400Y-47059600D01*
X56106800Y-47059600D01*
X56106800Y-47039600D01*
X56086800Y-47039600D01*
X56086800Y-46684000D01*
X56106800Y-46684000D01*
X56106800Y-46664000D01*
X56462400Y-46664000D01*
X56462400Y-46684000D01*
X56482400Y-46684000D01*
X56482400Y-47039600D01*
X56482400Y-47039600D01*
G37*
X56482400Y-47039600D02*
X56462400Y-47039600D01*
X56462400Y-47059600D01*
X56106800Y-47059600D01*
X56106800Y-47039600D01*
X56086800Y-47039600D01*
X56086800Y-46684000D01*
X56106800Y-46684000D01*
X56106800Y-46664000D01*
X56462400Y-46664000D01*
X56462400Y-46684000D01*
X56482400Y-46684000D01*
X56482400Y-47039600D01*
G36*
X56945736Y-42346569D02*
X56900615Y-42327880D01*
X56830765Y-42327880D01*
X56684715Y-42473930D01*
X56684715Y-43061940D01*
X56782820Y-43061940D01*
X56782820Y-43361660D01*
X56684715Y-43361660D01*
X56684715Y-43409600D01*
X56485325Y-43409600D01*
X56485325Y-43361660D01*
X56387220Y-43361660D01*
X56387220Y-43061940D01*
X56485325Y-43061940D01*
X56485325Y-42473930D01*
X56339275Y-42327880D01*
X56269425Y-42327880D01*
X56054707Y-42416819D01*
X55890369Y-42581158D01*
X55812306Y-42769617D01*
X55779269Y-42747543D01*
X55779269Y-42747542D01*
X55779269Y-42503800D01*
X55754841Y-42377896D01*
X55682150Y-42267238D01*
X55572413Y-42193164D01*
X55442600Y-42167131D01*
X54907114Y-42167131D01*
X54748523Y-42008539D01*
X54533805Y-41919600D01*
X54426150Y-41919600D01*
X54280100Y-42065650D01*
X54280100Y-42926000D01*
X54340400Y-42926000D01*
X54340400Y-43281600D01*
X54280100Y-43281600D01*
X54280100Y-43301600D01*
X54005100Y-43301600D01*
X54005100Y-43281600D01*
X53944800Y-43281600D01*
X53944800Y-42926000D01*
X54005100Y-42926000D01*
X54005100Y-42065650D01*
X53859050Y-41919600D01*
X53751395Y-41919600D01*
X53536677Y-42008539D01*
X53388085Y-42157131D01*
X52842600Y-42157131D01*
X52716696Y-42181559D01*
X52644650Y-42228885D01*
X52611261Y-42148277D01*
X52446922Y-41983939D01*
X52232204Y-41895000D01*
X52112050Y-41895000D01*
X51966000Y-42041050D01*
X51966000Y-42579200D01*
X52013800Y-42579200D01*
X52013800Y-42779200D01*
X51966000Y-42779200D01*
X51966000Y-42877000D01*
X51666000Y-42877000D01*
X51666000Y-42779200D01*
X51666000Y-42579200D01*
X51666000Y-42041050D01*
X51519950Y-41895000D01*
X51399796Y-41895000D01*
X51185078Y-41983939D01*
X51020739Y-42148277D01*
X50931800Y-42362995D01*
X50931800Y-42433150D01*
X51077850Y-42579200D01*
X51666000Y-42579200D01*
X51666000Y-42779200D01*
X51077850Y-42779200D01*
X50931800Y-42925250D01*
X50931800Y-42995405D01*
X51020739Y-43210123D01*
X51181082Y-43370465D01*
X51179331Y-43379200D01*
X51179331Y-43779200D01*
X51203759Y-43905104D01*
X51276450Y-44015762D01*
X51386187Y-44089836D01*
X51416991Y-44096013D01*
X51417010Y-44145455D01*
X51387668Y-44164730D01*
X51313594Y-44274467D01*
X51287561Y-44404280D01*
X51287561Y-45003720D01*
X51311989Y-45129624D01*
X51384680Y-45240282D01*
X51494417Y-45314356D01*
X51624230Y-45340389D01*
X52023010Y-45340389D01*
X52148914Y-45315961D01*
X52259572Y-45243270D01*
X52272865Y-45223575D01*
X52283840Y-45240282D01*
X52331644Y-45272550D01*
X52247982Y-45307119D01*
X52030682Y-45524040D01*
X51912935Y-45807606D01*
X51912667Y-46114647D01*
X52029919Y-46398418D01*
X52193110Y-46561894D01*
X52030682Y-46724040D01*
X51912935Y-47007606D01*
X51912667Y-47314647D01*
X52029919Y-47598418D01*
X52168110Y-47736851D01*
X52030682Y-47874040D01*
X51912935Y-48157606D01*
X51912667Y-48464647D01*
X52029919Y-48748418D01*
X52246840Y-48965718D01*
X52530406Y-49083465D01*
X52837447Y-49083733D01*
X53121218Y-48966481D01*
X53338518Y-48749560D01*
X53393063Y-48618200D01*
X53711742Y-48618200D01*
X53131811Y-49198131D01*
X53005800Y-49198131D01*
X52879896Y-49222559D01*
X52769238Y-49295250D01*
X52756136Y-49314658D01*
X52745350Y-49298238D01*
X52635613Y-49224164D01*
X52505800Y-49198131D01*
X52105800Y-49198131D01*
X51979896Y-49222559D01*
X51869238Y-49295250D01*
X51795164Y-49404987D01*
X51769131Y-49534800D01*
X51769131Y-50083522D01*
X51732815Y-50068480D01*
X51662965Y-50068480D01*
X51516915Y-50214530D01*
X51516915Y-50802540D01*
X51615020Y-50802540D01*
X51615020Y-51102260D01*
X51516915Y-51102260D01*
X51516915Y-51690270D01*
X51662965Y-51836320D01*
X51732815Y-51836320D01*
X51947533Y-51747381D01*
X52107939Y-51586973D01*
X52116990Y-51588789D01*
X52515770Y-51588789D01*
X52641674Y-51564361D01*
X52682139Y-51537778D01*
X52736119Y-51668418D01*
X52953040Y-51885718D01*
X53090990Y-51943000D01*
X51317525Y-51943000D01*
X51317525Y-51690270D01*
X51317525Y-51102260D01*
X51317525Y-50802540D01*
X51317525Y-50214530D01*
X51171475Y-50068480D01*
X51101625Y-50068480D01*
X50886907Y-50157419D01*
X50722569Y-50321758D01*
X50633630Y-50536476D01*
X50633630Y-50656490D01*
X50779680Y-50802540D01*
X51317525Y-50802540D01*
X51317525Y-51102260D01*
X50779680Y-51102260D01*
X50633630Y-51248310D01*
X50633630Y-51368324D01*
X50722569Y-51583042D01*
X50886907Y-51747381D01*
X51101625Y-51836320D01*
X51171475Y-51836320D01*
X51317525Y-51690270D01*
X51317525Y-51943000D01*
X50444400Y-51943000D01*
X50444400Y-41603763D01*
X50600589Y-41538000D01*
X50613890Y-41529000D01*
X52438300Y-41529000D01*
X52622983Y-41492264D01*
X52779550Y-41387650D01*
X53114826Y-41052372D01*
X53114830Y-41052370D01*
X53114830Y-41052369D01*
X53219444Y-40895803D01*
X53256180Y-40711120D01*
X53256181Y-40711120D01*
X53256180Y-40711114D01*
X53256180Y-40586843D01*
X53432849Y-40585979D01*
X54483445Y-41636575D01*
X54483446Y-41636576D01*
X54535399Y-41671289D01*
X54640012Y-41741189D01*
X54640013Y-41741189D01*
X54824695Y-41777926D01*
X54824696Y-41777925D01*
X54824700Y-41777924D01*
X56532780Y-41777921D01*
X56532780Y-41781051D01*
X56569516Y-41965734D01*
X56674130Y-42122301D01*
X56803076Y-42251246D01*
X56803079Y-42251250D01*
X56945736Y-42346569D01*
X56945736Y-42346569D01*
G37*
X56945736Y-42346569D02*
X56900615Y-42327880D01*
X56830765Y-42327880D01*
X56684715Y-42473930D01*
X56684715Y-43061940D01*
X56782820Y-43061940D01*
X56782820Y-43361660D01*
X56684715Y-43361660D01*
X56684715Y-43409600D01*
X56485325Y-43409600D01*
X56485325Y-43361660D01*
X56387220Y-43361660D01*
X56387220Y-43061940D01*
X56485325Y-43061940D01*
X56485325Y-42473930D01*
X56339275Y-42327880D01*
X56269425Y-42327880D01*
X56054707Y-42416819D01*
X55890369Y-42581158D01*
X55812306Y-42769617D01*
X55779269Y-42747543D01*
X55779269Y-42747542D01*
X55779269Y-42503800D01*
X55754841Y-42377896D01*
X55682150Y-42267238D01*
X55572413Y-42193164D01*
X55442600Y-42167131D01*
X54907114Y-42167131D01*
X54748523Y-42008539D01*
X54533805Y-41919600D01*
X54426150Y-41919600D01*
X54280100Y-42065650D01*
X54280100Y-42926000D01*
X54340400Y-42926000D01*
X54340400Y-43281600D01*
X54280100Y-43281600D01*
X54280100Y-43301600D01*
X54005100Y-43301600D01*
X54005100Y-43281600D01*
X53944800Y-43281600D01*
X53944800Y-42926000D01*
X54005100Y-42926000D01*
X54005100Y-42065650D01*
X53859050Y-41919600D01*
X53751395Y-41919600D01*
X53536677Y-42008539D01*
X53388085Y-42157131D01*
X52842600Y-42157131D01*
X52716696Y-42181559D01*
X52644650Y-42228885D01*
X52611261Y-42148277D01*
X52446922Y-41983939D01*
X52232204Y-41895000D01*
X52112050Y-41895000D01*
X51966000Y-42041050D01*
X51966000Y-42579200D01*
X52013800Y-42579200D01*
X52013800Y-42779200D01*
X51966000Y-42779200D01*
X51966000Y-42877000D01*
X51666000Y-42877000D01*
X51666000Y-42779200D01*
X51666000Y-42579200D01*
X51666000Y-42041050D01*
X51519950Y-41895000D01*
X51399796Y-41895000D01*
X51185078Y-41983939D01*
X51020739Y-42148277D01*
X50931800Y-42362995D01*
X50931800Y-42433150D01*
X51077850Y-42579200D01*
X51666000Y-42579200D01*
X51666000Y-42779200D01*
X51077850Y-42779200D01*
X50931800Y-42925250D01*
X50931800Y-42995405D01*
X51020739Y-43210123D01*
X51181082Y-43370465D01*
X51179331Y-43379200D01*
X51179331Y-43779200D01*
X51203759Y-43905104D01*
X51276450Y-44015762D01*
X51386187Y-44089836D01*
X51416991Y-44096013D01*
X51417010Y-44145455D01*
X51387668Y-44164730D01*
X51313594Y-44274467D01*
X51287561Y-44404280D01*
X51287561Y-45003720D01*
X51311989Y-45129624D01*
X51384680Y-45240282D01*
X51494417Y-45314356D01*
X51624230Y-45340389D01*
X52023010Y-45340389D01*
X52148914Y-45315961D01*
X52259572Y-45243270D01*
X52272865Y-45223575D01*
X52283840Y-45240282D01*
X52331644Y-45272550D01*
X52247982Y-45307119D01*
X52030682Y-45524040D01*
X51912935Y-45807606D01*
X51912667Y-46114647D01*
X52029919Y-46398418D01*
X52193110Y-46561894D01*
X52030682Y-46724040D01*
X51912935Y-47007606D01*
X51912667Y-47314647D01*
X52029919Y-47598418D01*
X52168110Y-47736851D01*
X52030682Y-47874040D01*
X51912935Y-48157606D01*
X51912667Y-48464647D01*
X52029919Y-48748418D01*
X52246840Y-48965718D01*
X52530406Y-49083465D01*
X52837447Y-49083733D01*
X53121218Y-48966481D01*
X53338518Y-48749560D01*
X53393063Y-48618200D01*
X53711742Y-48618200D01*
X53131811Y-49198131D01*
X53005800Y-49198131D01*
X52879896Y-49222559D01*
X52769238Y-49295250D01*
X52756136Y-49314658D01*
X52745350Y-49298238D01*
X52635613Y-49224164D01*
X52505800Y-49198131D01*
X52105800Y-49198131D01*
X51979896Y-49222559D01*
X51869238Y-49295250D01*
X51795164Y-49404987D01*
X51769131Y-49534800D01*
X51769131Y-50083522D01*
X51732815Y-50068480D01*
X51662965Y-50068480D01*
X51516915Y-50214530D01*
X51516915Y-50802540D01*
X51615020Y-50802540D01*
X51615020Y-51102260D01*
X51516915Y-51102260D01*
X51516915Y-51690270D01*
X51662965Y-51836320D01*
X51732815Y-51836320D01*
X51947533Y-51747381D01*
X52107939Y-51586973D01*
X52116990Y-51588789D01*
X52515770Y-51588789D01*
X52641674Y-51564361D01*
X52682139Y-51537778D01*
X52736119Y-51668418D01*
X52953040Y-51885718D01*
X53090990Y-51943000D01*
X51317525Y-51943000D01*
X51317525Y-51690270D01*
X51317525Y-51102260D01*
X51317525Y-50802540D01*
X51317525Y-50214530D01*
X51171475Y-50068480D01*
X51101625Y-50068480D01*
X50886907Y-50157419D01*
X50722569Y-50321758D01*
X50633630Y-50536476D01*
X50633630Y-50656490D01*
X50779680Y-50802540D01*
X51317525Y-50802540D01*
X51317525Y-51102260D01*
X50779680Y-51102260D01*
X50633630Y-51248310D01*
X50633630Y-51368324D01*
X50722569Y-51583042D01*
X50886907Y-51747381D01*
X51101625Y-51836320D01*
X51171475Y-51836320D01*
X51317525Y-51690270D01*
X51317525Y-51943000D01*
X50444400Y-51943000D01*
X50444400Y-41603763D01*
X50600589Y-41538000D01*
X50613890Y-41529000D01*
X52438300Y-41529000D01*
X52622983Y-41492264D01*
X52779550Y-41387650D01*
X53114826Y-41052372D01*
X53114830Y-41052370D01*
X53114830Y-41052369D01*
X53219444Y-40895803D01*
X53256180Y-40711120D01*
X53256181Y-40711120D01*
X53256180Y-40711114D01*
X53256180Y-40586843D01*
X53432849Y-40585979D01*
X54483445Y-41636575D01*
X54483446Y-41636576D01*
X54535399Y-41671289D01*
X54640012Y-41741189D01*
X54640013Y-41741189D01*
X54824695Y-41777926D01*
X54824696Y-41777925D01*
X54824700Y-41777924D01*
X56532780Y-41777921D01*
X56532780Y-41781051D01*
X56569516Y-41965734D01*
X56674130Y-42122301D01*
X56803076Y-42251246D01*
X56803079Y-42251250D01*
X56945736Y-42346569D01*
G36*
X57017344Y-50271680D02*
X56913778Y-50271680D01*
X56913778Y-50339623D01*
X56845835Y-50271680D01*
X56775985Y-50271680D01*
X56561267Y-50360619D01*
X56490196Y-50431689D01*
X56479788Y-50416112D01*
X56241000Y-50177324D01*
X56241000Y-49414200D01*
X56241000Y-49346066D01*
X56254651Y-49325636D01*
X56284600Y-49175072D01*
X56314549Y-49325636D01*
X56328200Y-49346066D01*
X56328200Y-49414200D01*
X56346830Y-49507860D01*
X56346830Y-49696498D01*
X56456494Y-49824836D01*
X56547907Y-49815409D01*
X56555952Y-49810288D01*
X57017344Y-50271680D01*
X57017344Y-50271680D01*
G37*
X57017344Y-50271680D02*
X56913778Y-50271680D01*
X56913778Y-50339623D01*
X56845835Y-50271680D01*
X56775985Y-50271680D01*
X56561267Y-50360619D01*
X56490196Y-50431689D01*
X56479788Y-50416112D01*
X56241000Y-50177324D01*
X56241000Y-49414200D01*
X56241000Y-49346066D01*
X56254651Y-49325636D01*
X56284600Y-49175072D01*
X56314549Y-49325636D01*
X56328200Y-49346066D01*
X56328200Y-49414200D01*
X56346830Y-49507860D01*
X56346830Y-49696498D01*
X56456494Y-49824836D01*
X56547907Y-49815409D01*
X56555952Y-49810288D01*
X57017344Y-50271680D01*
G36*
X58278058Y-36977039D02*
X58175438Y-37044450D01*
X58101364Y-37154187D01*
X58075331Y-37284000D01*
X58075331Y-37302576D01*
X57964070Y-37191315D01*
X57376060Y-37191315D01*
X57376060Y-37289420D01*
X57076340Y-37289420D01*
X57076340Y-37191315D01*
X56897270Y-37191315D01*
X56488330Y-37191315D01*
X56309260Y-37191315D01*
X56309260Y-37289420D01*
X56009540Y-37289420D01*
X56009540Y-37191315D01*
X56009540Y-36991925D01*
X56009540Y-36454080D01*
X55863490Y-36308030D01*
X55743476Y-36308030D01*
X55626000Y-36356690D01*
X55508524Y-36308030D01*
X55388510Y-36308030D01*
X55242460Y-36454080D01*
X55242460Y-36991925D01*
X55421530Y-36991925D01*
X55830470Y-36991925D01*
X56009540Y-36991925D01*
X56009540Y-37191315D01*
X55830470Y-37191315D01*
X55421530Y-37191315D01*
X55242460Y-37191315D01*
X55242460Y-37289420D01*
X54942740Y-37289420D01*
X54942740Y-37191315D01*
X54894800Y-37191315D01*
X54894800Y-36991925D01*
X54942740Y-36991925D01*
X54942740Y-36454080D01*
X54881780Y-36393120D01*
X54881780Y-36308030D01*
X54881780Y-36093804D01*
X56322162Y-34653422D01*
X56393080Y-34724340D01*
X56930925Y-34724340D01*
X56930925Y-34136330D01*
X56885089Y-34090494D01*
X57282790Y-33692794D01*
X57381899Y-33544468D01*
X57382075Y-33543578D01*
X57472580Y-33634240D01*
X57472580Y-34042622D01*
X57346215Y-33990280D01*
X57276365Y-33990280D01*
X57130315Y-34136330D01*
X57130315Y-34724340D01*
X57228420Y-34724340D01*
X57228420Y-35024060D01*
X57130315Y-35024060D01*
X57130315Y-35304730D01*
X57130315Y-35612070D01*
X57130315Y-35892740D01*
X57228420Y-35892740D01*
X57228420Y-36192460D01*
X57130315Y-36192460D01*
X57130315Y-36240400D01*
X56930925Y-36240400D01*
X56930925Y-36192460D01*
X56930925Y-35892740D01*
X56930925Y-35612070D01*
X56930925Y-35304730D01*
X56930925Y-35024060D01*
X56393080Y-35024060D01*
X56247030Y-35170110D01*
X56247030Y-35290124D01*
X56316732Y-35458400D01*
X56247030Y-35626676D01*
X56247030Y-35746690D01*
X56393080Y-35892740D01*
X56930925Y-35892740D01*
X56930925Y-36192460D01*
X56393080Y-36192460D01*
X56247030Y-36338510D01*
X56247030Y-36458524D01*
X56309260Y-36608760D01*
X56309260Y-36991925D01*
X56488330Y-36991925D01*
X56897270Y-36991925D01*
X57076340Y-36991925D01*
X57076340Y-36926520D01*
X57208422Y-36926520D01*
X57208422Y-36893820D01*
X57243665Y-36893820D01*
X57276365Y-36926520D01*
X57346215Y-36926520D01*
X57376060Y-36914157D01*
X57376060Y-36991925D01*
X57964070Y-36991925D01*
X58110120Y-36845875D01*
X58110120Y-36776025D01*
X58069926Y-36678989D01*
X58074601Y-36678989D01*
X58141041Y-36839783D01*
X58278058Y-36977039D01*
X58278058Y-36977039D01*
G37*
X58278058Y-36977039D02*
X58175438Y-37044450D01*
X58101364Y-37154187D01*
X58075331Y-37284000D01*
X58075331Y-37302576D01*
X57964070Y-37191315D01*
X57376060Y-37191315D01*
X57376060Y-37289420D01*
X57076340Y-37289420D01*
X57076340Y-37191315D01*
X56897270Y-37191315D01*
X56488330Y-37191315D01*
X56309260Y-37191315D01*
X56309260Y-37289420D01*
X56009540Y-37289420D01*
X56009540Y-37191315D01*
X56009540Y-36991925D01*
X56009540Y-36454080D01*
X55863490Y-36308030D01*
X55743476Y-36308030D01*
X55626000Y-36356690D01*
X55508524Y-36308030D01*
X55388510Y-36308030D01*
X55242460Y-36454080D01*
X55242460Y-36991925D01*
X55421530Y-36991925D01*
X55830470Y-36991925D01*
X56009540Y-36991925D01*
X56009540Y-37191315D01*
X55830470Y-37191315D01*
X55421530Y-37191315D01*
X55242460Y-37191315D01*
X55242460Y-37289420D01*
X54942740Y-37289420D01*
X54942740Y-37191315D01*
X54894800Y-37191315D01*
X54894800Y-36991925D01*
X54942740Y-36991925D01*
X54942740Y-36454080D01*
X54881780Y-36393120D01*
X54881780Y-36308030D01*
X54881780Y-36093804D01*
X56322162Y-34653422D01*
X56393080Y-34724340D01*
X56930925Y-34724340D01*
X56930925Y-34136330D01*
X56885089Y-34090494D01*
X57282790Y-33692794D01*
X57381899Y-33544468D01*
X57382075Y-33543578D01*
X57472580Y-33634240D01*
X57472580Y-34042622D01*
X57346215Y-33990280D01*
X57276365Y-33990280D01*
X57130315Y-34136330D01*
X57130315Y-34724340D01*
X57228420Y-34724340D01*
X57228420Y-35024060D01*
X57130315Y-35024060D01*
X57130315Y-35304730D01*
X57130315Y-35612070D01*
X57130315Y-35892740D01*
X57228420Y-35892740D01*
X57228420Y-36192460D01*
X57130315Y-36192460D01*
X57130315Y-36240400D01*
X56930925Y-36240400D01*
X56930925Y-36192460D01*
X56930925Y-35892740D01*
X56930925Y-35612070D01*
X56930925Y-35304730D01*
X56930925Y-35024060D01*
X56393080Y-35024060D01*
X56247030Y-35170110D01*
X56247030Y-35290124D01*
X56316732Y-35458400D01*
X56247030Y-35626676D01*
X56247030Y-35746690D01*
X56393080Y-35892740D01*
X56930925Y-35892740D01*
X56930925Y-36192460D01*
X56393080Y-36192460D01*
X56247030Y-36338510D01*
X56247030Y-36458524D01*
X56309260Y-36608760D01*
X56309260Y-36991925D01*
X56488330Y-36991925D01*
X56897270Y-36991925D01*
X57076340Y-36991925D01*
X57076340Y-36926520D01*
X57208422Y-36926520D01*
X57208422Y-36893820D01*
X57243665Y-36893820D01*
X57276365Y-36926520D01*
X57346215Y-36926520D01*
X57376060Y-36914157D01*
X57376060Y-36991925D01*
X57964070Y-36991925D01*
X58110120Y-36845875D01*
X58110120Y-36776025D01*
X58069926Y-36678989D01*
X58074601Y-36678989D01*
X58141041Y-36839783D01*
X58278058Y-36977039D01*
G36*
X60555196Y-41070669D02*
X60516706Y-41109092D01*
X60414017Y-41356395D01*
X60413899Y-41490899D01*
X59649500Y-41490899D01*
X59649500Y-41172150D01*
X59649500Y-40584000D01*
X59123850Y-40584000D01*
X58977800Y-40730050D01*
X58977800Y-40850205D01*
X59066739Y-41064923D01*
X59231078Y-41229261D01*
X59445796Y-41318200D01*
X59503450Y-41318200D01*
X59649500Y-41172150D01*
X59649500Y-41490899D01*
X59237879Y-41490899D01*
X59082356Y-41521834D01*
X58950511Y-41609931D01*
X58712154Y-41848287D01*
X58712217Y-41776699D01*
X58609959Y-41529217D01*
X58420778Y-41339706D01*
X58173475Y-41237017D01*
X57905699Y-41236783D01*
X57658217Y-41339041D01*
X57569703Y-41427400D01*
X57531000Y-41427400D01*
X57497980Y-41427400D01*
X57497980Y-41295320D01*
X57497980Y-41295319D01*
X57497980Y-41160963D01*
X57525406Y-41120333D01*
X57551439Y-40990520D01*
X57551439Y-40391080D01*
X57527011Y-40265176D01*
X57454320Y-40154518D01*
X57428229Y-40136906D01*
X57448562Y-40123550D01*
X57522636Y-40013813D01*
X57526684Y-39993624D01*
X57580442Y-39982931D01*
X57580443Y-39982931D01*
X57720529Y-39889329D01*
X58075331Y-39534527D01*
X58075331Y-39584000D01*
X58099759Y-39709904D01*
X58172450Y-39820562D01*
X58282187Y-39894636D01*
X58412000Y-39920669D01*
X59012000Y-39920669D01*
X59018557Y-39919396D01*
X58977800Y-40017795D01*
X58977800Y-40137950D01*
X59123850Y-40284000D01*
X59649500Y-40284000D01*
X59649500Y-40236200D01*
X59824500Y-40236200D01*
X59824500Y-40284000D01*
X59875331Y-40284000D01*
X59875331Y-40584000D01*
X59824500Y-40584000D01*
X59824500Y-41172150D01*
X59970550Y-41318200D01*
X60028204Y-41318200D01*
X60242922Y-41229261D01*
X60401514Y-41070669D01*
X60555196Y-41070669D01*
X60555196Y-41070669D01*
G37*
X60555196Y-41070669D02*
X60516706Y-41109092D01*
X60414017Y-41356395D01*
X60413899Y-41490899D01*
X59649500Y-41490899D01*
X59649500Y-41172150D01*
X59649500Y-40584000D01*
X59123850Y-40584000D01*
X58977800Y-40730050D01*
X58977800Y-40850205D01*
X59066739Y-41064923D01*
X59231078Y-41229261D01*
X59445796Y-41318200D01*
X59503450Y-41318200D01*
X59649500Y-41172150D01*
X59649500Y-41490899D01*
X59237879Y-41490899D01*
X59082356Y-41521834D01*
X58950511Y-41609931D01*
X58712154Y-41848287D01*
X58712217Y-41776699D01*
X58609959Y-41529217D01*
X58420778Y-41339706D01*
X58173475Y-41237017D01*
X57905699Y-41236783D01*
X57658217Y-41339041D01*
X57569703Y-41427400D01*
X57531000Y-41427400D01*
X57497980Y-41427400D01*
X57497980Y-41295320D01*
X57497980Y-41295319D01*
X57497980Y-41160963D01*
X57525406Y-41120333D01*
X57551439Y-40990520D01*
X57551439Y-40391080D01*
X57527011Y-40265176D01*
X57454320Y-40154518D01*
X57428229Y-40136906D01*
X57448562Y-40123550D01*
X57522636Y-40013813D01*
X57526684Y-39993624D01*
X57580442Y-39982931D01*
X57580443Y-39982931D01*
X57720529Y-39889329D01*
X58075331Y-39534527D01*
X58075331Y-39584000D01*
X58099759Y-39709904D01*
X58172450Y-39820562D01*
X58282187Y-39894636D01*
X58412000Y-39920669D01*
X59012000Y-39920669D01*
X59018557Y-39919396D01*
X58977800Y-40017795D01*
X58977800Y-40137950D01*
X59123850Y-40284000D01*
X59649500Y-40284000D01*
X59649500Y-40236200D01*
X59824500Y-40236200D01*
X59824500Y-40284000D01*
X59875331Y-40284000D01*
X59875331Y-40584000D01*
X59824500Y-40584000D01*
X59824500Y-41172150D01*
X59970550Y-41318200D01*
X60028204Y-41318200D01*
X60242922Y-41229261D01*
X60401514Y-41070669D01*
X60555196Y-41070669D01*
G36*
X60909800Y-38611800D02*
X60889800Y-38611800D01*
X60889800Y-38631800D01*
X60534200Y-38631800D01*
X60534200Y-38611800D01*
X60514200Y-38611800D01*
X60514200Y-38256200D01*
X60534200Y-38256200D01*
X60534200Y-38236200D01*
X60889800Y-38236200D01*
X60889800Y-38256200D01*
X60909800Y-38256200D01*
X60909800Y-38611800D01*
X60909800Y-38611800D01*
G37*
X60909800Y-38611800D02*
X60889800Y-38611800D01*
X60889800Y-38631800D01*
X60534200Y-38631800D01*
X60534200Y-38611800D01*
X60514200Y-38611800D01*
X60514200Y-38256200D01*
X60534200Y-38256200D01*
X60534200Y-38236200D01*
X60889800Y-38236200D01*
X60889800Y-38256200D01*
X60909800Y-38256200D01*
X60909800Y-38611800D01*
G36*
X61352380Y-48694681D02*
X61258400Y-48694681D01*
X61132496Y-48719109D01*
X61021838Y-48791800D01*
X60947764Y-48901537D01*
X60921731Y-49031350D01*
X60921731Y-49831450D01*
X60946159Y-49957354D01*
X61018850Y-50068012D01*
X61067226Y-50100667D01*
X61053632Y-50114262D01*
X60974544Y-50232624D01*
X60974543Y-50232624D01*
X60915096Y-50244159D01*
X60804438Y-50316850D01*
X60730364Y-50426587D01*
X60704331Y-50556400D01*
X60704331Y-50956400D01*
X60728759Y-51082304D01*
X60801450Y-51192962D01*
X60820858Y-51206063D01*
X60804438Y-51216850D01*
X60730364Y-51326587D01*
X60704331Y-51456400D01*
X60704331Y-51856400D01*
X60728759Y-51982304D01*
X60759983Y-52029837D01*
X60694421Y-52095400D01*
X55195618Y-52095400D01*
X54947820Y-51847602D01*
X54947820Y-51205941D01*
X54997985Y-51226720D01*
X55067835Y-51226720D01*
X55213885Y-51080670D01*
X55213885Y-50492660D01*
X55115780Y-50492660D01*
X55115780Y-50192940D01*
X55213885Y-50192940D01*
X55213885Y-50145000D01*
X55413275Y-50145000D01*
X55413275Y-50192940D01*
X55428200Y-50192940D01*
X55428200Y-50345660D01*
X55457439Y-50492660D01*
X55413275Y-50492660D01*
X55413275Y-51080670D01*
X55559325Y-51226720D01*
X55629175Y-51226720D01*
X55656361Y-51215459D01*
X55656361Y-51455320D01*
X55680789Y-51581224D01*
X55753480Y-51691882D01*
X55863217Y-51765956D01*
X55993030Y-51791989D01*
X56391810Y-51791989D01*
X56400910Y-51790223D01*
X56561267Y-51950581D01*
X56775985Y-52039520D01*
X56845835Y-52039520D01*
X56991885Y-51893470D01*
X56991885Y-51305460D01*
X56893780Y-51305460D01*
X56893780Y-51005740D01*
X56991885Y-51005740D01*
X56991885Y-50957800D01*
X57191275Y-50957800D01*
X57191275Y-51005740D01*
X57289380Y-51005740D01*
X57289380Y-51305460D01*
X57191275Y-51305460D01*
X57191275Y-51893470D01*
X57337325Y-52039520D01*
X57407175Y-52039520D01*
X57621893Y-51950581D01*
X57786231Y-51786242D01*
X57875170Y-51571524D01*
X57875170Y-51466204D01*
X58014135Y-51605169D01*
X58145980Y-51693266D01*
X58301503Y-51724201D01*
X58944897Y-51724201D01*
X58994170Y-51714400D01*
X59058728Y-51714400D01*
X59060719Y-51719218D01*
X59277640Y-51936518D01*
X59561206Y-52054265D01*
X59868247Y-52054533D01*
X60152018Y-51937281D01*
X60369318Y-51720360D01*
X60487065Y-51436794D01*
X60487333Y-51129753D01*
X60370081Y-50845982D01*
X60209967Y-50685588D01*
X60394718Y-50501160D01*
X60512465Y-50217594D01*
X60512733Y-49910553D01*
X60395481Y-49626782D01*
X60197289Y-49428244D01*
X60394718Y-49231160D01*
X60512465Y-48947594D01*
X60512733Y-48640553D01*
X60395481Y-48356782D01*
X60178560Y-48139482D01*
X59894994Y-48021735D01*
X59766513Y-48021622D01*
X59820321Y-47967814D01*
X60051901Y-47968017D01*
X60299383Y-47865759D01*
X60488894Y-47676578D01*
X60513120Y-47618234D01*
X61352380Y-48457494D01*
X61352380Y-48694681D01*
X61352380Y-48694681D01*
G37*
X61352380Y-48694681D02*
X61258400Y-48694681D01*
X61132496Y-48719109D01*
X61021838Y-48791800D01*
X60947764Y-48901537D01*
X60921731Y-49031350D01*
X60921731Y-49831450D01*
X60946159Y-49957354D01*
X61018850Y-50068012D01*
X61067226Y-50100667D01*
X61053632Y-50114262D01*
X60974544Y-50232624D01*
X60974543Y-50232624D01*
X60915096Y-50244159D01*
X60804438Y-50316850D01*
X60730364Y-50426587D01*
X60704331Y-50556400D01*
X60704331Y-50956400D01*
X60728759Y-51082304D01*
X60801450Y-51192962D01*
X60820858Y-51206063D01*
X60804438Y-51216850D01*
X60730364Y-51326587D01*
X60704331Y-51456400D01*
X60704331Y-51856400D01*
X60728759Y-51982304D01*
X60759983Y-52029837D01*
X60694421Y-52095400D01*
X55195618Y-52095400D01*
X54947820Y-51847602D01*
X54947820Y-51205941D01*
X54997985Y-51226720D01*
X55067835Y-51226720D01*
X55213885Y-51080670D01*
X55213885Y-50492660D01*
X55115780Y-50492660D01*
X55115780Y-50192940D01*
X55213885Y-50192940D01*
X55213885Y-50145000D01*
X55413275Y-50145000D01*
X55413275Y-50192940D01*
X55428200Y-50192940D01*
X55428200Y-50345660D01*
X55457439Y-50492660D01*
X55413275Y-50492660D01*
X55413275Y-51080670D01*
X55559325Y-51226720D01*
X55629175Y-51226720D01*
X55656361Y-51215459D01*
X55656361Y-51455320D01*
X55680789Y-51581224D01*
X55753480Y-51691882D01*
X55863217Y-51765956D01*
X55993030Y-51791989D01*
X56391810Y-51791989D01*
X56400910Y-51790223D01*
X56561267Y-51950581D01*
X56775985Y-52039520D01*
X56845835Y-52039520D01*
X56991885Y-51893470D01*
X56991885Y-51305460D01*
X56893780Y-51305460D01*
X56893780Y-51005740D01*
X56991885Y-51005740D01*
X56991885Y-50957800D01*
X57191275Y-50957800D01*
X57191275Y-51005740D01*
X57289380Y-51005740D01*
X57289380Y-51305460D01*
X57191275Y-51305460D01*
X57191275Y-51893470D01*
X57337325Y-52039520D01*
X57407175Y-52039520D01*
X57621893Y-51950581D01*
X57786231Y-51786242D01*
X57875170Y-51571524D01*
X57875170Y-51466204D01*
X58014135Y-51605169D01*
X58145980Y-51693266D01*
X58301503Y-51724201D01*
X58944897Y-51724201D01*
X58994170Y-51714400D01*
X59058728Y-51714400D01*
X59060719Y-51719218D01*
X59277640Y-51936518D01*
X59561206Y-52054265D01*
X59868247Y-52054533D01*
X60152018Y-51937281D01*
X60369318Y-51720360D01*
X60487065Y-51436794D01*
X60487333Y-51129753D01*
X60370081Y-50845982D01*
X60209967Y-50685588D01*
X60394718Y-50501160D01*
X60512465Y-50217594D01*
X60512733Y-49910553D01*
X60395481Y-49626782D01*
X60197289Y-49428244D01*
X60394718Y-49231160D01*
X60512465Y-48947594D01*
X60512733Y-48640553D01*
X60395481Y-48356782D01*
X60178560Y-48139482D01*
X59894994Y-48021735D01*
X59766513Y-48021622D01*
X59820321Y-47967814D01*
X60051901Y-47968017D01*
X60299383Y-47865759D01*
X60488894Y-47676578D01*
X60513120Y-47618234D01*
X61352380Y-48457494D01*
X61352380Y-48694681D01*
G36*
X62844131Y-29407800D02*
X62514595Y-29407800D01*
X62299877Y-29496739D01*
X62281816Y-29514800D01*
X62242650Y-29514800D01*
X62096600Y-29660850D01*
X62096600Y-29755085D01*
X62046600Y-29875796D01*
X62046600Y-29942450D01*
X61946950Y-29842800D01*
X61754595Y-29842800D01*
X61592469Y-29909954D01*
X61572241Y-29805696D01*
X61499550Y-29695038D01*
X61389813Y-29620964D01*
X61366400Y-29616268D01*
X61366400Y-28867100D01*
X61499701Y-28867217D01*
X61747183Y-28764959D01*
X61936694Y-28575778D01*
X62039383Y-28328475D01*
X62039617Y-28060699D01*
X61995949Y-27955016D01*
X62015750Y-27984650D01*
X62419146Y-28388046D01*
X62349877Y-28416739D01*
X62185539Y-28581078D01*
X62096600Y-28795796D01*
X62096600Y-29013150D01*
X62242650Y-29159200D01*
X62750800Y-29159200D01*
X62750800Y-29139200D01*
X62838200Y-29139200D01*
X62838200Y-29337000D01*
X62844131Y-29366816D01*
X62844131Y-29407800D01*
X62844131Y-29407800D01*
G37*
X62844131Y-29407800D02*
X62514595Y-29407800D01*
X62299877Y-29496739D01*
X62281816Y-29514800D01*
X62242650Y-29514800D01*
X62096600Y-29660850D01*
X62096600Y-29755085D01*
X62046600Y-29875796D01*
X62046600Y-29942450D01*
X61946950Y-29842800D01*
X61754595Y-29842800D01*
X61592469Y-29909954D01*
X61572241Y-29805696D01*
X61499550Y-29695038D01*
X61389813Y-29620964D01*
X61366400Y-29616268D01*
X61366400Y-28867100D01*
X61499701Y-28867217D01*
X61747183Y-28764959D01*
X61936694Y-28575778D01*
X62039383Y-28328475D01*
X62039617Y-28060699D01*
X61995949Y-27955016D01*
X62015750Y-27984650D01*
X62419146Y-28388046D01*
X62349877Y-28416739D01*
X62185539Y-28581078D01*
X62096600Y-28795796D01*
X62096600Y-29013150D01*
X62242650Y-29159200D01*
X62750800Y-29159200D01*
X62750800Y-29139200D01*
X62838200Y-29139200D01*
X62838200Y-29337000D01*
X62844131Y-29366816D01*
X62844131Y-29407800D01*
G36*
X64028600Y-30898932D02*
X64016360Y-30911171D01*
X63880240Y-30911620D01*
X63857099Y-30984720D01*
X63830800Y-30958421D01*
X63809548Y-30979672D01*
X63781360Y-30911620D01*
X63645239Y-30911171D01*
X63633000Y-30898932D01*
X63633000Y-30873379D01*
X63689379Y-30817000D01*
X63633000Y-30760621D01*
X63633000Y-30735068D01*
X63685371Y-30682696D01*
X63781360Y-30682380D01*
X63794882Y-30639661D01*
X63830800Y-30675579D01*
X63863767Y-30642611D01*
X63880240Y-30682380D01*
X63976228Y-30682696D01*
X64028600Y-30735068D01*
X64028600Y-30760621D01*
X63972221Y-30817000D01*
X64028600Y-30873379D01*
X64028600Y-30898932D01*
X64028600Y-30898932D01*
G37*
X64028600Y-30898932D02*
X64016360Y-30911171D01*
X63880240Y-30911620D01*
X63857099Y-30984720D01*
X63830800Y-30958421D01*
X63809548Y-30979672D01*
X63781360Y-30911620D01*
X63645239Y-30911171D01*
X63633000Y-30898932D01*
X63633000Y-30873379D01*
X63689379Y-30817000D01*
X63633000Y-30760621D01*
X63633000Y-30735068D01*
X63685371Y-30682696D01*
X63781360Y-30682380D01*
X63794882Y-30639661D01*
X63830800Y-30675579D01*
X63863767Y-30642611D01*
X63880240Y-30682380D01*
X63976228Y-30682696D01*
X64028600Y-30735068D01*
X64028600Y-30760621D01*
X63972221Y-30817000D01*
X64028600Y-30873379D01*
X64028600Y-30898932D01*
G36*
X65074554Y-47468669D02*
X64866782Y-47554519D01*
X64649482Y-47771440D01*
X64637202Y-47801012D01*
X64588613Y-47768214D01*
X64458800Y-47742181D01*
X63458040Y-47742181D01*
X63332136Y-47766609D01*
X63221478Y-47839300D01*
X63147404Y-47949037D01*
X63121371Y-48078850D01*
X63121371Y-48878950D01*
X63145799Y-49004854D01*
X63218490Y-49115512D01*
X63328227Y-49189586D01*
X63458040Y-49215619D01*
X64458800Y-49215619D01*
X64584704Y-49191191D01*
X64625059Y-49164681D01*
X64615931Y-49210200D01*
X64615931Y-49610200D01*
X64634116Y-49703929D01*
X64588613Y-49673214D01*
X64458800Y-49647181D01*
X63458040Y-49647181D01*
X63332136Y-49671609D01*
X63221478Y-49744300D01*
X63147404Y-49854037D01*
X63121371Y-49983850D01*
X63121371Y-50783950D01*
X63145799Y-50909854D01*
X63218490Y-51020512D01*
X63328227Y-51094586D01*
X63458040Y-51120619D01*
X64458800Y-51120619D01*
X64584704Y-51096191D01*
X64695362Y-51023500D01*
X64744600Y-50950556D01*
X64744600Y-51740620D01*
X64573282Y-51911640D01*
X64495860Y-52098091D01*
X64495860Y-51599933D01*
X64459811Y-51411059D01*
X64065558Y-51305698D01*
X63660996Y-51359230D01*
X63535869Y-51411059D01*
X63499820Y-51599933D01*
X63997840Y-52097953D01*
X64495860Y-51599933D01*
X64495860Y-52098091D01*
X64492498Y-52106188D01*
X64249287Y-52349400D01*
X64263429Y-52363542D01*
X64125172Y-52501800D01*
X63870508Y-52501800D01*
X63732250Y-52363542D01*
X63746393Y-52349400D01*
X63486437Y-52089444D01*
X63415541Y-51917862D01*
X63198620Y-51700562D01*
X62915054Y-51582815D01*
X62608013Y-51582547D01*
X62324242Y-51699799D01*
X62106942Y-51916720D01*
X61989195Y-52200286D01*
X61988931Y-52501800D01*
X61581178Y-52501800D01*
X61664289Y-52418690D01*
X61664289Y-52418689D01*
X61763398Y-52270363D01*
X61786145Y-52156001D01*
X61877562Y-52095950D01*
X61951636Y-51986213D01*
X61977669Y-51856400D01*
X61977669Y-51456400D01*
X61953241Y-51330496D01*
X61880550Y-51219838D01*
X61861141Y-51206736D01*
X61877562Y-51195950D01*
X61951636Y-51086213D01*
X61977669Y-50956400D01*
X61977669Y-50556400D01*
X61953241Y-50430496D01*
X61926927Y-50390438D01*
X62046148Y-50271218D01*
X62115037Y-50168119D01*
X62259160Y-50168119D01*
X62385064Y-50143691D01*
X62495722Y-50071000D01*
X62569796Y-49961263D01*
X62595829Y-49831450D01*
X62595829Y-49031350D01*
X62571401Y-48905446D01*
X62498710Y-48794788D01*
X62388973Y-48720714D01*
X62259160Y-48694681D01*
X62165180Y-48694681D01*
X62165180Y-48289158D01*
X62134245Y-48133635D01*
X62046148Y-48001790D01*
X61809134Y-47764776D01*
X61855301Y-47764817D01*
X62102783Y-47662559D01*
X62249240Y-47516356D01*
X62294041Y-47624783D01*
X62483222Y-47814294D01*
X62730525Y-47916983D01*
X62998301Y-47917217D01*
X63245783Y-47814959D01*
X63334296Y-47726600D01*
X63698320Y-47726600D01*
X63728388Y-47720619D01*
X64458800Y-47720619D01*
X64584704Y-47696191D01*
X64695362Y-47623500D01*
X64769436Y-47513763D01*
X64788360Y-47419397D01*
X64822787Y-47442636D01*
X64952600Y-47468669D01*
X65074554Y-47468669D01*
X65074554Y-47468669D01*
G37*
X65074554Y-47468669D02*
X64866782Y-47554519D01*
X64649482Y-47771440D01*
X64637202Y-47801012D01*
X64588613Y-47768214D01*
X64458800Y-47742181D01*
X63458040Y-47742181D01*
X63332136Y-47766609D01*
X63221478Y-47839300D01*
X63147404Y-47949037D01*
X63121371Y-48078850D01*
X63121371Y-48878950D01*
X63145799Y-49004854D01*
X63218490Y-49115512D01*
X63328227Y-49189586D01*
X63458040Y-49215619D01*
X64458800Y-49215619D01*
X64584704Y-49191191D01*
X64625059Y-49164681D01*
X64615931Y-49210200D01*
X64615931Y-49610200D01*
X64634116Y-49703929D01*
X64588613Y-49673214D01*
X64458800Y-49647181D01*
X63458040Y-49647181D01*
X63332136Y-49671609D01*
X63221478Y-49744300D01*
X63147404Y-49854037D01*
X63121371Y-49983850D01*
X63121371Y-50783950D01*
X63145799Y-50909854D01*
X63218490Y-51020512D01*
X63328227Y-51094586D01*
X63458040Y-51120619D01*
X64458800Y-51120619D01*
X64584704Y-51096191D01*
X64695362Y-51023500D01*
X64744600Y-50950556D01*
X64744600Y-51740620D01*
X64573282Y-51911640D01*
X64495860Y-52098091D01*
X64495860Y-51599933D01*
X64459811Y-51411059D01*
X64065558Y-51305698D01*
X63660996Y-51359230D01*
X63535869Y-51411059D01*
X63499820Y-51599933D01*
X63997840Y-52097953D01*
X64495860Y-51599933D01*
X64495860Y-52098091D01*
X64492498Y-52106188D01*
X64249287Y-52349400D01*
X64263429Y-52363542D01*
X64125172Y-52501800D01*
X63870508Y-52501800D01*
X63732250Y-52363542D01*
X63746393Y-52349400D01*
X63486437Y-52089444D01*
X63415541Y-51917862D01*
X63198620Y-51700562D01*
X62915054Y-51582815D01*
X62608013Y-51582547D01*
X62324242Y-51699799D01*
X62106942Y-51916720D01*
X61989195Y-52200286D01*
X61988931Y-52501800D01*
X61581178Y-52501800D01*
X61664289Y-52418690D01*
X61664289Y-52418689D01*
X61763398Y-52270363D01*
X61786145Y-52156001D01*
X61877562Y-52095950D01*
X61951636Y-51986213D01*
X61977669Y-51856400D01*
X61977669Y-51456400D01*
X61953241Y-51330496D01*
X61880550Y-51219838D01*
X61861141Y-51206736D01*
X61877562Y-51195950D01*
X61951636Y-51086213D01*
X61977669Y-50956400D01*
X61977669Y-50556400D01*
X61953241Y-50430496D01*
X61926927Y-50390438D01*
X62046148Y-50271218D01*
X62115037Y-50168119D01*
X62259160Y-50168119D01*
X62385064Y-50143691D01*
X62495722Y-50071000D01*
X62569796Y-49961263D01*
X62595829Y-49831450D01*
X62595829Y-49031350D01*
X62571401Y-48905446D01*
X62498710Y-48794788D01*
X62388973Y-48720714D01*
X62259160Y-48694681D01*
X62165180Y-48694681D01*
X62165180Y-48289158D01*
X62134245Y-48133635D01*
X62046148Y-48001790D01*
X61809134Y-47764776D01*
X61855301Y-47764817D01*
X62102783Y-47662559D01*
X62249240Y-47516356D01*
X62294041Y-47624783D01*
X62483222Y-47814294D01*
X62730525Y-47916983D01*
X62998301Y-47917217D01*
X63245783Y-47814959D01*
X63334296Y-47726600D01*
X63698320Y-47726600D01*
X63728388Y-47720619D01*
X64458800Y-47720619D01*
X64584704Y-47696191D01*
X64695362Y-47623500D01*
X64769436Y-47513763D01*
X64788360Y-47419397D01*
X64822787Y-47442636D01*
X64952600Y-47468669D01*
X65074554Y-47468669D01*
G36*
X65197200Y-37461002D02*
X65170106Y-37478800D01*
X65111800Y-37478800D01*
X64936837Y-37513602D01*
X64788511Y-37612711D01*
X63654138Y-38747083D01*
X63646855Y-38710468D01*
X63646855Y-38710467D01*
X63558758Y-38578622D01*
X63532976Y-38552840D01*
X63596200Y-38400204D01*
X63596200Y-38342550D01*
X63450150Y-38196500D01*
X62862000Y-38196500D01*
X62862000Y-38247331D01*
X62562000Y-38247331D01*
X62562000Y-38196500D01*
X62514200Y-38196500D01*
X62514200Y-38021500D01*
X62562000Y-38021500D01*
X62562000Y-37970669D01*
X62862000Y-37970669D01*
X62862000Y-38021500D01*
X63450150Y-38021500D01*
X63596200Y-37875450D01*
X63596200Y-37817796D01*
X63507261Y-37603078D01*
X63348669Y-37444485D01*
X63348669Y-37313764D01*
X63356813Y-37315384D01*
X63494640Y-37342801D01*
X63494640Y-37342800D01*
X63494645Y-37342800D01*
X63812121Y-37342800D01*
X63815250Y-37347562D01*
X63924987Y-37421636D01*
X64054800Y-37447669D01*
X64654800Y-37447669D01*
X64780704Y-37423241D01*
X64891362Y-37350550D01*
X64965436Y-37240813D01*
X64991469Y-37111000D01*
X64991469Y-36711000D01*
X64967041Y-36585096D01*
X64894350Y-36474438D01*
X64874941Y-36461336D01*
X64891362Y-36450550D01*
X64896593Y-36442800D01*
X65146104Y-36442800D01*
X65165530Y-36472372D01*
X65185224Y-36485665D01*
X65168518Y-36496640D01*
X65094444Y-36606377D01*
X65068411Y-36736190D01*
X65068411Y-37134970D01*
X65092839Y-37260874D01*
X65165530Y-37371532D01*
X65197200Y-37392909D01*
X65197200Y-37461002D01*
X65197200Y-37461002D01*
G37*
X65197200Y-37461002D02*
X65170106Y-37478800D01*
X65111800Y-37478800D01*
X64936837Y-37513602D01*
X64788511Y-37612711D01*
X63654138Y-38747083D01*
X63646855Y-38710468D01*
X63646855Y-38710467D01*
X63558758Y-38578622D01*
X63532976Y-38552840D01*
X63596200Y-38400204D01*
X63596200Y-38342550D01*
X63450150Y-38196500D01*
X62862000Y-38196500D01*
X62862000Y-38247331D01*
X62562000Y-38247331D01*
X62562000Y-38196500D01*
X62514200Y-38196500D01*
X62514200Y-38021500D01*
X62562000Y-38021500D01*
X62562000Y-37970669D01*
X62862000Y-37970669D01*
X62862000Y-38021500D01*
X63450150Y-38021500D01*
X63596200Y-37875450D01*
X63596200Y-37817796D01*
X63507261Y-37603078D01*
X63348669Y-37444485D01*
X63348669Y-37313764D01*
X63356813Y-37315384D01*
X63494640Y-37342801D01*
X63494640Y-37342800D01*
X63494645Y-37342800D01*
X63812121Y-37342800D01*
X63815250Y-37347562D01*
X63924987Y-37421636D01*
X64054800Y-37447669D01*
X64654800Y-37447669D01*
X64780704Y-37423241D01*
X64891362Y-37350550D01*
X64965436Y-37240813D01*
X64991469Y-37111000D01*
X64991469Y-36711000D01*
X64967041Y-36585096D01*
X64894350Y-36474438D01*
X64874941Y-36461336D01*
X64891362Y-36450550D01*
X64896593Y-36442800D01*
X65146104Y-36442800D01*
X65165530Y-36472372D01*
X65185224Y-36485665D01*
X65168518Y-36496640D01*
X65094444Y-36606377D01*
X65068411Y-36736190D01*
X65068411Y-37134970D01*
X65092839Y-37260874D01*
X65165530Y-37371532D01*
X65197200Y-37392909D01*
X65197200Y-37461002D01*
G36*
X65698104Y-35500361D02*
X65405080Y-35500361D01*
X65279176Y-35524789D01*
X65196345Y-35579200D01*
X64897478Y-35579200D01*
X64894350Y-35574438D01*
X64784613Y-35500364D01*
X64654800Y-35474331D01*
X64290748Y-35474331D01*
X64377570Y-35264724D01*
X64377570Y-35144710D01*
X64231520Y-34998660D01*
X63693675Y-34998660D01*
X63693675Y-35586670D01*
X63761906Y-35654901D01*
X63744164Y-35681187D01*
X63718131Y-35811000D01*
X63718131Y-36211000D01*
X63742559Y-36336904D01*
X63815250Y-36447562D01*
X63834658Y-36460663D01*
X63818238Y-36471450D01*
X63813006Y-36479200D01*
X63673498Y-36479200D01*
X63322969Y-36128671D01*
X63182883Y-36035069D01*
X63017640Y-36002200D01*
X62170367Y-36002200D01*
X62101550Y-35897438D01*
X61991813Y-35823364D01*
X61862000Y-35797331D01*
X61512000Y-35797331D01*
X61481786Y-35803193D01*
X61459398Y-35690637D01*
X61360289Y-35542311D01*
X61297400Y-35479422D01*
X61297400Y-35405814D01*
X61300650Y-35410762D01*
X61410387Y-35484836D01*
X61540200Y-35510869D01*
X61940200Y-35510869D01*
X62066104Y-35486441D01*
X62176762Y-35413750D01*
X62226403Y-35340209D01*
X62255880Y-35385082D01*
X62365617Y-35459156D01*
X62495430Y-35485189D01*
X62894210Y-35485189D01*
X62903310Y-35483423D01*
X63063667Y-35643781D01*
X63278385Y-35732720D01*
X63348235Y-35732720D01*
X63494285Y-35586670D01*
X63494285Y-34998660D01*
X63396180Y-34998660D01*
X63396180Y-34698940D01*
X63494285Y-34698940D01*
X63494285Y-34110930D01*
X63348235Y-33964880D01*
X63278385Y-33964880D01*
X63063667Y-34053819D01*
X62903260Y-34214226D01*
X62894210Y-34212411D01*
X62495430Y-34212411D01*
X62369526Y-34236839D01*
X62258868Y-34309530D01*
X62209413Y-34382794D01*
X62179750Y-34337638D01*
X62070013Y-34263564D01*
X61940200Y-34237531D01*
X61850109Y-34237531D01*
X61223689Y-33611111D01*
X61075363Y-33512002D01*
X60900400Y-33477200D01*
X60810000Y-33477200D01*
X60810000Y-31669750D01*
X60810000Y-31131600D01*
X60221850Y-31131600D01*
X60075800Y-31277650D01*
X60075800Y-31347805D01*
X60164739Y-31562523D01*
X60329078Y-31726861D01*
X60543796Y-31815800D01*
X60663950Y-31815800D01*
X60810000Y-31669750D01*
X60810000Y-33477200D01*
X59371378Y-33477200D01*
X59055000Y-33160821D01*
X59055000Y-32613600D01*
X59020198Y-32438637D01*
X58921089Y-32290311D01*
X58921089Y-32290310D01*
X58489289Y-31858511D01*
X58340963Y-31759402D01*
X58166000Y-31724600D01*
X57898675Y-31724600D01*
X57785778Y-31611506D01*
X57538475Y-31508817D01*
X57270699Y-31508583D01*
X57023217Y-31610841D01*
X56833706Y-31800022D01*
X56790018Y-31905233D01*
X56494200Y-31609415D01*
X56494200Y-30228975D01*
X56512003Y-30202601D01*
X56547450Y-30256562D01*
X56657187Y-30330636D01*
X56787000Y-30356669D01*
X58887000Y-30356669D01*
X59012904Y-30332241D01*
X59123562Y-30259550D01*
X59197636Y-30149813D01*
X59223669Y-30020000D01*
X59223669Y-28420000D01*
X59199241Y-28294096D01*
X59126550Y-28183438D01*
X59016813Y-28109364D01*
X58887000Y-28083331D01*
X56787000Y-28083331D01*
X56661096Y-28107759D01*
X56550438Y-28180450D01*
X56476364Y-28290187D01*
X56451083Y-28416247D01*
X56366813Y-28359364D01*
X56237000Y-28333331D01*
X55837000Y-28333331D01*
X55711096Y-28357759D01*
X55710561Y-28358110D01*
X55587000Y-28333331D01*
X55187000Y-28333331D01*
X55061096Y-28357759D01*
X55060561Y-28358110D01*
X54937000Y-28333331D01*
X54537000Y-28333331D01*
X54411096Y-28357759D01*
X54410561Y-28358110D01*
X54287000Y-28333331D01*
X54126514Y-28333331D01*
X53967922Y-28174739D01*
X53753204Y-28085800D01*
X53683050Y-28085800D01*
X53537000Y-28231850D01*
X53537000Y-29167200D01*
X53550331Y-29167200D01*
X53550331Y-29522800D01*
X53537000Y-29522800D01*
X53537000Y-30458150D01*
X53683050Y-30604200D01*
X53753204Y-30604200D01*
X53967922Y-30515261D01*
X54126514Y-30356669D01*
X54279800Y-30356669D01*
X54279800Y-32385000D01*
X54314602Y-32559963D01*
X54343353Y-32602991D01*
X54343183Y-32797701D01*
X54445441Y-33045183D01*
X54634622Y-33234694D01*
X54881925Y-33337383D01*
X55149701Y-33337617D01*
X55397183Y-33235359D01*
X55586694Y-33046178D01*
X55609962Y-32990140D01*
X55664122Y-33044300D01*
X55663983Y-33204101D01*
X55766241Y-33451583D01*
X55955422Y-33641094D01*
X56016127Y-33666300D01*
X54101291Y-35581137D01*
X54002182Y-35729463D01*
X54000400Y-35738421D01*
X54000400Y-34975800D01*
X54000038Y-34973980D01*
X54000386Y-34972160D01*
X53981680Y-34881692D01*
X53963664Y-34791117D01*
X53962634Y-34789576D01*
X53962259Y-34787760D01*
X53822559Y-34457560D01*
X53770696Y-34381195D01*
X53719350Y-34304350D01*
X53717806Y-34303318D01*
X53716766Y-34301787D01*
X53639611Y-34251070D01*
X53562783Y-34199736D01*
X53560966Y-34199374D01*
X53559415Y-34198355D01*
X53468647Y-34181011D01*
X53378100Y-34163000D01*
X53337000Y-34163000D01*
X53337000Y-30458150D01*
X53337000Y-29522800D01*
X53239200Y-29522800D01*
X53239200Y-29167200D01*
X53337000Y-29167200D01*
X53337000Y-28231850D01*
X53190950Y-28085800D01*
X53120796Y-28085800D01*
X52910778Y-28172792D01*
X52816813Y-28109364D01*
X52687000Y-28083331D01*
X50587000Y-28083331D01*
X50461096Y-28107759D01*
X50350438Y-28180450D01*
X50276364Y-28290187D01*
X50250331Y-28420000D01*
X50250331Y-30020000D01*
X50274759Y-30145904D01*
X50347450Y-30256562D01*
X50457187Y-30330636D01*
X50587000Y-30356669D01*
X52687000Y-30356669D01*
X52739870Y-30346411D01*
X52741739Y-30350923D01*
X52906078Y-30515261D01*
X53120796Y-30604200D01*
X53190950Y-30604200D01*
X53337000Y-30458150D01*
X53337000Y-34163000D01*
X51521321Y-34163000D01*
X50883275Y-33524953D01*
X50811368Y-33350926D01*
X50597202Y-33136385D01*
X50317236Y-33020133D01*
X50014094Y-33019868D01*
X49733926Y-33135632D01*
X49733200Y-33136356D01*
X49733200Y-27880693D01*
X49807187Y-27930636D01*
X49937000Y-27956669D01*
X51837000Y-27956669D01*
X51962904Y-27932241D01*
X52073562Y-27859550D01*
X52147636Y-27749813D01*
X52173669Y-27620000D01*
X52173669Y-25720000D01*
X52149241Y-25594096D01*
X52076550Y-25483438D01*
X52065827Y-25476200D01*
X52356907Y-25476200D01*
X52350438Y-25480450D01*
X52276364Y-25590187D01*
X52250331Y-25720000D01*
X52250331Y-27620000D01*
X52274759Y-27745904D01*
X52347450Y-27856562D01*
X52457187Y-27930636D01*
X52587000Y-27956669D01*
X54487000Y-27956669D01*
X54612904Y-27932241D01*
X54723562Y-27859550D01*
X54736663Y-27840141D01*
X54747450Y-27856562D01*
X54857187Y-27930636D01*
X54987000Y-27956669D01*
X56887000Y-27956669D01*
X57012904Y-27932241D01*
X57123562Y-27859550D01*
X57197636Y-27749813D01*
X57223669Y-27620000D01*
X57223669Y-25720000D01*
X57199241Y-25594096D01*
X57126550Y-25483438D01*
X57115827Y-25476200D01*
X57406907Y-25476200D01*
X57400438Y-25480450D01*
X57326364Y-25590187D01*
X57300331Y-25720000D01*
X57300331Y-27620000D01*
X57324759Y-27745904D01*
X57397450Y-27856562D01*
X57507187Y-27930636D01*
X57637000Y-27956669D01*
X59537000Y-27956669D01*
X59662904Y-27932241D01*
X59773562Y-27859550D01*
X59847636Y-27749813D01*
X59873669Y-27620000D01*
X59873669Y-25720000D01*
X59849241Y-25594096D01*
X59776550Y-25483438D01*
X59765827Y-25476200D01*
X61711218Y-25476200D01*
X61595133Y-25755764D01*
X61594868Y-26058906D01*
X61710632Y-26339074D01*
X61874400Y-26503128D01*
X61874400Y-26518657D01*
X61874400Y-27643400D01*
X61900917Y-27776712D01*
X61748178Y-27623706D01*
X61500875Y-27521017D01*
X61233099Y-27520783D01*
X60985617Y-27623041D01*
X60796106Y-27812222D01*
X60693417Y-28059525D01*
X60693213Y-28292450D01*
X60672632Y-28313032D01*
X60584535Y-28444877D01*
X60553600Y-28600400D01*
X60553600Y-29615574D01*
X60534096Y-29619359D01*
X60423438Y-29692050D01*
X60349364Y-29801787D01*
X60323331Y-29931600D01*
X60323331Y-30331600D01*
X60325034Y-30340382D01*
X60164739Y-30500677D01*
X60075800Y-30715395D01*
X60075800Y-30785550D01*
X60221850Y-30931600D01*
X60810000Y-30931600D01*
X60810000Y-30833800D01*
X61110000Y-30833800D01*
X61110000Y-30931600D01*
X61157800Y-30931600D01*
X61157800Y-31131600D01*
X61110000Y-31131600D01*
X61110000Y-31669750D01*
X61256050Y-31815800D01*
X61376204Y-31815800D01*
X61590922Y-31726861D01*
X61593366Y-31724416D01*
X61754595Y-31791200D01*
X61946950Y-31791200D01*
X62046600Y-31691550D01*
X62046600Y-31758204D01*
X62135539Y-31972922D01*
X62299877Y-32137261D01*
X62344131Y-32155591D01*
X62344131Y-32396811D01*
X62216277Y-32524665D01*
X62122099Y-32524583D01*
X61874617Y-32626841D01*
X61685106Y-32816022D01*
X61582417Y-33063325D01*
X61582183Y-33331101D01*
X61684441Y-33578583D01*
X61873622Y-33768094D01*
X62120925Y-33870783D01*
X62388701Y-33871017D01*
X62636183Y-33768759D01*
X62825694Y-33579578D01*
X62928383Y-33332275D01*
X62928463Y-33239812D01*
X63064595Y-33296200D01*
X63104750Y-33296200D01*
X63250800Y-33150150D01*
X63250800Y-32872384D01*
X63271436Y-32841813D01*
X63297469Y-32712000D01*
X63297469Y-32226200D01*
X63344131Y-32226200D01*
X63344131Y-32712000D01*
X63368559Y-32837904D01*
X63390800Y-32871761D01*
X63390800Y-33150150D01*
X63536850Y-33296200D01*
X63577005Y-33296200D01*
X63605068Y-33284575D01*
X63566157Y-33378285D01*
X63565923Y-33646061D01*
X63668181Y-33893543D01*
X63789515Y-34015089D01*
X63693675Y-34110930D01*
X63693675Y-34698940D01*
X64231520Y-34698940D01*
X64377570Y-34552890D01*
X64377570Y-34432876D01*
X64288631Y-34218158D01*
X64256348Y-34185875D01*
X64372441Y-34185977D01*
X64380422Y-34182678D01*
X65698104Y-35500361D01*
X65698104Y-35500361D01*
G37*
X65698104Y-35500361D02*
X65405080Y-35500361D01*
X65279176Y-35524789D01*
X65196345Y-35579200D01*
X64897478Y-35579200D01*
X64894350Y-35574438D01*
X64784613Y-35500364D01*
X64654800Y-35474331D01*
X64290748Y-35474331D01*
X64377570Y-35264724D01*
X64377570Y-35144710D01*
X64231520Y-34998660D01*
X63693675Y-34998660D01*
X63693675Y-35586670D01*
X63761906Y-35654901D01*
X63744164Y-35681187D01*
X63718131Y-35811000D01*
X63718131Y-36211000D01*
X63742559Y-36336904D01*
X63815250Y-36447562D01*
X63834658Y-36460663D01*
X63818238Y-36471450D01*
X63813006Y-36479200D01*
X63673498Y-36479200D01*
X63322969Y-36128671D01*
X63182883Y-36035069D01*
X63017640Y-36002200D01*
X62170367Y-36002200D01*
X62101550Y-35897438D01*
X61991813Y-35823364D01*
X61862000Y-35797331D01*
X61512000Y-35797331D01*
X61481786Y-35803193D01*
X61459398Y-35690637D01*
X61360289Y-35542311D01*
X61297400Y-35479422D01*
X61297400Y-35405814D01*
X61300650Y-35410762D01*
X61410387Y-35484836D01*
X61540200Y-35510869D01*
X61940200Y-35510869D01*
X62066104Y-35486441D01*
X62176762Y-35413750D01*
X62226403Y-35340209D01*
X62255880Y-35385082D01*
X62365617Y-35459156D01*
X62495430Y-35485189D01*
X62894210Y-35485189D01*
X62903310Y-35483423D01*
X63063667Y-35643781D01*
X63278385Y-35732720D01*
X63348235Y-35732720D01*
X63494285Y-35586670D01*
X63494285Y-34998660D01*
X63396180Y-34998660D01*
X63396180Y-34698940D01*
X63494285Y-34698940D01*
X63494285Y-34110930D01*
X63348235Y-33964880D01*
X63278385Y-33964880D01*
X63063667Y-34053819D01*
X62903260Y-34214226D01*
X62894210Y-34212411D01*
X62495430Y-34212411D01*
X62369526Y-34236839D01*
X62258868Y-34309530D01*
X62209413Y-34382794D01*
X62179750Y-34337638D01*
X62070013Y-34263564D01*
X61940200Y-34237531D01*
X61850109Y-34237531D01*
X61223689Y-33611111D01*
X61075363Y-33512002D01*
X60900400Y-33477200D01*
X60810000Y-33477200D01*
X60810000Y-31669750D01*
X60810000Y-31131600D01*
X60221850Y-31131600D01*
X60075800Y-31277650D01*
X60075800Y-31347805D01*
X60164739Y-31562523D01*
X60329078Y-31726861D01*
X60543796Y-31815800D01*
X60663950Y-31815800D01*
X60810000Y-31669750D01*
X60810000Y-33477200D01*
X59371378Y-33477200D01*
X59055000Y-33160821D01*
X59055000Y-32613600D01*
X59020198Y-32438637D01*
X58921089Y-32290311D01*
X58921089Y-32290310D01*
X58489289Y-31858511D01*
X58340963Y-31759402D01*
X58166000Y-31724600D01*
X57898675Y-31724600D01*
X57785778Y-31611506D01*
X57538475Y-31508817D01*
X57270699Y-31508583D01*
X57023217Y-31610841D01*
X56833706Y-31800022D01*
X56790018Y-31905233D01*
X56494200Y-31609415D01*
X56494200Y-30228975D01*
X56512003Y-30202601D01*
X56547450Y-30256562D01*
X56657187Y-30330636D01*
X56787000Y-30356669D01*
X58887000Y-30356669D01*
X59012904Y-30332241D01*
X59123562Y-30259550D01*
X59197636Y-30149813D01*
X59223669Y-30020000D01*
X59223669Y-28420000D01*
X59199241Y-28294096D01*
X59126550Y-28183438D01*
X59016813Y-28109364D01*
X58887000Y-28083331D01*
X56787000Y-28083331D01*
X56661096Y-28107759D01*
X56550438Y-28180450D01*
X56476364Y-28290187D01*
X56451083Y-28416247D01*
X56366813Y-28359364D01*
X56237000Y-28333331D01*
X55837000Y-28333331D01*
X55711096Y-28357759D01*
X55710561Y-28358110D01*
X55587000Y-28333331D01*
X55187000Y-28333331D01*
X55061096Y-28357759D01*
X55060561Y-28358110D01*
X54937000Y-28333331D01*
X54537000Y-28333331D01*
X54411096Y-28357759D01*
X54410561Y-28358110D01*
X54287000Y-28333331D01*
X54126514Y-28333331D01*
X53967922Y-28174739D01*
X53753204Y-28085800D01*
X53683050Y-28085800D01*
X53537000Y-28231850D01*
X53537000Y-29167200D01*
X53550331Y-29167200D01*
X53550331Y-29522800D01*
X53537000Y-29522800D01*
X53537000Y-30458150D01*
X53683050Y-30604200D01*
X53753204Y-30604200D01*
X53967922Y-30515261D01*
X54126514Y-30356669D01*
X54279800Y-30356669D01*
X54279800Y-32385000D01*
X54314602Y-32559963D01*
X54343353Y-32602991D01*
X54343183Y-32797701D01*
X54445441Y-33045183D01*
X54634622Y-33234694D01*
X54881925Y-33337383D01*
X55149701Y-33337617D01*
X55397183Y-33235359D01*
X55586694Y-33046178D01*
X55609962Y-32990140D01*
X55664122Y-33044300D01*
X55663983Y-33204101D01*
X55766241Y-33451583D01*
X55955422Y-33641094D01*
X56016127Y-33666300D01*
X54101291Y-35581137D01*
X54002182Y-35729463D01*
X54000400Y-35738421D01*
X54000400Y-34975800D01*
X54000038Y-34973980D01*
X54000386Y-34972160D01*
X53981680Y-34881692D01*
X53963664Y-34791117D01*
X53962634Y-34789576D01*
X53962259Y-34787760D01*
X53822559Y-34457560D01*
X53770696Y-34381195D01*
X53719350Y-34304350D01*
X53717806Y-34303318D01*
X53716766Y-34301787D01*
X53639611Y-34251070D01*
X53562783Y-34199736D01*
X53560966Y-34199374D01*
X53559415Y-34198355D01*
X53468647Y-34181011D01*
X53378100Y-34163000D01*
X53337000Y-34163000D01*
X53337000Y-30458150D01*
X53337000Y-29522800D01*
X53239200Y-29522800D01*
X53239200Y-29167200D01*
X53337000Y-29167200D01*
X53337000Y-28231850D01*
X53190950Y-28085800D01*
X53120796Y-28085800D01*
X52910778Y-28172792D01*
X52816813Y-28109364D01*
X52687000Y-28083331D01*
X50587000Y-28083331D01*
X50461096Y-28107759D01*
X50350438Y-28180450D01*
X50276364Y-28290187D01*
X50250331Y-28420000D01*
X50250331Y-30020000D01*
X50274759Y-30145904D01*
X50347450Y-30256562D01*
X50457187Y-30330636D01*
X50587000Y-30356669D01*
X52687000Y-30356669D01*
X52739870Y-30346411D01*
X52741739Y-30350923D01*
X52906078Y-30515261D01*
X53120796Y-30604200D01*
X53190950Y-30604200D01*
X53337000Y-30458150D01*
X53337000Y-34163000D01*
X51521321Y-34163000D01*
X50883275Y-33524953D01*
X50811368Y-33350926D01*
X50597202Y-33136385D01*
X50317236Y-33020133D01*
X50014094Y-33019868D01*
X49733926Y-33135632D01*
X49733200Y-33136356D01*
X49733200Y-27880693D01*
X49807187Y-27930636D01*
X49937000Y-27956669D01*
X51837000Y-27956669D01*
X51962904Y-27932241D01*
X52073562Y-27859550D01*
X52147636Y-27749813D01*
X52173669Y-27620000D01*
X52173669Y-25720000D01*
X52149241Y-25594096D01*
X52076550Y-25483438D01*
X52065827Y-25476200D01*
X52356907Y-25476200D01*
X52350438Y-25480450D01*
X52276364Y-25590187D01*
X52250331Y-25720000D01*
X52250331Y-27620000D01*
X52274759Y-27745904D01*
X52347450Y-27856562D01*
X52457187Y-27930636D01*
X52587000Y-27956669D01*
X54487000Y-27956669D01*
X54612904Y-27932241D01*
X54723562Y-27859550D01*
X54736663Y-27840141D01*
X54747450Y-27856562D01*
X54857187Y-27930636D01*
X54987000Y-27956669D01*
X56887000Y-27956669D01*
X57012904Y-27932241D01*
X57123562Y-27859550D01*
X57197636Y-27749813D01*
X57223669Y-27620000D01*
X57223669Y-25720000D01*
X57199241Y-25594096D01*
X57126550Y-25483438D01*
X57115827Y-25476200D01*
X57406907Y-25476200D01*
X57400438Y-25480450D01*
X57326364Y-25590187D01*
X57300331Y-25720000D01*
X57300331Y-27620000D01*
X57324759Y-27745904D01*
X57397450Y-27856562D01*
X57507187Y-27930636D01*
X57637000Y-27956669D01*
X59537000Y-27956669D01*
X59662904Y-27932241D01*
X59773562Y-27859550D01*
X59847636Y-27749813D01*
X59873669Y-27620000D01*
X59873669Y-25720000D01*
X59849241Y-25594096D01*
X59776550Y-25483438D01*
X59765827Y-25476200D01*
X61711218Y-25476200D01*
X61595133Y-25755764D01*
X61594868Y-26058906D01*
X61710632Y-26339074D01*
X61874400Y-26503128D01*
X61874400Y-26518657D01*
X61874400Y-27643400D01*
X61900917Y-27776712D01*
X61748178Y-27623706D01*
X61500875Y-27521017D01*
X61233099Y-27520783D01*
X60985617Y-27623041D01*
X60796106Y-27812222D01*
X60693417Y-28059525D01*
X60693213Y-28292450D01*
X60672632Y-28313032D01*
X60584535Y-28444877D01*
X60553600Y-28600400D01*
X60553600Y-29615574D01*
X60534096Y-29619359D01*
X60423438Y-29692050D01*
X60349364Y-29801787D01*
X60323331Y-29931600D01*
X60323331Y-30331600D01*
X60325034Y-30340382D01*
X60164739Y-30500677D01*
X60075800Y-30715395D01*
X60075800Y-30785550D01*
X60221850Y-30931600D01*
X60810000Y-30931600D01*
X60810000Y-30833800D01*
X61110000Y-30833800D01*
X61110000Y-30931600D01*
X61157800Y-30931600D01*
X61157800Y-31131600D01*
X61110000Y-31131600D01*
X61110000Y-31669750D01*
X61256050Y-31815800D01*
X61376204Y-31815800D01*
X61590922Y-31726861D01*
X61593366Y-31724416D01*
X61754595Y-31791200D01*
X61946950Y-31791200D01*
X62046600Y-31691550D01*
X62046600Y-31758204D01*
X62135539Y-31972922D01*
X62299877Y-32137261D01*
X62344131Y-32155591D01*
X62344131Y-32396811D01*
X62216277Y-32524665D01*
X62122099Y-32524583D01*
X61874617Y-32626841D01*
X61685106Y-32816022D01*
X61582417Y-33063325D01*
X61582183Y-33331101D01*
X61684441Y-33578583D01*
X61873622Y-33768094D01*
X62120925Y-33870783D01*
X62388701Y-33871017D01*
X62636183Y-33768759D01*
X62825694Y-33579578D01*
X62928383Y-33332275D01*
X62928463Y-33239812D01*
X63064595Y-33296200D01*
X63104750Y-33296200D01*
X63250800Y-33150150D01*
X63250800Y-32872384D01*
X63271436Y-32841813D01*
X63297469Y-32712000D01*
X63297469Y-32226200D01*
X63344131Y-32226200D01*
X63344131Y-32712000D01*
X63368559Y-32837904D01*
X63390800Y-32871761D01*
X63390800Y-33150150D01*
X63536850Y-33296200D01*
X63577005Y-33296200D01*
X63605068Y-33284575D01*
X63566157Y-33378285D01*
X63565923Y-33646061D01*
X63668181Y-33893543D01*
X63789515Y-34015089D01*
X63693675Y-34110930D01*
X63693675Y-34698940D01*
X64231520Y-34698940D01*
X64377570Y-34552890D01*
X64377570Y-34432876D01*
X64288631Y-34218158D01*
X64256348Y-34185875D01*
X64372441Y-34185977D01*
X64380422Y-34182678D01*
X65698104Y-35500361D01*
G36*
X68333047Y-46993512D02*
X68303437Y-46999402D01*
X68155111Y-47098511D01*
X67951911Y-47301711D01*
X67852802Y-47450037D01*
X67852693Y-47450584D01*
X67849576Y-47451189D01*
X67738918Y-47523880D01*
X67664844Y-47633617D01*
X67638811Y-47763430D01*
X67638811Y-48162210D01*
X67640576Y-48171310D01*
X67480219Y-48331667D01*
X67411600Y-48497328D01*
X67411600Y-48221319D01*
X67499294Y-48133778D01*
X67601983Y-47886475D01*
X67602217Y-47618699D01*
X67499959Y-47371217D01*
X67310778Y-47181706D01*
X67063475Y-47079017D01*
X66952008Y-47078919D01*
X66979800Y-46939200D01*
X66979800Y-42823842D01*
X67042542Y-42886694D01*
X67121527Y-42919491D01*
X67113200Y-42939596D01*
X67113200Y-42997250D01*
X67259250Y-43143300D01*
X67919600Y-43143300D01*
X67919600Y-43055800D01*
X68275200Y-43055800D01*
X68275200Y-43143300D01*
X68295200Y-43143300D01*
X68295200Y-43219131D01*
X67697400Y-43219131D01*
X67571496Y-43243559D01*
X67460838Y-43316250D01*
X67459454Y-43318300D01*
X67259250Y-43318300D01*
X67113200Y-43464350D01*
X67113200Y-43522004D01*
X67202139Y-43736722D01*
X67360731Y-43895314D01*
X67360731Y-43905800D01*
X67375523Y-43982039D01*
X67360731Y-44055800D01*
X67360731Y-44405800D01*
X67375523Y-44482039D01*
X67360731Y-44555800D01*
X67360731Y-44905800D01*
X67375523Y-44982039D01*
X67360731Y-45055800D01*
X67360731Y-45405800D01*
X67375523Y-45482039D01*
X67360731Y-45555800D01*
X67360731Y-45905800D01*
X67385159Y-46031704D01*
X67457850Y-46142362D01*
X67567587Y-46216436D01*
X67697400Y-46242469D01*
X68325731Y-46242469D01*
X68325731Y-46955800D01*
X68333047Y-46993512D01*
X68333047Y-46993512D01*
G37*
X68333047Y-46993512D02*
X68303437Y-46999402D01*
X68155111Y-47098511D01*
X67951911Y-47301711D01*
X67852802Y-47450037D01*
X67852693Y-47450584D01*
X67849576Y-47451189D01*
X67738918Y-47523880D01*
X67664844Y-47633617D01*
X67638811Y-47763430D01*
X67638811Y-48162210D01*
X67640576Y-48171310D01*
X67480219Y-48331667D01*
X67411600Y-48497328D01*
X67411600Y-48221319D01*
X67499294Y-48133778D01*
X67601983Y-47886475D01*
X67602217Y-47618699D01*
X67499959Y-47371217D01*
X67310778Y-47181706D01*
X67063475Y-47079017D01*
X66952008Y-47078919D01*
X66979800Y-46939200D01*
X66979800Y-42823842D01*
X67042542Y-42886694D01*
X67121527Y-42919491D01*
X67113200Y-42939596D01*
X67113200Y-42997250D01*
X67259250Y-43143300D01*
X67919600Y-43143300D01*
X67919600Y-43055800D01*
X68275200Y-43055800D01*
X68275200Y-43143300D01*
X68295200Y-43143300D01*
X68295200Y-43219131D01*
X67697400Y-43219131D01*
X67571496Y-43243559D01*
X67460838Y-43316250D01*
X67459454Y-43318300D01*
X67259250Y-43318300D01*
X67113200Y-43464350D01*
X67113200Y-43522004D01*
X67202139Y-43736722D01*
X67360731Y-43895314D01*
X67360731Y-43905800D01*
X67375523Y-43982039D01*
X67360731Y-44055800D01*
X67360731Y-44405800D01*
X67375523Y-44482039D01*
X67360731Y-44555800D01*
X67360731Y-44905800D01*
X67375523Y-44982039D01*
X67360731Y-45055800D01*
X67360731Y-45405800D01*
X67375523Y-45482039D01*
X67360731Y-45555800D01*
X67360731Y-45905800D01*
X67385159Y-46031704D01*
X67457850Y-46142362D01*
X67567587Y-46216436D01*
X67697400Y-46242469D01*
X68325731Y-46242469D01*
X68325731Y-46955800D01*
X68333047Y-46993512D01*
G36*
X68418600Y-30468531D02*
X67795800Y-30468531D01*
X67669896Y-30492959D01*
X67636038Y-30515200D01*
X67357650Y-30515200D01*
X67310474Y-30562375D01*
X67310473Y-30562376D01*
X67273477Y-30569735D01*
X67141632Y-30657832D01*
X66697078Y-31102385D01*
X66465499Y-31102183D01*
X66385000Y-31135444D01*
X66280551Y-31178601D01*
X66238950Y-31137000D01*
X66196983Y-31137000D01*
X66296061Y-31037922D01*
X66365380Y-30870569D01*
X66385000Y-30850950D01*
X66385000Y-30823204D01*
X66385000Y-30810796D01*
X66385000Y-30783050D01*
X66365380Y-30763430D01*
X66296061Y-30596078D01*
X66196983Y-30497000D01*
X66238950Y-30497000D01*
X66385000Y-30350950D01*
X66385000Y-30310796D01*
X66296061Y-30096078D01*
X66131723Y-29931739D01*
X65917005Y-29842800D01*
X65724650Y-29842800D01*
X65615000Y-29952450D01*
X65615000Y-29875796D01*
X65526061Y-29661078D01*
X65361723Y-29496739D01*
X65297469Y-29470124D01*
X65297469Y-29366816D01*
X65303400Y-29337000D01*
X65303400Y-29251899D01*
X65543046Y-29012252D01*
X65543049Y-29012250D01*
X65543050Y-29012250D01*
X65647664Y-28855683D01*
X65684400Y-28671000D01*
X65684400Y-27891947D01*
X65876999Y-27699685D01*
X66003656Y-27394662D01*
X66003944Y-27064387D01*
X65877820Y-26759144D01*
X65662053Y-26543000D01*
X66446400Y-26543000D01*
X66446400Y-27708072D01*
X66341638Y-27776890D01*
X66267564Y-27886627D01*
X66241531Y-28016440D01*
X66241531Y-28416440D01*
X66265959Y-28542344D01*
X66338650Y-28653002D01*
X66358058Y-28666103D01*
X66341638Y-28676890D01*
X66267564Y-28786627D01*
X66241531Y-28916440D01*
X66241531Y-29316440D01*
X66265959Y-29442344D01*
X66338650Y-29553002D01*
X66448387Y-29627076D01*
X66578200Y-29653109D01*
X66768291Y-29653109D01*
X66883671Y-29768489D01*
X67031997Y-29867598D01*
X67206960Y-29902400D01*
X67372416Y-29902400D01*
X67300539Y-29974277D01*
X67211600Y-30188995D01*
X67211600Y-30229150D01*
X67357650Y-30375200D01*
X67635415Y-30375200D01*
X67665987Y-30395836D01*
X67795800Y-30421869D01*
X68418600Y-30421869D01*
X68418600Y-30468531D01*
X68418600Y-30468531D01*
G37*
X68418600Y-30468531D02*
X67795800Y-30468531D01*
X67669896Y-30492959D01*
X67636038Y-30515200D01*
X67357650Y-30515200D01*
X67310474Y-30562375D01*
X67310473Y-30562376D01*
X67273477Y-30569735D01*
X67141632Y-30657832D01*
X66697078Y-31102385D01*
X66465499Y-31102183D01*
X66385000Y-31135444D01*
X66280551Y-31178601D01*
X66238950Y-31137000D01*
X66196983Y-31137000D01*
X66296061Y-31037922D01*
X66365380Y-30870569D01*
X66385000Y-30850950D01*
X66385000Y-30823204D01*
X66385000Y-30810796D01*
X66385000Y-30783050D01*
X66365380Y-30763430D01*
X66296061Y-30596078D01*
X66196983Y-30497000D01*
X66238950Y-30497000D01*
X66385000Y-30350950D01*
X66385000Y-30310796D01*
X66296061Y-30096078D01*
X66131723Y-29931739D01*
X65917005Y-29842800D01*
X65724650Y-29842800D01*
X65615000Y-29952450D01*
X65615000Y-29875796D01*
X65526061Y-29661078D01*
X65361723Y-29496739D01*
X65297469Y-29470124D01*
X65297469Y-29366816D01*
X65303400Y-29337000D01*
X65303400Y-29251899D01*
X65543046Y-29012252D01*
X65543049Y-29012250D01*
X65543050Y-29012250D01*
X65647664Y-28855683D01*
X65684400Y-28671000D01*
X65684400Y-27891947D01*
X65876999Y-27699685D01*
X66003656Y-27394662D01*
X66003944Y-27064387D01*
X65877820Y-26759144D01*
X65662053Y-26543000D01*
X66446400Y-26543000D01*
X66446400Y-27708072D01*
X66341638Y-27776890D01*
X66267564Y-27886627D01*
X66241531Y-28016440D01*
X66241531Y-28416440D01*
X66265959Y-28542344D01*
X66338650Y-28653002D01*
X66358058Y-28666103D01*
X66341638Y-28676890D01*
X66267564Y-28786627D01*
X66241531Y-28916440D01*
X66241531Y-29316440D01*
X66265959Y-29442344D01*
X66338650Y-29553002D01*
X66448387Y-29627076D01*
X66578200Y-29653109D01*
X66768291Y-29653109D01*
X66883671Y-29768489D01*
X67031997Y-29867598D01*
X67206960Y-29902400D01*
X67372416Y-29902400D01*
X67300539Y-29974277D01*
X67211600Y-30188995D01*
X67211600Y-30229150D01*
X67357650Y-30375200D01*
X67635415Y-30375200D01*
X67665987Y-30395836D01*
X67795800Y-30421869D01*
X68418600Y-30421869D01*
X68418600Y-30468531D01*
G36*
X69494400Y-51806906D02*
X69466100Y-51801231D01*
X68625862Y-51801231D01*
X68638420Y-51770915D01*
X68638420Y-51701065D01*
X68492370Y-51555015D01*
X67904360Y-51555015D01*
X67904360Y-51653120D01*
X67604640Y-51653120D01*
X67604640Y-51555015D01*
X67604640Y-51355625D01*
X67604640Y-50817780D01*
X67458590Y-50671730D01*
X67338576Y-50671730D01*
X67123858Y-50760669D01*
X66959519Y-50925007D01*
X66870580Y-51139725D01*
X66870580Y-51209575D01*
X67016630Y-51355625D01*
X67604640Y-51355625D01*
X67604640Y-51555015D01*
X67016630Y-51555015D01*
X66870580Y-51701065D01*
X66870580Y-51770915D01*
X66920817Y-51892200D01*
X65861334Y-51892200D01*
X65709800Y-51740400D01*
X65709800Y-50801882D01*
X65723626Y-50792800D01*
X66402800Y-50792800D01*
X66587483Y-50756064D01*
X66744050Y-50651450D01*
X67270250Y-50125250D01*
X67374864Y-49968683D01*
X67411600Y-49784000D01*
X67411600Y-49226631D01*
X67480219Y-49392293D01*
X67644558Y-49556631D01*
X67859276Y-49645570D01*
X67979290Y-49645570D01*
X68125340Y-49499520D01*
X68125340Y-48961675D01*
X68077400Y-48961675D01*
X68077400Y-48762285D01*
X68125340Y-48762285D01*
X68125340Y-48664180D01*
X68425060Y-48664180D01*
X68425060Y-48762285D01*
X68473000Y-48762285D01*
X68473000Y-48961675D01*
X68425060Y-48961675D01*
X68425060Y-49499520D01*
X68571110Y-49645570D01*
X68572535Y-49645570D01*
X68589402Y-49730363D01*
X68688511Y-49878689D01*
X68711053Y-49901231D01*
X68466100Y-49901231D01*
X68340196Y-49925659D01*
X68229538Y-49998350D01*
X68155464Y-50108087D01*
X68129431Y-50237900D01*
X68129431Y-50671730D01*
X68050410Y-50671730D01*
X67904360Y-50817780D01*
X67904360Y-51355625D01*
X68492370Y-51355625D01*
X68638420Y-51209575D01*
X68638420Y-51139725D01*
X68632142Y-51124569D01*
X69466100Y-51124569D01*
X69494400Y-51119078D01*
X69494400Y-51806906D01*
X69494400Y-51806906D01*
G37*
X69494400Y-51806906D02*
X69466100Y-51801231D01*
X68625862Y-51801231D01*
X68638420Y-51770915D01*
X68638420Y-51701065D01*
X68492370Y-51555015D01*
X67904360Y-51555015D01*
X67904360Y-51653120D01*
X67604640Y-51653120D01*
X67604640Y-51555015D01*
X67604640Y-51355625D01*
X67604640Y-50817780D01*
X67458590Y-50671730D01*
X67338576Y-50671730D01*
X67123858Y-50760669D01*
X66959519Y-50925007D01*
X66870580Y-51139725D01*
X66870580Y-51209575D01*
X67016630Y-51355625D01*
X67604640Y-51355625D01*
X67604640Y-51555015D01*
X67016630Y-51555015D01*
X66870580Y-51701065D01*
X66870580Y-51770915D01*
X66920817Y-51892200D01*
X65861334Y-51892200D01*
X65709800Y-51740400D01*
X65709800Y-50801882D01*
X65723626Y-50792800D01*
X66402800Y-50792800D01*
X66587483Y-50756064D01*
X66744050Y-50651450D01*
X67270250Y-50125250D01*
X67374864Y-49968683D01*
X67411600Y-49784000D01*
X67411600Y-49226631D01*
X67480219Y-49392293D01*
X67644558Y-49556631D01*
X67859276Y-49645570D01*
X67979290Y-49645570D01*
X68125340Y-49499520D01*
X68125340Y-48961675D01*
X68077400Y-48961675D01*
X68077400Y-48762285D01*
X68125340Y-48762285D01*
X68125340Y-48664180D01*
X68425060Y-48664180D01*
X68425060Y-48762285D01*
X68473000Y-48762285D01*
X68473000Y-48961675D01*
X68425060Y-48961675D01*
X68425060Y-49499520D01*
X68571110Y-49645570D01*
X68572535Y-49645570D01*
X68589402Y-49730363D01*
X68688511Y-49878689D01*
X68711053Y-49901231D01*
X68466100Y-49901231D01*
X68340196Y-49925659D01*
X68229538Y-49998350D01*
X68155464Y-50108087D01*
X68129431Y-50237900D01*
X68129431Y-50671730D01*
X68050410Y-50671730D01*
X67904360Y-50817780D01*
X67904360Y-51355625D01*
X68492370Y-51355625D01*
X68638420Y-51209575D01*
X68638420Y-51139725D01*
X68632142Y-51124569D01*
X69466100Y-51124569D01*
X69494400Y-51119078D01*
X69494400Y-51806906D01*
G36*
X69868138Y-30419282D02*
X69832221Y-30455200D01*
X69865188Y-30488167D01*
X69825420Y-30504640D01*
X69825103Y-30600628D01*
X69772732Y-30653000D01*
X69747179Y-30653000D01*
X69690800Y-30596621D01*
X69634421Y-30653000D01*
X69608868Y-30653000D01*
X69596628Y-30640760D01*
X69596180Y-30504640D01*
X69523079Y-30481499D01*
X69549379Y-30455200D01*
X69528127Y-30433948D01*
X69596180Y-30405760D01*
X69596628Y-30269639D01*
X69608868Y-30257400D01*
X69634421Y-30257400D01*
X69690800Y-30313779D01*
X69747179Y-30257400D01*
X69772732Y-30257400D01*
X69825103Y-30309771D01*
X69825420Y-30405760D01*
X69868138Y-30419282D01*
X69868138Y-30419282D01*
G37*
X69868138Y-30419282D02*
X69832221Y-30455200D01*
X69865188Y-30488167D01*
X69825420Y-30504640D01*
X69825103Y-30600628D01*
X69772732Y-30653000D01*
X69747179Y-30653000D01*
X69690800Y-30596621D01*
X69634421Y-30653000D01*
X69608868Y-30653000D01*
X69596628Y-30640760D01*
X69596180Y-30504640D01*
X69523079Y-30481499D01*
X69549379Y-30455200D01*
X69528127Y-30433948D01*
X69596180Y-30405760D01*
X69596628Y-30269639D01*
X69608868Y-30257400D01*
X69634421Y-30257400D01*
X69690800Y-30313779D01*
X69747179Y-30257400D01*
X69772732Y-30257400D01*
X69825103Y-30309771D01*
X69825420Y-30405760D01*
X69868138Y-30419282D01*
G36*
X69868138Y-34864282D02*
X69832221Y-34900200D01*
X69865188Y-34933167D01*
X69825420Y-34949640D01*
X69825103Y-35045628D01*
X69772732Y-35098000D01*
X69747179Y-35098000D01*
X69690800Y-35041621D01*
X69634421Y-35098000D01*
X69608868Y-35098000D01*
X69596628Y-35085760D01*
X69596180Y-34949640D01*
X69523079Y-34926499D01*
X69549379Y-34900200D01*
X69528127Y-34878948D01*
X69596180Y-34850760D01*
X69596628Y-34714639D01*
X69608868Y-34702400D01*
X69634421Y-34702400D01*
X69690800Y-34758779D01*
X69747179Y-34702400D01*
X69772732Y-34702400D01*
X69825103Y-34754771D01*
X69825420Y-34850760D01*
X69868138Y-34864282D01*
X69868138Y-34864282D01*
G37*
X69868138Y-34864282D02*
X69832221Y-34900200D01*
X69865188Y-34933167D01*
X69825420Y-34949640D01*
X69825103Y-35045628D01*
X69772732Y-35098000D01*
X69747179Y-35098000D01*
X69690800Y-35041621D01*
X69634421Y-35098000D01*
X69608868Y-35098000D01*
X69596628Y-35085760D01*
X69596180Y-34949640D01*
X69523079Y-34926499D01*
X69549379Y-34900200D01*
X69528127Y-34878948D01*
X69596180Y-34850760D01*
X69596628Y-34714639D01*
X69608868Y-34702400D01*
X69634421Y-34702400D01*
X69690800Y-34758779D01*
X69747179Y-34702400D01*
X69772732Y-34702400D01*
X69825103Y-34754771D01*
X69825420Y-34850760D01*
X69868138Y-34864282D01*
G36*
X70315178Y-39426122D02*
X70279261Y-39462040D01*
X70312228Y-39495007D01*
X70272460Y-39511480D01*
X70272143Y-39607468D01*
X70219772Y-39659840D01*
X70194219Y-39659840D01*
X70137840Y-39603461D01*
X70081461Y-39659840D01*
X70055908Y-39659840D01*
X70043668Y-39647600D01*
X70043220Y-39511480D01*
X69970119Y-39488339D01*
X69996419Y-39462040D01*
X69975167Y-39440788D01*
X70043220Y-39412600D01*
X70043668Y-39276479D01*
X70055908Y-39264240D01*
X70081461Y-39264240D01*
X70137840Y-39320619D01*
X70194219Y-39264240D01*
X70219772Y-39264240D01*
X70272143Y-39316611D01*
X70272460Y-39412600D01*
X70315178Y-39426122D01*
X70315178Y-39426122D01*
G37*
X70315178Y-39426122D02*
X70279261Y-39462040D01*
X70312228Y-39495007D01*
X70272460Y-39511480D01*
X70272143Y-39607468D01*
X70219772Y-39659840D01*
X70194219Y-39659840D01*
X70137840Y-39603461D01*
X70081461Y-39659840D01*
X70055908Y-39659840D01*
X70043668Y-39647600D01*
X70043220Y-39511480D01*
X69970119Y-39488339D01*
X69996419Y-39462040D01*
X69975167Y-39440788D01*
X70043220Y-39412600D01*
X70043668Y-39276479D01*
X70055908Y-39264240D01*
X70081461Y-39264240D01*
X70137840Y-39320619D01*
X70194219Y-39264240D01*
X70219772Y-39264240D01*
X70272143Y-39316611D01*
X70272460Y-39412600D01*
X70315178Y-39426122D01*
G36*
X71599500Y-28721000D02*
X71494650Y-28721000D01*
X71348600Y-28867050D01*
X71348600Y-29375200D01*
X71368600Y-29375200D01*
X71368600Y-29462600D01*
X71170800Y-29462600D01*
X71140983Y-29468531D01*
X71100000Y-29468531D01*
X71100000Y-29138995D01*
X71011061Y-28924277D01*
X70993000Y-28906216D01*
X70993000Y-28867050D01*
X70846950Y-28721000D01*
X70752714Y-28721000D01*
X70632004Y-28671000D01*
X70565350Y-28671000D01*
X70665000Y-28571350D01*
X70665000Y-28378995D01*
X70576061Y-28164277D01*
X70411722Y-27999939D01*
X70197004Y-27911000D01*
X70156850Y-27911000D01*
X70010800Y-28057050D01*
X70010800Y-28099016D01*
X69911722Y-27999939D01*
X69744369Y-27930619D01*
X69724750Y-27911000D01*
X69697004Y-27911000D01*
X69684596Y-27911000D01*
X69656850Y-27911000D01*
X69637230Y-27930619D01*
X69469878Y-27999939D01*
X69370800Y-28099016D01*
X69370800Y-28057050D01*
X69224750Y-27911000D01*
X69184596Y-27911000D01*
X68969878Y-27999939D01*
X68910340Y-28059475D01*
X68871559Y-27965617D01*
X68682378Y-27776106D01*
X68435075Y-27673417D01*
X68167299Y-27673183D01*
X67919817Y-27775441D01*
X67730306Y-27964622D01*
X67627617Y-28211925D01*
X67627383Y-28479701D01*
X67729641Y-28727183D01*
X67814400Y-28812089D01*
X67814400Y-28968531D01*
X67795800Y-28968531D01*
X67695455Y-28988000D01*
X67514869Y-28988000D01*
X67514869Y-28916440D01*
X67490441Y-28790536D01*
X67417750Y-28679878D01*
X67398341Y-28666776D01*
X67414762Y-28655990D01*
X67488836Y-28546253D01*
X67514869Y-28416440D01*
X67514869Y-28016440D01*
X67490441Y-27890536D01*
X67417750Y-27779878D01*
X67310000Y-27707145D01*
X67310000Y-26543000D01*
X71019322Y-26543000D01*
X71019322Y-27940922D01*
X71056058Y-28125605D01*
X71160672Y-28282172D01*
X71599500Y-28721000D01*
X71599500Y-28721000D01*
G37*
X71599500Y-28721000D02*
X71494650Y-28721000D01*
X71348600Y-28867050D01*
X71348600Y-29375200D01*
X71368600Y-29375200D01*
X71368600Y-29462600D01*
X71170800Y-29462600D01*
X71140983Y-29468531D01*
X71100000Y-29468531D01*
X71100000Y-29138995D01*
X71011061Y-28924277D01*
X70993000Y-28906216D01*
X70993000Y-28867050D01*
X70846950Y-28721000D01*
X70752714Y-28721000D01*
X70632004Y-28671000D01*
X70565350Y-28671000D01*
X70665000Y-28571350D01*
X70665000Y-28378995D01*
X70576061Y-28164277D01*
X70411722Y-27999939D01*
X70197004Y-27911000D01*
X70156850Y-27911000D01*
X70010800Y-28057050D01*
X70010800Y-28099016D01*
X69911722Y-27999939D01*
X69744369Y-27930619D01*
X69724750Y-27911000D01*
X69697004Y-27911000D01*
X69684596Y-27911000D01*
X69656850Y-27911000D01*
X69637230Y-27930619D01*
X69469878Y-27999939D01*
X69370800Y-28099016D01*
X69370800Y-28057050D01*
X69224750Y-27911000D01*
X69184596Y-27911000D01*
X68969878Y-27999939D01*
X68910340Y-28059475D01*
X68871559Y-27965617D01*
X68682378Y-27776106D01*
X68435075Y-27673417D01*
X68167299Y-27673183D01*
X67919817Y-27775441D01*
X67730306Y-27964622D01*
X67627617Y-28211925D01*
X67627383Y-28479701D01*
X67729641Y-28727183D01*
X67814400Y-28812089D01*
X67814400Y-28968531D01*
X67795800Y-28968531D01*
X67695455Y-28988000D01*
X67514869Y-28988000D01*
X67514869Y-28916440D01*
X67490441Y-28790536D01*
X67417750Y-28679878D01*
X67398341Y-28666776D01*
X67414762Y-28655990D01*
X67488836Y-28546253D01*
X67514869Y-28416440D01*
X67514869Y-28016440D01*
X67490441Y-27890536D01*
X67417750Y-27779878D01*
X67310000Y-27707145D01*
X67310000Y-26543000D01*
X71019322Y-26543000D01*
X71019322Y-27940922D01*
X71056058Y-28125605D01*
X71160672Y-28282172D01*
X71599500Y-28721000D01*
G36*
X72346820Y-49017680D02*
X72063100Y-49301400D01*
X71575988Y-49301400D01*
X71648320Y-49126775D01*
X71648320Y-49056925D01*
X71502270Y-48910875D01*
X70914260Y-48910875D01*
X70914260Y-49008980D01*
X70614540Y-49008980D01*
X70614540Y-48910875D01*
X70026530Y-48910875D01*
X69880480Y-49056925D01*
X69880480Y-49126775D01*
X69954653Y-49305845D01*
X69849306Y-49326800D01*
X69469000Y-49326800D01*
X69469000Y-48145700D01*
X69434198Y-47970737D01*
X69335089Y-47822411D01*
X69334239Y-47821561D01*
X69448689Y-47745089D01*
X69660689Y-47533089D01*
X69759798Y-47384763D01*
X69794599Y-47209800D01*
X69794600Y-47209800D01*
X69794600Y-47127739D01*
X69823036Y-47085613D01*
X69837207Y-47014948D01*
X69850159Y-47081704D01*
X69880200Y-47127435D01*
X69880200Y-47198000D01*
X69915002Y-47372963D01*
X69924900Y-47387776D01*
X69924900Y-47393950D01*
X69937332Y-47406382D01*
X70014111Y-47521289D01*
X70140946Y-47648124D01*
X70128011Y-47712630D01*
X70128011Y-48111410D01*
X70129776Y-48120510D01*
X69969419Y-48280867D01*
X69880480Y-48495585D01*
X69880480Y-48565435D01*
X70026530Y-48711485D01*
X70614540Y-48711485D01*
X70614540Y-48613380D01*
X70914260Y-48613380D01*
X70914260Y-48711485D01*
X71502270Y-48711485D01*
X71648320Y-48565435D01*
X71648320Y-48495585D01*
X71559381Y-48280867D01*
X71398973Y-48120460D01*
X71400789Y-48111410D01*
X71400789Y-47757591D01*
X71415181Y-47792423D01*
X71604362Y-47981934D01*
X71851665Y-48084623D01*
X72119441Y-48084857D01*
X72346820Y-47990905D01*
X72346820Y-49017680D01*
X72346820Y-49017680D01*
G37*
X72346820Y-49017680D02*
X72063100Y-49301400D01*
X71575988Y-49301400D01*
X71648320Y-49126775D01*
X71648320Y-49056925D01*
X71502270Y-48910875D01*
X70914260Y-48910875D01*
X70914260Y-49008980D01*
X70614540Y-49008980D01*
X70614540Y-48910875D01*
X70026530Y-48910875D01*
X69880480Y-49056925D01*
X69880480Y-49126775D01*
X69954653Y-49305845D01*
X69849306Y-49326800D01*
X69469000Y-49326800D01*
X69469000Y-48145700D01*
X69434198Y-47970737D01*
X69335089Y-47822411D01*
X69334239Y-47821561D01*
X69448689Y-47745089D01*
X69660689Y-47533089D01*
X69759798Y-47384763D01*
X69794599Y-47209800D01*
X69794600Y-47209800D01*
X69794600Y-47127739D01*
X69823036Y-47085613D01*
X69837207Y-47014948D01*
X69850159Y-47081704D01*
X69880200Y-47127435D01*
X69880200Y-47198000D01*
X69915002Y-47372963D01*
X69924900Y-47387776D01*
X69924900Y-47393950D01*
X69937332Y-47406382D01*
X70014111Y-47521289D01*
X70140946Y-47648124D01*
X70128011Y-47712630D01*
X70128011Y-48111410D01*
X70129776Y-48120510D01*
X69969419Y-48280867D01*
X69880480Y-48495585D01*
X69880480Y-48565435D01*
X70026530Y-48711485D01*
X70614540Y-48711485D01*
X70614540Y-48613380D01*
X70914260Y-48613380D01*
X70914260Y-48711485D01*
X71502270Y-48711485D01*
X71648320Y-48565435D01*
X71648320Y-48495585D01*
X71559381Y-48280867D01*
X71398973Y-48120460D01*
X71400789Y-48111410D01*
X71400789Y-47757591D01*
X71415181Y-47792423D01*
X71604362Y-47981934D01*
X71851665Y-48084623D01*
X72119441Y-48084857D01*
X72346820Y-47990905D01*
X72346820Y-49017680D01*
G36*
X72595000Y-37259400D02*
X72497200Y-37259400D01*
X72497200Y-37307200D01*
X72297200Y-37307200D01*
X72297200Y-37259400D01*
X71759050Y-37259400D01*
X71613000Y-37405450D01*
X71613000Y-37525604D01*
X71701939Y-37740322D01*
X71815573Y-37853956D01*
X71795640Y-37873890D01*
X71795640Y-38382040D01*
X71815640Y-38382040D01*
X71815640Y-38469440D01*
X71617840Y-38469440D01*
X71588023Y-38475371D01*
X71547040Y-38475371D01*
X71547040Y-38145835D01*
X71458101Y-37931117D01*
X71440040Y-37913056D01*
X71440040Y-37873890D01*
X71293990Y-37727840D01*
X71199754Y-37727840D01*
X71079044Y-37677840D01*
X71012390Y-37677840D01*
X71112040Y-37578190D01*
X71112040Y-37385835D01*
X71023101Y-37171117D01*
X70858762Y-37006779D01*
X70665000Y-36926520D01*
X70665000Y-36794050D01*
X70555350Y-36684400D01*
X70632004Y-36684400D01*
X70846722Y-36595461D01*
X71011061Y-36431123D01*
X71037675Y-36366869D01*
X71140983Y-36366869D01*
X71170800Y-36372800D01*
X71700700Y-36372800D01*
X71754158Y-36426258D01*
X71701939Y-36478478D01*
X71613000Y-36693196D01*
X71613000Y-36813350D01*
X71759050Y-36959400D01*
X72297200Y-36959400D01*
X72297200Y-36911600D01*
X72497200Y-36911600D01*
X72497200Y-36959400D01*
X72595000Y-36959400D01*
X72595000Y-37259400D01*
X72595000Y-37259400D01*
G37*
X72595000Y-37259400D02*
X72497200Y-37259400D01*
X72497200Y-37307200D01*
X72297200Y-37307200D01*
X72297200Y-37259400D01*
X71759050Y-37259400D01*
X71613000Y-37405450D01*
X71613000Y-37525604D01*
X71701939Y-37740322D01*
X71815573Y-37853956D01*
X71795640Y-37873890D01*
X71795640Y-38382040D01*
X71815640Y-38382040D01*
X71815640Y-38469440D01*
X71617840Y-38469440D01*
X71588023Y-38475371D01*
X71547040Y-38475371D01*
X71547040Y-38145835D01*
X71458101Y-37931117D01*
X71440040Y-37913056D01*
X71440040Y-37873890D01*
X71293990Y-37727840D01*
X71199754Y-37727840D01*
X71079044Y-37677840D01*
X71012390Y-37677840D01*
X71112040Y-37578190D01*
X71112040Y-37385835D01*
X71023101Y-37171117D01*
X70858762Y-37006779D01*
X70665000Y-36926520D01*
X70665000Y-36794050D01*
X70555350Y-36684400D01*
X70632004Y-36684400D01*
X70846722Y-36595461D01*
X71011061Y-36431123D01*
X71037675Y-36366869D01*
X71140983Y-36366869D01*
X71170800Y-36372800D01*
X71700700Y-36372800D01*
X71754158Y-36426258D01*
X71701939Y-36478478D01*
X71613000Y-36693196D01*
X71613000Y-36813350D01*
X71759050Y-36959400D01*
X72297200Y-36959400D01*
X72297200Y-36911600D01*
X72497200Y-36911600D01*
X72497200Y-36959400D01*
X72595000Y-36959400D01*
X72595000Y-37259400D01*
G36*
X73687200Y-41399600D02*
X73589400Y-41399600D01*
X73589400Y-41447400D01*
X73389400Y-41447400D01*
X73389400Y-41399600D01*
X72851250Y-41399600D01*
X72779009Y-41471840D01*
X72720783Y-41432935D01*
X72565260Y-41402000D01*
X71112040Y-41402000D01*
X71112040Y-41355890D01*
X71002390Y-41246240D01*
X71079044Y-41246240D01*
X71293762Y-41157301D01*
X71458101Y-40992963D01*
X71484715Y-40928709D01*
X71588023Y-40928709D01*
X71617840Y-40934640D01*
X72705200Y-40934640D01*
X72705200Y-40953550D01*
X72851250Y-41099600D01*
X73389400Y-41099600D01*
X73389400Y-41051800D01*
X73589400Y-41051800D01*
X73589400Y-41099600D01*
X73687200Y-41099600D01*
X73687200Y-41399600D01*
X73687200Y-41399600D01*
G37*
X73687200Y-41399600D02*
X73589400Y-41399600D01*
X73589400Y-41447400D01*
X73389400Y-41447400D01*
X73389400Y-41399600D01*
X72851250Y-41399600D01*
X72779009Y-41471840D01*
X72720783Y-41432935D01*
X72565260Y-41402000D01*
X71112040Y-41402000D01*
X71112040Y-41355890D01*
X71002390Y-41246240D01*
X71079044Y-41246240D01*
X71293762Y-41157301D01*
X71458101Y-40992963D01*
X71484715Y-40928709D01*
X71588023Y-40928709D01*
X71617840Y-40934640D01*
X72705200Y-40934640D01*
X72705200Y-40953550D01*
X72851250Y-41099600D01*
X73389400Y-41099600D01*
X73389400Y-41051800D01*
X73589400Y-41051800D01*
X73589400Y-41099600D01*
X73687200Y-41099600D01*
X73687200Y-41399600D01*
G36*
X74149037Y-32473928D02*
X74137899Y-32529927D01*
X74137899Y-32748601D01*
X72978900Y-33907600D01*
X72180000Y-33907600D01*
X72180000Y-33674150D01*
X72180000Y-33633995D01*
X72109341Y-33463408D01*
X72170200Y-33402550D01*
X72170200Y-32814400D01*
X71632050Y-32814400D01*
X71486000Y-32960450D01*
X71486000Y-33080604D01*
X71521372Y-33166000D01*
X71494650Y-33166000D01*
X71348600Y-33312050D01*
X71348600Y-33820200D01*
X72033950Y-33820200D01*
X72180000Y-33674150D01*
X72180000Y-33907600D01*
X71170800Y-33907600D01*
X71140983Y-33913531D01*
X71100000Y-33913531D01*
X71100000Y-33583995D01*
X71011061Y-33369277D01*
X70993000Y-33351216D01*
X70993000Y-33312050D01*
X70846950Y-33166000D01*
X70752714Y-33166000D01*
X70632004Y-33116000D01*
X70565350Y-33116000D01*
X70665000Y-33016350D01*
X70665000Y-32823995D01*
X70606473Y-32682700D01*
X70665000Y-32541405D01*
X70665000Y-32349050D01*
X70555350Y-32239400D01*
X70632004Y-32239400D01*
X70846722Y-32150461D01*
X71011061Y-31986123D01*
X71037675Y-31921869D01*
X71140983Y-31921869D01*
X71170800Y-31927800D01*
X71680616Y-31927800D01*
X71574939Y-32033478D01*
X71486000Y-32248196D01*
X71486000Y-32368350D01*
X71632050Y-32514400D01*
X72170200Y-32514400D01*
X72170200Y-32466600D01*
X72370200Y-32466600D01*
X72370200Y-32514400D01*
X72468000Y-32514400D01*
X72468000Y-32814400D01*
X72370200Y-32814400D01*
X72370200Y-33402550D01*
X72516250Y-33548600D01*
X72586405Y-33548600D01*
X72801123Y-33459661D01*
X72961465Y-33299317D01*
X72970200Y-33301069D01*
X73370200Y-33301069D01*
X73496104Y-33276641D01*
X73606762Y-33203950D01*
X73680836Y-33094213D01*
X73706869Y-32964400D01*
X73706869Y-32785867D01*
X74018921Y-32473814D01*
X74149037Y-32473928D01*
X74149037Y-32473928D01*
G37*
X74149037Y-32473928D02*
X74137899Y-32529927D01*
X74137899Y-32748601D01*
X72978900Y-33907600D01*
X72180000Y-33907600D01*
X72180000Y-33674150D01*
X72180000Y-33633995D01*
X72109341Y-33463408D01*
X72170200Y-33402550D01*
X72170200Y-32814400D01*
X71632050Y-32814400D01*
X71486000Y-32960450D01*
X71486000Y-33080604D01*
X71521372Y-33166000D01*
X71494650Y-33166000D01*
X71348600Y-33312050D01*
X71348600Y-33820200D01*
X72033950Y-33820200D01*
X72180000Y-33674150D01*
X72180000Y-33907600D01*
X71170800Y-33907600D01*
X71140983Y-33913531D01*
X71100000Y-33913531D01*
X71100000Y-33583995D01*
X71011061Y-33369277D01*
X70993000Y-33351216D01*
X70993000Y-33312050D01*
X70846950Y-33166000D01*
X70752714Y-33166000D01*
X70632004Y-33116000D01*
X70565350Y-33116000D01*
X70665000Y-33016350D01*
X70665000Y-32823995D01*
X70606473Y-32682700D01*
X70665000Y-32541405D01*
X70665000Y-32349050D01*
X70555350Y-32239400D01*
X70632004Y-32239400D01*
X70846722Y-32150461D01*
X71011061Y-31986123D01*
X71037675Y-31921869D01*
X71140983Y-31921869D01*
X71170800Y-31927800D01*
X71680616Y-31927800D01*
X71574939Y-32033478D01*
X71486000Y-32248196D01*
X71486000Y-32368350D01*
X71632050Y-32514400D01*
X72170200Y-32514400D01*
X72170200Y-32466600D01*
X72370200Y-32466600D01*
X72370200Y-32514400D01*
X72468000Y-32514400D01*
X72468000Y-32814400D01*
X72370200Y-32814400D01*
X72370200Y-33402550D01*
X72516250Y-33548600D01*
X72586405Y-33548600D01*
X72801123Y-33459661D01*
X72961465Y-33299317D01*
X72970200Y-33301069D01*
X73370200Y-33301069D01*
X73496104Y-33276641D01*
X73606762Y-33203950D01*
X73680836Y-33094213D01*
X73706869Y-32964400D01*
X73706869Y-32785867D01*
X74018921Y-32473814D01*
X74149037Y-32473928D01*
G36*
X75069701Y-51721765D02*
X74861166Y-51930300D01*
X73831327Y-51930300D01*
X73908920Y-51742975D01*
X73908920Y-51673125D01*
X73762870Y-51527075D01*
X73174860Y-51527075D01*
X73174860Y-51625180D01*
X72875140Y-51625180D01*
X72875140Y-51527075D01*
X72287130Y-51527075D01*
X72213805Y-51600400D01*
X71843900Y-51600400D01*
X71843900Y-51660700D01*
X71488300Y-51660700D01*
X71488300Y-51600400D01*
X70727950Y-51600400D01*
X70581900Y-51746450D01*
X70581900Y-51854105D01*
X70670839Y-52068823D01*
X70829431Y-52227414D01*
X70829431Y-52501800D01*
X70349153Y-52501800D01*
X70422864Y-52391483D01*
X70459600Y-52206800D01*
X70459600Y-50266600D01*
X70829431Y-50266600D01*
X70829431Y-50698385D01*
X70670839Y-50856977D01*
X70581900Y-51071695D01*
X70581900Y-51179350D01*
X70727950Y-51325400D01*
X71488300Y-51325400D01*
X71488300Y-51265100D01*
X71843900Y-51265100D01*
X71843900Y-51325400D01*
X72284845Y-51325400D01*
X72287130Y-51327685D01*
X72875140Y-51327685D01*
X72875140Y-51229580D01*
X73174860Y-51229580D01*
X73174860Y-51327685D01*
X73762870Y-51327685D01*
X73908920Y-51181635D01*
X73908920Y-51111785D01*
X73903362Y-51098368D01*
X74056283Y-51067950D01*
X74056284Y-51067950D01*
X74141784Y-51010820D01*
X74141785Y-51010820D01*
X74932286Y-51010820D01*
X75069701Y-51148234D01*
X75069701Y-51721765D01*
X75069701Y-51721765D01*
G37*
X75069701Y-51721765D02*
X74861166Y-51930300D01*
X73831327Y-51930300D01*
X73908920Y-51742975D01*
X73908920Y-51673125D01*
X73762870Y-51527075D01*
X73174860Y-51527075D01*
X73174860Y-51625180D01*
X72875140Y-51625180D01*
X72875140Y-51527075D01*
X72287130Y-51527075D01*
X72213805Y-51600400D01*
X71843900Y-51600400D01*
X71843900Y-51660700D01*
X71488300Y-51660700D01*
X71488300Y-51600400D01*
X70727950Y-51600400D01*
X70581900Y-51746450D01*
X70581900Y-51854105D01*
X70670839Y-52068823D01*
X70829431Y-52227414D01*
X70829431Y-52501800D01*
X70349153Y-52501800D01*
X70422864Y-52391483D01*
X70459600Y-52206800D01*
X70459600Y-50266600D01*
X70829431Y-50266600D01*
X70829431Y-50698385D01*
X70670839Y-50856977D01*
X70581900Y-51071695D01*
X70581900Y-51179350D01*
X70727950Y-51325400D01*
X71488300Y-51325400D01*
X71488300Y-51265100D01*
X71843900Y-51265100D01*
X71843900Y-51325400D01*
X72284845Y-51325400D01*
X72287130Y-51327685D01*
X72875140Y-51327685D01*
X72875140Y-51229580D01*
X73174860Y-51229580D01*
X73174860Y-51327685D01*
X73762870Y-51327685D01*
X73908920Y-51181635D01*
X73908920Y-51111785D01*
X73903362Y-51098368D01*
X74056283Y-51067950D01*
X74056284Y-51067950D01*
X74141784Y-51010820D01*
X74141785Y-51010820D01*
X74932286Y-51010820D01*
X75069701Y-51148234D01*
X75069701Y-51721765D01*
G36*
X76708000Y-46726974D02*
X74607987Y-48826987D01*
X74512170Y-48970387D01*
X74512170Y-47659924D01*
X74512170Y-47539910D01*
X74512170Y-46948090D01*
X74512170Y-46828076D01*
X74423231Y-46613358D01*
X74366120Y-46556246D01*
X74366120Y-43487975D01*
X74366120Y-43418125D01*
X74220070Y-43272075D01*
X73632060Y-43272075D01*
X73632060Y-43809920D01*
X73778110Y-43955970D01*
X73898124Y-43955970D01*
X74112842Y-43867031D01*
X74277181Y-43702693D01*
X74366120Y-43487975D01*
X74366120Y-46556246D01*
X74258893Y-46449019D01*
X74044175Y-46360080D01*
X73974325Y-46360080D01*
X73828275Y-46506130D01*
X73828275Y-47094140D01*
X74366120Y-47094140D01*
X74512170Y-46948090D01*
X74512170Y-47539910D01*
X74366120Y-47393860D01*
X73828275Y-47393860D01*
X73828275Y-47981870D01*
X73974325Y-48127920D01*
X74044175Y-48127920D01*
X74258893Y-48038981D01*
X74423231Y-47874642D01*
X74512170Y-47659924D01*
X74512170Y-48970387D01*
X74470336Y-49032996D01*
X74469470Y-49037345D01*
X73627908Y-49878908D01*
X73584401Y-49944020D01*
X73086698Y-49944020D01*
X73009680Y-49928700D01*
X72800800Y-49928700D01*
X73170670Y-49558830D01*
X73275284Y-49402263D01*
X73312020Y-49217580D01*
X73312020Y-48086098D01*
X73412985Y-48127920D01*
X73482835Y-48127920D01*
X73628885Y-47981870D01*
X73628885Y-47393860D01*
X73530780Y-47393860D01*
X73530780Y-47094140D01*
X73628885Y-47094140D01*
X73628885Y-46506130D01*
X73482835Y-46360080D01*
X73412985Y-46360080D01*
X73198267Y-46449019D01*
X73037860Y-46609426D01*
X73028810Y-46607611D01*
X72875530Y-46607611D01*
X72580000Y-46312080D01*
X72580000Y-46226442D01*
X72623304Y-46218041D01*
X72733962Y-46145350D01*
X72808036Y-46035613D01*
X72834069Y-45905800D01*
X72834069Y-45555800D01*
X72819276Y-45479560D01*
X72834069Y-45405800D01*
X72834069Y-45055800D01*
X72819276Y-44979560D01*
X72834069Y-44905800D01*
X72834069Y-44555800D01*
X72819276Y-44479560D01*
X72834069Y-44405800D01*
X72834069Y-44055800D01*
X72819276Y-43979560D01*
X72834069Y-43905800D01*
X72834069Y-43895314D01*
X72859191Y-43870192D01*
X73066276Y-43955970D01*
X73186290Y-43955970D01*
X73332340Y-43809920D01*
X73332340Y-43272075D01*
X72744330Y-43272075D01*
X72713199Y-43303205D01*
X72627213Y-43245164D01*
X72497400Y-43219131D01*
X71899600Y-43219131D01*
X71899600Y-43143300D01*
X71919600Y-43143300D01*
X71919600Y-42617650D01*
X71849069Y-42547119D01*
X71849069Y-42214800D01*
X72396924Y-42214800D01*
X72682092Y-42499968D01*
X72613605Y-42471600D01*
X72421250Y-42471600D01*
X72275200Y-42617650D01*
X72275200Y-43143300D01*
X72935550Y-43143300D01*
X73006165Y-43072685D01*
X73081600Y-43072685D01*
X73332340Y-43072685D01*
X73332340Y-42974580D01*
X73632060Y-42974580D01*
X73632060Y-43072685D01*
X74220070Y-43072685D01*
X74366120Y-42926635D01*
X74366120Y-42856785D01*
X74277181Y-42642067D01*
X74116773Y-42481660D01*
X74118589Y-42472610D01*
X74118589Y-42073830D01*
X74097914Y-41967269D01*
X74180665Y-41884517D01*
X74189400Y-41886269D01*
X74589400Y-41886269D01*
X74715304Y-41861841D01*
X74825962Y-41789150D01*
X74900036Y-41679413D01*
X74902689Y-41666182D01*
X75005422Y-41769094D01*
X75252725Y-41871783D01*
X75520501Y-41872017D01*
X75767983Y-41769759D01*
X75957494Y-41580578D01*
X76060183Y-41333275D01*
X76060417Y-41065499D01*
X75958159Y-40818017D01*
X75768978Y-40628506D01*
X75706926Y-40602740D01*
X76009256Y-40477820D01*
X76242999Y-40244485D01*
X76369656Y-39939462D01*
X76369944Y-39609187D01*
X76243820Y-39303944D01*
X76010485Y-39070201D01*
X75898358Y-39023641D01*
X76009256Y-38977820D01*
X76242999Y-38744485D01*
X76369656Y-38439462D01*
X76369944Y-38109187D01*
X76243820Y-37803944D01*
X76010485Y-37570201D01*
X75709150Y-37445075D01*
X76126106Y-37028120D01*
X76708000Y-37028120D01*
X76708000Y-40123782D01*
X76708000Y-46726974D01*
X76708000Y-46726974D01*
G37*
X76708000Y-46726974D02*
X74607987Y-48826987D01*
X74512170Y-48970387D01*
X74512170Y-47659924D01*
X74512170Y-47539910D01*
X74512170Y-46948090D01*
X74512170Y-46828076D01*
X74423231Y-46613358D01*
X74366120Y-46556246D01*
X74366120Y-43487975D01*
X74366120Y-43418125D01*
X74220070Y-43272075D01*
X73632060Y-43272075D01*
X73632060Y-43809920D01*
X73778110Y-43955970D01*
X73898124Y-43955970D01*
X74112842Y-43867031D01*
X74277181Y-43702693D01*
X74366120Y-43487975D01*
X74366120Y-46556246D01*
X74258893Y-46449019D01*
X74044175Y-46360080D01*
X73974325Y-46360080D01*
X73828275Y-46506130D01*
X73828275Y-47094140D01*
X74366120Y-47094140D01*
X74512170Y-46948090D01*
X74512170Y-47539910D01*
X74366120Y-47393860D01*
X73828275Y-47393860D01*
X73828275Y-47981870D01*
X73974325Y-48127920D01*
X74044175Y-48127920D01*
X74258893Y-48038981D01*
X74423231Y-47874642D01*
X74512170Y-47659924D01*
X74512170Y-48970387D01*
X74470336Y-49032996D01*
X74469470Y-49037345D01*
X73627908Y-49878908D01*
X73584401Y-49944020D01*
X73086698Y-49944020D01*
X73009680Y-49928700D01*
X72800800Y-49928700D01*
X73170670Y-49558830D01*
X73275284Y-49402263D01*
X73312020Y-49217580D01*
X73312020Y-48086098D01*
X73412985Y-48127920D01*
X73482835Y-48127920D01*
X73628885Y-47981870D01*
X73628885Y-47393860D01*
X73530780Y-47393860D01*
X73530780Y-47094140D01*
X73628885Y-47094140D01*
X73628885Y-46506130D01*
X73482835Y-46360080D01*
X73412985Y-46360080D01*
X73198267Y-46449019D01*
X73037860Y-46609426D01*
X73028810Y-46607611D01*
X72875530Y-46607611D01*
X72580000Y-46312080D01*
X72580000Y-46226442D01*
X72623304Y-46218041D01*
X72733962Y-46145350D01*
X72808036Y-46035613D01*
X72834069Y-45905800D01*
X72834069Y-45555800D01*
X72819276Y-45479560D01*
X72834069Y-45405800D01*
X72834069Y-45055800D01*
X72819276Y-44979560D01*
X72834069Y-44905800D01*
X72834069Y-44555800D01*
X72819276Y-44479560D01*
X72834069Y-44405800D01*
X72834069Y-44055800D01*
X72819276Y-43979560D01*
X72834069Y-43905800D01*
X72834069Y-43895314D01*
X72859191Y-43870192D01*
X73066276Y-43955970D01*
X73186290Y-43955970D01*
X73332340Y-43809920D01*
X73332340Y-43272075D01*
X72744330Y-43272075D01*
X72713199Y-43303205D01*
X72627213Y-43245164D01*
X72497400Y-43219131D01*
X71899600Y-43219131D01*
X71899600Y-43143300D01*
X71919600Y-43143300D01*
X71919600Y-42617650D01*
X71849069Y-42547119D01*
X71849069Y-42214800D01*
X72396924Y-42214800D01*
X72682092Y-42499968D01*
X72613605Y-42471600D01*
X72421250Y-42471600D01*
X72275200Y-42617650D01*
X72275200Y-43143300D01*
X72935550Y-43143300D01*
X73006165Y-43072685D01*
X73081600Y-43072685D01*
X73332340Y-43072685D01*
X73332340Y-42974580D01*
X73632060Y-42974580D01*
X73632060Y-43072685D01*
X74220070Y-43072685D01*
X74366120Y-42926635D01*
X74366120Y-42856785D01*
X74277181Y-42642067D01*
X74116773Y-42481660D01*
X74118589Y-42472610D01*
X74118589Y-42073830D01*
X74097914Y-41967269D01*
X74180665Y-41884517D01*
X74189400Y-41886269D01*
X74589400Y-41886269D01*
X74715304Y-41861841D01*
X74825962Y-41789150D01*
X74900036Y-41679413D01*
X74902689Y-41666182D01*
X75005422Y-41769094D01*
X75252725Y-41871783D01*
X75520501Y-41872017D01*
X75767983Y-41769759D01*
X75957494Y-41580578D01*
X76060183Y-41333275D01*
X76060417Y-41065499D01*
X75958159Y-40818017D01*
X75768978Y-40628506D01*
X75706926Y-40602740D01*
X76009256Y-40477820D01*
X76242999Y-40244485D01*
X76369656Y-39939462D01*
X76369944Y-39609187D01*
X76243820Y-39303944D01*
X76010485Y-39070201D01*
X75898358Y-39023641D01*
X76009256Y-38977820D01*
X76242999Y-38744485D01*
X76369656Y-38439462D01*
X76369944Y-38109187D01*
X76243820Y-37803944D01*
X76010485Y-37570201D01*
X75709150Y-37445075D01*
X76126106Y-37028120D01*
X76708000Y-37028120D01*
X76708000Y-40123782D01*
X76708000Y-46726974D01*
G36*
X78536085Y-52501800D02*
X75654666Y-52501800D01*
X75893551Y-52262915D01*
X75998165Y-52106348D01*
X76034901Y-51921665D01*
X76034901Y-50948335D01*
X75998165Y-50763652D01*
X75893551Y-50607085D01*
X75893547Y-50607082D01*
X75473436Y-50186970D01*
X75316869Y-50082356D01*
X75132186Y-50045620D01*
X75113564Y-50045620D01*
X75295654Y-49863529D01*
X75300004Y-49862664D01*
X75506013Y-49725013D01*
X77792013Y-47439013D01*
X77929664Y-47233004D01*
X77978000Y-46990000D01*
X77978000Y-40123782D01*
X77978000Y-36545520D01*
X77978000Y-32258000D01*
X77929664Y-32014996D01*
X77929664Y-32014995D01*
X77874528Y-31932479D01*
X77792013Y-31808987D01*
X77792009Y-31808984D01*
X77284013Y-31300987D01*
X77078004Y-31163336D01*
X77052155Y-31158194D01*
X77190600Y-31019750D01*
X77190600Y-29743400D01*
X77170600Y-29743400D01*
X77170600Y-29387800D01*
X77190600Y-29387800D01*
X77190600Y-29367800D01*
X77546200Y-29367800D01*
X77546200Y-29387800D01*
X77566200Y-29387800D01*
X77566200Y-29743400D01*
X77546200Y-29743400D01*
X77546200Y-31019750D01*
X77692250Y-31165800D01*
X78268195Y-31165800D01*
X78336682Y-31165800D01*
X78536085Y-52501800D01*
X78536085Y-52501800D01*
G37*
X78536085Y-52501800D02*
X75654666Y-52501800D01*
X75893551Y-52262915D01*
X75998165Y-52106348D01*
X76034901Y-51921665D01*
X76034901Y-50948335D01*
X75998165Y-50763652D01*
X75893551Y-50607085D01*
X75893547Y-50607082D01*
X75473436Y-50186970D01*
X75316869Y-50082356D01*
X75132186Y-50045620D01*
X75113564Y-50045620D01*
X75295654Y-49863529D01*
X75300004Y-49862664D01*
X75506013Y-49725013D01*
X77792013Y-47439013D01*
X77929664Y-47233004D01*
X77978000Y-46990000D01*
X77978000Y-40123782D01*
X77978000Y-36545520D01*
X77978000Y-32258000D01*
X77929664Y-32014996D01*
X77929664Y-32014995D01*
X77874528Y-31932479D01*
X77792013Y-31808987D01*
X77792009Y-31808984D01*
X77284013Y-31300987D01*
X77078004Y-31163336D01*
X77052155Y-31158194D01*
X77190600Y-31019750D01*
X77190600Y-29743400D01*
X77170600Y-29743400D01*
X77170600Y-29387800D01*
X77190600Y-29387800D01*
X77190600Y-29367800D01*
X77546200Y-29367800D01*
X77546200Y-29387800D01*
X77566200Y-29387800D01*
X77566200Y-29743400D01*
X77546200Y-29743400D01*
X77546200Y-31019750D01*
X77692250Y-31165800D01*
X78268195Y-31165800D01*
X78336682Y-31165800D01*
X78536085Y-52501800D01*
M02*
