G04 #@! TF.FileFunction,Legend,Bot*
%FSLAX46Y46*%
G04 Gerber Fmt 4.6, Leading zero omitted, Abs format (unit mm)*
G04 Created by KiCad (PCBNEW (2014-12-04 BZR 5312)-product) date 1/18/2015 1:46:40 PM*
%MOMM*%
G01*
G04 APERTURE LIST*
%ADD10C,0.100000*%
%ADD11C,0.300000*%
G04 APERTURE END LIST*
D10*
D11*
X68402862Y-32511537D02*
X68902862Y-32511537D01*
X68902862Y-33297251D02*
X68902862Y-31797251D01*
X68188576Y-31797251D01*
X67402862Y-33297251D02*
X67545720Y-33225823D01*
X67617148Y-33082966D01*
X67617148Y-31797251D01*
X66974291Y-32297251D02*
X66617148Y-33297251D01*
X66260006Y-32297251D02*
X66617148Y-33297251D01*
X66760006Y-33654394D01*
X66831434Y-33725823D01*
X66974291Y-33797251D01*
X64545720Y-33297251D02*
X64545720Y-31797251D01*
X64545720Y-32368680D02*
X64402863Y-32297251D01*
X64117149Y-32297251D01*
X63974292Y-32368680D01*
X63902863Y-32440109D01*
X63831434Y-32582966D01*
X63831434Y-33011537D01*
X63902863Y-33154394D01*
X63974292Y-33225823D01*
X64117149Y-33297251D01*
X64402863Y-33297251D01*
X64545720Y-33225823D01*
X62545720Y-33297251D02*
X62545720Y-32511537D01*
X62617149Y-32368680D01*
X62760006Y-32297251D01*
X63045720Y-32297251D01*
X63188577Y-32368680D01*
X62545720Y-33225823D02*
X62688577Y-33297251D01*
X63045720Y-33297251D01*
X63188577Y-33225823D01*
X63260006Y-33082966D01*
X63260006Y-32940109D01*
X63188577Y-32797251D01*
X63045720Y-32725823D01*
X62688577Y-32725823D01*
X62545720Y-32654394D01*
X61831434Y-33297251D02*
X61831434Y-31797251D01*
X61831434Y-32368680D02*
X61688577Y-32297251D01*
X61402863Y-32297251D01*
X61260006Y-32368680D01*
X61188577Y-32440109D01*
X61117148Y-32582966D01*
X61117148Y-33011537D01*
X61188577Y-33154394D01*
X61260006Y-33225823D01*
X61402863Y-33297251D01*
X61688577Y-33297251D01*
X61831434Y-33225823D01*
X60617148Y-32297251D02*
X60260005Y-33297251D01*
X59902863Y-32297251D02*
X60260005Y-33297251D01*
X60402863Y-33654394D01*
X60474291Y-33725823D01*
X60617148Y-33797251D01*
X59331434Y-33154394D02*
X59260006Y-33225823D01*
X59331434Y-33297251D01*
X59402863Y-33225823D01*
X59331434Y-33154394D01*
X59331434Y-33297251D01*
X59331434Y-32725823D02*
X59402863Y-31868680D01*
X59331434Y-31797251D01*
X59260006Y-31868680D01*
X59331434Y-32725823D01*
X59331434Y-31797251D01*
M02*
