G04 #@! TF.FileFunction,Copper,L2,Bot,Signal*
%FSLAX46Y46*%
G04 Gerber Fmt 4.6, Leading zero omitted, Abs format (unit mm)*
G04 Created by KiCad (PCBNEW (2014-12-04 BZR 5312)-product) date 1/18/2015 1:46:40 PM*
%MOMM*%
G01*
G04 APERTURE LIST*
%ADD10C,0.100000*%
%ADD11C,0.883200*%
%ADD12R,2.032000X2.032000*%
%ADD13O,2.032000X2.032000*%
%ADD14C,1.117600*%
%ADD15C,1.524000*%
%ADD16C,0.685800*%
%ADD17C,0.406400*%
%ADD18C,0.203200*%
%ADD19C,0.304800*%
%ADD20C,0.152400*%
G04 APERTURE END LIST*
D10*
D11*
X47384920Y-45724880D03*
X47384920Y-44624880D03*
X47384920Y-46824880D03*
X70335140Y-30429200D03*
X57184920Y-46124880D03*
X61184920Y-43724880D03*
X47384920Y-43524880D03*
D12*
X52084920Y-55594880D03*
D13*
X52084920Y-53054880D03*
D11*
X67246500Y-48143160D03*
X68668900Y-48112680D03*
X47384920Y-48824880D03*
D14*
X60635240Y-28883200D03*
X61905240Y-28883200D03*
X63175240Y-28883200D03*
X64445240Y-28883200D03*
X65715240Y-28883200D03*
X66985240Y-28883200D03*
D15*
X55984920Y-34424880D03*
X53444920Y-34424880D03*
X50904920Y-34424880D03*
X48364920Y-34424880D03*
X55984920Y-31884880D03*
X53444920Y-31884880D03*
X50904920Y-31884880D03*
X48364920Y-31884880D03*
X55984920Y-29344880D03*
X53444920Y-29344880D03*
X50904920Y-29344880D03*
X48364920Y-29344880D03*
X56784920Y-50524880D03*
X59324920Y-50524880D03*
X61864920Y-50524880D03*
X64404920Y-50524880D03*
X56784920Y-53064880D03*
X59324920Y-53064880D03*
X61864920Y-53064880D03*
X64404920Y-53064880D03*
X56784920Y-55604880D03*
X59324920Y-55604880D03*
X61864920Y-55604880D03*
X64404920Y-55604880D03*
D16*
X50937160Y-46581060D03*
X53314810Y-39224880D03*
X55135780Y-37581840D03*
X61813440Y-33769300D03*
X65615820Y-32842200D03*
X68940680Y-38701980D03*
X64129920Y-40667940D03*
X64058800Y-46476920D03*
X54175660Y-47990760D03*
X49649380Y-36888420D03*
X53481700Y-42062400D03*
X52717900Y-42823200D03*
X53456300Y-43561000D03*
X51983100Y-43561000D03*
X51983100Y-42087800D03*
X56578500Y-42575480D03*
X58211730Y-41607740D03*
X67520820Y-38948360D03*
X57741820Y-43152010D03*
X60622180Y-45651420D03*
X56525160Y-39657020D03*
X59146440Y-36677600D03*
X55882540Y-38839140D03*
X59723020Y-35859720D03*
X61770260Y-45072300D03*
X54983380Y-40157400D03*
X68353940Y-41305480D03*
X65913000Y-39923720D03*
X58691780Y-40149780D03*
D17*
X50937160Y-46581060D02*
X50937160Y-46096127D01*
X50937160Y-46096127D02*
X50594260Y-45753227D01*
X50594260Y-45753227D02*
X50594260Y-41285160D01*
X50594260Y-41285160D02*
X51427380Y-40452040D01*
X51427380Y-40452040D02*
X52710080Y-40452040D01*
X52710080Y-40452040D02*
X53314810Y-39847310D01*
X53314810Y-39847310D02*
X53314810Y-39224880D01*
X47384920Y-48824880D02*
X48693340Y-48824880D01*
X48693340Y-48824880D02*
X50937160Y-46581060D01*
X53314810Y-39224880D02*
X54957850Y-37581840D01*
X54957850Y-37581840D02*
X55135780Y-37581840D01*
D18*
X52717900Y-42823200D02*
X53478700Y-42062400D01*
X53478700Y-42062400D02*
X53481700Y-42062400D01*
X52718500Y-42823200D02*
X53456300Y-43561000D01*
X52717900Y-42823200D02*
X52718500Y-42823200D01*
X52717900Y-42826200D02*
X51983100Y-43561000D01*
X52717900Y-42823200D02*
X52717900Y-42826200D01*
X52717900Y-42822600D02*
X51983100Y-42087800D01*
X52717900Y-42823200D02*
X52717900Y-42822600D01*
X57546240Y-41607740D02*
X58211730Y-41607740D01*
X56578500Y-42575480D02*
X57546240Y-41607740D01*
D19*
X67246500Y-46758860D02*
X67246500Y-48143160D01*
X69001641Y-45003719D02*
X67246500Y-46758860D01*
X69001641Y-40429181D02*
X69001641Y-45003719D01*
X67520820Y-38948360D02*
X69001641Y-40429181D01*
D18*
X58011460Y-45651420D02*
X60622180Y-45651420D01*
X57741820Y-45381780D02*
X58011460Y-45651420D01*
X57741820Y-43152010D02*
X57741820Y-45381780D01*
X56525160Y-39657020D02*
X59146440Y-37035740D01*
X59146440Y-37035740D02*
X59146440Y-36677600D01*
X58861960Y-35859720D02*
X59723020Y-35859720D01*
X55882540Y-38839140D02*
X58861960Y-35859720D01*
X61770260Y-45466000D02*
X61770260Y-45072300D01*
X60942220Y-46294040D02*
X61770260Y-45466000D01*
X57354080Y-46294040D02*
X60942220Y-46294040D01*
X57184920Y-46124880D02*
X57354080Y-46294040D01*
X68011041Y-40962581D02*
X66276221Y-40962581D01*
X68353940Y-41305480D02*
X68011041Y-40962581D01*
X65913000Y-40599360D02*
X65913000Y-39923720D01*
X66276221Y-40962581D02*
X65913000Y-40599360D01*
X55326279Y-40500299D02*
X54983380Y-40157400D01*
X57856328Y-40500299D02*
X55326279Y-40500299D01*
X58206847Y-40149780D02*
X57856328Y-40500299D01*
X58691780Y-40149780D02*
X58206847Y-40149780D01*
D20*
G36*
X71242720Y-56952680D02*
X71107073Y-56952680D01*
X71107073Y-30276353D01*
X70989821Y-29992582D01*
X70772900Y-29775282D01*
X70489334Y-29657535D01*
X70182293Y-29657267D01*
X69898522Y-29774519D01*
X69681222Y-29991440D01*
X69563475Y-30275006D01*
X69563207Y-30582047D01*
X69680459Y-30865818D01*
X69897380Y-31083118D01*
X70180946Y-31200865D01*
X70487987Y-31201133D01*
X70771758Y-31083881D01*
X70989058Y-30866960D01*
X71106805Y-30583394D01*
X71107073Y-30276353D01*
X71107073Y-56952680D01*
X69712602Y-56952680D01*
X69712602Y-48180398D01*
X69659070Y-47775836D01*
X69607241Y-47650709D01*
X69484241Y-47627232D01*
X69484241Y-45003719D01*
X69484241Y-40429181D01*
X69447505Y-40244498D01*
X69342891Y-40087931D01*
X68193928Y-38938968D01*
X68194037Y-38815059D01*
X68091779Y-38567577D01*
X67902598Y-38378066D01*
X67655295Y-38275377D01*
X67387519Y-38275143D01*
X67140037Y-38377401D01*
X66950526Y-38566582D01*
X66847837Y-38813885D01*
X66847603Y-39081661D01*
X66949861Y-39329143D01*
X67139042Y-39518654D01*
X67386345Y-39621343D01*
X67511412Y-39621452D01*
X68519041Y-40629081D01*
X68519041Y-40645214D01*
X68488415Y-40632497D01*
X68279047Y-40632314D01*
X68176284Y-40563650D01*
X68011041Y-40530781D01*
X66455079Y-40530781D01*
X66356434Y-40432136D01*
X66483294Y-40305498D01*
X66585983Y-40058195D01*
X66586217Y-39790419D01*
X66483959Y-39542937D01*
X66294778Y-39353426D01*
X66047475Y-39250737D01*
X65779699Y-39250503D01*
X65532217Y-39352761D01*
X65342706Y-39541942D01*
X65240017Y-39789245D01*
X65239783Y-40057021D01*
X65342041Y-40304503D01*
X65481200Y-40443904D01*
X65481200Y-40599360D01*
X65514069Y-40764603D01*
X65607671Y-40904689D01*
X65970892Y-41267910D01*
X66110978Y-41361512D01*
X66110979Y-41361512D01*
X66276221Y-41394381D01*
X67680761Y-41394381D01*
X67680723Y-41438781D01*
X67782981Y-41686263D01*
X67972162Y-41875774D01*
X68219465Y-41978463D01*
X68487241Y-41978697D01*
X68519041Y-41965557D01*
X68519041Y-44803819D01*
X66905250Y-46417610D01*
X66800636Y-46574177D01*
X66763900Y-46758860D01*
X66763900Y-47534380D01*
X66592582Y-47705400D01*
X66474835Y-47988966D01*
X66474567Y-48296007D01*
X66591819Y-48579778D01*
X66808740Y-48797078D01*
X67092306Y-48914825D01*
X67399347Y-48915093D01*
X67683118Y-48797841D01*
X67878426Y-48602873D01*
X67919433Y-48610700D01*
X68417453Y-48112680D01*
X67919433Y-47614660D01*
X67827059Y-47632290D01*
X67729100Y-47534160D01*
X67729100Y-46958760D01*
X69342891Y-45344969D01*
X69447505Y-45188402D01*
X69484241Y-45003719D01*
X69484241Y-47627232D01*
X69418367Y-47614660D01*
X69166920Y-47866107D01*
X69166920Y-47363213D01*
X69130871Y-47174339D01*
X68736618Y-47068978D01*
X68332056Y-47122510D01*
X68206929Y-47174339D01*
X68170880Y-47363213D01*
X68668900Y-47861233D01*
X69166920Y-47363213D01*
X69166920Y-47866107D01*
X68920347Y-48112680D01*
X69418367Y-48610700D01*
X69607241Y-48574651D01*
X69712602Y-48180398D01*
X69712602Y-56952680D01*
X69166920Y-56952680D01*
X69166920Y-48862147D01*
X68668900Y-48364127D01*
X68170880Y-48862147D01*
X68206929Y-49051021D01*
X68601182Y-49156382D01*
X69005744Y-49102850D01*
X69130871Y-49051021D01*
X69166920Y-48862147D01*
X69166920Y-56952680D01*
X65769831Y-56952680D01*
X65769831Y-55749714D01*
X65721359Y-55216360D01*
X65610508Y-54948742D01*
X65497309Y-54909810D01*
X65497309Y-52848581D01*
X65497309Y-50308581D01*
X65331382Y-49907007D01*
X65024409Y-49599498D01*
X64623125Y-49432870D01*
X64188621Y-49432491D01*
X63787047Y-49598418D01*
X63479538Y-49905391D01*
X63312910Y-50306675D01*
X63312531Y-50741179D01*
X63478458Y-51142753D01*
X63785431Y-51450262D01*
X64186715Y-51616890D01*
X64621219Y-51617269D01*
X65022793Y-51451342D01*
X65330302Y-51144369D01*
X65496930Y-50743085D01*
X65497309Y-50308581D01*
X65497309Y-52848581D01*
X65331382Y-52447007D01*
X65024409Y-52139498D01*
X64623125Y-51972870D01*
X64188621Y-51972491D01*
X63787047Y-52138418D01*
X63479538Y-52445391D01*
X63312910Y-52846675D01*
X63312531Y-53281179D01*
X63478458Y-53682753D01*
X63785431Y-53990262D01*
X64186715Y-54156890D01*
X64621219Y-54157269D01*
X65022793Y-53991342D01*
X65330302Y-53684369D01*
X65496930Y-53283085D01*
X65497309Y-52848581D01*
X65497309Y-54909810D01*
X65388766Y-54872481D01*
X65137319Y-55123928D01*
X65137319Y-54621034D01*
X65061058Y-54399292D01*
X64549754Y-54239969D01*
X64016400Y-54288441D01*
X63748782Y-54399292D01*
X63672521Y-54621034D01*
X64404920Y-55353433D01*
X65137319Y-54621034D01*
X65137319Y-55123928D01*
X64656367Y-55604880D01*
X65388766Y-56337279D01*
X65610508Y-56261018D01*
X65769831Y-55749714D01*
X65769831Y-56952680D01*
X64448364Y-56952680D01*
X64793440Y-56921319D01*
X65061058Y-56810468D01*
X65137319Y-56588726D01*
X64404920Y-55856327D01*
X64153473Y-56107774D01*
X64153473Y-55604880D01*
X63421074Y-54872481D01*
X63199332Y-54948742D01*
X63144026Y-55126230D01*
X63070508Y-54948742D01*
X62957309Y-54909810D01*
X62957309Y-52848581D01*
X62957309Y-50308581D01*
X62791382Y-49907007D01*
X62484409Y-49599498D01*
X62443477Y-49582501D01*
X62443477Y-44938999D01*
X62341219Y-44691517D01*
X62152038Y-44502006D01*
X61956853Y-44420958D01*
X61956853Y-43572033D01*
X61839601Y-43288262D01*
X61622680Y-43070962D01*
X61339114Y-42953215D01*
X61032073Y-42952947D01*
X60748302Y-43070199D01*
X60531002Y-43287120D01*
X60413255Y-43570686D01*
X60412987Y-43877727D01*
X60530239Y-44161498D01*
X60747160Y-44378798D01*
X61030726Y-44496545D01*
X61337767Y-44496813D01*
X61621538Y-44379561D01*
X61838838Y-44162640D01*
X61956585Y-43879074D01*
X61956853Y-43572033D01*
X61956853Y-44420958D01*
X61904735Y-44399317D01*
X61636959Y-44399083D01*
X61389477Y-44501341D01*
X61199966Y-44690522D01*
X61097277Y-44937825D01*
X61097070Y-45174400D01*
X61003958Y-45081126D01*
X60756655Y-44978437D01*
X60488879Y-44978203D01*
X60396237Y-45016482D01*
X60396237Y-35726419D01*
X60293979Y-35478937D01*
X60104798Y-35289426D01*
X59857495Y-35186737D01*
X59589719Y-35186503D01*
X59342237Y-35288761D01*
X59202835Y-35427920D01*
X58861960Y-35427920D01*
X58696717Y-35460789D01*
X58556631Y-35554391D01*
X57349831Y-36761190D01*
X57349831Y-29489714D01*
X57301359Y-28956360D01*
X57190508Y-28688742D01*
X56968766Y-28612481D01*
X56236367Y-29344880D01*
X56968766Y-30077279D01*
X57190508Y-30001018D01*
X57349831Y-29489714D01*
X57349831Y-36761190D01*
X57077309Y-37033712D01*
X57077309Y-34208581D01*
X57077309Y-31668581D01*
X56911382Y-31267007D01*
X56717319Y-31072605D01*
X56717319Y-30328726D01*
X55984920Y-29596327D01*
X55733473Y-29847774D01*
X55733473Y-29344880D01*
X55001074Y-28612481D01*
X54779332Y-28688742D01*
X54724026Y-28866230D01*
X54650508Y-28688742D01*
X54428766Y-28612481D01*
X53696367Y-29344880D01*
X54428766Y-30077279D01*
X54650508Y-30001018D01*
X54705813Y-29823529D01*
X54779332Y-30001018D01*
X55001074Y-30077279D01*
X55733473Y-29344880D01*
X55733473Y-29847774D01*
X55252521Y-30328726D01*
X55328782Y-30550468D01*
X55840086Y-30709791D01*
X56373440Y-30661319D01*
X56641058Y-30550468D01*
X56717319Y-30328726D01*
X56717319Y-31072605D01*
X56604409Y-30959498D01*
X56203125Y-30792870D01*
X55768621Y-30792491D01*
X55367047Y-30958418D01*
X55059538Y-31265391D01*
X54892910Y-31666675D01*
X54892531Y-32101179D01*
X55058458Y-32502753D01*
X55365431Y-32810262D01*
X55766715Y-32976890D01*
X56201219Y-32977269D01*
X56602793Y-32811342D01*
X56910302Y-32504369D01*
X57076930Y-32103085D01*
X57077309Y-31668581D01*
X57077309Y-34208581D01*
X56911382Y-33807007D01*
X56604409Y-33499498D01*
X56203125Y-33332870D01*
X55768621Y-33332491D01*
X55367047Y-33498418D01*
X55059538Y-33805391D01*
X54892910Y-34206675D01*
X54892531Y-34641179D01*
X55058458Y-35042753D01*
X55365431Y-35350262D01*
X55766715Y-35516890D01*
X56201219Y-35517269D01*
X56602793Y-35351342D01*
X56910302Y-35044369D01*
X57076930Y-34643085D01*
X57077309Y-34208581D01*
X57077309Y-37033712D01*
X55944927Y-38166094D01*
X55749239Y-38165923D01*
X55501757Y-38268181D01*
X55312246Y-38457362D01*
X55209557Y-38704665D01*
X55209323Y-38972441D01*
X55311581Y-39219923D01*
X55500762Y-39409434D01*
X55748065Y-39512123D01*
X55856465Y-39512217D01*
X55852177Y-39522545D01*
X55851943Y-39790321D01*
X55954201Y-40037803D01*
X55984843Y-40068499D01*
X55656558Y-40068499D01*
X55656597Y-40024099D01*
X55554339Y-39776617D01*
X55365158Y-39587106D01*
X55117855Y-39484417D01*
X54850079Y-39484183D01*
X54602597Y-39586441D01*
X54413086Y-39775622D01*
X54310397Y-40022925D01*
X54310163Y-40290701D01*
X54412421Y-40538183D01*
X54601602Y-40727694D01*
X54848905Y-40830383D01*
X55058272Y-40830565D01*
X55161036Y-40899230D01*
X55326279Y-40932099D01*
X57856328Y-40932099D01*
X58021570Y-40899230D01*
X58021571Y-40899230D01*
X58161657Y-40805628D01*
X58278633Y-40688651D01*
X58310002Y-40720074D01*
X58557305Y-40822763D01*
X58825081Y-40822997D01*
X59072563Y-40720739D01*
X59262074Y-40531558D01*
X59364763Y-40284255D01*
X59364997Y-40016479D01*
X59262739Y-39768997D01*
X59073558Y-39579486D01*
X58826255Y-39476797D01*
X58558479Y-39476563D01*
X58310997Y-39578821D01*
X58162823Y-39726736D01*
X58069020Y-39745395D01*
X58041604Y-39750849D01*
X57901518Y-39844451D01*
X57677470Y-40068499D01*
X57065701Y-40068499D01*
X57095454Y-40038798D01*
X57198143Y-39791495D01*
X57198315Y-39594522D01*
X59451769Y-37341069D01*
X59508378Y-37256345D01*
X59508379Y-37256345D01*
X59527223Y-37248559D01*
X59716734Y-37059378D01*
X59819423Y-36812075D01*
X59819657Y-36544299D01*
X59814947Y-36532900D01*
X59856321Y-36532937D01*
X60103803Y-36430679D01*
X60293314Y-36241498D01*
X60396003Y-35994195D01*
X60396237Y-35726419D01*
X60396237Y-45016482D01*
X60241397Y-45080461D01*
X60101995Y-45219620D01*
X58190317Y-45219620D01*
X58173620Y-45202922D01*
X58173620Y-43672040D01*
X58312114Y-43533788D01*
X58414803Y-43286485D01*
X58415037Y-43018709D01*
X58312779Y-42771227D01*
X58123598Y-42581716D01*
X57876295Y-42479027D01*
X57608519Y-42478793D01*
X57361037Y-42581051D01*
X57251500Y-42690397D01*
X57251655Y-42512982D01*
X57708384Y-42056253D01*
X57829952Y-42178034D01*
X58077255Y-42280723D01*
X58345031Y-42280957D01*
X58592513Y-42178699D01*
X58782024Y-41989518D01*
X58884713Y-41742215D01*
X58884947Y-41474439D01*
X58782689Y-41226957D01*
X58593508Y-41037446D01*
X58346205Y-40934757D01*
X58078429Y-40934523D01*
X57830947Y-41036781D01*
X57691545Y-41175940D01*
X57546240Y-41175940D01*
X57380997Y-41208809D01*
X57240911Y-41302411D01*
X56640887Y-41902434D01*
X56445199Y-41902263D01*
X56197717Y-42004521D01*
X56008206Y-42193702D01*
X55905517Y-42441005D01*
X55905283Y-42708781D01*
X56007541Y-42956263D01*
X56196722Y-43145774D01*
X56444025Y-43248463D01*
X56711801Y-43248697D01*
X56959283Y-43146439D01*
X57068819Y-43037092D01*
X57068603Y-43285311D01*
X57170861Y-43532793D01*
X57310020Y-43672194D01*
X57310020Y-45353189D01*
X57032073Y-45352947D01*
X56748302Y-45470199D01*
X56531002Y-45687120D01*
X56413255Y-45970686D01*
X56412987Y-46277727D01*
X56530239Y-46561498D01*
X56747160Y-46778798D01*
X57030726Y-46896545D01*
X57337767Y-46896813D01*
X57621538Y-46779561D01*
X57675352Y-46725840D01*
X60942220Y-46725840D01*
X61107462Y-46692971D01*
X61107463Y-46692971D01*
X61247549Y-46599369D01*
X62075585Y-45771331D01*
X62075588Y-45771329D01*
X62075589Y-45771329D01*
X62169191Y-45631243D01*
X62170705Y-45623631D01*
X62340554Y-45454078D01*
X62443243Y-45206775D01*
X62443477Y-44938999D01*
X62443477Y-49582501D01*
X62083125Y-49432870D01*
X61648621Y-49432491D01*
X61247047Y-49598418D01*
X60939538Y-49905391D01*
X60772910Y-50306675D01*
X60772531Y-50741179D01*
X60938458Y-51142753D01*
X61245431Y-51450262D01*
X61646715Y-51616890D01*
X62081219Y-51617269D01*
X62482793Y-51451342D01*
X62790302Y-51144369D01*
X62956930Y-50743085D01*
X62957309Y-50308581D01*
X62957309Y-52848581D01*
X62791382Y-52447007D01*
X62484409Y-52139498D01*
X62083125Y-51972870D01*
X61648621Y-51972491D01*
X61247047Y-52138418D01*
X60939538Y-52445391D01*
X60772910Y-52846675D01*
X60772531Y-53281179D01*
X60938458Y-53682753D01*
X61245431Y-53990262D01*
X61646715Y-54156890D01*
X62081219Y-54157269D01*
X62482793Y-53991342D01*
X62790302Y-53684369D01*
X62956930Y-53283085D01*
X62957309Y-52848581D01*
X62957309Y-54909810D01*
X62848766Y-54872481D01*
X62597319Y-55123928D01*
X62597319Y-54621034D01*
X62521058Y-54399292D01*
X62009754Y-54239969D01*
X61476400Y-54288441D01*
X61208782Y-54399292D01*
X61132521Y-54621034D01*
X61864920Y-55353433D01*
X62597319Y-54621034D01*
X62597319Y-55123928D01*
X62116367Y-55604880D01*
X62848766Y-56337279D01*
X63070508Y-56261018D01*
X63125813Y-56083529D01*
X63199332Y-56261018D01*
X63421074Y-56337279D01*
X64153473Y-55604880D01*
X64153473Y-56107774D01*
X63672521Y-56588726D01*
X63748782Y-56810468D01*
X64205172Y-56952680D01*
X61908364Y-56952680D01*
X62253440Y-56921319D01*
X62521058Y-56810468D01*
X62597319Y-56588726D01*
X61864920Y-55856327D01*
X61613473Y-56107774D01*
X61613473Y-55604880D01*
X60881074Y-54872481D01*
X60659332Y-54948742D01*
X60604026Y-55126230D01*
X60530508Y-54948742D01*
X60417309Y-54909810D01*
X60417309Y-52848581D01*
X60417309Y-50308581D01*
X60251382Y-49907007D01*
X59944409Y-49599498D01*
X59543125Y-49432870D01*
X59108621Y-49432491D01*
X58707047Y-49598418D01*
X58399538Y-49905391D01*
X58232910Y-50306675D01*
X58232531Y-50741179D01*
X58398458Y-51142753D01*
X58705431Y-51450262D01*
X59106715Y-51616890D01*
X59541219Y-51617269D01*
X59942793Y-51451342D01*
X60250302Y-51144369D01*
X60416930Y-50743085D01*
X60417309Y-50308581D01*
X60417309Y-52848581D01*
X60251382Y-52447007D01*
X59944409Y-52139498D01*
X59543125Y-51972870D01*
X59108621Y-51972491D01*
X58707047Y-52138418D01*
X58399538Y-52445391D01*
X58232910Y-52846675D01*
X58232531Y-53281179D01*
X58398458Y-53682753D01*
X58705431Y-53990262D01*
X59106715Y-54156890D01*
X59541219Y-54157269D01*
X59942793Y-53991342D01*
X60250302Y-53684369D01*
X60416930Y-53283085D01*
X60417309Y-52848581D01*
X60417309Y-54909810D01*
X60308766Y-54872481D01*
X60057319Y-55123928D01*
X60057319Y-54621034D01*
X59981058Y-54399292D01*
X59469754Y-54239969D01*
X58936400Y-54288441D01*
X58668782Y-54399292D01*
X58592521Y-54621034D01*
X59324920Y-55353433D01*
X60057319Y-54621034D01*
X60057319Y-55123928D01*
X59576367Y-55604880D01*
X60308766Y-56337279D01*
X60530508Y-56261018D01*
X60585813Y-56083529D01*
X60659332Y-56261018D01*
X60881074Y-56337279D01*
X61613473Y-55604880D01*
X61613473Y-56107774D01*
X61132521Y-56588726D01*
X61208782Y-56810468D01*
X61665172Y-56952680D01*
X59368364Y-56952680D01*
X59713440Y-56921319D01*
X59981058Y-56810468D01*
X60057319Y-56588726D01*
X59324920Y-55856327D01*
X59073473Y-56107774D01*
X59073473Y-55604880D01*
X58341074Y-54872481D01*
X58119332Y-54948742D01*
X58064026Y-55126230D01*
X57990508Y-54948742D01*
X57877309Y-54909810D01*
X57877309Y-52848581D01*
X57877309Y-50308581D01*
X57711382Y-49907007D01*
X57404409Y-49599498D01*
X57003125Y-49432870D01*
X56568621Y-49432491D01*
X56167047Y-49598418D01*
X55859538Y-49905391D01*
X55692910Y-50306675D01*
X55692531Y-50741179D01*
X55858458Y-51142753D01*
X56165431Y-51450262D01*
X56566715Y-51616890D01*
X57001219Y-51617269D01*
X57402793Y-51451342D01*
X57710302Y-51144369D01*
X57876930Y-50743085D01*
X57877309Y-50308581D01*
X57877309Y-52848581D01*
X57711382Y-52447007D01*
X57404409Y-52139498D01*
X57003125Y-51972870D01*
X56568621Y-51972491D01*
X56167047Y-52138418D01*
X55859538Y-52445391D01*
X55692910Y-52846675D01*
X55692531Y-53281179D01*
X55858458Y-53682753D01*
X56165431Y-53990262D01*
X56566715Y-54156890D01*
X57001219Y-54157269D01*
X57402793Y-53991342D01*
X57710302Y-53684369D01*
X57876930Y-53283085D01*
X57877309Y-52848581D01*
X57877309Y-54909810D01*
X57768766Y-54872481D01*
X57517319Y-55123928D01*
X57517319Y-54621034D01*
X57441058Y-54399292D01*
X56929754Y-54239969D01*
X56396400Y-54288441D01*
X56128782Y-54399292D01*
X56052521Y-54621034D01*
X56784920Y-55353433D01*
X57517319Y-54621034D01*
X57517319Y-55123928D01*
X57036367Y-55604880D01*
X57768766Y-56337279D01*
X57990508Y-56261018D01*
X58045813Y-56083529D01*
X58119332Y-56261018D01*
X58341074Y-56337279D01*
X59073473Y-55604880D01*
X59073473Y-56107774D01*
X58592521Y-56588726D01*
X58668782Y-56810468D01*
X59125172Y-56952680D01*
X56828364Y-56952680D01*
X57173440Y-56921319D01*
X57441058Y-56810468D01*
X57517319Y-56588726D01*
X56784920Y-55856327D01*
X56533473Y-56107774D01*
X56533473Y-55604880D01*
X55801074Y-54872481D01*
X55579332Y-54948742D01*
X55420009Y-55460046D01*
X55468481Y-55993400D01*
X55579332Y-56261018D01*
X55801074Y-56337279D01*
X56533473Y-55604880D01*
X56533473Y-56107774D01*
X56052521Y-56588726D01*
X56128782Y-56810468D01*
X56585172Y-56952680D01*
X53585303Y-56952680D01*
X53596181Y-56941803D01*
X53685120Y-56727085D01*
X53685120Y-55918730D01*
X53685120Y-55271030D01*
X53685120Y-54462675D01*
X53596181Y-54247957D01*
X53431842Y-54083619D01*
X53217124Y-53994680D01*
X53062539Y-53994680D01*
X53328647Y-53596422D01*
X53431120Y-53081254D01*
X53431120Y-53028506D01*
X53328647Y-52513338D01*
X53036827Y-52076599D01*
X52600088Y-51784779D01*
X52084920Y-51682306D01*
X51569752Y-51784779D01*
X51133013Y-52076599D01*
X50841193Y-52513338D01*
X50738720Y-53028506D01*
X50738720Y-53081254D01*
X50841193Y-53596422D01*
X51107300Y-53994680D01*
X50952716Y-53994680D01*
X50737998Y-54083619D01*
X50573659Y-54247957D01*
X50484720Y-54462675D01*
X50484720Y-55271030D01*
X50630770Y-55417080D01*
X51907120Y-55417080D01*
X51907120Y-55397080D01*
X52262720Y-55397080D01*
X52262720Y-55417080D01*
X53539070Y-55417080D01*
X53685120Y-55271030D01*
X53685120Y-55918730D01*
X53539070Y-55772680D01*
X52262720Y-55772680D01*
X52262720Y-55792680D01*
X51907120Y-55792680D01*
X51907120Y-55772680D01*
X50630770Y-55772680D01*
X50484720Y-55918730D01*
X50484720Y-56727085D01*
X50573659Y-56941803D01*
X50584536Y-56952680D01*
X47111120Y-56952680D01*
X47111120Y-49546880D01*
X47230726Y-49596545D01*
X47537767Y-49596813D01*
X47821538Y-49479561D01*
X47943030Y-49358280D01*
X48693340Y-49358280D01*
X48897463Y-49317677D01*
X49070511Y-49202051D01*
X51018330Y-47254231D01*
X51070461Y-47254277D01*
X51317943Y-47152019D01*
X51507454Y-46962838D01*
X51610143Y-46715535D01*
X51610377Y-46447759D01*
X51508119Y-46200277D01*
X51470560Y-46162652D01*
X51470560Y-46096127D01*
X51429957Y-45892004D01*
X51314331Y-45718956D01*
X51127660Y-45532285D01*
X51127660Y-41506101D01*
X51648321Y-40985440D01*
X52710080Y-40985440D01*
X52914203Y-40944837D01*
X53087251Y-40829211D01*
X53691977Y-40224483D01*
X53691980Y-40224481D01*
X53691981Y-40224481D01*
X53761293Y-40120746D01*
X53807607Y-40051434D01*
X53807607Y-40051433D01*
X53848210Y-39847310D01*
X53848210Y-39643487D01*
X53885104Y-39606658D01*
X53987793Y-39359355D01*
X53987839Y-39306192D01*
X55039175Y-38254856D01*
X55269081Y-38255057D01*
X55516563Y-38152799D01*
X55706074Y-37963618D01*
X55808763Y-37716315D01*
X55808997Y-37448539D01*
X55706739Y-37201057D01*
X55517558Y-37011546D01*
X55270255Y-36908857D01*
X55002479Y-36908623D01*
X54754997Y-37010881D01*
X54565486Y-37200062D01*
X54551425Y-37233923D01*
X54537309Y-37248038D01*
X54537309Y-34208581D01*
X54537309Y-31668581D01*
X54371382Y-31267007D01*
X54177319Y-31072605D01*
X54177319Y-30328726D01*
X53444920Y-29596327D01*
X53193473Y-29847774D01*
X53193473Y-29344880D01*
X52461074Y-28612481D01*
X52239332Y-28688742D01*
X52184026Y-28866230D01*
X52110508Y-28688742D01*
X51888766Y-28612481D01*
X51156367Y-29344880D01*
X51888766Y-30077279D01*
X52110508Y-30001018D01*
X52165813Y-29823529D01*
X52239332Y-30001018D01*
X52461074Y-30077279D01*
X53193473Y-29344880D01*
X53193473Y-29847774D01*
X52712521Y-30328726D01*
X52788782Y-30550468D01*
X53300086Y-30709791D01*
X53833440Y-30661319D01*
X54101058Y-30550468D01*
X54177319Y-30328726D01*
X54177319Y-31072605D01*
X54064409Y-30959498D01*
X53663125Y-30792870D01*
X53228621Y-30792491D01*
X52827047Y-30958418D01*
X52519538Y-31265391D01*
X52352910Y-31666675D01*
X52352531Y-32101179D01*
X52518458Y-32502753D01*
X52825431Y-32810262D01*
X53226715Y-32976890D01*
X53661219Y-32977269D01*
X54062793Y-32811342D01*
X54370302Y-32504369D01*
X54536930Y-32103085D01*
X54537309Y-31668581D01*
X54537309Y-34208581D01*
X54371382Y-33807007D01*
X54064409Y-33499498D01*
X53663125Y-33332870D01*
X53228621Y-33332491D01*
X52827047Y-33498418D01*
X52519538Y-33805391D01*
X52352910Y-34206675D01*
X52352531Y-34641179D01*
X52518458Y-35042753D01*
X52825431Y-35350262D01*
X53226715Y-35516890D01*
X53661219Y-35517269D01*
X54062793Y-35351342D01*
X54370302Y-35044369D01*
X54536930Y-34643085D01*
X54537309Y-34208581D01*
X54537309Y-37248038D01*
X53233639Y-38551708D01*
X53181509Y-38551663D01*
X52934027Y-38653921D01*
X52744516Y-38843102D01*
X52641827Y-39090405D01*
X52641593Y-39358181D01*
X52743851Y-39605663D01*
X52772957Y-39634820D01*
X52489138Y-39918640D01*
X51997309Y-39918640D01*
X51997309Y-34208581D01*
X51997309Y-31668581D01*
X51831382Y-31267007D01*
X51637319Y-31072605D01*
X51637319Y-30328726D01*
X50904920Y-29596327D01*
X50653473Y-29847774D01*
X50653473Y-29344880D01*
X49921074Y-28612481D01*
X49699332Y-28688742D01*
X49644026Y-28866230D01*
X49570508Y-28688742D01*
X49348766Y-28612481D01*
X48616367Y-29344880D01*
X49348766Y-30077279D01*
X49570508Y-30001018D01*
X49625813Y-29823529D01*
X49699332Y-30001018D01*
X49921074Y-30077279D01*
X50653473Y-29344880D01*
X50653473Y-29847774D01*
X50172521Y-30328726D01*
X50248782Y-30550468D01*
X50760086Y-30709791D01*
X51293440Y-30661319D01*
X51561058Y-30550468D01*
X51637319Y-30328726D01*
X51637319Y-31072605D01*
X51524409Y-30959498D01*
X51123125Y-30792870D01*
X50688621Y-30792491D01*
X50287047Y-30958418D01*
X49979538Y-31265391D01*
X49812910Y-31666675D01*
X49812531Y-32101179D01*
X49978458Y-32502753D01*
X50285431Y-32810262D01*
X50686715Y-32976890D01*
X51121219Y-32977269D01*
X51522793Y-32811342D01*
X51830302Y-32504369D01*
X51996930Y-32103085D01*
X51997309Y-31668581D01*
X51997309Y-34208581D01*
X51831382Y-33807007D01*
X51524409Y-33499498D01*
X51123125Y-33332870D01*
X50688621Y-33332491D01*
X50287047Y-33498418D01*
X49979538Y-33805391D01*
X49812910Y-34206675D01*
X49812531Y-34641179D01*
X49978458Y-35042753D01*
X50285431Y-35350262D01*
X50686715Y-35516890D01*
X51121219Y-35517269D01*
X51522793Y-35351342D01*
X51830302Y-35044369D01*
X51996930Y-34643085D01*
X51997309Y-34208581D01*
X51997309Y-39918640D01*
X51427385Y-39918640D01*
X51427380Y-39918639D01*
X51223257Y-39959243D01*
X51050209Y-40074869D01*
X51050206Y-40074872D01*
X50217089Y-40907989D01*
X50101463Y-41081037D01*
X50060860Y-41285160D01*
X50060860Y-45753227D01*
X50101463Y-45957350D01*
X50217089Y-46130398D01*
X50343131Y-46256440D01*
X50264177Y-46446585D01*
X50264130Y-46499747D01*
X49457309Y-47306568D01*
X49457309Y-34208581D01*
X49457309Y-31668581D01*
X49291382Y-31267007D01*
X49097319Y-31072605D01*
X49097319Y-30328726D01*
X48364920Y-29596327D01*
X47632521Y-30328726D01*
X47708782Y-30550468D01*
X48220086Y-30709791D01*
X48753440Y-30661319D01*
X49021058Y-30550468D01*
X49097319Y-30328726D01*
X49097319Y-31072605D01*
X48984409Y-30959498D01*
X48583125Y-30792870D01*
X48148621Y-30792491D01*
X47747047Y-30958418D01*
X47439538Y-31265391D01*
X47272910Y-31666675D01*
X47272531Y-32101179D01*
X47438458Y-32502753D01*
X47745431Y-32810262D01*
X48146715Y-32976890D01*
X48581219Y-32977269D01*
X48982793Y-32811342D01*
X49290302Y-32504369D01*
X49456930Y-32103085D01*
X49457309Y-31668581D01*
X49457309Y-34208581D01*
X49291382Y-33807007D01*
X48984409Y-33499498D01*
X48583125Y-33332870D01*
X48148621Y-33332491D01*
X47747047Y-33498418D01*
X47439538Y-33805391D01*
X47272910Y-34206675D01*
X47272531Y-34641179D01*
X47438458Y-35042753D01*
X47745431Y-35350262D01*
X48146715Y-35516890D01*
X48581219Y-35517269D01*
X48982793Y-35351342D01*
X49290302Y-35044369D01*
X49456930Y-34643085D01*
X49457309Y-34208581D01*
X49457309Y-47306568D01*
X48472398Y-48291480D01*
X47942987Y-48291480D01*
X47822680Y-48170962D01*
X47539114Y-48053215D01*
X47232073Y-48052947D01*
X47111120Y-48102923D01*
X47111120Y-47546880D01*
X47230726Y-47596545D01*
X47537767Y-47596813D01*
X47821538Y-47479561D01*
X48038838Y-47262640D01*
X48156585Y-46979074D01*
X48156853Y-46672033D01*
X48039601Y-46388262D01*
X47926409Y-46274872D01*
X48038838Y-46162640D01*
X48156585Y-45879074D01*
X48156853Y-45572033D01*
X48039601Y-45288262D01*
X47926409Y-45174872D01*
X48038838Y-45062640D01*
X48156585Y-44779074D01*
X48156853Y-44472033D01*
X48039601Y-44188262D01*
X47926409Y-44074872D01*
X48038838Y-43962640D01*
X48156585Y-43679074D01*
X48156853Y-43372033D01*
X48039601Y-43088262D01*
X47822680Y-42870962D01*
X47539114Y-42753215D01*
X47232073Y-42752947D01*
X47111120Y-42802923D01*
X47111120Y-29884623D01*
X47159332Y-30001018D01*
X47381074Y-30077279D01*
X48113473Y-29344880D01*
X47381074Y-28612481D01*
X47159332Y-28688742D01*
X47111120Y-28843465D01*
X47111120Y-27995080D01*
X48343482Y-27995080D01*
X47976400Y-28028441D01*
X47708782Y-28139292D01*
X47632521Y-28361034D01*
X48364920Y-29093433D01*
X49097319Y-28361034D01*
X49021058Y-28139292D01*
X48558248Y-27995080D01*
X50883482Y-27995080D01*
X50516400Y-28028441D01*
X50248782Y-28139292D01*
X50172521Y-28361034D01*
X50904920Y-29093433D01*
X51637319Y-28361034D01*
X51561058Y-28139292D01*
X51098248Y-27995080D01*
X53423482Y-27995080D01*
X53056400Y-28028441D01*
X52788782Y-28139292D01*
X52712521Y-28361034D01*
X53444920Y-29093433D01*
X54177319Y-28361034D01*
X54101058Y-28139292D01*
X53638248Y-27995080D01*
X55963482Y-27995080D01*
X55596400Y-28028441D01*
X55328782Y-28139292D01*
X55252521Y-28361034D01*
X55984920Y-29093433D01*
X56717319Y-28361034D01*
X56641058Y-28139292D01*
X56178248Y-27995080D01*
X60064567Y-27995080D01*
X60051228Y-28047741D01*
X60635240Y-28631753D01*
X60649382Y-28617610D01*
X60760538Y-28728766D01*
X60743807Y-28787217D01*
X60771229Y-29026942D01*
X60649382Y-29148789D01*
X60635240Y-29134647D01*
X60383793Y-29386094D01*
X60383793Y-28883200D01*
X59799781Y-28299188D01*
X59598947Y-28350061D01*
X59473807Y-28787217D01*
X59525485Y-29238984D01*
X59598947Y-29416339D01*
X59799781Y-29467212D01*
X60383793Y-28883200D01*
X60383793Y-29386094D01*
X60051228Y-29718659D01*
X60102101Y-29919493D01*
X60539257Y-30044633D01*
X60991024Y-29992955D01*
X61168379Y-29919493D01*
X61194077Y-29818041D01*
X61207963Y-29831927D01*
X61270240Y-29769650D01*
X61332517Y-29831927D01*
X61346402Y-29818041D01*
X61372101Y-29919493D01*
X61809257Y-30044633D01*
X62261024Y-29992955D01*
X62438379Y-29919493D01*
X62489252Y-29718659D01*
X61905240Y-29134647D01*
X61891097Y-29148789D01*
X61779941Y-29037633D01*
X61796673Y-28979183D01*
X61769250Y-28739457D01*
X61891097Y-28617610D01*
X61905240Y-28631753D01*
X62489252Y-28047741D01*
X62475912Y-27995080D01*
X62996680Y-27995080D01*
X62672320Y-28129103D01*
X62422022Y-28378964D01*
X62286394Y-28705591D01*
X62286352Y-28753534D01*
X62156687Y-28883200D01*
X62286126Y-29012639D01*
X62286086Y-29059257D01*
X62421143Y-29386120D01*
X62671004Y-29636418D01*
X62997631Y-29772046D01*
X63351297Y-29772354D01*
X63678160Y-29637297D01*
X63810251Y-29505436D01*
X63941004Y-29636418D01*
X64267631Y-29772046D01*
X64621297Y-29772354D01*
X64948160Y-29637297D01*
X65080251Y-29505436D01*
X65211004Y-29636418D01*
X65537631Y-29772046D01*
X65891297Y-29772354D01*
X66218160Y-29637297D01*
X66350251Y-29505436D01*
X66481004Y-29636418D01*
X66807631Y-29772046D01*
X67161297Y-29772354D01*
X67488160Y-29637297D01*
X67738458Y-29387436D01*
X67874086Y-29060809D01*
X67874394Y-28707143D01*
X67739337Y-28380280D01*
X67489476Y-28129982D01*
X67164597Y-27995080D01*
X71242720Y-27995080D01*
X71242720Y-56952680D01*
X71242720Y-56952680D01*
G37*
X71242720Y-56952680D02*
X71107073Y-56952680D01*
X71107073Y-30276353D01*
X70989821Y-29992582D01*
X70772900Y-29775282D01*
X70489334Y-29657535D01*
X70182293Y-29657267D01*
X69898522Y-29774519D01*
X69681222Y-29991440D01*
X69563475Y-30275006D01*
X69563207Y-30582047D01*
X69680459Y-30865818D01*
X69897380Y-31083118D01*
X70180946Y-31200865D01*
X70487987Y-31201133D01*
X70771758Y-31083881D01*
X70989058Y-30866960D01*
X71106805Y-30583394D01*
X71107073Y-30276353D01*
X71107073Y-56952680D01*
X69712602Y-56952680D01*
X69712602Y-48180398D01*
X69659070Y-47775836D01*
X69607241Y-47650709D01*
X69484241Y-47627232D01*
X69484241Y-45003719D01*
X69484241Y-40429181D01*
X69447505Y-40244498D01*
X69342891Y-40087931D01*
X68193928Y-38938968D01*
X68194037Y-38815059D01*
X68091779Y-38567577D01*
X67902598Y-38378066D01*
X67655295Y-38275377D01*
X67387519Y-38275143D01*
X67140037Y-38377401D01*
X66950526Y-38566582D01*
X66847837Y-38813885D01*
X66847603Y-39081661D01*
X66949861Y-39329143D01*
X67139042Y-39518654D01*
X67386345Y-39621343D01*
X67511412Y-39621452D01*
X68519041Y-40629081D01*
X68519041Y-40645214D01*
X68488415Y-40632497D01*
X68279047Y-40632314D01*
X68176284Y-40563650D01*
X68011041Y-40530781D01*
X66455079Y-40530781D01*
X66356434Y-40432136D01*
X66483294Y-40305498D01*
X66585983Y-40058195D01*
X66586217Y-39790419D01*
X66483959Y-39542937D01*
X66294778Y-39353426D01*
X66047475Y-39250737D01*
X65779699Y-39250503D01*
X65532217Y-39352761D01*
X65342706Y-39541942D01*
X65240017Y-39789245D01*
X65239783Y-40057021D01*
X65342041Y-40304503D01*
X65481200Y-40443904D01*
X65481200Y-40599360D01*
X65514069Y-40764603D01*
X65607671Y-40904689D01*
X65970892Y-41267910D01*
X66110978Y-41361512D01*
X66110979Y-41361512D01*
X66276221Y-41394381D01*
X67680761Y-41394381D01*
X67680723Y-41438781D01*
X67782981Y-41686263D01*
X67972162Y-41875774D01*
X68219465Y-41978463D01*
X68487241Y-41978697D01*
X68519041Y-41965557D01*
X68519041Y-44803819D01*
X66905250Y-46417610D01*
X66800636Y-46574177D01*
X66763900Y-46758860D01*
X66763900Y-47534380D01*
X66592582Y-47705400D01*
X66474835Y-47988966D01*
X66474567Y-48296007D01*
X66591819Y-48579778D01*
X66808740Y-48797078D01*
X67092306Y-48914825D01*
X67399347Y-48915093D01*
X67683118Y-48797841D01*
X67878426Y-48602873D01*
X67919433Y-48610700D01*
X68417453Y-48112680D01*
X67919433Y-47614660D01*
X67827059Y-47632290D01*
X67729100Y-47534160D01*
X67729100Y-46958760D01*
X69342891Y-45344969D01*
X69447505Y-45188402D01*
X69484241Y-45003719D01*
X69484241Y-47627232D01*
X69418367Y-47614660D01*
X69166920Y-47866107D01*
X69166920Y-47363213D01*
X69130871Y-47174339D01*
X68736618Y-47068978D01*
X68332056Y-47122510D01*
X68206929Y-47174339D01*
X68170880Y-47363213D01*
X68668900Y-47861233D01*
X69166920Y-47363213D01*
X69166920Y-47866107D01*
X68920347Y-48112680D01*
X69418367Y-48610700D01*
X69607241Y-48574651D01*
X69712602Y-48180398D01*
X69712602Y-56952680D01*
X69166920Y-56952680D01*
X69166920Y-48862147D01*
X68668900Y-48364127D01*
X68170880Y-48862147D01*
X68206929Y-49051021D01*
X68601182Y-49156382D01*
X69005744Y-49102850D01*
X69130871Y-49051021D01*
X69166920Y-48862147D01*
X69166920Y-56952680D01*
X65769831Y-56952680D01*
X65769831Y-55749714D01*
X65721359Y-55216360D01*
X65610508Y-54948742D01*
X65497309Y-54909810D01*
X65497309Y-52848581D01*
X65497309Y-50308581D01*
X65331382Y-49907007D01*
X65024409Y-49599498D01*
X64623125Y-49432870D01*
X64188621Y-49432491D01*
X63787047Y-49598418D01*
X63479538Y-49905391D01*
X63312910Y-50306675D01*
X63312531Y-50741179D01*
X63478458Y-51142753D01*
X63785431Y-51450262D01*
X64186715Y-51616890D01*
X64621219Y-51617269D01*
X65022793Y-51451342D01*
X65330302Y-51144369D01*
X65496930Y-50743085D01*
X65497309Y-50308581D01*
X65497309Y-52848581D01*
X65331382Y-52447007D01*
X65024409Y-52139498D01*
X64623125Y-51972870D01*
X64188621Y-51972491D01*
X63787047Y-52138418D01*
X63479538Y-52445391D01*
X63312910Y-52846675D01*
X63312531Y-53281179D01*
X63478458Y-53682753D01*
X63785431Y-53990262D01*
X64186715Y-54156890D01*
X64621219Y-54157269D01*
X65022793Y-53991342D01*
X65330302Y-53684369D01*
X65496930Y-53283085D01*
X65497309Y-52848581D01*
X65497309Y-54909810D01*
X65388766Y-54872481D01*
X65137319Y-55123928D01*
X65137319Y-54621034D01*
X65061058Y-54399292D01*
X64549754Y-54239969D01*
X64016400Y-54288441D01*
X63748782Y-54399292D01*
X63672521Y-54621034D01*
X64404920Y-55353433D01*
X65137319Y-54621034D01*
X65137319Y-55123928D01*
X64656367Y-55604880D01*
X65388766Y-56337279D01*
X65610508Y-56261018D01*
X65769831Y-55749714D01*
X65769831Y-56952680D01*
X64448364Y-56952680D01*
X64793440Y-56921319D01*
X65061058Y-56810468D01*
X65137319Y-56588726D01*
X64404920Y-55856327D01*
X64153473Y-56107774D01*
X64153473Y-55604880D01*
X63421074Y-54872481D01*
X63199332Y-54948742D01*
X63144026Y-55126230D01*
X63070508Y-54948742D01*
X62957309Y-54909810D01*
X62957309Y-52848581D01*
X62957309Y-50308581D01*
X62791382Y-49907007D01*
X62484409Y-49599498D01*
X62443477Y-49582501D01*
X62443477Y-44938999D01*
X62341219Y-44691517D01*
X62152038Y-44502006D01*
X61956853Y-44420958D01*
X61956853Y-43572033D01*
X61839601Y-43288262D01*
X61622680Y-43070962D01*
X61339114Y-42953215D01*
X61032073Y-42952947D01*
X60748302Y-43070199D01*
X60531002Y-43287120D01*
X60413255Y-43570686D01*
X60412987Y-43877727D01*
X60530239Y-44161498D01*
X60747160Y-44378798D01*
X61030726Y-44496545D01*
X61337767Y-44496813D01*
X61621538Y-44379561D01*
X61838838Y-44162640D01*
X61956585Y-43879074D01*
X61956853Y-43572033D01*
X61956853Y-44420958D01*
X61904735Y-44399317D01*
X61636959Y-44399083D01*
X61389477Y-44501341D01*
X61199966Y-44690522D01*
X61097277Y-44937825D01*
X61097070Y-45174400D01*
X61003958Y-45081126D01*
X60756655Y-44978437D01*
X60488879Y-44978203D01*
X60396237Y-45016482D01*
X60396237Y-35726419D01*
X60293979Y-35478937D01*
X60104798Y-35289426D01*
X59857495Y-35186737D01*
X59589719Y-35186503D01*
X59342237Y-35288761D01*
X59202835Y-35427920D01*
X58861960Y-35427920D01*
X58696717Y-35460789D01*
X58556631Y-35554391D01*
X57349831Y-36761190D01*
X57349831Y-29489714D01*
X57301359Y-28956360D01*
X57190508Y-28688742D01*
X56968766Y-28612481D01*
X56236367Y-29344880D01*
X56968766Y-30077279D01*
X57190508Y-30001018D01*
X57349831Y-29489714D01*
X57349831Y-36761190D01*
X57077309Y-37033712D01*
X57077309Y-34208581D01*
X57077309Y-31668581D01*
X56911382Y-31267007D01*
X56717319Y-31072605D01*
X56717319Y-30328726D01*
X55984920Y-29596327D01*
X55733473Y-29847774D01*
X55733473Y-29344880D01*
X55001074Y-28612481D01*
X54779332Y-28688742D01*
X54724026Y-28866230D01*
X54650508Y-28688742D01*
X54428766Y-28612481D01*
X53696367Y-29344880D01*
X54428766Y-30077279D01*
X54650508Y-30001018D01*
X54705813Y-29823529D01*
X54779332Y-30001018D01*
X55001074Y-30077279D01*
X55733473Y-29344880D01*
X55733473Y-29847774D01*
X55252521Y-30328726D01*
X55328782Y-30550468D01*
X55840086Y-30709791D01*
X56373440Y-30661319D01*
X56641058Y-30550468D01*
X56717319Y-30328726D01*
X56717319Y-31072605D01*
X56604409Y-30959498D01*
X56203125Y-30792870D01*
X55768621Y-30792491D01*
X55367047Y-30958418D01*
X55059538Y-31265391D01*
X54892910Y-31666675D01*
X54892531Y-32101179D01*
X55058458Y-32502753D01*
X55365431Y-32810262D01*
X55766715Y-32976890D01*
X56201219Y-32977269D01*
X56602793Y-32811342D01*
X56910302Y-32504369D01*
X57076930Y-32103085D01*
X57077309Y-31668581D01*
X57077309Y-34208581D01*
X56911382Y-33807007D01*
X56604409Y-33499498D01*
X56203125Y-33332870D01*
X55768621Y-33332491D01*
X55367047Y-33498418D01*
X55059538Y-33805391D01*
X54892910Y-34206675D01*
X54892531Y-34641179D01*
X55058458Y-35042753D01*
X55365431Y-35350262D01*
X55766715Y-35516890D01*
X56201219Y-35517269D01*
X56602793Y-35351342D01*
X56910302Y-35044369D01*
X57076930Y-34643085D01*
X57077309Y-34208581D01*
X57077309Y-37033712D01*
X55944927Y-38166094D01*
X55749239Y-38165923D01*
X55501757Y-38268181D01*
X55312246Y-38457362D01*
X55209557Y-38704665D01*
X55209323Y-38972441D01*
X55311581Y-39219923D01*
X55500762Y-39409434D01*
X55748065Y-39512123D01*
X55856465Y-39512217D01*
X55852177Y-39522545D01*
X55851943Y-39790321D01*
X55954201Y-40037803D01*
X55984843Y-40068499D01*
X55656558Y-40068499D01*
X55656597Y-40024099D01*
X55554339Y-39776617D01*
X55365158Y-39587106D01*
X55117855Y-39484417D01*
X54850079Y-39484183D01*
X54602597Y-39586441D01*
X54413086Y-39775622D01*
X54310397Y-40022925D01*
X54310163Y-40290701D01*
X54412421Y-40538183D01*
X54601602Y-40727694D01*
X54848905Y-40830383D01*
X55058272Y-40830565D01*
X55161036Y-40899230D01*
X55326279Y-40932099D01*
X57856328Y-40932099D01*
X58021570Y-40899230D01*
X58021571Y-40899230D01*
X58161657Y-40805628D01*
X58278633Y-40688651D01*
X58310002Y-40720074D01*
X58557305Y-40822763D01*
X58825081Y-40822997D01*
X59072563Y-40720739D01*
X59262074Y-40531558D01*
X59364763Y-40284255D01*
X59364997Y-40016479D01*
X59262739Y-39768997D01*
X59073558Y-39579486D01*
X58826255Y-39476797D01*
X58558479Y-39476563D01*
X58310997Y-39578821D01*
X58162823Y-39726736D01*
X58069020Y-39745395D01*
X58041604Y-39750849D01*
X57901518Y-39844451D01*
X57677470Y-40068499D01*
X57065701Y-40068499D01*
X57095454Y-40038798D01*
X57198143Y-39791495D01*
X57198315Y-39594522D01*
X59451769Y-37341069D01*
X59508378Y-37256345D01*
X59508379Y-37256345D01*
X59527223Y-37248559D01*
X59716734Y-37059378D01*
X59819423Y-36812075D01*
X59819657Y-36544299D01*
X59814947Y-36532900D01*
X59856321Y-36532937D01*
X60103803Y-36430679D01*
X60293314Y-36241498D01*
X60396003Y-35994195D01*
X60396237Y-35726419D01*
X60396237Y-45016482D01*
X60241397Y-45080461D01*
X60101995Y-45219620D01*
X58190317Y-45219620D01*
X58173620Y-45202922D01*
X58173620Y-43672040D01*
X58312114Y-43533788D01*
X58414803Y-43286485D01*
X58415037Y-43018709D01*
X58312779Y-42771227D01*
X58123598Y-42581716D01*
X57876295Y-42479027D01*
X57608519Y-42478793D01*
X57361037Y-42581051D01*
X57251500Y-42690397D01*
X57251655Y-42512982D01*
X57708384Y-42056253D01*
X57829952Y-42178034D01*
X58077255Y-42280723D01*
X58345031Y-42280957D01*
X58592513Y-42178699D01*
X58782024Y-41989518D01*
X58884713Y-41742215D01*
X58884947Y-41474439D01*
X58782689Y-41226957D01*
X58593508Y-41037446D01*
X58346205Y-40934757D01*
X58078429Y-40934523D01*
X57830947Y-41036781D01*
X57691545Y-41175940D01*
X57546240Y-41175940D01*
X57380997Y-41208809D01*
X57240911Y-41302411D01*
X56640887Y-41902434D01*
X56445199Y-41902263D01*
X56197717Y-42004521D01*
X56008206Y-42193702D01*
X55905517Y-42441005D01*
X55905283Y-42708781D01*
X56007541Y-42956263D01*
X56196722Y-43145774D01*
X56444025Y-43248463D01*
X56711801Y-43248697D01*
X56959283Y-43146439D01*
X57068819Y-43037092D01*
X57068603Y-43285311D01*
X57170861Y-43532793D01*
X57310020Y-43672194D01*
X57310020Y-45353189D01*
X57032073Y-45352947D01*
X56748302Y-45470199D01*
X56531002Y-45687120D01*
X56413255Y-45970686D01*
X56412987Y-46277727D01*
X56530239Y-46561498D01*
X56747160Y-46778798D01*
X57030726Y-46896545D01*
X57337767Y-46896813D01*
X57621538Y-46779561D01*
X57675352Y-46725840D01*
X60942220Y-46725840D01*
X61107462Y-46692971D01*
X61107463Y-46692971D01*
X61247549Y-46599369D01*
X62075585Y-45771331D01*
X62075588Y-45771329D01*
X62075589Y-45771329D01*
X62169191Y-45631243D01*
X62170705Y-45623631D01*
X62340554Y-45454078D01*
X62443243Y-45206775D01*
X62443477Y-44938999D01*
X62443477Y-49582501D01*
X62083125Y-49432870D01*
X61648621Y-49432491D01*
X61247047Y-49598418D01*
X60939538Y-49905391D01*
X60772910Y-50306675D01*
X60772531Y-50741179D01*
X60938458Y-51142753D01*
X61245431Y-51450262D01*
X61646715Y-51616890D01*
X62081219Y-51617269D01*
X62482793Y-51451342D01*
X62790302Y-51144369D01*
X62956930Y-50743085D01*
X62957309Y-50308581D01*
X62957309Y-52848581D01*
X62791382Y-52447007D01*
X62484409Y-52139498D01*
X62083125Y-51972870D01*
X61648621Y-51972491D01*
X61247047Y-52138418D01*
X60939538Y-52445391D01*
X60772910Y-52846675D01*
X60772531Y-53281179D01*
X60938458Y-53682753D01*
X61245431Y-53990262D01*
X61646715Y-54156890D01*
X62081219Y-54157269D01*
X62482793Y-53991342D01*
X62790302Y-53684369D01*
X62956930Y-53283085D01*
X62957309Y-52848581D01*
X62957309Y-54909810D01*
X62848766Y-54872481D01*
X62597319Y-55123928D01*
X62597319Y-54621034D01*
X62521058Y-54399292D01*
X62009754Y-54239969D01*
X61476400Y-54288441D01*
X61208782Y-54399292D01*
X61132521Y-54621034D01*
X61864920Y-55353433D01*
X62597319Y-54621034D01*
X62597319Y-55123928D01*
X62116367Y-55604880D01*
X62848766Y-56337279D01*
X63070508Y-56261018D01*
X63125813Y-56083529D01*
X63199332Y-56261018D01*
X63421074Y-56337279D01*
X64153473Y-55604880D01*
X64153473Y-56107774D01*
X63672521Y-56588726D01*
X63748782Y-56810468D01*
X64205172Y-56952680D01*
X61908364Y-56952680D01*
X62253440Y-56921319D01*
X62521058Y-56810468D01*
X62597319Y-56588726D01*
X61864920Y-55856327D01*
X61613473Y-56107774D01*
X61613473Y-55604880D01*
X60881074Y-54872481D01*
X60659332Y-54948742D01*
X60604026Y-55126230D01*
X60530508Y-54948742D01*
X60417309Y-54909810D01*
X60417309Y-52848581D01*
X60417309Y-50308581D01*
X60251382Y-49907007D01*
X59944409Y-49599498D01*
X59543125Y-49432870D01*
X59108621Y-49432491D01*
X58707047Y-49598418D01*
X58399538Y-49905391D01*
X58232910Y-50306675D01*
X58232531Y-50741179D01*
X58398458Y-51142753D01*
X58705431Y-51450262D01*
X59106715Y-51616890D01*
X59541219Y-51617269D01*
X59942793Y-51451342D01*
X60250302Y-51144369D01*
X60416930Y-50743085D01*
X60417309Y-50308581D01*
X60417309Y-52848581D01*
X60251382Y-52447007D01*
X59944409Y-52139498D01*
X59543125Y-51972870D01*
X59108621Y-51972491D01*
X58707047Y-52138418D01*
X58399538Y-52445391D01*
X58232910Y-52846675D01*
X58232531Y-53281179D01*
X58398458Y-53682753D01*
X58705431Y-53990262D01*
X59106715Y-54156890D01*
X59541219Y-54157269D01*
X59942793Y-53991342D01*
X60250302Y-53684369D01*
X60416930Y-53283085D01*
X60417309Y-52848581D01*
X60417309Y-54909810D01*
X60308766Y-54872481D01*
X60057319Y-55123928D01*
X60057319Y-54621034D01*
X59981058Y-54399292D01*
X59469754Y-54239969D01*
X58936400Y-54288441D01*
X58668782Y-54399292D01*
X58592521Y-54621034D01*
X59324920Y-55353433D01*
X60057319Y-54621034D01*
X60057319Y-55123928D01*
X59576367Y-55604880D01*
X60308766Y-56337279D01*
X60530508Y-56261018D01*
X60585813Y-56083529D01*
X60659332Y-56261018D01*
X60881074Y-56337279D01*
X61613473Y-55604880D01*
X61613473Y-56107774D01*
X61132521Y-56588726D01*
X61208782Y-56810468D01*
X61665172Y-56952680D01*
X59368364Y-56952680D01*
X59713440Y-56921319D01*
X59981058Y-56810468D01*
X60057319Y-56588726D01*
X59324920Y-55856327D01*
X59073473Y-56107774D01*
X59073473Y-55604880D01*
X58341074Y-54872481D01*
X58119332Y-54948742D01*
X58064026Y-55126230D01*
X57990508Y-54948742D01*
X57877309Y-54909810D01*
X57877309Y-52848581D01*
X57877309Y-50308581D01*
X57711382Y-49907007D01*
X57404409Y-49599498D01*
X57003125Y-49432870D01*
X56568621Y-49432491D01*
X56167047Y-49598418D01*
X55859538Y-49905391D01*
X55692910Y-50306675D01*
X55692531Y-50741179D01*
X55858458Y-51142753D01*
X56165431Y-51450262D01*
X56566715Y-51616890D01*
X57001219Y-51617269D01*
X57402793Y-51451342D01*
X57710302Y-51144369D01*
X57876930Y-50743085D01*
X57877309Y-50308581D01*
X57877309Y-52848581D01*
X57711382Y-52447007D01*
X57404409Y-52139498D01*
X57003125Y-51972870D01*
X56568621Y-51972491D01*
X56167047Y-52138418D01*
X55859538Y-52445391D01*
X55692910Y-52846675D01*
X55692531Y-53281179D01*
X55858458Y-53682753D01*
X56165431Y-53990262D01*
X56566715Y-54156890D01*
X57001219Y-54157269D01*
X57402793Y-53991342D01*
X57710302Y-53684369D01*
X57876930Y-53283085D01*
X57877309Y-52848581D01*
X57877309Y-54909810D01*
X57768766Y-54872481D01*
X57517319Y-55123928D01*
X57517319Y-54621034D01*
X57441058Y-54399292D01*
X56929754Y-54239969D01*
X56396400Y-54288441D01*
X56128782Y-54399292D01*
X56052521Y-54621034D01*
X56784920Y-55353433D01*
X57517319Y-54621034D01*
X57517319Y-55123928D01*
X57036367Y-55604880D01*
X57768766Y-56337279D01*
X57990508Y-56261018D01*
X58045813Y-56083529D01*
X58119332Y-56261018D01*
X58341074Y-56337279D01*
X59073473Y-55604880D01*
X59073473Y-56107774D01*
X58592521Y-56588726D01*
X58668782Y-56810468D01*
X59125172Y-56952680D01*
X56828364Y-56952680D01*
X57173440Y-56921319D01*
X57441058Y-56810468D01*
X57517319Y-56588726D01*
X56784920Y-55856327D01*
X56533473Y-56107774D01*
X56533473Y-55604880D01*
X55801074Y-54872481D01*
X55579332Y-54948742D01*
X55420009Y-55460046D01*
X55468481Y-55993400D01*
X55579332Y-56261018D01*
X55801074Y-56337279D01*
X56533473Y-55604880D01*
X56533473Y-56107774D01*
X56052521Y-56588726D01*
X56128782Y-56810468D01*
X56585172Y-56952680D01*
X53585303Y-56952680D01*
X53596181Y-56941803D01*
X53685120Y-56727085D01*
X53685120Y-55918730D01*
X53685120Y-55271030D01*
X53685120Y-54462675D01*
X53596181Y-54247957D01*
X53431842Y-54083619D01*
X53217124Y-53994680D01*
X53062539Y-53994680D01*
X53328647Y-53596422D01*
X53431120Y-53081254D01*
X53431120Y-53028506D01*
X53328647Y-52513338D01*
X53036827Y-52076599D01*
X52600088Y-51784779D01*
X52084920Y-51682306D01*
X51569752Y-51784779D01*
X51133013Y-52076599D01*
X50841193Y-52513338D01*
X50738720Y-53028506D01*
X50738720Y-53081254D01*
X50841193Y-53596422D01*
X51107300Y-53994680D01*
X50952716Y-53994680D01*
X50737998Y-54083619D01*
X50573659Y-54247957D01*
X50484720Y-54462675D01*
X50484720Y-55271030D01*
X50630770Y-55417080D01*
X51907120Y-55417080D01*
X51907120Y-55397080D01*
X52262720Y-55397080D01*
X52262720Y-55417080D01*
X53539070Y-55417080D01*
X53685120Y-55271030D01*
X53685120Y-55918730D01*
X53539070Y-55772680D01*
X52262720Y-55772680D01*
X52262720Y-55792680D01*
X51907120Y-55792680D01*
X51907120Y-55772680D01*
X50630770Y-55772680D01*
X50484720Y-55918730D01*
X50484720Y-56727085D01*
X50573659Y-56941803D01*
X50584536Y-56952680D01*
X47111120Y-56952680D01*
X47111120Y-49546880D01*
X47230726Y-49596545D01*
X47537767Y-49596813D01*
X47821538Y-49479561D01*
X47943030Y-49358280D01*
X48693340Y-49358280D01*
X48897463Y-49317677D01*
X49070511Y-49202051D01*
X51018330Y-47254231D01*
X51070461Y-47254277D01*
X51317943Y-47152019D01*
X51507454Y-46962838D01*
X51610143Y-46715535D01*
X51610377Y-46447759D01*
X51508119Y-46200277D01*
X51470560Y-46162652D01*
X51470560Y-46096127D01*
X51429957Y-45892004D01*
X51314331Y-45718956D01*
X51127660Y-45532285D01*
X51127660Y-41506101D01*
X51648321Y-40985440D01*
X52710080Y-40985440D01*
X52914203Y-40944837D01*
X53087251Y-40829211D01*
X53691977Y-40224483D01*
X53691980Y-40224481D01*
X53691981Y-40224481D01*
X53761293Y-40120746D01*
X53807607Y-40051434D01*
X53807607Y-40051433D01*
X53848210Y-39847310D01*
X53848210Y-39643487D01*
X53885104Y-39606658D01*
X53987793Y-39359355D01*
X53987839Y-39306192D01*
X55039175Y-38254856D01*
X55269081Y-38255057D01*
X55516563Y-38152799D01*
X55706074Y-37963618D01*
X55808763Y-37716315D01*
X55808997Y-37448539D01*
X55706739Y-37201057D01*
X55517558Y-37011546D01*
X55270255Y-36908857D01*
X55002479Y-36908623D01*
X54754997Y-37010881D01*
X54565486Y-37200062D01*
X54551425Y-37233923D01*
X54537309Y-37248038D01*
X54537309Y-34208581D01*
X54537309Y-31668581D01*
X54371382Y-31267007D01*
X54177319Y-31072605D01*
X54177319Y-30328726D01*
X53444920Y-29596327D01*
X53193473Y-29847774D01*
X53193473Y-29344880D01*
X52461074Y-28612481D01*
X52239332Y-28688742D01*
X52184026Y-28866230D01*
X52110508Y-28688742D01*
X51888766Y-28612481D01*
X51156367Y-29344880D01*
X51888766Y-30077279D01*
X52110508Y-30001018D01*
X52165813Y-29823529D01*
X52239332Y-30001018D01*
X52461074Y-30077279D01*
X53193473Y-29344880D01*
X53193473Y-29847774D01*
X52712521Y-30328726D01*
X52788782Y-30550468D01*
X53300086Y-30709791D01*
X53833440Y-30661319D01*
X54101058Y-30550468D01*
X54177319Y-30328726D01*
X54177319Y-31072605D01*
X54064409Y-30959498D01*
X53663125Y-30792870D01*
X53228621Y-30792491D01*
X52827047Y-30958418D01*
X52519538Y-31265391D01*
X52352910Y-31666675D01*
X52352531Y-32101179D01*
X52518458Y-32502753D01*
X52825431Y-32810262D01*
X53226715Y-32976890D01*
X53661219Y-32977269D01*
X54062793Y-32811342D01*
X54370302Y-32504369D01*
X54536930Y-32103085D01*
X54537309Y-31668581D01*
X54537309Y-34208581D01*
X54371382Y-33807007D01*
X54064409Y-33499498D01*
X53663125Y-33332870D01*
X53228621Y-33332491D01*
X52827047Y-33498418D01*
X52519538Y-33805391D01*
X52352910Y-34206675D01*
X52352531Y-34641179D01*
X52518458Y-35042753D01*
X52825431Y-35350262D01*
X53226715Y-35516890D01*
X53661219Y-35517269D01*
X54062793Y-35351342D01*
X54370302Y-35044369D01*
X54536930Y-34643085D01*
X54537309Y-34208581D01*
X54537309Y-37248038D01*
X53233639Y-38551708D01*
X53181509Y-38551663D01*
X52934027Y-38653921D01*
X52744516Y-38843102D01*
X52641827Y-39090405D01*
X52641593Y-39358181D01*
X52743851Y-39605663D01*
X52772957Y-39634820D01*
X52489138Y-39918640D01*
X51997309Y-39918640D01*
X51997309Y-34208581D01*
X51997309Y-31668581D01*
X51831382Y-31267007D01*
X51637319Y-31072605D01*
X51637319Y-30328726D01*
X50904920Y-29596327D01*
X50653473Y-29847774D01*
X50653473Y-29344880D01*
X49921074Y-28612481D01*
X49699332Y-28688742D01*
X49644026Y-28866230D01*
X49570508Y-28688742D01*
X49348766Y-28612481D01*
X48616367Y-29344880D01*
X49348766Y-30077279D01*
X49570508Y-30001018D01*
X49625813Y-29823529D01*
X49699332Y-30001018D01*
X49921074Y-30077279D01*
X50653473Y-29344880D01*
X50653473Y-29847774D01*
X50172521Y-30328726D01*
X50248782Y-30550468D01*
X50760086Y-30709791D01*
X51293440Y-30661319D01*
X51561058Y-30550468D01*
X51637319Y-30328726D01*
X51637319Y-31072605D01*
X51524409Y-30959498D01*
X51123125Y-30792870D01*
X50688621Y-30792491D01*
X50287047Y-30958418D01*
X49979538Y-31265391D01*
X49812910Y-31666675D01*
X49812531Y-32101179D01*
X49978458Y-32502753D01*
X50285431Y-32810262D01*
X50686715Y-32976890D01*
X51121219Y-32977269D01*
X51522793Y-32811342D01*
X51830302Y-32504369D01*
X51996930Y-32103085D01*
X51997309Y-31668581D01*
X51997309Y-34208581D01*
X51831382Y-33807007D01*
X51524409Y-33499498D01*
X51123125Y-33332870D01*
X50688621Y-33332491D01*
X50287047Y-33498418D01*
X49979538Y-33805391D01*
X49812910Y-34206675D01*
X49812531Y-34641179D01*
X49978458Y-35042753D01*
X50285431Y-35350262D01*
X50686715Y-35516890D01*
X51121219Y-35517269D01*
X51522793Y-35351342D01*
X51830302Y-35044369D01*
X51996930Y-34643085D01*
X51997309Y-34208581D01*
X51997309Y-39918640D01*
X51427385Y-39918640D01*
X51427380Y-39918639D01*
X51223257Y-39959243D01*
X51050209Y-40074869D01*
X51050206Y-40074872D01*
X50217089Y-40907989D01*
X50101463Y-41081037D01*
X50060860Y-41285160D01*
X50060860Y-45753227D01*
X50101463Y-45957350D01*
X50217089Y-46130398D01*
X50343131Y-46256440D01*
X50264177Y-46446585D01*
X50264130Y-46499747D01*
X49457309Y-47306568D01*
X49457309Y-34208581D01*
X49457309Y-31668581D01*
X49291382Y-31267007D01*
X49097319Y-31072605D01*
X49097319Y-30328726D01*
X48364920Y-29596327D01*
X47632521Y-30328726D01*
X47708782Y-30550468D01*
X48220086Y-30709791D01*
X48753440Y-30661319D01*
X49021058Y-30550468D01*
X49097319Y-30328726D01*
X49097319Y-31072605D01*
X48984409Y-30959498D01*
X48583125Y-30792870D01*
X48148621Y-30792491D01*
X47747047Y-30958418D01*
X47439538Y-31265391D01*
X47272910Y-31666675D01*
X47272531Y-32101179D01*
X47438458Y-32502753D01*
X47745431Y-32810262D01*
X48146715Y-32976890D01*
X48581219Y-32977269D01*
X48982793Y-32811342D01*
X49290302Y-32504369D01*
X49456930Y-32103085D01*
X49457309Y-31668581D01*
X49457309Y-34208581D01*
X49291382Y-33807007D01*
X48984409Y-33499498D01*
X48583125Y-33332870D01*
X48148621Y-33332491D01*
X47747047Y-33498418D01*
X47439538Y-33805391D01*
X47272910Y-34206675D01*
X47272531Y-34641179D01*
X47438458Y-35042753D01*
X47745431Y-35350262D01*
X48146715Y-35516890D01*
X48581219Y-35517269D01*
X48982793Y-35351342D01*
X49290302Y-35044369D01*
X49456930Y-34643085D01*
X49457309Y-34208581D01*
X49457309Y-47306568D01*
X48472398Y-48291480D01*
X47942987Y-48291480D01*
X47822680Y-48170962D01*
X47539114Y-48053215D01*
X47232073Y-48052947D01*
X47111120Y-48102923D01*
X47111120Y-47546880D01*
X47230726Y-47596545D01*
X47537767Y-47596813D01*
X47821538Y-47479561D01*
X48038838Y-47262640D01*
X48156585Y-46979074D01*
X48156853Y-46672033D01*
X48039601Y-46388262D01*
X47926409Y-46274872D01*
X48038838Y-46162640D01*
X48156585Y-45879074D01*
X48156853Y-45572033D01*
X48039601Y-45288262D01*
X47926409Y-45174872D01*
X48038838Y-45062640D01*
X48156585Y-44779074D01*
X48156853Y-44472033D01*
X48039601Y-44188262D01*
X47926409Y-44074872D01*
X48038838Y-43962640D01*
X48156585Y-43679074D01*
X48156853Y-43372033D01*
X48039601Y-43088262D01*
X47822680Y-42870962D01*
X47539114Y-42753215D01*
X47232073Y-42752947D01*
X47111120Y-42802923D01*
X47111120Y-29884623D01*
X47159332Y-30001018D01*
X47381074Y-30077279D01*
X48113473Y-29344880D01*
X47381074Y-28612481D01*
X47159332Y-28688742D01*
X47111120Y-28843465D01*
X47111120Y-27995080D01*
X48343482Y-27995080D01*
X47976400Y-28028441D01*
X47708782Y-28139292D01*
X47632521Y-28361034D01*
X48364920Y-29093433D01*
X49097319Y-28361034D01*
X49021058Y-28139292D01*
X48558248Y-27995080D01*
X50883482Y-27995080D01*
X50516400Y-28028441D01*
X50248782Y-28139292D01*
X50172521Y-28361034D01*
X50904920Y-29093433D01*
X51637319Y-28361034D01*
X51561058Y-28139292D01*
X51098248Y-27995080D01*
X53423482Y-27995080D01*
X53056400Y-28028441D01*
X52788782Y-28139292D01*
X52712521Y-28361034D01*
X53444920Y-29093433D01*
X54177319Y-28361034D01*
X54101058Y-28139292D01*
X53638248Y-27995080D01*
X55963482Y-27995080D01*
X55596400Y-28028441D01*
X55328782Y-28139292D01*
X55252521Y-28361034D01*
X55984920Y-29093433D01*
X56717319Y-28361034D01*
X56641058Y-28139292D01*
X56178248Y-27995080D01*
X60064567Y-27995080D01*
X60051228Y-28047741D01*
X60635240Y-28631753D01*
X60649382Y-28617610D01*
X60760538Y-28728766D01*
X60743807Y-28787217D01*
X60771229Y-29026942D01*
X60649382Y-29148789D01*
X60635240Y-29134647D01*
X60383793Y-29386094D01*
X60383793Y-28883200D01*
X59799781Y-28299188D01*
X59598947Y-28350061D01*
X59473807Y-28787217D01*
X59525485Y-29238984D01*
X59598947Y-29416339D01*
X59799781Y-29467212D01*
X60383793Y-28883200D01*
X60383793Y-29386094D01*
X60051228Y-29718659D01*
X60102101Y-29919493D01*
X60539257Y-30044633D01*
X60991024Y-29992955D01*
X61168379Y-29919493D01*
X61194077Y-29818041D01*
X61207963Y-29831927D01*
X61270240Y-29769650D01*
X61332517Y-29831927D01*
X61346402Y-29818041D01*
X61372101Y-29919493D01*
X61809257Y-30044633D01*
X62261024Y-29992955D01*
X62438379Y-29919493D01*
X62489252Y-29718659D01*
X61905240Y-29134647D01*
X61891097Y-29148789D01*
X61779941Y-29037633D01*
X61796673Y-28979183D01*
X61769250Y-28739457D01*
X61891097Y-28617610D01*
X61905240Y-28631753D01*
X62489252Y-28047741D01*
X62475912Y-27995080D01*
X62996680Y-27995080D01*
X62672320Y-28129103D01*
X62422022Y-28378964D01*
X62286394Y-28705591D01*
X62286352Y-28753534D01*
X62156687Y-28883200D01*
X62286126Y-29012639D01*
X62286086Y-29059257D01*
X62421143Y-29386120D01*
X62671004Y-29636418D01*
X62997631Y-29772046D01*
X63351297Y-29772354D01*
X63678160Y-29637297D01*
X63810251Y-29505436D01*
X63941004Y-29636418D01*
X64267631Y-29772046D01*
X64621297Y-29772354D01*
X64948160Y-29637297D01*
X65080251Y-29505436D01*
X65211004Y-29636418D01*
X65537631Y-29772046D01*
X65891297Y-29772354D01*
X66218160Y-29637297D01*
X66350251Y-29505436D01*
X66481004Y-29636418D01*
X66807631Y-29772046D01*
X67161297Y-29772354D01*
X67488160Y-29637297D01*
X67738458Y-29387436D01*
X67874086Y-29060809D01*
X67874394Y-28707143D01*
X67739337Y-28380280D01*
X67489476Y-28129982D01*
X67164597Y-27995080D01*
X71242720Y-27995080D01*
X71242720Y-56952680D01*
M02*
